<?xml version="1.0" standalone="no"?>
<!DOCTYPE svg PUBLIC "-//W3C//DTD SVG 1.1//EN" "http://www.w3.org/Graphics/SVG/1.1/DTD/svg11.dtd" >
<svg xmlns="http://www.w3.org/2000/svg" xmlns:xlink="http://www.w3.org/1999/xlink" version="1.1">
<metadata>
Created by FontForge 20170731 at Fri Sep 30 19:19:06 2022
 By Aleksey,,,
Copyright 2014 Dalton Maag Ltd. Modification of this file requires prior written permission from Dalton Maag Ltd.
</metadata>
<defs>
<font id="CoHeadline-Bold" horiz-adv-x="1024" >
  <font-face 
    font-family="Co Headline"
    font-weight="700"
    font-stretch="normal"
    units-per-em="2048"
    panose-1="2 11 8 3 6 2 2 2 2 4"
    ascent="1593"
    descent="-455"
    x-height="1044"
    cap-height="1405"
    bbox="-487 -891 3254 2683"
    underline-thickness="120"
    underline-position="-384"
    unicode-range="U+0008-FEFC"
  />
<missing-glyph 
d="M922 0h-820v1536h820v-1536zM205 102h614v1332h-614v-1332z" />
    <glyph glyph-name="f_f" unicode="ff" horiz-adv-x="1576" 
d="M123 0v1077q0 220 108 326t310 106q67 0 125.5 -13.5t101.5 -49t43 -86.5q0 -46 -21 -86.5t-53 -61.5q-71 41 -151 41q-133 0 -133 -163v-46h376v33q0 218 117 325t322 107q173 0 262 -55q69 -38 69 -115q0 -45 -26.5 -84.5t-61.5 -58.5q-25 24 -77.5 40.5t-106.5 16.5
q-80 0 -124 -41.5t-44 -121.5v-46h227q90 0 130 -36t40 -111q0 -47 -14 -92.5t-26 -67.5h-357v-737h-330v737h-376v-737h-330z" />
    <glyph glyph-name="f_i" unicode="fi" horiz-adv-x="1261" 
d="M123 0v1077q0 218 125.5 325t345.5 107q222 0 311 -55q70 -38 70 -115q0 -45 -26.5 -84.5t-61.5 -58.5q-24 24 -96 40.5t-136 16.5q-202 0 -202 -172v-37h516q90 0 130 -36t40 -111v-897h-330v737h-356v-737h-330z" />
    <glyph glyph-name="f_l" unicode="fl" horiz-adv-x="1245" 
d="M123 0v1077q0 218 133.5 325t380.5 107q89 0 172 -9.5t133 -20t97.5 -26t59.5 -21t23 -11.5v-1421h-329v1231q-66 22 -148 22q-192 0 -192 -178v-31h84q90 0 130 -36t40 -111q0 -47 -14 -92t-27 -68h-213v-737h-330z" />
    <glyph glyph-name="f_f_i" unicode="ffi" horiz-adv-x="1968" 
d="M123 0v1077q0 220 108 326t310 106q67 0 125.5 -13.5t101.5 -49t43 -86.5q0 -46 -21 -86.5t-53 -61.5q-71 41 -151 41q-133 0 -133 -163v-46h376v33q0 218 125.5 325t345.5 107q223 0 312 -55q69 -38 69 -115q0 -45 -26.5 -84.5t-61.5 -58.5q-24 24 -95.5 40.5
t-135.5 16.5q-203 0 -203 -172v-37h516q90 0 130 -36t40 -111v-897h-329v737h-357v-737h-330v737h-376v-737h-330z" />
    <glyph glyph-name="f_f_l" unicode="ffl" horiz-adv-x="1939" 
d="M123 0v1077q0 220 108 326t310 106q67 0 125.5 -13.5t101.5 -49t43 -86.5q0 -46 -21 -86.5t-53 -61.5q-71 41 -151 41q-133 0 -133 -163v-46h362v33q0 218 133.5 325t380.5 107q89 0 172 -9t133.5 -20t97.5 -26.5t59.5 -21t23.5 -11.5v-1421h-330v1231q-66 22 -148 22
q-192 0 -192 -178v-31h84q90 0 130 -36t40 -111q0 -47 -14 -92t-27 -68h-213v-737h-330v737h-362v-737h-330z" />
    <glyph glyph-name="uniFEF5" unicode="&#xfedf;&#xfe82;" horiz-adv-x="1349" arabic-form="isolated" 
d="M1233 0h-1161v287h229v499q0 156 170 156q77 0 156 -35v-620h282v1169q0 83 43 119.5t125 36.5q77 0 156 -35v-1577zM326 1266q49 0 131.5 -39t103.5 -39q30 0 41.5 19.5t11.5 58.5h127q0 -109 -45 -159t-114 -50q-43 0 -125 38t-111 38q-31 0 -43 -19t-12 -57h-123
q0 107 45.5 158t112.5 51z" />
    <glyph glyph-name="uniFEF6" unicode="&#xfee0;&#xfe82;" horiz-adv-x="1503" arabic-form="final" 
d="M1235 1577v-1081q0 -109 29 -159t120 -50h150v-287h-205q-180 0 -252 115q-72 -115 -262 -115h-743v287h231v499q0 83 43 119.5t125 36.5q79 0 158 -35v-620h133q47 0 77 13.5t45 43.5t20 64t5 88v960q0 156 170 156q77 0 156 -35zM356 1264q49 0 132 -39t104 -39
q30 0 41.5 19.5t11.5 58.5h127q0 -109 -45.5 -159t-114.5 -50q-43 0 -124.5 37.5t-110.5 37.5q-31 0 -43 -18.5t-12 -56.5h-123q0 108 45 158.5t112 50.5z" />
    <glyph glyph-name="uniFEF7" unicode="&#xfedf;&#xfe84;" horiz-adv-x="1349" arabic-form="isolated" 
d="M1233 0h-1161v287h229v499q0 156 170 156q77 0 156 -35v-620h282v1169q0 83 43 119.5t125 36.5q77 0 156 -35v-1577zM236 1055v106h104q-37 37 -37 99q0 75 53.5 118t130.5 43q60 0 99 -17.5t39 -51.5q0 -33 -35 -60q-50 25 -86 25q-37 0 -58.5 -17.5t-21.5 -48.5
q0 -45 31 -67.5t77 -22.5h111v-106h-407z" />
    <glyph glyph-name="uniFEF8" unicode="&#xfee0;&#xfe84;" horiz-adv-x="1503" arabic-form="final" 
d="M1235 1577v-1081q0 -109 29 -159t120 -50h150v-287h-205q-180 0 -252 115q-72 -115 -262 -115h-743v287h231v499q0 83 43 119.5t125 36.5q79 0 158 -35v-620h133q47 0 77 13.5t45 43.5t20 64t5 88v960q0 156 170 156q77 0 156 -35zM236 1055v106h104q-37 37 -37 99
q0 75 53.5 118t130.5 43q60 0 99 -17.5t39 -51.5q0 -33 -35 -60q-50 25 -86 25q-37 0 -58.5 -17.5t-21.5 -48.5q0 -45 31 -67.5t77 -22.5h111v-106h-407z" />
    <glyph glyph-name="uniFEF9" unicode="&#xfedf;&#xfe88;" horiz-adv-x="1349" arabic-form="isolated" 
d="M1233 0h-1161v287h229v499q0 156 170 156q77 0 156 -35v-620h282v1169q0 83 43 119.5t125 36.5q77 0 156 -35v-1577zM236 -492v107h104q-37 37 -37 98q0 75 53.5 118.5t130.5 43.5q60 0 99 -18t39 -52q0 -32 -35 -59q-50 25 -86 25q-37 0 -58.5 -17.5t-21.5 -48.5
q0 -45 31 -67.5t77 -22.5h111v-107h-407z" />
    <glyph glyph-name="uniFEFA" unicode="&#xfee0;&#xfe88;" horiz-adv-x="1503" arabic-form="final" 
d="M1235 1577v-1081q0 -109 29 -159t120 -50h150v-287h-205q-180 0 -252 115q-72 -115 -262 -115h-743v287h231v499q0 83 43 119.5t125 36.5q79 0 158 -35v-620h133q47 0 77 13.5t45 43.5t20 64t5 88v960q0 156 170 156q77 0 156 -35zM266 -492v107h105q-37 37 -37 98
q0 75 53.5 118.5t130.5 43.5q60 0 98.5 -18t38.5 -52q0 -32 -34 -59q-50 25 -86 25q-37 0 -58.5 -17.5t-21.5 -48.5q0 -45 31 -67.5t77 -22.5h111v-107h-408z" />
    <glyph glyph-name="uniFEFB" unicode="&#xfedf;&#xfe8e;" horiz-adv-x="1349" arabic-form="isolated" 
d="M1233 0h-1161v287h229v499q0 156 170 156q77 0 156 -35v-620h282v1169q0 83 43 119.5t125 36.5q77 0 156 -35v-1577z" />
    <glyph glyph-name="uniFEFC" unicode="&#xfee0;&#xfe8e;" horiz-adv-x="1503" arabic-form="final" 
d="M1235 1577v-1081q0 -109 29 -159t120 -50h150v-287h-205q-180 0 -252 115q-72 -115 -262 -115h-743v287h231v499q0 83 43 119.5t125 36.5q79 0 158 -35v-620h133q47 0 77 13.5t45 43.5t20 64t5 88v960q0 156 170 156q77 0 156 -35z" />
    <glyph glyph-name="uni06440671" unicode="&#xfedf;&#xfb51;" horiz-adv-x="1349" 
d="M1233 0h-1161v287h229v499q0 156 170 156q77 0 156 -35v-620h282v1169q0 83 43 119.5t125 36.5q77 0 156 -35v-1577zM160 1178h76q17 101 93.5 162t170.5 61q99 0 158 -49t59 -156v-141h-557v123zM496 1276q-50 0 -86.5 -28t-44.5 -70h221v14q0 84 -90 84z" />
    <glyph glyph-name="uni06440671.fina" unicode="&#xfee0;&#xfb51;" horiz-adv-x="1503" 
d="M1235 1577v-1081q0 -109 29 -159t120 -50h150v-287h-205q-180 0 -252 115q-72 -115 -262 -115h-743v287h231v499q0 83 43 119.5t125 36.5q79 0 158 -35v-620h133q47 0 77 13.5t45 43.5t20 64t5 88v960q0 156 170 156q77 0 156 -35zM193 1178h75q17 101 93.5 162t170.5 61
q99 0 158.5 -49t59.5 -156v-141h-557v123zM528 1276q-50 0 -86.5 -28t-44.5 -70h221v14q0 84 -90 84z" />
    <glyph glyph-name="uniFEDBFE8E" unicode="&#xfedb;&#xfe8e;" horiz-adv-x="1513" 
d="M442 287h619v43q0 187 -106.5 282t-286.5 95q-154 0 -226 -29v-391zM1438 1499l-572 -553q247 -33 389 -195t142 -444v-307h-1280v1456q0 83 43 119.5t125 36.5q78 0 157 -35v-649l537 559q68 68 124 96.5t126 28.5q130 0 209 -113z" />
    <glyph glyph-name="uniFEDCFE8E" unicode="&#xfedc;&#xfe8e;" horiz-adv-x="1570" 
d="M442 287h619v43q0 187 -106.5 282t-286.5 95q-154 0 -226 -29v-391zM1438 1499l-572 -553q247 -33 389 -195t142 -444v-20h205v-287h-1485v1456q0 83 43 119.5t125 36.5q78 0 157 -35v-649l537 559q68 68 124 96.5t126 28.5q130 0 209 -113z" />
    <glyph glyph-name="uniFEDBFE82" unicode="&#xfedb;&#xfe82;" horiz-adv-x="1513" 
d="M440 287h619v43q0 187 -106.5 282t-286.5 95q-154 0 -226 -29v-391zM1436 1499l-572 -553q247 -33 389 -195t142 -444v-307h-1280v1456q0 83 43 119.5t125 36.5q78 0 157 -35v-649l537 559q68 68 124 96.5t126 28.5q130 0 209 -113zM162 1933q49 0 131.5 -39t103.5 -39
q30 0 42 20t12 58h127q0 -109 -45.5 -159t-114.5 -50q-43 0 -125 38t-111 38q-31 0 -43 -19t-12 -57h-123q0 107 45.5 158t112.5 51z" />
    <glyph glyph-name="uniFEDCFE82" unicode="&#xfedc;&#xfe82;" horiz-adv-x="1570" 
d="M440 287h619v43q0 187 -106.5 282t-286.5 95q-154 0 -226 -29v-391zM1436 1499l-572 -553q247 -33 389 -195t142 -444v-20h204v-287h-1484v1456q0 83 43 119.5t125 36.5q78 0 157 -35v-649l537 559q68 68 124 96.5t126 28.5q130 0 209 -113zM162 1933q49 0 131.5 -39
t103.5 -39q30 0 42 20t12 58h127q0 -109 -45.5 -159t-114.5 -50q-43 0 -125 38t-111 38q-31 0 -43 -19t-12 -57h-123q0 107 45.5 158t112.5 51z" />
    <glyph glyph-name="uniFEDBFE84" unicode="&#xfedb;&#xfe84;" horiz-adv-x="1513" 
d="M442 287h619v43q0 187 -106.5 282t-286.5 95q-154 0 -226 -29v-391zM1438 1499l-572 -553q247 -33 389 -195t142 -444v-307h-1280v1456q0 83 43 119.5t125 36.5q78 0 157 -35v-649l537 559q68 68 124 96.5t126 28.5q130 0 209 -113zM70 1724v107h104q-37 37 -37 98
q0 75 54 118.5t131 43.5q60 0 98.5 -18t38.5 -52q0 -32 -35 -59q-50 25 -86 25q-37 0 -58.5 -17.5t-21.5 -48.5q0 -45 31.5 -67.5t77.5 -22.5h110v-107h-407z" />
    <glyph glyph-name="uniFEDCFE84" unicode="&#xfedc;&#xfe84;" horiz-adv-x="1570" 
d="M442 287h619v43q0 187 -106.5 282t-286.5 95q-154 0 -226 -29v-391zM1438 1499l-572 -553q247 -33 389 -195t142 -444v-20h205v-287h-1485v1456q0 83 43 119.5t125 36.5q78 0 157 -35v-649l537 559q68 68 124 96.5t126 28.5q130 0 209 -113zM70 1724v107h104
q-37 37 -37 98q0 75 54 118.5t131 43.5q60 0 98.5 -18t38.5 -52q0 -32 -35 -59q-50 25 -86 25q-37 0 -58.5 -17.5t-21.5 -48.5q0 -45 31.5 -67.5t77.5 -22.5h110v-107h-407z" />
    <glyph glyph-name="uniFEDBFE88" unicode="&#xfedb;&#xfe88;" horiz-adv-x="1513" 
d="M442 287h619v43q0 187 -106.5 282t-286.5 95q-154 0 -226 -29v-391zM1438 1499l-572 -553q247 -33 389 -195t142 -444v-307h-1280v1456q0 83 43 119.5t125 36.5q78 0 157 -35v-649l537 559q68 68 124 96.5t126 28.5q130 0 209 -113zM158 -489v106h104q-37 37 -37 98
q0 75 54 118.5t131 43.5q60 0 98.5 -18t38.5 -52q0 -32 -35 -59q-50 25 -86 25q-37 0 -58.5 -17.5t-21.5 -48.5q0 -45 31.5 -67.5t77.5 -22.5h110v-106h-407z" />
    <glyph glyph-name="uniFEDCFE88" unicode="&#xfedc;&#xfe88;" horiz-adv-x="1570" 
d="M442 287h619v43q0 187 -106.5 282t-286.5 95q-154 0 -226 -29v-391zM1438 1499l-572 -553q247 -33 389 -195t142 -444v-20h205v-287h-1485v1456q0 83 43 119.5t125 36.5q78 0 157 -35v-649l537 559q68 68 124 96.5t126 28.5q130 0 209 -113zM158 -489v106h104
q-37 37 -37 98q0 75 54 118.5t131 43.5q60 0 98.5 -18t38.5 -52q0 -32 -35 -59q-50 25 -86 25q-37 0 -58.5 -17.5t-21.5 -48.5q0 -45 31.5 -67.5t77.5 -22.5h110v-106h-407z" />
    <glyph glyph-name="uniFEDBFB51" unicode="&#xfedb;&#xfb51;" horiz-adv-x="1513" 
d="M442 287h619v43q0 187 -106.5 282t-286.5 95q-154 0 -226 -29v-391zM1438 1499l-572 -553q247 -33 389 -195t142 -444v-307h-1280v1456q0 83 43 119.5t125 36.5q78 0 157 -35v-649l537 559q68 68 124 96.5t126 28.5q130 0 209 -113zM-2 1845h76q17 101 93.5 162t170.5 61
q99 0 158 -48.5t59 -155.5v-142h-557v123zM334 1944q-50 0 -86.5 -28.5t-44.5 -70.5h221v15q0 84 -90 84z" />
    <glyph glyph-name="uniFEDCFB51" unicode="&#xfedc;&#xfb51;" horiz-adv-x="1570" 
d="M442 287h619v43q0 187 -106.5 282t-286.5 95q-154 0 -226 -29v-391zM1438 1499l-572 -553q247 -33 389 -195t142 -444v-20h205v-287h-1485v1456q0 83 43 119.5t125 36.5q78 0 157 -35v-649l537 559q68 68 124 96.5t126 28.5q130 0 209 -113zM-2 1845h76q17 101 93.5 162
t170.5 61q99 0 158 -48.5t59 -155.5v-142h-557v123zM334 1944q-50 0 -86.5 -28.5t-44.5 -70.5h221v15q0 84 -90 84z" />
    <glyph glyph-name="uniFEDBFEDE" unicode="&#xfedb;&#xfede;" horiz-adv-x="2418" 
d="M1348 1577v-649l536 559q68 68 124 96.5t126 28.5q130 0 209 -113l-571 -553q247 -33 388.5 -195t141.5 -444v-307h-770q-69 0 -112 12.5t-83 46.5q-18 -140 -76 -246.5t-144.5 -169.5t-188.5 -93.5t-219 -30.5q-101 0 -190.5 22.5t-168 72t-135 122.5t-89 181t-32.5 241
t24.5 210t69 105.5t117.5 28.5q52 0 95 -19t63 -37q-37 -154 -37 -276q0 -178 76 -266t215 -88q305 0 305 377v1263q0 83 43 119.5t125 36.5q79 0 158 -35zM1497 287h469v43q0 187 -106.5 282t-286.5 95q-153 0 -225 -29v-193q0 -52 5 -84.5t20 -60.5t45.5 -40.5t78.5 -12.5
z" />
    <glyph glyph-name="uniFEDCFEDE" unicode="&#xfedc;&#xfede;" horiz-adv-x="2476" 
d="M1497 287h469v43q0 187 -106.5 282t-286.5 95q-153 0 -225 -29v-193q0 -52 5 -84.5t20 -60.5t45.5 -40.5t78.5 -12.5zM1348 1577v-649l536 559q68 68 124 96.5t126 28.5q130 0 209 -113l-571 -553q247 -33 388.5 -195t141.5 -444v-20h205v-287h-975q-69 0 -112 12.5
t-83 46.5q-18 -140 -76 -246.5t-144.5 -169.5t-188.5 -93.5t-219 -30.5q-101 0 -190.5 22.5t-168 72t-135 122.5t-89 181t-32.5 241t24.5 210t69 105.5t117.5 28.5q52 0 95 -19t63 -37q-37 -154 -37 -276q0 -178 76 -266t215 -88q305 0 305 377v1263q0 83 43 119.5t125 36.5
q79 0 158 -35z" />
    <glyph glyph-name="uniFEDBFEE0" unicode="&#xfedb;&#xfee0;" horiz-adv-x="1665" 
d="M594 1577v-649l536 559q68 68 124 96.5t126 28.5q130 0 209 -113l-571 -553q247 -33 388.5 -195t141.5 -444v-307h-860q-182 0 -254 115q-72 -115 -262 -115h-203v287h150q91 0 120 50t29 159v960q0 83 43 119.5t125 36.5q79 0 158 -35zM743 287h469v43q0 187 -106.5 282
t-286.5 95q-153 0 -225 -29v-193q0 -52 5 -84.5t20 -60.5t45.5 -40.5t78.5 -12.5z" />
    <glyph glyph-name="uniFEDCFEE0" unicode="&#xfedc;&#xfee0;" horiz-adv-x="1722" 
d="M743 287h469v43q0 187 -106.5 282t-286.5 95q-153 0 -225 -29v-193q0 -52 5 -84.5t20 -60.5t45.5 -40.5t78.5 -12.5zM1589 1499l-571 -553q247 -33 388.5 -195t141.5 -444v-20h205v-287h-1065q-182 0 -254 115q-72 -115 -262 -115h-203v287h150q91 0 120 50t29 159v960
q0 83 43 119.5t125 36.5q79 0 158 -35v-649l536 559q68 68 124 96.5t126 28.5q130 0 209 -113z" />
    <glyph glyph-name="uni06C2.fina" unicode="&#x6c2;" horiz-adv-x="899" 
d="M741 287h189v-287h-371q-23 58 -41.5 98.5t-47 87t-57 74.5t-67.5 47t-84 19q-58 0 -106 -23l-7 7t-10 9.5t-11.5 12t-13 15t-13 17t-12.5 19.5t-10.5 21t-9 23t-6 24t-2.5 26q0 69 56.5 104t148.5 35q67 0 120.5 -12.5t114 -46t120.5 -101t120 -169.5zM262 702v107h105
q-37 37 -37 98q0 75 53.5 118.5t130.5 43.5q60 0 98.5 -18t38.5 -52q0 -32 -35 -59q-50 25 -86 25q-37 0 -58 -17.5t-21 -48.5q0 -45 31 -67.5t77 -22.5h111v-107h-408z" />
    <glyph glyph-name="uni06C3.fina" unicode="&#x6c3;" horiz-adv-x="899" 
d="M741 287h189v-287h-371q-23 58 -41.5 98.5t-47 87t-57 74.5t-67.5 47t-84 19q-58 0 -106 -23l-7 7t-10 9.5t-11.5 12t-13 15t-13 17t-12.5 19.5t-10.5 21t-9 23t-6 24t-2.5 26q0 69 56.5 104t148.5 35q67 0 120.5 -12.5t114 -46t120.5 -101t120 -169.5zM492 848
q0 64 43 107.5t108 43.5q66 0 111 -44t45 -107q0 -66 -45 -111t-111 -45t-108.5 44.5t-42.5 111.5zM109 848q0 64 43.5 107.5t109.5 43.5t110 -44t44 -107q0 -66 -44 -111t-110 -45t-109.5 45t-43.5 111z" />
    <glyph glyph-name="uni06D5.fina" unicode="&#x6d5;" horiz-adv-x="1325" 
d="M731 944h336v-471q0 -101 25.5 -143.5t111.5 -42.5h152v-287h-205q-173 0 -248 111q-151 -131 -342 -131q-122 0 -218 36.5t-155 100.5t-89.5 146.5t-30.5 178.5q0 82 18.5 152.5t66 136.5t121 112t190 73.5t267.5 27.5zM399 444q0 -71 48.5 -110t113.5 -39
q77 0 126.5 41.5t49.5 142.5v174h-71q-79 0 -134 -17t-83 -48.5t-39 -65.5t-11 -78z" />
    <glyph glyph-name="uniFB50" unicode="&#x671;" horiz-adv-x="559" arabic-form="isolated" 
d="M442 0h-325v1456q0 156 170 156q76 0 155 -35v-1577zM2 1845h76q17 101 93.5 162t170.5 61q99 0 158 -48.5t59 -155.5v-142h-557v123zM338 1944q-50 0 -86.5 -28.5t-44.5 -70.5h221v15q0 84 -90 84z" />
    <glyph glyph-name="uniFB51" unicode="&#x671;" horiz-adv-x="677" arabic-form="final" 
d="M709 0h-592v1456q0 83 43 119.5t125 36.5q77 0 157 -35v-1290h267v-287zM6 1845h76q17 101 93.5 162t170.5 61q99 0 158 -48.5t59 -155.5v-142h-557v123zM342 1944q-50 0 -86.5 -28.5t-44.5 -70.5h221v15q0 84 -90 84z" />
    <glyph glyph-name="uniFB56" unicode="&#x67e;" horiz-adv-x="1810" arabic-form="isolated" 
d="M420 713q-21 -93 -21 -172q0 -254 346 -254h623v499q0 156 170 156q59 0 156 -33v-909h-1012q-277 0 -442.5 148t-165.5 374q0 128 43.5 184t138.5 56q88 0 164 -49zM991 -258q0 66 43 111t109 45t110.5 -45t44.5 -111q0 -63 -44.5 -107.5t-110.5 -44.5q-65 0 -108.5 44
t-43.5 108zM608 -258q0 66 44 111t110 45t109.5 -45t43.5 -111q0 -64 -44 -108t-109 -44q-66 0 -110 44t-44 108zM803 -569q0 66 43.5 110.5t109.5 44.5t110 -44.5t44 -110.5q0 -63 -44 -107.5t-110 -44.5q-65 0 -109 44t-44 108z" />
    <glyph glyph-name="uniFB57" unicode="&#x67e;" horiz-adv-x="1929" arabic-form="final" 
d="M422 721q-25 -96 -25 -180q0 -121 85 -187.5t263 -66.5h623v499q0 83 43 119.5t125 36.5q57 0 158 -33v-622h266v-287h-1280q-277 0 -442.5 148t-165.5 374q0 127 44 183.5t138 56.5q81 0 168 -41zM993 -258q0 66 43 111t109 45t110.5 -45t44.5 -111q0 -63 -44.5 -107.5
t-110.5 -44.5q-65 0 -108.5 44t-43.5 108zM610 -258q0 66 44 111t110 45t110 -45t44 -111q0 -64 -44 -108t-110 -44t-110 44t-44 108zM805 -569q0 66 43.5 110.5t109.5 44.5t110 -44.5t44 -110.5q0 -63 -44 -107.5t-110 -44.5q-65 0 -109 44t-44 108z" />
    <glyph glyph-name="uniFB58" unicode="&#x67e;" horiz-adv-x="747" arabic-form="initial" 
d="M-31 287h267v506q0 149 167 149q59 0 158 -33v-909h-592v287zM416 -258q0 67 42.5 111.5t108.5 44.5t111 -45t45 -111q0 -63 -45 -107.5t-111 -44.5q-65 0 -108 44t-43 108zM33 -258q0 66 43.5 111t109.5 45t110 -45t44 -111q0 -64 -44 -108t-110 -44q-65 0 -109 44
t-44 108zM227 -569q0 66 44 110.5t110 44.5t110 -44.5t44 -110.5q0 -63 -44.5 -107.5t-109.5 -44.5t-109.5 44.5t-44.5 107.5z" />
    <glyph glyph-name="uniFB59" unicode="&#x67e;" horiz-adv-x="860" arabic-form="medial" 
d="M592 909v-424q0 -52 5 -84.5t20 -60.5t45.5 -40.5t78.5 -12.5h150v-287h-205q-178 0 -250 115q-72 -115 -262 -115h-205v287h150q48 0 78.5 12.5t45.5 40.5t20 60.5t5 84.5v308q0 79 42.5 114t123.5 35q84 0 158 -33zM471 -258q0 66 43 111t109 45t110.5 -45t44.5 -111
q0 -63 -44.5 -107.5t-110.5 -44.5q-65 0 -108.5 44t-43.5 108zM88 -258q0 66 44 111t110 45t109.5 -45t43.5 -111q0 -64 -44 -108t-109 -44q-66 0 -110 44t-44 108zM283 -569q0 66 43.5 110.5t109.5 44.5t110 -44.5t44 -110.5q0 -63 -44 -107.5t-110 -44.5q-65 0 -109 44
t-44 108z" />
    <glyph glyph-name="uniFB66" unicode="&#x679;" horiz-adv-x="1808" arabic-form="isolated" 
d="M418 713q-21 -93 -21 -172q0 -254 346 -254h623v499q0 156 170 156q59 0 156 -33v-909h-1012q-277 0 -442.5 148t-165.5 374q0 128 43.5 184t138.5 56q88 0 164 -49zM676 911v291q0 62 67 62q19 0 39 -6t25 -11v-170q16 21 57 39.5t90 18.5q87 0 145 -49t58 -156v-142
h-557v123h76zM936 1010q-50 0 -86.5 -28.5t-44.5 -70.5h221v15q0 84 -90 84z" />
    <glyph glyph-name="uniFB67" unicode="&#x679;" horiz-adv-x="1929" arabic-form="final" 
d="M422 721q-25 -96 -25 -180q0 -121 85 -187.5t263 -66.5h623v499q0 83 43 119.5t125 36.5q57 0 158 -33v-622h266v-287h-1280q-277 0 -442.5 148t-165.5 374q0 127 44 183.5t138 56.5q81 0 168 -41zM686 911v291q0 62 68 62q19 0 38.5 -6t24.5 -11v-170q16 21 57.5 39.5
t90.5 18.5q86 0 144 -49t58 -156v-142h-557v123h76zM946 1010q-50 0 -86.5 -28.5t-44.5 -70.5h221v15q0 84 -90 84z" />
    <glyph glyph-name="uniFB68" unicode="&#x679;" horiz-adv-x="677" arabic-form="initial" 
d="M-31 287h267v506q0 149 167 149q59 0 158 -33v-909h-592v287zM154 1178v290q0 62 67 62q19 0 39 -6t25 -11v-170q16 21 57 39.5t90 18.5q87 0 145 -49t58 -156v-141h-557v123h76zM414 1276q-50 0 -86.5 -28t-44.5 -70h221v14q0 84 -90 84z" />
    <glyph glyph-name="uniFB69" unicode="&#x679;" horiz-adv-x="860" arabic-form="medial" 
d="M592 909v-424q0 -52 5 -84.5t20 -60.5t45.5 -40.5t78.5 -12.5h150v-287h-205q-178 0 -250 115q-72 -115 -262 -115h-205v287h150q48 0 78.5 12.5t45.5 40.5t20 60.5t5 84.5v308q0 79 42.5 114t123.5 35q84 0 158 -33zM215 1178v290q0 62 68 62q19 0 38.5 -6t24.5 -11
v-170q16 21 57.5 39.5t90.5 18.5q86 0 144 -49t58 -156v-141h-557v123h76zM475 1276q-50 0 -86.5 -28t-44.5 -70h221v14q0 84 -90 84z" />
    <glyph glyph-name="uniFB6A" unicode="&#x6a4;" horiz-adv-x="2142" arabic-form="isolated" 
d="M745 287h328q-22 43 -37.5 102t-15.5 100q0 139 70 248.5t186 167.5t254 58q234 0 372 -139t138 -380v-444h-1358q-280 0 -445 144t-165 374q0 131 42 187.5t152 56.5q76 0 156 -49q-25 -87 -25 -174q0 -252 348 -252zM1530 287h186v121q0 55 -6 96.5t-24 84t-57 66
t-97 23.5q-90 0 -139.5 -54t-49.5 -141q0 -82 54.5 -139t132.5 -57zM1186 1190q0 64 44 107.5t109 43.5q66 0 110 -44t44 -107q0 -66 -44 -111t-110 -45t-109.5 45t-43.5 111zM1569 1190q0 64 43 107.5t108 43.5q66 0 111 -44t45 -107q0 -66 -45 -111t-111 -45t-108.5 44.5
t-42.5 111.5zM1376 1501q0 63 44 107.5t110 44.5q65 0 109 -44t44 -108q0 -66 -43.5 -110.5t-109.5 -44.5t-110 44.5t-44 110.5z" />
    <glyph glyph-name="uniFB6B" unicode="&#x6a4;" horiz-adv-x="2240" arabic-form="final" 
d="M743 287h328q-21 42 -36 101.5t-15 100.5q0 138 70.5 248t186 168t251.5 58q234 0 372 -139t138 -380v-157h233v-287h-1591q-279 0 -443.5 144.5t-164.5 373.5q0 132 41.5 188t150.5 56q78 0 158 -49q-25 -87 -25 -174q0 -252 346 -252zM1528 287h186v121q0 43 -3 76.5
t-14.5 71.5t-30.5 63.5t-53 42t-81 16.5q-90 0 -139.5 -54t-49.5 -141q0 -84 53.5 -140t131.5 -56zM1188 1190q0 64 44 107.5t109 43.5q66 0 110 -44t44 -107q0 -66 -44 -111t-110 -45t-109.5 45t-43.5 111zM1571 1190q0 64 43 107.5t108 43.5q66 0 111 -44t45 -107
q0 -66 -45 -111t-111 -45t-108.5 44.5t-42.5 111.5zM1378 1501q0 63 44 107.5t110 44.5t110 -44.5t44 -107.5q0 -66 -44 -110.5t-110 -44.5t-110 44.5t-44 110.5z" />
    <glyph glyph-name="uniFB6C" unicode="&#x6a4;" horiz-adv-x="1302" arabic-form="initial" 
d="M-31 0v287h267q-22 43 -38 102t-16 100q0 138 70.5 248t186 168t251.5 58q236 0 373 -137t137 -382v-444h-1231zM690 287h187v121q0 46 -3 80.5t-14 72.5t-30.5 61.5t-54 39.5t-81.5 16q-90 0 -139 -54t-49 -141q0 -84 53 -140t131 -56zM354 1190q0 63 44 107t110 44
t110 -44t44 -107q0 -66 -44 -111t-110 -45t-110 45t-44 111zM737 1190q0 64 43.5 107.5t108.5 43.5q66 0 110.5 -44t44.5 -107q0 -66 -44.5 -111t-110.5 -45t-109 45t-43 111zM545 1501q0 64 44 108t109 44q66 0 110 -44.5t44 -107.5q0 -66 -44 -110.5t-110 -44.5
t-109.5 44.5t-43.5 110.5z" />
    <glyph glyph-name="uniFB6D" unicode="&#x6a4;" horiz-adv-x="1396" arabic-form="medial" 
d="M698 287q82 0 138.5 56t56.5 140t-56.5 141.5t-138.5 57.5t-138 -57t-56 -142q0 -84 56 -140t138 -56zM1427 287v-287h-1458v287h264q-21 42 -36 101.5t-15 100.5q0 96 37.5 182t103.5 151t163.5 103t211.5 38t211.5 -38t163.5 -103t103.5 -151t37.5 -182
q0 -49 -14 -107.5t-39 -94.5h266zM356 1190q0 63 44 107t110 44t110 -44t44 -107q0 -66 -44 -111t-110 -45t-110 45t-44 111zM739 1190q0 64 43.5 107.5t108.5 43.5q66 0 111 -44t45 -107q0 -66 -45 -111t-111 -45t-109 45t-43 111zM547 1501q0 64 44 108t109 44
q66 0 110 -44.5t44 -107.5q0 -66 -44 -110.5t-110 -44.5t-109.5 44.5t-43.5 110.5z" />
    <glyph glyph-name="uniFB7A" unicode="&#x686;" horiz-adv-x="1370" arabic-form="isolated" 
d="M741 377q-125 160 -210 217t-177 57q-56 0 -110 -20q-70 70 -70 155q0 79 60.5 121.5t177.5 42.5q75 0 143 -19t127.5 -56.5t105.5 -77t99 -95.5q107 -119 188 -232.5t205 -313.5q-38 -50 -112.5 -85.5t-129.5 -35.5q-46 0 -72.5 21t-54.5 65h-22q-83 0 -157 -13
t-140 -41.5t-114 -71t-75.5 -105t-27.5 -140.5q0 -136 90 -220.5t240 -84.5q72 0 151.5 17t134.5 44l121 -251q-206 -99 -434 -99q-290 0 -468.5 155t-178.5 415q0 126 36.5 229.5t100.5 175.5t155 124t194 81t224 41zM768 -168q0 38 26 66t66 28q38 0 66 -28.5t28 -65.5
q0 -38 -28 -66t-66 -28q-40 0 -66 27.5t-26 66.5zM637 -381q0 37 27 65.5t65 28.5t66 -28.5t28 -65.5q0 -41 -27.5 -67.5t-66.5 -26.5t-65.5 26.5t-26.5 67.5zM500 -168q0 38 27 66t67 28q37 0 65.5 -28.5t28.5 -65.5q0 -38 -28.5 -66t-65.5 -28q-41 0 -67.5 27.5
t-26.5 66.5z" />
    <glyph glyph-name="uniFB7B" unicode="&#x686;" horiz-adv-x="1343" arabic-form="final" 
d="M1374 0h-252q-62 0 -105 17t-81 69l-25 35h-22q-83 0 -157 -13t-140 -41.5t-114 -71t-75.5 -105t-27.5 -140.5q0 -136 90 -220.5t240 -84.5q72 0 151.5 17t134.5 44l121 -251q-206 -99 -434 -99q-290 0 -468.5 155t-178.5 415q0 126 36.5 229.5t100.5 175.5t155 124
t194 81t224 41q-130 166 -209.5 220t-177.5 54q-56 0 -110 -20q-70 70 -70 147q0 85 60.5 128.5t177.5 43.5q143 0 257 -66.5t220 -181.5q108 -118 303 -415h182v-287zM776 -168q0 38 26 66t66 28q38 0 66.5 -28.5t28.5 -65.5q0 -38 -28.5 -66t-66.5 -28q-40 0 -66 27.5
t-26 66.5zM645 -381q0 37 27 65.5t65 28.5t66 -28.5t28 -65.5q0 -41 -27.5 -67.5t-66.5 -26.5t-65.5 26.5t-26.5 67.5zM508 -168q0 38 27 66t67 28q37 0 65.5 -28.5t28.5 -65.5q0 -38 -28.5 -66t-65.5 -28q-41 0 -67.5 27.5t-26.5 66.5z" />
    <glyph glyph-name="uniFB7C" unicode="&#x686;" horiz-adv-x="1179" arabic-form="initial" 
d="M-31 0v287h713q-75 113 -139 187.5t-118 112t-97.5 51t-94.5 13.5q-56 0 -110 -20q-70 70 -70 147q0 85 60.5 128.5t177.5 43.5q143 0 257 -66.5t220 -181.5q77 -85 170.5 -219.5t148.5 -226.5v-256h-1118zM600 -258q0 66 43 111t109 45t110.5 -45t44.5 -111
q0 -63 -44.5 -107.5t-110.5 -44.5q-65 0 -108.5 44t-43.5 108zM217 -258q0 66 44 111t110 45t109.5 -45t43.5 -111q0 -64 -44 -108t-109 -44t-109.5 44t-44.5 108zM412 -569q0 66 43.5 110.5t109.5 44.5t110 -44.5t44 -110.5q0 -63 -44.5 -107.5t-109.5 -44.5t-109 44
t-44 108z" />
    <glyph glyph-name="uniFB7D" unicode="&#x686;" horiz-adv-x="1224" arabic-form="medial" 
d="M1255 287v-287h-1286v287h713q-75 113 -139 187.5t-118 112t-97.5 51t-94.5 13.5q-56 0 -110 -20q-70 70 -70 147q0 85 60.5 128.5t177.5 43.5q143 0 257 -66.5t220 -181.5q23 -25 47.5 -55.5t51.5 -67t47 -63.5t49 -69.5t40.5 -59t39 -58t28.5 -42.5h184zM600 -258
q0 66 43 111t109 45t110.5 -45t44.5 -111q0 -63 -44.5 -107.5t-110.5 -44.5q-65 0 -108.5 44t-43.5 108zM217 -258q0 66 44 111t110 45t109.5 -45t43.5 -111q0 -64 -44 -108t-109 -44t-109.5 44t-44.5 108zM412 -569q0 66 43.5 110.5t109.5 44.5t110 -44.5t44 -110.5
q0 -63 -44.5 -107.5t-109.5 -44.5t-109 44t-44 108z" />
    <glyph glyph-name="uniFB88" unicode="&#x688;" horiz-adv-x="1239" arabic-form="isolated" 
d="M498 963q132 0 245.5 -41t202.5 -121t140 -211.5t51 -300.5v-289h-1051v287h707q0 192 -87.5 281t-236.5 89q-107 0 -201 -30q-21 15 -50.5 62.5t-29.5 101.5q0 52 33 88.5t86 53t99 23.5t92 7zM453 1178v290q0 62 67 62q19 0 39 -6t25 -11v-170q16 21 57 39.5t90 18.5
q87 0 145 -49t58 -156v-141h-557v123h76zM713 1276q-50 0 -86.5 -28t-44.5 -70h221v14q0 84 -90 84z" />
    <glyph glyph-name="uniFB89" unicode="&#x688;" horiz-adv-x="1308" arabic-form="final" 
d="M1339 0h-1253v287h705q0 192 -87.5 281t-236.5 89q-107 0 -201 -30q-20 14 -49 62t-29 102q0 52 33 88.5t86 53t99 23.5t92 7q104 0 197.5 -25t175 -79t140.5 -132t92.5 -190.5t33.5 -249.5h202v-287zM453 1178v290q0 62 67 62q19 0 39 -6t25 -11v-170q16 21 57 39.5
t90 18.5q87 0 145 -49t58 -156v-141h-557v123h76zM713 1276q-50 0 -86.5 -28t-44.5 -70h221v14q0 84 -90 84z" />
    <glyph glyph-name="uniFB8A" unicode="&#x698;" horiz-adv-x="917" arabic-form="isolated" 
d="M406 -68v856q0 154 178 154q30 0 57.5 -5.5t55 -14.5t34.5 -11v-948q0 -100 -23.5 -178t-63 -128t-96 -82t-117 -45t-130.5 -13q-82 0 -159 21.5t-119 41.5l77 244q59 -35 168 -35q60 0 99 35t39 108zM221 1190q0 63 44 107t110 44q65 0 109 -43.5t44 -107.5
q0 -66 -43.5 -111t-109.5 -45t-110 45t-44 111zM604 1190q0 64 43.5 107.5t108.5 43.5q66 0 110.5 -44t44.5 -107q0 -66 -44.5 -111t-110.5 -45t-109 45t-43 111zM412 1501q0 64 44 108t109 44t109.5 -44.5t44.5 -107.5q0 -66 -44 -110.5t-110 -44.5t-109.5 44.5
t-43.5 110.5z" />
    <glyph glyph-name="uniFB8B" unicode="&#x698;" horiz-adv-x="956" arabic-form="final" 
d="M12 -420l78 244q59 -35 168 -35q59 0 98 35t39 108v856q0 154 178 154q30 0 57.5 -5.5t55.5 -14.5t35 -11v-624h266v-287h-266v-37q0 -100 -23.5 -178t-63 -128t-96 -82t-117 -45t-130.5 -13q-82 0 -159.5 21.5t-119.5 41.5zM195 1190q0 64 43.5 107.5t109.5 43.5
t110 -44t44 -107q0 -66 -44 -111t-110 -45t-109.5 45t-43.5 111zM578 1190q0 64 43 107.5t108 43.5q66 0 111 -44t45 -107q0 -66 -45 -111t-111 -45t-108.5 44.5t-42.5 111.5zM385 1501q0 63 44.5 107.5t109.5 44.5t109 -44t44 -108q0 -66 -43.5 -110.5t-109.5 -44.5
t-110 44.5t-44 110.5z" />
    <glyph glyph-name="uniFB8C" unicode="&#x691;" horiz-adv-x="845" arabic-form="isolated" 
d="M395 -68v856q0 154 178 154q30 0 58 -5.5t55.5 -14.5t34.5 -11v-948q0 -100 -23.5 -178t-63 -128t-96 -82t-117 -45t-130.5 -13q-82 0 -159.5 21.5t-119.5 41.5l78 244q59 -35 168 -35q59 0 98 35t39 108zM342 1178v290q0 62 68 62q19 0 38.5 -6t24.5 -11v-170
q16 21 57.5 39.5t90.5 18.5q86 0 144 -49t58 -156v-141h-557v123h76zM602 1276q-50 0 -86.5 -28t-44.5 -70h221v14q0 84 -90 84z" />
    <glyph glyph-name="uniFB8D" unicode="&#x691;" horiz-adv-x="956" arabic-form="final" 
d="M12 -420l78 244q59 -35 168 -35q59 0 98 35t39 108v856q0 154 178 154q30 0 57.5 -5.5t55.5 -14.5t35 -11v-624h266v-287h-266v-37q0 -100 -23.5 -178t-63 -128t-96 -82t-117 -45t-130.5 -13q-82 0 -159.5 21.5t-119.5 41.5zM342 1178v290q0 62 68 62q19 0 38.5 -6
t24.5 -11v-170q16 21 57.5 39.5t90.5 18.5q86 0 144 -49t58 -156v-141h-557v123h76zM602 1276q-50 0 -86.5 -28t-44.5 -70h221v14q0 84 -90 84z" />
    <glyph glyph-name="uniFB8E" unicode="&#x6a9;" horiz-adv-x="1972" arabic-form="isolated" 
d="M1518 287v16q0 101 -32.5 174t-90 113t-125.5 58t-150 18q-142 0 -227 -39q-13 8 -29 24t-34.5 52.5t-18.5 76.5q0 50 26.5 88t112.5 127l473 492q68 68 124 96.5t126 28.5q130 0 209 -113l-596 -577q264 -12 416.5 -174t152.5 -437v-311h-1173q-277 0 -443.5 148
t-166.5 374q0 127 44.5 183.5t139.5 56.5q76 0 166 -41q-25 -91 -25 -180q0 -121 85 -187.5t263 -66.5h773z" />
    <glyph glyph-name="uniFB8F" unicode="&#x6a9;" horiz-adv-x="2058" arabic-form="final" 
d="M1518 287v16q0 101 -32.5 174t-90 113t-125.5 58t-150 18q-142 0 -227 -39q-13 8 -29 24t-34.5 52.5t-18.5 76.5q0 50 26.5 88t112.5 127l473 492q68 68 124 96.5t126 28.5q130 0 209 -113l-596 -577q264 -12 416.5 -174t152.5 -437v-24h234v-287h-1407
q-277 0 -443.5 148t-166.5 374q0 127 44.5 183.5t139.5 56.5q76 0 166 -41q-25 -91 -25 -180q0 -121 85 -187.5t263 -66.5h773z" />
    <glyph glyph-name="uniFB90" unicode="&#x6a9;" horiz-adv-x="1220" arabic-form="initial" 
d="M1130 1499l-595 -577q264 -12 416.5 -174t152.5 -437v-311h-1135v287h797v16q0 81 -21.5 144.5t-58 104t-88.5 67t-108 37t-121 10.5q-143 0 -228 -39q-13 8 -29 24t-34.5 52.5t-18.5 76.5q0 27 6 47.5t28.5 50.5t39 47.5t66.5 69.5l473 492q68 68 124 96.5t126 28.5
q129 0 208 -113z" />
    <glyph glyph-name="uniFB91" unicode="&#x6a9;" horiz-adv-x="1280" arabic-form="medial" 
d="M766 287v16q0 81 -21.5 144.5t-58 104t-88.5 67t-108 37t-121 10.5q-143 0 -228 -39q-13 8 -29 24t-34.5 52.5t-18.5 76.5q0 27 6 47.5t28.5 50.5t39 47.5t66.5 69.5l473 492q68 68 124 96.5t126 28.5q129 0 208 -113l-595 -577q264 -12 416.5 -174t152.5 -437v-24h207
v-287h-1342v287h797z" />
    <glyph glyph-name="uniFB92" unicode="&#x6af;" horiz-adv-x="1972" arabic-form="isolated" 
d="M1518 287v16q0 101 -32.5 174t-90 113t-125.5 58t-150 18q-142 0 -227 -39q-13 8 -29 24t-34.5 52.5t-18.5 76.5q0 50 26.5 88t112.5 127l473 492q68 68 124 96.5t126 28.5q130 0 209 -113l-596 -577q264 -12 416.5 -174t152.5 -437v-311h-1173q-277 0 -443.5 148
t-166.5 374q0 127 44.5 183.5t139.5 56.5q76 0 166 -41q-25 -91 -25 -180q0 -121 85 -187.5t263 -66.5h773zM1520 1765l-813 -837q-51 29 -80 72t-29 87q0 72 90 162l486 496q52 55 92 77.5t90 22.5q89 0 164 -80z" />
    <glyph glyph-name="uniFB93" unicode="&#x6af;" horiz-adv-x="2058" arabic-form="final" 
d="M1518 287v16q0 101 -32.5 174t-90 113t-125.5 58t-150 18q-142 0 -227 -39q-13 8 -29 24t-34.5 52.5t-18.5 76.5q0 50 26.5 88t112.5 127l473 492q68 68 124 96.5t126 28.5q130 0 209 -113l-596 -577q264 -12 416.5 -174t152.5 -437v-24h234v-287h-1407
q-277 0 -443.5 148t-166.5 374q0 127 44.5 183.5t139.5 56.5q76 0 166 -41q-25 -91 -25 -180q0 -121 85 -187.5t263 -66.5h773zM1520 1765l-813 -837q-51 29 -80 72t-29 87q0 72 90 162l486 496q52 55 92 77.5t90 22.5q89 0 164 -80z" />
    <glyph glyph-name="uniFB94" unicode="&#x6af;" horiz-adv-x="1374" arabic-form="initial" 
d="M1257 0h-1288v287h951v16q0 101 -32.5 174t-90 113t-125.5 58t-150 18q-142 0 -227 -39q-13 8 -28 23t-32.5 49t-17.5 71q0 51 28.5 93t104.5 118l492 502q69 69 126 99t128 30q39 0 71.5 -10t58.5 -30.5t37 -32t29 -33.5q4 -5 6 -7l-591 -573q258 -17 404 -179t146 -436
v-311zM924 1765l-813 -837q-51 29 -80 72t-29 87q0 72 90 162l486 496q52 55 92 77.5t90 22.5q89 0 164 -80z" />
    <glyph glyph-name="uniFB95" unicode="&#x6af;" horiz-adv-x="1447" arabic-form="medial" 
d="M1479 0h-1510v287h951v16q0 101 -32.5 174t-90 113t-125.5 58t-150 18q-142 0 -227 -39q-13 8 -28 23t-32.5 49t-17.5 71q0 51 28.5 93t104.5 118l492 502q69 69 126 99t128 30q39 0 71.5 -10t58.5 -30.5t37 -32t29 -33.5q4 -5 6 -7l-591 -573q258 -17 404 -179t146 -436
v-24h222v-287zM924 1765l-813 -837q-51 29 -80 72t-29 87q0 72 90 162l486 496q52 55 92 77.5t90 22.5q89 0 164 -80z" />
    <glyph glyph-name="uniFB9E" unicode="&#x6ba;" horiz-adv-x="1449" arabic-form="isolated" 
d="M1333 899v-760q0 -142 -38.5 -254t-100.5 -181.5t-147.5 -114.5t-172.5 -63t-182 -18q-101 0 -190.5 22.5t-168 72t-134.5 122.5t-88.5 181t-32.5 241t24.5 210t69 106t117.5 29q52 0 94 -19t63 -37q-36 -149 -36 -276q0 -179 75.5 -267t214.5 -88q308 0 308 357v616
q0 83 43 119.5t125 36.5q78 0 157 -35z" />
    <glyph glyph-name="uniFB9F" unicode="&#x6ba;" horiz-adv-x="1601" arabic-form="final" 
d="M1321 59q-18 -140 -76 -246.5t-144.5 -169.5t-189 -93.5t-219.5 -30.5q-101 0 -190.5 22.5t-168 72t-134.5 122.5t-88.5 181t-32.5 241t24.5 210t69 105.5t117.5 28.5q52 0 94 -19t63 -37q-36 -149 -36 -276q0 -179 75.5 -266.5t214.5 -87.5q308 0 308 377v593
q0 156 170 156q76 0 155 -35v-422q0 -104 29 -151t121 -47h149v-287h-116q-69 0 -112 12.5t-83 46.5z" />
    <glyph glyph-name="uniFBA4" unicode="&#x6c0;" horiz-adv-x="1169" arabic-form="isolated" 
d="M1067 944v-471q0 -98 -23 -177.5t-57 -130t-84.5 -87.5t-95 -55t-98.5 -28.5t-84 -12.5t-64 -2q-122 0 -218 36.5t-155 100.5t-89.5 146.5t-30.5 178.5q0 82 18.5 152.5t66 136.5t121 112t190 73.5t267.5 27.5h336zM391 442q0 -75 50.5 -115t119.5 -40q184 0 184 192v183
h-75q-82 0 -139.5 -18t-86.5 -50.5t-41 -69t-12 -82.5zM477 1077v107h105q-37 37 -37 98q0 75 53.5 118.5t130.5 43.5q60 0 98.5 -18t38.5 -52q0 -32 -35 -59q-48 24 -86 24q-37 0 -58 -17t-21 -48q0 -45 31 -67.5t77 -22.5h111v-107h-408z" />
    <glyph glyph-name="uniFBA5" unicode="&#x6c0;" horiz-adv-x="1325" arabic-form="final" 
d="M731 944h336v-471q0 -101 25.5 -143.5t111.5 -42.5h152v-287h-205q-173 0 -248 111q-151 -131 -342 -131q-122 0 -218 36.5t-155 100.5t-89.5 146.5t-30.5 178.5q0 82 18.5 152.5t66 136.5t121 112t190 73.5t267.5 27.5zM399 444q0 -71 48.5 -110t113.5 -39
q77 0 126.5 41.5t49.5 142.5v174h-71q-79 0 -134 -17t-83 -48.5t-39 -65.5t-11 -78zM459 1077v107h104q-37 37 -37 98q0 75 54 118.5t131 43.5q60 0 98.5 -18t38.5 -52q0 -32 -35 -59q-48 24 -86 24q-37 0 -58.5 -17t-21.5 -48q0 -45 31.5 -67.5t77.5 -22.5h110v-107h-407z
" />
    <glyph glyph-name="uniFBA6" unicode="&#x6c1;" horiz-adv-x="1169" arabic-form="isolated" 
d="M1067 944v-471q0 -98 -23 -177.5t-57 -130t-84.5 -87.5t-95 -55t-98.5 -28.5t-84 -12.5t-64 -2q-122 0 -218 36.5t-155 100.5t-89.5 146.5t-30.5 178.5q0 82 18.5 152.5t66 136.5t121 112t190 73.5t267.5 27.5h336zM391 442q0 -75 50.5 -115t119.5 -40q184 0 184 192v183
h-75q-82 0 -139.5 -18t-86.5 -50.5t-41 -69t-12 -82.5z" />
    <glyph glyph-name="uniFBA7" unicode="&#x6c1;" horiz-adv-x="899" arabic-form="final" 
d="M741 287h189v-287h-371q-23 58 -41.5 98.5t-47 87t-57 74.5t-67.5 47t-84 19q-58 0 -106 -23l-7 7t-10 9.5t-11.5 12t-13 15t-13 17t-12.5 19.5t-10.5 21t-9 23t-6 24t-2.5 26q0 69 56.5 104t148.5 35q67 0 120.5 -12.5t114 -46t120.5 -101t120 -169.5z" />
    <glyph glyph-name="uniFBA8" unicode="&#x6c1;" horiz-adv-x="677" arabic-form="initial" 
d="M-31 287h267v506q0 149 167 149q59 0 158 -33v-909h-592v287zM393 -156l-61 -266q-21 -94 -121 -94q-35 0 -71 13.5t-48 25.5l137 360z" />
    <glyph glyph-name="uniFBA9" unicode="&#x6c1;" horiz-adv-x="919" arabic-form="medial" 
d="M623 -199v-329h-326v329q0 107 -28 153t-119 46h-181v287h236q192 0 262 -117q39 65 99.5 91t148.5 26h235v-287h-178q-92 0 -120.5 -46t-28.5 -153zM180 -274l-61 -267q-21 -94 -121 -94q-35 0 -71 13.5t-48 25.5l137 360z" />
    <glyph glyph-name="uniFBAA" unicode="&#x6be;" horiz-adv-x="1757" arabic-form="isolated" 
d="M938 944q-83 0 -145 -12q147 -55 220.5 -180t73.5 -308v-157h234v295q0 93 -29.5 164t-82.5 113.5t-121 63.5t-150 21zM580 287h192v121q0 146 -39 202q-45 68 -143 68q-91 0 -145 -54t-54 -141q0 -84 55 -140t134 -56zM567 1028q0 64 41 105q37 37 133.5 62.5
t208.5 25.5q109 0 207 -21t187.5 -69t154.5 -119t103 -177.5t38 -238.5v-596h-553v-147h-315v147h-182q-111 0 -202.5 26.5t-164.5 82.5t-114 152.5t-41 227.5q0 143 71.5 251.5t186 164t252.5 58.5q-11 32 -11 65z" />
    <glyph glyph-name="uniFBAB" unicode="&#x6be;" horiz-adv-x="1912" arabic-form="final" 
d="M580 287h192v121q0 146 -39 202q-50 68 -143 68q-91 0 -145 -54t-54 -141q0 -84 55 -140t134 -56zM938 944q-83 0 -145 -12q147 -55 220.5 -180t73.5 -308v-157h82q84 0 118 42.5t34 137.5v115q0 93 -29.5 164t-82.5 113.5t-121 63.5t-150 21zM567 1028q0 64 41 105
q37 37 133.5 62.5t208.5 25.5q109 0 207 -21t187.5 -69t154.5 -119t103 -177.5t38 -238.5v-111q0 -104 29 -151t121 -47h154v-287h-209q-167 0 -248 117q-70 -117 -262 -117h-635q-111 0 -202.5 26.5t-164.5 82.5t-114 152.5t-41 227.5q0 143 71.5 251.5t186 164t252.5 58.5
q-11 32 -11 65z" />
    <glyph glyph-name="uniFBAC" unicode="&#x6be;" horiz-adv-x="1927" arabic-form="initial" 
d="M1810 596v-596h-1050q-233 0 -373 123q-110 -123 -242 -123h-176v287h119q91 0 120.5 41.5t29.5 140.5v20q0 103 41.5 192t111.5 149.5t162.5 95.5t194.5 37q-11 32 -11 65q0 64 41 105q37 37 133.5 62.5t208.5 25.5q109 0 207 -21t187.5 -69t154.5 -119t103 -177.5
t38 -238.5zM750 287h192v121q0 146 -39 202q-45 68 -143 68q-91 0 -145 -54t-54 -141q0 -84 55 -140t134 -56zM1491 287v295q0 93 -29.5 164t-82.5 113.5t-121 63.5t-150 21q-83 0 -145 -12q147 -55 220.5 -180t73.5 -308v-157h234z" />
    <glyph glyph-name="uniFBAD" unicode="&#x6be;" horiz-adv-x="2082" arabic-form="medial" 
d="M750 287h192v121q0 146 -39 202q-45 68 -143 68q-91 0 -145 -54t-54 -141q0 -84 55 -140t134 -56zM1257 287h82q84 0 118 42.5t34 137.5v115q0 93 -29.5 164t-82.5 113.5t-121 63.5t-150 21q-83 0 -145 -12q147 -55 220.5 -180t73.5 -308v-157zM1810 596v-111
q0 -104 29 -151t121 -47h154v-287h-209q-167 0 -248 117q-70 -117 -262 -117h-635q-233 0 -373 123q-110 -123 -242 -123h-176v287h119q91 0 120.5 41.5t29.5 140.5v20q0 103 41.5 192t111.5 149.5t162.5 95.5t194.5 37q-11 32 -11 65q0 64 41 105q37 37 133.5 62.5
t208.5 25.5q109 0 207 -21t187.5 -69t154.5 -119t103 -177.5t38 -238.5z" />
    <glyph glyph-name="uniFBAE" unicode="&#x6d2;" horiz-adv-x="1605" arabic-form="isolated" 
d="M969 692l-430 -405h974v-287h-1421v256l418 424q68 68 124 96.5t126 28.5q130 0 209 -113z" />
    <glyph glyph-name="uniFBAF" unicode="&#x6d2;" horiz-adv-x="1294" arabic-form="final" 
d="M1145 -686h-498q-263 0 -419 134.5t-156 352.5q0 219 156 352.5t419 133.5h678v-287h-661q-254 0 -254 -199q0 -198 254 -198h481v-289z" />
    <glyph glyph-name="uniFBB0" unicode="&#x6d3;" horiz-adv-x="1605" arabic-form="isolated" 
d="M969 692l-430 -405h974v-287h-1421v256l418 424q68 68 124 96.5t126 28.5q130 0 209 -113zM94 834v106h105q-37 37 -37 98q0 75 53.5 118.5t130.5 43.5q60 0 98.5 -18t38.5 -52q0 -32 -34 -59q-50 25 -87 25t-58 -17.5t-21 -48.5q0 -45 31 -67.5t77 -22.5h111v-106h-408z
" />
    <glyph glyph-name="uniFBB1" unicode="&#x6d3;" horiz-adv-x="1294" arabic-form="final" 
d="M1145 -686h-498q-263 0 -419 134.5t-156 352.5q0 219 156 352.5t419 133.5h678v-287h-661q-254 0 -254 -199q0 -198 254 -198h481v-289zM100 483v107h105q-37 37 -37 98q0 75 53.5 118.5t130.5 43.5q60 0 98.5 -18t38.5 -52q0 -32 -34 -59q-48 24 -86 24q-37 0 -58.5 -17
t-21.5 -48q0 -45 31 -67.5t77 -22.5h111v-107h-408z" />
    <glyph glyph-name="uniFBE8" unicode="&#x649;" horiz-adv-x="677" arabic-form="initial" 
d="M-31 287h267v506q0 149 167 149q59 0 158 -33v-909h-592v287z" />
    <glyph glyph-name="uniFBE9" unicode="&#x649;" horiz-adv-x="860" arabic-form="medial" 
d="M592 909v-424q0 -52 5 -84.5t20 -60.5t45.5 -40.5t78.5 -12.5h150v-287h-205q-178 0 -250 115q-72 -115 -262 -115h-205v287h150q48 0 78.5 12.5t45.5 40.5t20 60.5t5 84.5v308q0 79 42.5 114t123.5 35q84 0 158 -33z" />
    <glyph glyph-name="uniFBFC" unicode="&#x6cc;" horiz-adv-x="1849" arabic-form="isolated" 
d="M987 -176v696q0 197 125.5 308.5t331.5 111.5q53 0 108 -11.5t107.5 -35t85.5 -65.5t33 -95q0 -26 -7.5 -47.5t-25 -39.5t-30 -28t-38.5 -28q-59 65 -176 65q-80 0 -132 -48.5t-52 -145.5v-932h-588q-108 0 -202 21.5t-176.5 70.5t-141.5 121t-93 179t-34 239
q0 107 13 175.5t41 105t64.5 50t92.5 13.5q53 0 95.5 -18.5t62.5 -36.5q-35 -157 -35 -277q0 -178 84 -263t237 -85h250z" />
    <glyph glyph-name="uniFBFD" unicode="&#x6cc;" horiz-adv-x="2250" arabic-form="final" 
d="M1004 -168v688q0 139 71.5 240.5t188 151t262.5 49.5t262 -49.5t187 -151t71 -240.5v-233h235v-287h-565v444q0 213 -190 213q-193 0 -193 -213v-907h-606q-107 0 -201 21.5t-176.5 70.5t-141 121t-92.5 179t-34 239q0 140 25 216.5t68 102t118 25.5q52 0 95 -19t63 -36
q-37 -154 -37 -277q0 -176 86 -262t235 -86h269z" />
    <glyph glyph-name="uniFBFE" unicode="&#x6cc;" horiz-adv-x="747" arabic-form="initial" 
d="M-31 287h267v506q0 149 167 149q59 0 158 -33v-909h-592v287zM395 -256q0 64 43.5 108t108.5 44q66 0 110.5 -44.5t44.5 -107.5q0 -66 -44.5 -111t-110.5 -45t-109 45t-43 111zM12 -256q0 64 44 108t110 44q65 0 109 -44t44 -108q0 -66 -43.5 -111t-109.5 -45t-110 45
t-44 111z" />
    <glyph glyph-name="uniFBFF" unicode="&#x6cc;" horiz-adv-x="860" arabic-form="medial" 
d="M592 909v-424q0 -52 5 -84.5t20 -60.5t45.5 -40.5t78.5 -12.5h150v-287h-205q-178 0 -250 115q-72 -115 -262 -115h-205v287h150q48 0 78.5 12.5t45.5 40.5t20 60.5t5 84.5v308q0 79 42.5 114t123.5 35q84 0 158 -33zM467 -254q0 64 43 108t108 44q66 0 111 -44.5
t45 -107.5q0 -66 -45 -111t-111 -45t-108.5 44.5t-42.5 111.5zM84 -254q0 64 44 108t110 44q65 0 109 -44t44 -108q0 -66 -43.5 -111t-109.5 -45t-110 45t-44 111z" />
    <glyph glyph-name="uniFDF2" unicode="&#xfdf2;" horiz-adv-x="3371" arabic-form="isolated" 
d="M3254 0h-325v1456q0 156 170 156q76 0 155 -35v-1577zM2755 0h-734q-182 0 -254 115q-72 -115 -262 -115h-354q-173 0 -248 111q-151 -131 -342 -131q-122 0 -218 36.5t-155 100.5t-89.5 146.5t-30.5 178.5q0 82 18.5 152.5t66 136.5t121 112t190 73.5t267.5 27.5h336
v-471q0 -101 25.5 -143.5t111.5 -42.5h248q91 0 120.5 50t29.5 159v960q0 83 42.5 119.5t124.5 36.5q77 0 156 -35v-1081q0 -109 29.5 -159t120.5 -50h354v1171q0 83 43 119.5t125 36.5q79 0 158 -35v-1579zM1475 1913v147q0 54 65 54q9 0 18.5 -2t15 -4t11 -4.5t6.5 -2.5
v-190q0 -25 16.5 -40.5t41.5 -15.5q26 0 41.5 15.5t15.5 40.5v149q0 54 59 54q11 0 23 -2.5t23 -6.5t12 -4v-184q0 -53 51 -53h59v196q0 54 58 54q12 0 24 -2.5t23 -6.5t12 -4v-344h-197q-34 0 -53 9.5t-37 33.5q-25 -26 -51.5 -37.5t-73.5 -11.5q-30 0 -56.5 7t-51.5 23.5
t-40 50.5t-15 81zM399 444q0 -71 48.5 -110t113.5 -39q77 0 126.5 41.5t49.5 142.5v174h-71q-79 0 -134 -17t-83 -48.5t-39 -65.5t-11 -78zM1823 2642v-377h-117v332q0 59 66 59q32 0 51 -14z" />
    <glyph glyph-name="uniFDFA" unicode="&#xfdfa;" horiz-adv-x="2287" arabic-form="isolated" 
d="M645 127h-280q-47 0 -62 31q-31 -31 -86 -31q-61 0 -88 33t-27 71q0 55 41 87t115 32h80v-112q0 -25 7.5 -35t31.5 -10h268v317q0 35 39 35q9 0 33 -8v-344h848q24 0 31.5 12.5t7.5 40.5v67q0 37 36 37q11 0 35 -8v-96q0 -28 7 -40.5t30 -12.5h66q24 0 31.5 12.5
t7.5 40.5v686q0 35 36 35q8 0 35 -9v-712q0 -28 7 -40.5t30 -12.5h60q-19 14 -19 55q0 46 35 75t86 29t74 -20q10 -10 10 -25q0 -16 -25 -35q-24 19 -53 19q-24 0 -38.5 -12.5t-14.5 -36.5q0 -20 11.5 -34.5t35.5 -14.5h98v-66h-274q-41 0 -60 31q-13 -31 -61 -31h-90
q-43 0 -62 31q-13 -31 -61 -31h-860v-283q0 -27 7 -39t30 -12h542q23 0 29 10.5t6 36.5v72q0 19 9.5 26t29.5 7q7 0 15 -1t13 -2l5 -1v-115q0 -13 10.5 -23t22.5 -10t22 10t10 23v86q0 19 8.5 26t26.5 7q7 0 15.5 -1t13.5 -2l6 -1v-115q0 -33 31 -33h33v119q0 19 8.5 26
t27.5 7q11 0 22.5 -2t12.5 -2v-213h-112q-38 0 -52 26q-15 -11 -22 -16t-20.5 -9.5t-30.5 -4.5q-45 0 -72 30q-19 -26 -53 -26h-568q-43 0 -61 30q-13 -30 -61 -30h-265q-28 0 -28 -33v-76h-72v102q0 72 68 72h8q-17 24 -17 51q0 48 37 78.5t86 30.5q55 0 88 -29t33 -92v-39
h49q23 0 30 12t7 39v283zM1403 692v-45q14 25 48.5 41.5t76.5 16.5q61 0 104 -33.5t43 -104.5v-88h-450q-41 0 -60 31q-13 -31 -59 -31h-170q-39 0 -54.5 -17t-15.5 -40t15.5 -40t54.5 -17h469v-66h-477q-68 0 -104 35t-36 88q0 52 37 87.5t103 35.5h166q23 0 29.5 12
t6.5 39v500q0 34 37 34q9 0 33 -8v-526q0 -27 7 -39t30 -12h94v119q0 36 39 36q25 0 33 -8zM1843 -328q52 0 58 56h-50q-55 0 -87.5 30.5t-32.5 81.5q0 47 34.5 80t83.5 33q123 0 123 -125v-76q0 -141 -125 -141q-43 0 -67 14l18 56q21 -9 45 -9zM1016 596h-72v440
q0 37 39 37q9 0 33 -8v-469zM1518 637q-48 0 -81.5 -26t-33.5 -66h201v16q0 36 -22.5 56t-63.5 20zM600 1073v43q0 14 18 14q5 0 10 -2l5 -2v-51q0 -16 16 -16q17 0 17 16v41q0 14 16 14q4 0 10 -2l6 -2v-49q0 -16 15 -16h16v55q0 14 16 14q5 0 11 -2l6 -2v-96h-55
q-15 0 -27 12q-11 -14 -35 -14q-45 0 -45 45zM1268 1073v43q0 14 18 14q5 0 10 -2l4 -2v-51q0 -16 17 -16q16 0 16 16v41q0 14 17 14q4 0 10 -2l6 -2v-49q0 -16 14 -16h17v55q0 14 16 14q5 0 11 -2l6 -2v-96h-56q-14 0 -26 12q-11 -14 -35 -14q-45 0 -45 45zM594 451
l-203 -70l-16 45l176 63l9 3t9 2q25 0 25 -35v-8zM438 -207h49v29q0 67 -49 67q-47 0 -47 -47q0 -22 13.5 -35.5t33.5 -13.5zM1804 -160q0 -22 13.5 -34.5t33.5 -12.5h50v27q0 69 -52 69q-22 0 -33.5 -13.5t-11.5 -35.5zM872 -6q0 14 11.5 26.5t27.5 12.5q17 0 29 -12.5
t12 -26.5q0 -17 -12 -30t-29 -13t-28 12.5t-11 30.5zM989 -6q0 14 11.5 26.5t27.5 12.5t27.5 -12.5t11.5 -26.5q0 -18 -11 -30.5t-28 -12.5t-28 12.5t-11 30.5zM2181 451l-203 -70l-16 45l176 63q2 1 9 3t10 2q24 0 24 -35v-8zM1659 877l-336 -119l-16 45l309 112l9 3t9 2
q25 0 25 -35v-8zM174 231q0 -20 12 -30.5t31 -10.5q51 0 51 46v53h-22q-72 0 -72 -58zM379 700q0 -20 12 -30.5t31 -10.5q51 0 51 46v53h-22q-72 0 -72 -58zM422 596q-61 0 -88 33t-27 71q0 55 41 87t115 32h80v-112q0 -25 7.5 -35t31.5 -10h28q23 0 30 10t7 35v227
q0 35 37 35q9 0 33 -8v-254q0 -25 7.5 -35t31.5 -10h55v331q0 35 39 35q9 0 33 -8v-424h-140q-45 0 -61 31q-13 -31 -59 -31h-54q-45 0 -61 31q-31 -31 -86 -31z" />
    <glyph glyph-name="uniFE80" unicode="&#x621;" horiz-adv-x="784" arabic-form="isolated" 
d="M465 229h268v-229h-682v229h135q-39 50 -39 129q0 103 86.5 169.5t221.5 66.5q65 0 120 -18t82 -46q37 -37 37 -81q0 -39 -35.5 -81t-66.5 -57q-19 23 -51 39.5t-66 16.5q-33 0 -56.5 -18.5t-23.5 -53.5q0 -24 18 -45t52 -21z" />
    <glyph glyph-name="uniFE81" unicode="&#x622;" horiz-adv-x="559" arabic-form="isolated" 
d="M440 0h-325v1456q0 156 170 156q76 0 155 -35v-1577zM164 1935q49 0 131.5 -38.5t103.5 -38.5q30 0 42 19.5t12 57.5h127q0 -109 -45.5 -159t-114.5 -50q-43 0 -125 38t-111 38q-31 0 -43 -19t-12 -57h-123q0 107 45.5 158t112.5 51z" />
    <glyph glyph-name="uniFE82" unicode="&#x622;" horiz-adv-x="675" arabic-form="final" 
d="M705 0h-592v1456q0 83 43 119.5t125 36.5q77 0 157 -35v-1290h267v-287zM162 1935q49 0 131.5 -38.5t103.5 -38.5q30 0 42 19.5t12 57.5h127q0 -109 -45.5 -159t-114.5 -50q-43 0 -125 38t-111 38q-31 0 -43 -19t-12 -57h-123q0 107 45.5 158t112.5 51z" />
    <glyph glyph-name="uniFE83" unicode="&#x623;" horiz-adv-x="559" arabic-form="isolated" 
d="M442 0h-325v1456q0 156 170 156q76 0 155 -35v-1577zM74 1724v107h104q-37 37 -37 98q0 75 54 118.5t131 43.5q60 0 98.5 -18t38.5 -52q0 -32 -35 -59q-50 25 -86 25q-37 0 -58.5 -17.5t-21.5 -48.5q0 -45 31.5 -67.5t77.5 -22.5h110v-107h-407z" />
    <glyph glyph-name="uniFE84" unicode="&#x623;" horiz-adv-x="677" arabic-form="final" 
d="M709 0h-592v1456q0 83 43 119.5t125 36.5q77 0 157 -35v-1290h267v-287zM74 1724v107h104q-37 37 -37 98q0 75 54 118.5t131 43.5q60 0 98.5 -18t38.5 -52q0 -32 -35 -59q-50 25 -86 25q-37 0 -58.5 -17.5t-21.5 -48.5q0 -45 31.5 -67.5t77.5 -22.5h110v-107h-407z" />
    <glyph glyph-name="uniFE85" unicode="&#x624;" horiz-adv-x="1202" arabic-form="isolated" 
d="M1100 379v-262q0 -133 -26.5 -238t-74 -176t-115 -117.5t-145.5 -67t-170 -20.5q-78 0 -164 18.5t-133 45.5l78 250q35 -17 92.5 -29t106.5 -12q103 0 158 55.5t65 173.5h-190q-236 0 -375 129.5t-139 341.5q0 145 68 258t184 173.5t258 60.5q129 0 241.5 -47t179.5 -138
q101 -141 101 -399zM778 287v116q0 281 -205 281q-84 0 -134 -53.5t-50 -155.5q0 -85 55.5 -136.5t139.5 -51.5h194zM391 1057v106h105q-37 37 -37 99q0 75 53.5 118t130.5 43q60 0 98.5 -17.5t38.5 -51.5q0 -33 -35 -60q-50 25 -86 25q-37 0 -58 -17.5t-21 -48.5
q0 -45 31 -67.5t77 -22.5h111v-106h-408z" />
    <glyph glyph-name="uniFE86" unicode="&#x624;" horiz-adv-x="1302" arabic-form="final" 
d="M549 -229q103 0 158 55.5t65 173.5h-190q-236 0 -375 129.5t-139 341.5q0 145 68 258t184 173.5t258 60.5q129 0 241.5 -47t179.5 -138q101 -141 101 -399v-92h233v-287h-239q-26 -250 -161 -376t-364 -126q-78 0 -164 18.5t-133 45.5l78 250q84 -41 199 -41zM778 287
v116q0 281 -205 281q-84 0 -134 -53.5t-50 -155.5q0 -85 55.5 -136.5t139.5 -51.5h194zM391 1057v106h105q-37 37 -37 99q0 75 53.5 118t130.5 43q60 0 98.5 -17.5t38.5 -51.5q0 -33 -35 -60q-50 25 -86 25q-37 0 -58 -17.5t-21 -48.5q0 -45 31 -67.5t77 -22.5h111v-106
h-408z" />
    <glyph glyph-name="uniFE87" unicode="&#x625;" horiz-adv-x="559" arabic-form="isolated" 
d="M442 0h-325v1456q0 156 170 156q76 0 155 -35v-1577zM74 -492v107h104q-37 37 -37 98q0 75 54 118.5t131 43.5q60 0 98.5 -18t38.5 -52q0 -32 -35 -59q-50 25 -86 25q-37 0 -58.5 -17.5t-21.5 -48.5q0 -45 31.5 -67.5t77.5 -22.5h110v-107h-407z" />
    <glyph glyph-name="uniFE88" unicode="&#x625;" horiz-adv-x="677" arabic-form="final" 
d="M709 0h-592v1456q0 83 43 119.5t125 36.5q77 0 157 -35v-1290h267v-287zM156 -492v107h104q-37 37 -37 98q0 75 54 118.5t131 43.5q60 0 98.5 -18t38.5 -52q0 -32 -35 -59q-50 25 -86 25q-37 0 -58.5 -17.5t-21.5 -48.5q0 -45 31.5 -67.5t77.5 -22.5h110v-107h-407z" />
    <glyph glyph-name="uniFE89" unicode="&#x626;" horiz-adv-x="1849" arabic-form="isolated" 
d="M987 -176v696q0 197 125.5 308.5t331.5 111.5q53 0 108 -11.5t107.5 -35t85.5 -65.5t33 -95q0 -26 -7.5 -47.5t-25 -39.5t-30 -28t-38.5 -28q-59 65 -176 65q-80 0 -132 -48.5t-52 -145.5v-932h-588q-108 0 -202 21.5t-176.5 70.5t-141.5 121t-93 179t-34 239
q0 107 13 175.5t41 105t64.5 50t92.5 13.5q53 0 95.5 -18.5t62.5 -36.5q-35 -157 -35 -277q0 -178 84 -263t237 -85h250zM469 676v106h104q-36 36 -36 99q0 75 53.5 118t130.5 43q60 0 98.5 -17.5t38.5 -51.5q0 -33 -35 -60q-50 25 -86 25q-37 0 -58.5 -17.5t-21.5 -48.5
q0 -45 31.5 -67.5t77.5 -22.5h111v-106h-408z" />
    <glyph glyph-name="uniFE8A" unicode="&#x626;" horiz-adv-x="2250" arabic-form="final" 
d="M1004 -168v688q0 139 71.5 240.5t188 151t262.5 49.5t262 -49.5t187 -151t71 -240.5v-233h235v-287h-565v444q0 213 -190 213q-193 0 -193 -213v-907h-606q-107 0 -201 21.5t-176.5 70.5t-141 121t-92.5 179t-34 239q0 140 25 216.5t68 102t118 25.5q52 0 95 -19t63 -36
q-37 -154 -37 -277q0 -176 86 -262t235 -86h269zM469 676v106h104q-36 36 -36 99q0 75 53.5 118t130.5 43q60 0 98.5 -17.5t38.5 -51.5q0 -33 -35 -60q-50 25 -86 25q-37 0 -58.5 -17.5t-21.5 -48.5q0 -45 31.5 -67.5t77.5 -22.5h111v-106h-408z" />
    <glyph glyph-name="uniFE8B" unicode="&#x626;" horiz-adv-x="677" arabic-form="initial" 
d="M-31 287h267v506q0 149 167 149q59 0 158 -33v-909h-592v287zM195 1057v106h104q-37 37 -37 99q0 75 53.5 118t130.5 43q60 0 99 -17.5t39 -51.5q0 -33 -35 -60q-50 25 -86 25q-37 0 -58.5 -17.5t-21.5 -48.5q0 -45 31.5 -67.5t77.5 -22.5h110v-106h-407z" />
    <glyph glyph-name="uniFE8C" unicode="&#x626;" horiz-adv-x="860" arabic-form="medial" 
d="M592 909v-424q0 -52 5 -84.5t20 -60.5t45.5 -40.5t78.5 -12.5h150v-287h-205q-178 0 -250 115q-72 -115 -262 -115h-205v287h150q48 0 78.5 12.5t45.5 40.5t20 60.5t5 84.5v308q0 79 42.5 114t123.5 35q84 0 158 -33zM225 1057v106h105q-37 37 -37 99q0 75 53.5 118
t130.5 43q60 0 98.5 -17.5t38.5 -51.5q0 -33 -34 -60q-50 25 -86 25q-37 0 -58.5 -17.5t-21.5 -48.5q0 -45 31 -67.5t77 -22.5h111v-106h-408z" />
    <glyph glyph-name="uniFE8D" unicode="&#x627;" horiz-adv-x="559" arabic-form="isolated" 
d="M442 0h-325v1456q0 156 170 156q76 0 155 -35v-1577z" />
    <glyph glyph-name="uniFE8E" unicode="&#x627;" horiz-adv-x="677" arabic-form="final" 
d="M709 0h-592v1456q0 83 43 119.5t125 36.5q77 0 157 -35v-1290h267v-287z" />
    <glyph glyph-name="uniFE8F" unicode="&#x628;" horiz-adv-x="1818" arabic-form="isolated" 
d="M428 713q-20 -89 -20 -172q0 -254 346 -254h622v499q0 156 170 156q59 0 156 -33v-909h-1012q-277 0 -442.5 148t-165.5 374q0 128 43.5 184t138.5 56q88 0 164 -49zM807 -258q0 62 46.5 108t113.5 46q65 0 110 -46.5t45 -107.5t-45 -107.5t-110 -46.5q-67 0 -113.5 46
t-46.5 108z" />
    <glyph glyph-name="uniFE90" unicode="&#x628;" horiz-adv-x="1939" arabic-form="final" 
d="M432 721q-24 -92 -24 -180q0 -121 85 -187.5t263 -66.5h622v499q0 83 43 119.5t125 36.5q57 0 158 -33v-622h266v-287h-1280q-277 0 -442.5 148t-165.5 374q0 127 44 183.5t138 56.5q81 0 168 -41zM807 -256q0 62 46.5 108t113.5 46q65 0 110 -46.5t45 -107.5t-45 -107.5
t-110 -46.5q-67 0 -113.5 46t-46.5 108z" />
    <glyph glyph-name="uniFE91" unicode="&#x628;" horiz-adv-x="677" arabic-form="initial" 
d="M-31 287h267v506q0 149 167 149q59 0 158 -33v-909h-592v287zM129 -258q0 62 46.5 108t113.5 46q65 0 110 -46.5t45 -107.5t-45 -107.5t-110 -46.5q-67 0 -113.5 46t-46.5 108z" />
    <glyph glyph-name="uniFE92" unicode="&#x628;" horiz-adv-x="860" arabic-form="medial" 
d="M592 909v-424q0 -52 5 -84.5t20 -60.5t45.5 -40.5t78.5 -12.5h150v-287h-205q-178 0 -250 115q-72 -115 -262 -115h-205v287h150q48 0 78.5 12.5t45.5 40.5t20 60.5t5 84.5v308q0 79 42.5 114t123.5 35q84 0 158 -33zM276 -258q0 62 46.5 108t113.5 46q65 0 110.5 -46.5
t45.5 -107.5t-45.5 -107.5t-110.5 -46.5q-67 0 -113.5 46t-46.5 108z" />
    <glyph glyph-name="uniFE93" unicode="&#x629;" horiz-adv-x="1169" arabic-form="isolated" 
d="M1067 944v-471q0 -98 -23 -177.5t-57 -130t-84.5 -87.5t-95 -55t-98.5 -28.5t-84 -12.5t-64 -2q-122 0 -218 36.5t-155 100.5t-89.5 146.5t-30.5 178.5q0 82 18.5 152.5t66 136.5t121 112t190 73.5t267.5 27.5h336zM391 442q0 -75 50.5 -115t119.5 -40q184 0 184 192v183
h-75q-82 0 -139.5 -18t-86.5 -50.5t-41 -69t-12 -82.5zM709 1190q0 64 43 107.5t108 43.5q66 0 111 -44t45 -107q0 -66 -45 -111t-111 -45t-108.5 44.5t-42.5 111.5zM326 1190q0 64 44 107.5t109 43.5q66 0 110 -44t44 -107q0 -66 -44 -111t-110 -45t-109.5 45t-43.5 111z
" />
    <glyph glyph-name="uniFE94" unicode="&#x629;" horiz-adv-x="1325" arabic-form="final" 
d="M731 944h336v-471q0 -101 25.5 -143.5t111.5 -42.5h152v-287h-205q-173 0 -248 111q-151 -131 -342 -131q-122 0 -218 36.5t-155 100.5t-89.5 146.5t-30.5 178.5q0 82 18.5 152.5t66 136.5t121 112t190 73.5t267.5 27.5zM399 444q0 -71 48.5 -110t113.5 -39
q77 0 126.5 41.5t49.5 142.5v174h-71q-79 0 -134 -17t-83 -48.5t-39 -65.5t-11 -78zM698 1190q0 64 43.5 107.5t108.5 43.5q66 0 111 -44t45 -107q0 -66 -45 -111t-111 -45t-109 45t-43 111zM315 1190q0 63 44 107t110 44t110 -44t44 -107q0 -66 -44 -111t-110 -45t-110 45
t-44 111z" />
    <glyph glyph-name="uniFE95" unicode="&#x62a;" horiz-adv-x="1808" arabic-form="isolated" 
d="M418 713q-21 -93 -21 -172q0 -254 346 -254h623v499q0 156 170 156q59 0 156 -33v-909h-1012q-277 0 -442.5 148t-165.5 374q0 128 43.5 184t138.5 56q88 0 164 -49zM956 1190q0 64 43.5 107.5t108.5 43.5q66 0 111 -44t45 -107q0 -66 -45 -111t-111 -45t-109 45t-43 111
zM573 1190q0 63 44 107t110 44t110 -44t44 -107q0 -66 -44 -111t-110 -45t-110 45t-44 111z" />
    <glyph glyph-name="uniFE96" unicode="&#x62a;" horiz-adv-x="1927" arabic-form="final" 
d="M422 721q-25 -96 -25 -180q0 -121 85 -187.5t263 -66.5h623v499q0 83 43 119.5t125 36.5q57 0 158 -33v-622h266v-287h-1280q-277 0 -442.5 148t-165.5 374q0 127 44 183.5t138 56.5q81 0 168 -41zM956 1190q0 64 43.5 107.5t108.5 43.5q66 0 111 -44t45 -107
q0 -66 -45 -111t-111 -45t-109 45t-43 111zM573 1190q0 63 44 107t110 44t110 -44t44 -107q0 -66 -44 -111t-110 -45t-110 45t-44 111z" />
    <glyph glyph-name="uniFE97" unicode="&#x62a;" horiz-adv-x="747" arabic-form="initial" 
d="M-31 287h267v506q0 149 167 149q59 0 158 -33v-909h-592v287zM446 1190q0 64 43.5 107.5t108.5 43.5q66 0 111 -44t45 -107q0 -66 -45 -111t-111 -45t-109 45t-43 111zM63 1190q0 63 44 107t110 44t110 -44t44 -107q0 -66 -44 -111t-110 -45t-110 45t-44 111z" />
    <glyph glyph-name="uniFE98" unicode="&#x62a;" horiz-adv-x="860" arabic-form="medial" 
d="M592 909v-424q0 -52 5 -84.5t20 -60.5t45.5 -40.5t78.5 -12.5h150v-287h-205q-178 0 -250 115q-72 -115 -262 -115h-205v287h150q48 0 78.5 12.5t45.5 40.5t20 60.5t5 84.5v308q0 79 42.5 114t123.5 35q84 0 158 -33zM469 1190q0 64 43.5 107.5t108.5 43.5
q66 0 110.5 -44t44.5 -107q0 -66 -44.5 -111t-110.5 -45t-109 45t-43 111zM86 1190q0 63 44 107t110 44t109.5 -43.5t43.5 -107.5q0 -66 -43.5 -111t-109.5 -45t-110 45t-44 111z" />
    <glyph glyph-name="uniFE99" unicode="&#x62b;" horiz-adv-x="1808" arabic-form="isolated" 
d="M418 713q-21 -93 -21 -172q0 -254 346 -254h623v499q0 156 170 156q59 0 156 -33v-909h-1012q-277 0 -442.5 148t-165.5 374q0 128 43.5 184t138.5 56q88 0 164 -49zM571 1190q0 63 44 107t110 44t110 -44t44 -107q0 -66 -44 -111t-110 -45t-110 45t-44 111zM954 1190
q0 64 43.5 107.5t108.5 43.5q66 0 111 -44t45 -107q0 -66 -45 -111t-111 -45t-109 45t-43 111zM762 1501q0 64 44 108t109 44t109.5 -44.5t44.5 -107.5q0 -66 -44 -110.5t-110 -44.5t-109.5 44.5t-43.5 110.5z" />
    <glyph glyph-name="uniFE9A" unicode="&#x62b;" horiz-adv-x="1929" arabic-form="final" 
d="M422 721q-25 -96 -25 -180q0 -121 85 -187.5t263 -66.5h623v499q0 83 43 119.5t125 36.5q57 0 158 -33v-622h266v-287h-1280q-277 0 -442.5 148t-165.5 374q0 127 44 183.5t138 56.5q81 0 168 -41zM575 1190q0 63 44 107t110 44t110 -44t44 -107q0 -66 -44 -111t-110 -45
t-110 45t-44 111zM958 1190q0 64 43.5 107.5t108.5 43.5q66 0 111 -44t45 -107q0 -66 -45 -111t-111 -45t-109 45t-43 111zM766 1501q0 63 44 107.5t110 44.5q65 0 109 -44t44 -108q0 -66 -43.5 -110.5t-109.5 -44.5t-110 44.5t-44 110.5z" />
    <glyph glyph-name="uniFE9B" unicode="&#x62b;" horiz-adv-x="747" arabic-form="initial" 
d="M-31 287h267v506q0 149 167 149q59 0 158 -33v-909h-592v287zM63 1190q0 63 44 107t110 44t110 -44t44 -107q0 -66 -44 -111t-110 -45t-110 45t-44 111zM446 1190q0 64 43.5 107.5t108.5 43.5q66 0 111 -44t45 -107q0 -66 -45 -111t-111 -45t-109 45t-43 111zM254 1501
q0 63 44 107.5t110 44.5q65 0 109 -44t44 -108q0 -66 -43.5 -110.5t-109.5 -44.5t-110 44.5t-44 110.5z" />
    <glyph glyph-name="uniFE9C" unicode="&#x62b;" horiz-adv-x="860" arabic-form="medial" 
d="M592 909v-424q0 -52 5 -84.5t20 -60.5t45.5 -40.5t78.5 -12.5h150v-287h-205q-178 0 -250 115q-72 -115 -262 -115h-205v287h150q48 0 78.5 12.5t45.5 40.5t20 60.5t5 84.5v308q0 79 42.5 114t123.5 35q84 0 158 -33zM86 1190q0 63 44 107t110 44t109.5 -43.5
t43.5 -107.5q0 -66 -43.5 -111t-109.5 -45t-110 45t-44 111zM469 1190q0 64 43.5 107.5t108.5 43.5q66 0 110.5 -44t44.5 -107q0 -66 -44.5 -111t-110.5 -45t-109 45t-43 111zM276 1501q0 63 44 107.5t110 44.5t110 -44.5t44 -107.5q0 -66 -44 -110.5t-110 -44.5t-110 44.5
t-44 110.5z" />
    <glyph glyph-name="uniFE9D" unicode="&#x62c;" horiz-adv-x="1370" arabic-form="isolated" 
d="M741 377q-125 160 -210 217t-177 57q-56 0 -110 -20q-70 70 -70 155q0 79 60.5 121.5t177.5 42.5q75 0 143 -19t127.5 -56.5t105.5 -77t99 -95.5q107 -119 188 -232.5t205 -313.5q-38 -50 -112.5 -85.5t-129.5 -35.5q-46 0 -72.5 21t-54.5 65h-22q-83 0 -157 -13
t-140 -41.5t-114 -71t-75.5 -105t-27.5 -140.5q0 -136 90 -220.5t240 -84.5q72 0 151.5 17t134.5 44l121 -251q-206 -99 -434 -99q-290 0 -468.5 155t-178.5 415q0 126 36.5 229.5t100.5 175.5t155 124t194 81t224 41zM549 -260q0 62 46.5 108t113.5 46q65 0 110 -46.5
t45 -107.5t-45 -107.5t-110 -46.5q-67 0 -113.5 46t-46.5 108z" />
    <glyph glyph-name="uniFE9E" unicode="&#x62c;" horiz-adv-x="1343" arabic-form="final" 
d="M1374 0h-252q-62 0 -105 17t-81 69l-25 35h-22q-83 0 -157 -13t-140 -41.5t-114 -71t-75.5 -105t-27.5 -140.5q0 -136 90 -220.5t240 -84.5q72 0 151.5 17t134.5 44l121 -251q-206 -99 -434 -99q-290 0 -468.5 155t-178.5 415q0 126 36.5 229.5t100.5 175.5t155 124
t194 81t224 41q-130 166 -209.5 220t-177.5 54q-56 0 -110 -20q-70 70 -70 147q0 85 60.5 128.5t177.5 43.5q143 0 257 -66.5t220 -181.5q108 -118 303 -415h182v-287zM547 -260q0 62 46.5 108t113.5 46q65 0 110 -46.5t45 -107.5t-45 -107.5t-110 -46.5q-67 0 -113.5 46
t-46.5 108z" />
    <glyph glyph-name="uniFE9F" unicode="&#x62c;" horiz-adv-x="1179" arabic-form="initial" 
d="M-31 0v287h713q-75 113 -139 187.5t-118 112t-97.5 51t-94.5 13.5q-56 0 -110 -20q-70 70 -70 147q0 85 60.5 128.5t177.5 43.5q143 0 257 -66.5t220 -181.5q77 -85 170.5 -219.5t148.5 -226.5v-256h-1118zM371 -256q0 62 46 108t113 46q65 0 110.5 -46.5t45.5 -107.5
t-45.5 -107.5t-110.5 -46.5q-67 0 -113 46t-46 108z" />
    <glyph glyph-name="uniFEA0" unicode="&#x62c;" horiz-adv-x="1224" arabic-form="medial" 
d="M1255 287v-287h-1286v287h713q-75 113 -139 187.5t-118 112t-97.5 51t-94.5 13.5q-56 0 -110 -20q-70 70 -70 147q0 85 60.5 128.5t177.5 43.5q143 0 257 -66.5t220 -181.5q23 -25 47.5 -55.5t51.5 -67t47 -63.5t49 -69.5t40.5 -59t39 -58t28.5 -42.5h184zM371 -256
q0 62 46 108t113 46q65 0 110.5 -46.5t45.5 -107.5t-45.5 -107.5t-110.5 -46.5q-67 0 -113 46t-46 108z" />
    <glyph glyph-name="uniFEA1" unicode="&#x62d;" horiz-adv-x="1370" arabic-form="isolated" 
d="M741 377q-125 160 -210 217t-177 57q-56 0 -110 -20q-70 70 -70 155q0 79 60.5 121.5t177.5 42.5q75 0 143 -19t127.5 -56.5t105.5 -77t99 -95.5q107 -119 188 -232.5t205 -313.5q-38 -50 -112.5 -85.5t-129.5 -35.5q-46 0 -72.5 21t-54.5 65h-22q-83 0 -157 -13
t-140 -41.5t-114 -71t-75.5 -105t-27.5 -140.5q0 -136 90 -220.5t240 -84.5q72 0 151.5 17t134.5 44l121 -251q-206 -99 -434 -99q-290 0 -468.5 155t-178.5 415q0 126 36.5 229.5t100.5 175.5t155 124t194 81t224 41z" />
    <glyph glyph-name="uniFEA2" unicode="&#x62d;" horiz-adv-x="1343" arabic-form="final" 
d="M1374 0h-252q-62 0 -105 17t-81 69l-25 35h-22q-83 0 -157 -13t-140 -41.5t-114 -71t-75.5 -105t-27.5 -140.5q0 -136 90 -220.5t240 -84.5q72 0 151.5 17t134.5 44l121 -251q-206 -99 -434 -99q-290 0 -468.5 155t-178.5 415q0 126 36.5 229.5t100.5 175.5t155 124
t194 81t224 41q-130 166 -209.5 220t-177.5 54q-56 0 -110 -20q-70 70 -70 147q0 85 60.5 128.5t177.5 43.5q143 0 257 -66.5t220 -181.5q108 -118 303 -415h182v-287z" />
    <glyph glyph-name="uniFEA3" unicode="&#x62d;" horiz-adv-x="1179" arabic-form="initial" 
d="M-31 0v287h713q-75 113 -139 187.5t-118 112t-97.5 51t-94.5 13.5q-56 0 -110 -20q-70 70 -70 147q0 85 60.5 128.5t177.5 43.5q143 0 257 -66.5t220 -181.5q77 -85 170.5 -219.5t148.5 -226.5v-256h-1118z" />
    <glyph glyph-name="uniFEA4" unicode="&#x62d;" horiz-adv-x="1224" arabic-form="medial" 
d="M1255 287v-287h-1286v287h713q-75 113 -139 187.5t-118 112t-97.5 51t-94.5 13.5q-56 0 -110 -20q-70 70 -70 147q0 85 60.5 128.5t177.5 43.5q143 0 257 -66.5t220 -181.5q23 -25 47.5 -55.5t51.5 -67t47 -63.5t49 -69.5t40.5 -59t39 -58t28.5 -42.5h184z" />
    <glyph glyph-name="uniFEA5" unicode="&#x62e;" horiz-adv-x="1370" arabic-form="isolated" 
d="M741 377q-125 160 -210 217t-177 57q-56 0 -110 -20q-70 70 -70 155q0 79 60.5 121.5t177.5 42.5q75 0 143 -19t127.5 -56.5t105.5 -77t99 -95.5q107 -119 188 -232.5t205 -313.5q-38 -50 -112.5 -85.5t-129.5 -35.5q-46 0 -72.5 21t-54.5 65h-22q-83 0 -157 -13
t-140 -41.5t-114 -71t-75.5 -105t-27.5 -140.5q0 -136 90 -220.5t240 -84.5q72 0 151.5 17t134.5 44l121 -251q-206 -99 -434 -99q-290 0 -468.5 155t-178.5 415q0 126 36.5 229.5t100.5 175.5t155 124t194 81t224 41zM291 1190q0 64 43 107.5t108 43.5q66 0 111 -44
t45 -107q0 -66 -45 -111t-111 -45t-108.5 44.5t-42.5 111.5z" />
    <glyph glyph-name="uniFEA6" unicode="&#x62e;" horiz-adv-x="1341" arabic-form="final" 
d="M1374 0h-252q-62 0 -105 17t-81 69l-25 35h-22q-83 0 -157 -13t-140 -41.5t-114 -71t-75.5 -105t-27.5 -140.5q0 -136 90 -220.5t240 -84.5q72 0 151.5 17t134.5 44l121 -251q-206 -99 -434 -99q-290 0 -468.5 155t-178.5 415q0 126 36.5 229.5t100.5 175.5t155 124
t194 81t224 41q-130 166 -209.5 220t-177.5 54q-56 0 -110 -20q-70 70 -70 147q0 85 60.5 128.5t177.5 43.5q143 0 257 -66.5t220 -181.5q108 -118 303 -415h182v-287zM272 1190q0 64 43.5 107.5t108.5 43.5q66 0 111 -44t45 -107q0 -66 -45 -111t-111 -45t-109 45t-43 111z
" />
    <glyph glyph-name="uniFEA7" unicode="&#x62e;" horiz-adv-x="1179" arabic-form="initial" 
d="M-31 0v287h713q-75 113 -139 187.5t-118 112t-97.5 51t-94.5 13.5q-56 0 -110 -20q-70 70 -70 147q0 85 60.5 128.5t177.5 43.5q143 0 257 -66.5t220 -181.5q77 -85 170.5 -219.5t148.5 -226.5v-256h-1118zM154 1190q0 64 43 107.5t108 43.5q66 0 111 -44t45 -107
q0 -66 -45 -111t-111 -45t-108.5 44.5t-42.5 111.5z" />
    <glyph glyph-name="uniFEA8" unicode="&#x62e;" horiz-adv-x="1224" arabic-form="medial" 
d="M1255 287v-287h-1286v287h713q-75 113 -139 187.5t-118 112t-97.5 51t-94.5 13.5q-56 0 -110 -20q-70 70 -70 147q0 85 60.5 128.5t177.5 43.5q143 0 257 -66.5t220 -181.5q23 -25 47.5 -55.5t51.5 -67t47 -63.5t49 -69.5t40.5 -59t39 -58t28.5 -42.5h184zM156 1190
q0 64 43 107.5t108 43.5q66 0 111 -44t45 -107q0 -66 -45 -111t-111 -45t-108.5 44.5t-42.5 111.5z" />
    <glyph glyph-name="uniFEA9" unicode="&#x62f;" horiz-adv-x="1239" arabic-form="isolated" 
d="M498 963q132 0 245.5 -41t202.5 -121t140 -211.5t51 -300.5v-289h-1051v287h707q0 192 -87.5 281t-236.5 89q-107 0 -201 -30q-21 15 -50.5 62.5t-29.5 101.5q0 52 33 88.5t86 53t99 23.5t92 7z" />
    <glyph glyph-name="uniFEAA" unicode="&#x62f;" horiz-adv-x="1308" arabic-form="final" 
d="M1339 0h-1253v287h705q0 192 -87.5 281t-236.5 89q-107 0 -201 -30q-20 14 -49 62t-29 102q0 52 33 88.5t86 53t99 23.5t92 7q104 0 197.5 -25t175 -79t140.5 -132t92.5 -190.5t33.5 -249.5h202v-287z" />
    <glyph glyph-name="uniFEAB" unicode="&#x630;" horiz-adv-x="1239" arabic-form="isolated" 
d="M498 963q132 0 245.5 -41t202.5 -121t140 -211.5t51 -300.5v-289h-1051v287h707q0 192 -87.5 281t-236.5 89q-107 0 -201 -30q-21 15 -50.5 62.5t-29.5 101.5q0 52 33 88.5t86 53t99 23.5t92 7zM436 1202q0 64 43.5 108t108.5 44q66 0 110.5 -44.5t44.5 -107.5
q0 -66 -44.5 -110.5t-110.5 -44.5t-109 44.5t-43 110.5z" />
    <glyph glyph-name="uniFEAC" unicode="&#x630;" horiz-adv-x="1308" arabic-form="final" 
d="M1339 0h-1253v287h705q0 192 -87.5 281t-236.5 89q-107 0 -201 -30q-20 14 -49 62t-29 102q0 52 33 88.5t86 53t99 23.5t92 7q104 0 197.5 -25t175 -79t140.5 -132t92.5 -190.5t33.5 -249.5h202v-287zM414 1190q0 64 43 107.5t108 43.5q66 0 111 -44t45 -107
q0 -66 -45 -111t-111 -45t-108.5 44.5t-42.5 111.5z" />
    <glyph glyph-name="uniFEAD" unicode="&#x631;" horiz-adv-x="837" arabic-form="isolated" 
d="M395 -68v856q0 154 178 154q30 0 58 -5.5t55.5 -14.5t34.5 -11v-948q0 -100 -23.5 -178t-63 -128t-96 -82t-117 -45t-130.5 -13q-82 0 -159.5 21.5t-119.5 41.5l78 244q59 -35 168 -35q59 0 98 35t39 108z" />
    <glyph glyph-name="uniFEAE" unicode="&#x631;" horiz-adv-x="956" arabic-form="final" 
d="M12 -420l78 244q59 -35 168 -35q59 0 98 35t39 108v856q0 154 178 154q30 0 57.5 -5.5t55.5 -14.5t35 -11v-624h266v-287h-266v-37q0 -100 -23.5 -178t-63 -128t-96 -82t-117 -45t-130.5 -13q-82 0 -159.5 21.5t-119.5 41.5z" />
    <glyph glyph-name="uniFEAF" unicode="&#x632;" horiz-adv-x="837" arabic-form="isolated" 
d="M395 -68v856q0 154 178 154q30 0 58 -5.5t55.5 -14.5t34.5 -11v-948q0 -100 -23.5 -178t-63 -128t-96 -82t-117 -45t-130.5 -13q-82 0 -159.5 21.5t-119.5 41.5l78 244q59 -35 168 -35q59 0 98 35t39 108zM406 1190q0 64 43 107.5t108 43.5q66 0 111 -44t45 -107
q0 -66 -45 -111t-111 -45t-108.5 44.5t-42.5 111.5z" />
    <glyph glyph-name="uniFEB0" unicode="&#x632;" horiz-adv-x="956" arabic-form="final" 
d="M12 -420l78 244q59 -35 168 -35q59 0 98 35t39 108v856q0 154 178 154q30 0 57.5 -5.5t55.5 -14.5t35 -11v-624h266v-287h-266v-37q0 -100 -23.5 -178t-63 -128t-96 -82t-117 -45t-130.5 -13q-82 0 -159.5 21.5t-119.5 41.5zM406 1190q0 64 43 107.5t108 43.5
q66 0 111 -44t45 -107q0 -66 -45 -111t-111 -45t-108.5 44.5t-42.5 111.5z" />
    <glyph glyph-name="uniFEB1" unicode="&#x633;" horiz-adv-x="2605" arabic-form="isolated" 
d="M1323 29q-17 -106 -59 -190.5t-100.5 -142t-134 -95.5t-158 -55t-175.5 -17q-101 0 -190.5 22.5t-168 72t-134.5 122.5t-88.5 181t-32.5 241t24.5 210t69 105.5t117.5 28.5q52 0 95 -19t63 -36q-37 -154 -37 -277q0 -178 76 -266t215 -88q307 0 307 377v590
q0 79 42.5 114t123.5 35q83 0 157 -33v-477q0 -68 31.5 -106.5t95.5 -38.5q57 0 93 33t36 98v375q0 79 42.5 114t123.5 35q84 0 158 -33v-499q0 -59 28.5 -91t96.5 -32h125v506q0 79 42.5 114t123.5 35q83 0 157 -33v-909h-510q-86 0 -138 23t-87 77q-36 -55 -103 -87.5
t-153 -32.5q-115 0 -174 49z" />
    <glyph glyph-name="uniFEB2" unicode="&#x633;" horiz-adv-x="2756" arabic-form="final" 
d="M1915 909v-477q0 -68 31.5 -106.5t95.5 -38.5q57 0 93 33t36 98v375q0 79 42.5 114t123.5 35q83 0 157 -33v-434q0 -104 28.5 -146t121.5 -42h143v-287h-202q-132 0 -234 102q-5 -4 -25.5 -21.5t-33.5 -27t-40.5 -25.5t-54.5 -25t-67.5 -16t-85.5 -7q-201 0 -291 120
q-36 -55 -103 -87.5t-153 -32.5q-115 0 -174 49q-17 -106 -59 -190.5t-100.5 -142t-134 -95.5t-158 -55t-175.5 -17q-101 0 -190.5 22.5t-168 72t-134.5 122.5t-88.5 181t-32.5 241t24.5 210t69 105.5t117.5 28.5q52 0 95 -19t63 -36q-37 -154 -37 -277q0 -178 76 -266
t215 -88q307 0 307 377v590q0 79 42.5 114t123.5 35q83 0 157 -33v-477q0 -68 31.5 -106.5t95.5 -38.5q57 0 93 33t36 98v375q0 79 42.5 114t123.5 35q84 0 158 -33z" />
    <glyph glyph-name="uniFEB3" unicode="&#x633;" horiz-adv-x="1855" arabic-form="initial" 
d="M586 909v-477q0 -68 31.5 -106.5t95.5 -38.5q57 0 93 33t36 98v375q0 79 42.5 114t123.5 35q83 0 157 -33v-499q0 -59 28.5 -91t96.5 -32h125v506q0 79 42.5 114t123.5 35q84 0 158 -33v-909h-510q-86 0 -138 23t-87 77q-90 -120 -291 -120q-45 0 -85.5 7t-67.5 16
t-54.5 25t-40.5 25.5t-33.5 27t-25.5 21.5q-102 -102 -234 -102h-203v287h144q93 0 121 42t28 146v318q0 79 42.5 114t123.5 35q84 0 158 -33z" />
    <glyph glyph-name="uniFEB4" unicode="&#x633;" horiz-adv-x="2007" arabic-form="medial" 
d="M1745 909v-434q0 -104 28 -146t121 -42h144v-287h-203q-131 0 -233 102q-4 -4 -25 -21.5t-34 -27t-41 -25.5t-54.5 -25t-67.5 -16t-86 -7q-200 0 -290 120q-90 -120 -291 -120q-45 0 -85.5 7t-67.5 16t-54.5 25t-40.5 25.5t-33.5 27t-25.5 21.5q-102 -102 -234 -102h-203
v287h144q93 0 121 42t28 146v318q0 79 42.5 114t123.5 35q84 0 158 -33v-477q0 -68 31.5 -106.5t95.5 -38.5q57 0 93 33t36 98v375q0 79 42.5 114t123.5 35q83 0 157 -33v-477q0 -68 31.5 -106.5t95.5 -38.5q57 0 93 33t36 98v375q0 79 42.5 114t123.5 35q84 0 158 -33z" />
    <glyph glyph-name="uniFEB5" unicode="&#x634;" horiz-adv-x="2605" arabic-form="isolated" 
d="M1323 29q-17 -106 -59 -190.5t-100.5 -142t-134 -95.5t-158 -55t-175.5 -17q-101 0 -190.5 22.5t-168 72t-134.5 122.5t-88.5 181t-32.5 241t24.5 210t69 105.5t117.5 28.5q52 0 95 -19t63 -36q-37 -154 -37 -277q0 -178 76 -266t215 -88q307 0 307 377v590
q0 79 42.5 114t123.5 35q83 0 157 -33v-477q0 -68 31.5 -106.5t95.5 -38.5q57 0 93 33t36 98v375q0 79 42.5 114t123.5 35q84 0 158 -33v-499q0 -59 28.5 -91t96.5 -32h125v506q0 79 42.5 114t123.5 35q83 0 157 -33v-909h-510q-86 0 -138 23t-87 77q-36 -55 -103 -87.5
t-153 -32.5q-115 0 -174 49zM1413 1190q0 63 44 107t110 44q65 0 109 -43.5t44 -107.5q0 -66 -43.5 -111t-109.5 -45t-110 45t-44 111zM1796 1190q0 64 43.5 107.5t108.5 43.5q66 0 110.5 -44t44.5 -107q0 -66 -44.5 -111t-110.5 -45t-109 45t-43 111zM1604 1501
q0 64 44 108t109 44t109.5 -44.5t44.5 -107.5q0 -66 -44 -110.5t-110 -44.5t-109.5 44.5t-43.5 110.5z" />
    <glyph glyph-name="uniFEB6" unicode="&#x634;" horiz-adv-x="2756" arabic-form="final" 
d="M1915 909v-477q0 -68 31.5 -106.5t95.5 -38.5q57 0 93 33t36 98v375q0 79 42.5 114t123.5 35q83 0 157 -33v-434q0 -104 28.5 -146t121.5 -42h143v-287h-202q-132 0 -234 102q-5 -4 -25.5 -21.5t-33.5 -27t-40.5 -25.5t-54.5 -25t-67.5 -16t-85.5 -7q-201 0 -291 120
q-36 -55 -103 -87.5t-153 -32.5q-115 0 -174 49q-17 -106 -59 -190.5t-100.5 -142t-134 -95.5t-158 -55t-175.5 -17q-101 0 -190.5 22.5t-168 72t-134.5 122.5t-88.5 181t-32.5 241t24.5 210t69 105.5t117.5 28.5q52 0 95 -19t63 -36q-37 -154 -37 -277q0 -178 76 -266
t215 -88q307 0 307 377v590q0 79 42.5 114t123.5 35q83 0 157 -33v-477q0 -68 31.5 -106.5t95.5 -38.5q57 0 93 33t36 98v375q0 79 42.5 114t123.5 35q84 0 158 -33zM1413 1190q0 63 44 107t110 44q65 0 109 -43.5t44 -107.5q0 -66 -43.5 -111t-109.5 -45t-110 45t-44 111z
M1796 1190q0 64 43.5 107.5t108.5 43.5q66 0 110.5 -44t44.5 -107q0 -66 -44.5 -111t-110.5 -45t-109 45t-43 111zM1604 1501q0 64 44 108t109 44t109.5 -44.5t44.5 -107.5q0 -66 -44 -110.5t-110 -44.5t-109.5 44.5t-43.5 110.5z" />
    <glyph glyph-name="uniFEB7" unicode="&#x634;" horiz-adv-x="1855" arabic-form="initial" 
d="M586 909v-477q0 -68 31.5 -106.5t95.5 -38.5q57 0 93 33t36 98v375q0 79 42.5 114t123.5 35q83 0 157 -33v-499q0 -59 28.5 -91t96.5 -32h125v506q0 79 42.5 114t123.5 35q84 0 158 -33v-909h-510q-86 0 -138 23t-87 77q-90 -120 -291 -120q-45 0 -85.5 7t-67.5 16
t-54.5 25t-40.5 25.5t-33.5 27t-25.5 21.5q-102 -102 -234 -102h-203v287h144q93 0 121 42t28 146v318q0 79 42.5 114t123.5 35q84 0 158 -33zM662 1190q0 64 44 107.5t109 43.5q66 0 110 -44t44 -107q0 -66 -44 -111t-110 -45t-109.5 45t-43.5 111zM1044 1190
q0 64 43.5 107.5t108.5 43.5q66 0 111 -44t45 -107q0 -66 -45 -111t-111 -45t-109 45t-43 111zM852 1501q0 63 44 107.5t110 44.5q65 0 109 -44t44 -108q0 -66 -43.5 -110.5t-109.5 -44.5t-110 44.5t-44 110.5z" />
    <glyph glyph-name="uniFEB8" unicode="&#x634;" horiz-adv-x="2007" arabic-form="medial" 
d="M1745 909v-434q0 -104 28 -146t121 -42h144v-287h-203q-131 0 -233 102q-4 -4 -25 -21.5t-34 -27t-41 -25.5t-54.5 -25t-67.5 -16t-86 -7q-200 0 -290 120q-90 -120 -291 -120q-45 0 -85.5 7t-67.5 16t-54.5 25t-40.5 25.5t-33.5 27t-25.5 21.5q-102 -102 -234 -102h-203
v287h144q93 0 121 42t28 146v318q0 79 42.5 114t123.5 35q84 0 158 -33v-477q0 -68 31.5 -106.5t95.5 -38.5q57 0 93 33t36 98v375q0 79 42.5 114t123.5 35q83 0 157 -33v-477q0 -68 31.5 -106.5t95.5 -38.5q57 0 93 33t36 98v375q0 79 42.5 114t123.5 35q84 0 158 -33z
M666 1190q0 64 44 107.5t109 43.5q66 0 110 -44t44 -107q0 -66 -44 -111t-110 -45t-109.5 45t-43.5 111zM1049 1190q0 64 43 107.5t108 43.5q66 0 111 -44t45 -107q0 -66 -45 -111t-111 -45t-108.5 44.5t-42.5 111.5zM856 1501q0 63 44 107.5t110 44.5q65 0 109 -44t44 -108
q0 -66 -43.5 -110.5t-109.5 -44.5t-110 44.5t-44 110.5z" />
    <glyph glyph-name="uniFEB9" unicode="&#x635;" horiz-adv-x="2506" arabic-form="isolated" 
d="M2404 0h-1083q-21 -99 -63.5 -178.5t-100.5 -133.5t-132 -90t-155.5 -52.5t-173.5 -16.5q-101 0 -190.5 22.5t-168 72t-134.5 122.5t-88.5 181t-32.5 241t24.5 210t69 105.5t117.5 28.5q52 0 95 -19t63 -36q-37 -154 -37 -277q0 -178 76 -266t215 -88q307 0 307 377v583
q0 83 43 119.5t125 36.5q67 0 157 -39v-149q66 90 190.5 149.5t278.5 59.5q93 0 176.5 -19t162 -64t135 -113.5t90.5 -174.5t34 -240v-352zM1761 668q-182 0 -302.5 -109.5t-125.5 -271.5h742v49q0 332 -314 332z" />
    <glyph glyph-name="uniFEBA" unicode="&#x635;" horiz-adv-x="2607" arabic-form="final" 
d="M1337 903v-149q66 90 190.5 149.5t278.5 59.5q93 0 176.5 -19t162 -64t135 -113.5t90.5 -174.5t34 -240v-65h234v-287h-1317q-21 -99 -63.5 -178.5t-100.5 -133.5t-132 -90t-155.5 -52.5t-173.5 -16.5q-101 0 -190.5 22.5t-168 72t-134.5 122.5t-88.5 181t-32.5 241
t24.5 210t69 105.5t117.5 28.5q52 0 95 -19t63 -36q-37 -154 -37 -277q0 -178 76 -266t215 -88q307 0 307 377v583q0 83 43 119.5t125 36.5q67 0 157 -39zM1761 668q-182 0 -302.5 -109.5t-125.5 -271.5h742v49q0 332 -314 332z" />
    <glyph glyph-name="uniFEBB" unicode="&#x635;" horiz-adv-x="1730" arabic-form="initial" 
d="M561 903v-149q66 90 190.5 149.5t278.5 59.5q93 0 176.5 -19t162 -64t135 -113.5t90.5 -174.5t34 -240v-352h-1659v287h267v499q0 83 42.5 119.5t124.5 36.5q68 0 158 -39zM985 668q-182 0 -302.5 -109.5t-125.5 -271.5h741v49q0 332 -313 332z" />
    <glyph glyph-name="uniFEBC" unicode="&#x635;" horiz-adv-x="1835" arabic-form="medial" 
d="M561 903v-149q67 89 192 149t279 60q93 0 176.5 -19t162 -64t135 -113.5t90.5 -174.5t34 -240v-65h236v-287h-1897v287h267v499q0 156 170 156q65 0 155 -39zM985 668q-182 0 -302.5 -109.5t-125.5 -271.5h741v49q0 332 -313 332z" />
    <glyph glyph-name="uniFEBD" unicode="&#x636;" horiz-adv-x="2506" arabic-form="isolated" 
d="M2404 0h-1083q-21 -99 -63.5 -178.5t-100.5 -133.5t-132 -90t-155.5 -52.5t-173.5 -16.5q-101 0 -190.5 22.5t-168 72t-134.5 122.5t-88.5 181t-32.5 241t24.5 210t69 105.5t117.5 28.5q52 0 95 -19t63 -36q-37 -154 -37 -277q0 -178 76 -266t215 -88q307 0 307 377v583
q0 83 43 119.5t125 36.5q67 0 157 -39v-149q66 90 190.5 149.5t278.5 59.5q93 0 176.5 -19t162 -64t135 -113.5t90.5 -174.5t34 -240v-352zM1761 668q-182 0 -302.5 -109.5t-125.5 -271.5h742v49q0 332 -314 332zM1647 1192q0 64 43 107.5t108 43.5q66 0 111 -44t45 -107
q0 -66 -45 -111t-111 -45t-108.5 44.5t-42.5 111.5z" />
    <glyph glyph-name="uniFEBE" unicode="&#x636;" horiz-adv-x="2607" arabic-form="final" 
d="M1337 903v-149q66 90 190.5 149.5t278.5 59.5q93 0 176.5 -19t162 -64t135 -113.5t90.5 -174.5t34 -240v-65h234v-287h-1317q-21 -99 -63.5 -178.5t-100.5 -133.5t-132 -90t-155.5 -52.5t-173.5 -16.5q-101 0 -190.5 22.5t-168 72t-134.5 122.5t-88.5 181t-32.5 241
t24.5 210t69 105.5t117.5 28.5q52 0 95 -19t63 -36q-37 -154 -37 -277q0 -178 76 -266t215 -88q307 0 307 377v583q0 83 43 119.5t125 36.5q67 0 157 -39zM1761 668q-182 0 -302.5 -109.5t-125.5 -271.5h742v49q0 332 -314 332zM1647 1190q0 64 43 107.5t108 43.5
q66 0 111 -44t45 -107q0 -66 -45 -111t-111 -45t-108.5 44.5t-42.5 111.5z" />
    <glyph glyph-name="uniFEBF" unicode="&#x636;" horiz-adv-x="1730" arabic-form="initial" 
d="M561 903v-149q66 90 190.5 149.5t278.5 59.5q93 0 176.5 -19t162 -64t135 -113.5t90.5 -174.5t34 -240v-352h-1659v287h267v499q0 83 42.5 119.5t124.5 36.5q68 0 158 -39zM985 668q-182 0 -302.5 -109.5t-125.5 -271.5h741v49q0 332 -313 332zM874 1190q0 64 43.5 107.5
t108.5 43.5q66 0 111 -44t45 -107q0 -66 -45 -111t-111 -45t-109 45t-43 111z" />
    <glyph glyph-name="uniFEC0" unicode="&#x636;" horiz-adv-x="1835" arabic-form="medial" 
d="M561 903v-149q67 89 192 149t279 60q93 0 176.5 -19t162 -64t135 -113.5t90.5 -174.5t34 -240v-65h236v-287h-1897v287h267v499q0 156 170 156q65 0 155 -39zM985 668q-182 0 -302.5 -109.5t-125.5 -271.5h741v49q0 332 -313 332zM874 1190q0 64 43.5 107.5t108.5 43.5
q66 0 111 -44t45 -107q0 -66 -45 -111t-111 -45t-109 45t-43 111z" />
    <glyph glyph-name="uniFEC1" unicode="&#x637;" horiz-adv-x="1812" arabic-form="isolated" 
d="M641 1573v-819q73 90 195 149.5t276 59.5q93 0 176.5 -19t162 -64t135 -113.5t90.5 -174.5t34 -240v-352h-1624v287h229v1169q0 156 170 156q44 0 89.5 -13.5t66.5 -25.5zM1065 668q-182 0 -302.5 -109.5t-125.5 -271.5h741v49q0 332 -313 332z" />
    <glyph glyph-name="uniFEC2" unicode="&#x637;" horiz-adv-x="1918" arabic-form="final" 
d="M647 1573v-819q66 90 190.5 149.5t278.5 59.5q93 0 176.5 -19t162.5 -64t136 -113.5t91 -174.5t34 -240v-65h234v-287h-1860v287h232v1169q0 83 42.5 119.5t124.5 36.5q68 0 158 -39zM1071 668q-182 0 -302.5 -109.5t-125.5 -271.5h741v49q0 332 -313 332z" />
    <glyph glyph-name="uniFEC3" unicode="&#x637;" horiz-adv-x="1730" arabic-form="initial" 
d="M-31 0v287h267v1169q0 83 42.5 119.5t124.5 36.5q44 0 89.5 -13.5t66.5 -25.5v-819q73 90 195 149.5t276 59.5q93 0 176.5 -19t162 -64t135 -113.5t90.5 -174.5t34 -240v-352h-1659zM983 668q-183 0 -302 -109.5t-124 -271.5h739v49q0 332 -313 332z" />
    <glyph glyph-name="uniFEC4" unicode="&#x637;" horiz-adv-x="1835" arabic-form="medial" 
d="M561 1573v-819q67 89 192 149t279 60q93 0 176.5 -19t162 -64t135 -113.5t90.5 -174.5t34 -240v-65h236v-287h-1897v287h267v1169q0 156 170 156q65 0 155 -39zM985 668q-182 0 -302.5 -109.5t-125.5 -271.5h741v49q0 332 -313 332z" />
    <glyph glyph-name="uniFEC5" unicode="&#x638;" horiz-adv-x="1812" arabic-form="isolated" 
d="M641 1573v-819q73 90 195 149.5t276 59.5q93 0 176.5 -19t162 -64t135 -113.5t90.5 -174.5t34 -240v-352h-1624v287h229v1169q0 156 170 156q44 0 89.5 -13.5t66.5 -25.5zM1065 668q-182 0 -302.5 -109.5t-125.5 -271.5h741v49q0 332 -313 332zM961 1192q0 64 43 107.5
t108 43.5q66 0 111 -44t45 -107q0 -66 -45 -111t-111 -45t-108.5 44.5t-42.5 111.5z" />
    <glyph glyph-name="uniFEC6" unicode="&#x638;" horiz-adv-x="1918" arabic-form="final" 
d="M647 1573v-819q66 90 190.5 149.5t278.5 59.5q93 0 176.5 -19t162.5 -64t136 -113.5t91 -174.5t34 -240v-65h234v-287h-1860v287h232v1169q0 83 42.5 119.5t124.5 36.5q68 0 158 -39zM1071 668q-182 0 -302.5 -109.5t-125.5 -271.5h741v49q0 332 -313 332zM967 1190
q0 64 43 107.5t108 43.5q66 0 111 -44t45 -107q0 -66 -45 -111t-111 -45t-108.5 44.5t-42.5 111.5z" />
    <glyph glyph-name="uniFEC7" unicode="&#x638;" horiz-adv-x="1730" arabic-form="initial" 
d="M-31 0v287h267v1169q0 83 42.5 119.5t124.5 36.5q44 0 89.5 -13.5t66.5 -25.5v-819q73 90 195 149.5t276 59.5q93 0 176.5 -19t162 -64t135 -113.5t90.5 -174.5t34 -240v-352h-1659zM983 668q-183 0 -302 -109.5t-124 -271.5h739v49q0 332 -313 332zM879 1190
q0 64 43 107.5t108 43.5q66 0 111 -44t45 -107q0 -66 -45 -111t-111 -45t-108.5 44.5t-42.5 111.5z" />
    <glyph glyph-name="uniFEC8" unicode="&#x638;" horiz-adv-x="1835" arabic-form="medial" 
d="M561 1573v-819q67 89 192 149t279 60q93 0 176.5 -19t162 -64t135 -113.5t90.5 -174.5t34 -240v-65h236v-287h-1897v287h267v1169q0 156 170 156q65 0 155 -39zM985 668q-182 0 -302.5 -109.5t-125.5 -271.5h741v49q0 332 -313 332zM881 1190q0 64 43 107.5t108 43.5
q66 0 111 -44t45 -107q0 -66 -45 -111t-111 -45t-108.5 44.5t-42.5 111.5z" />
    <glyph glyph-name="uniFEC9" unicode="&#x639;" horiz-adv-x="1302" arabic-form="isolated" 
d="M639 348q74 26 168.5 48t150.5 22q67 0 110.5 -45t43.5 -119q0 -77 -27 -129q-151 -14 -267.5 -42t-193 -65t-125.5 -85.5t-70 -101.5t-21 -116q0 -133 87.5 -204.5t239.5 -71.5q129 0 239.5 41t172.5 86l145 -256q-30 -21 -72.5 -43.5t-119 -54t-184 -51t-224.5 -19.5
q-289 0 -465 152t-176 419q0 327 299 504q-168 114 -168 332q0 79 33.5 153t94.5 132.5t154 93.5t204 35q112 0 198.5 -25t132.5 -68q48 -48 48 -102t-36 -98t-77 -68q-92 84 -227 84q-93 0 -144 -48t-51 -116q0 -54 33 -99.5t94 -74.5z" />
    <glyph glyph-name="uniFECA" unicode="&#x639;" horiz-adv-x="1353" arabic-form="final" 
d="M950 287h434v-287h-593q-86 0 -166 53q-114 -72 -176 -155t-62 -193q0 -121 89 -191.5t239 -70.5q130 0 240.5 39.5t170.5 83.5l146 -256q-30 -21 -72.5 -43.5t-119 -54t-184 -51t-224.5 -19.5q-285 0 -463 148.5t-178 387.5q0 80 19 149.5t48.5 121.5t78.5 103t96.5 88
t115.5 83l-258 203v301q255 236 610 236q68 0 131 -11t120.5 -35t99.5 -59t67 -88t25 -117q0 -109 -61 -197.5t-173 -168.5zM401 590l248 -199q99 72 152 127.5t53 102.5q0 86 -139 86q-89 0 -176 -38.5t-138 -78.5z" />
    <glyph glyph-name="uniFECB" unicode="&#x639;" horiz-adv-x="1224" arabic-form="initial" 
d="M705 287h434v-287h-1170v287h275q-62 83 -62 221q0 135 72.5 240.5t192 160t262.5 54.5q97 0 181.5 -25.5t127.5 -67.5q47 -41 47 -102q0 -55 -37 -102.5t-74 -67.5q-88 88 -225 88q-95 0 -158 -55t-63 -154q0 -72 49.5 -131t147.5 -59z" />
    <glyph glyph-name="uniFECC" unicode="&#x639;" horiz-adv-x="1112" arabic-form="medial" 
d="M705 287h438v-287h-1174v287h275q-62 83 -62 221q0 135 72.5 240.5t192 160t262.5 54.5q97 0 181.5 -25.5t127.5 -67.5q47 -41 47 -102q0 -55 -37 -102.5t-74 -67.5q-88 88 -225 88q-95 0 -158 -55t-63 -154q0 -72 49.5 -131t147.5 -59z" />
    <glyph glyph-name="uniFECD" unicode="&#x63a;" horiz-adv-x="1302" arabic-form="isolated" 
d="M639 348q74 26 168.5 48t150.5 22q67 0 110.5 -45t43.5 -119q0 -77 -27 -129q-151 -14 -267.5 -42t-193 -65t-125.5 -85.5t-70 -101.5t-21 -116q0 -133 87.5 -204.5t239.5 -71.5q129 0 239.5 41t172.5 86l145 -256q-30 -21 -72.5 -43.5t-119 -54t-184 -51t-224.5 -19.5
q-289 0 -465 152t-176 419q0 327 299 504q-168 114 -168 332q0 79 33.5 153t94.5 132.5t154 93.5t204 35q112 0 198.5 -25t132.5 -68q48 -48 48 -102t-36 -98t-77 -68q-92 84 -227 84q-93 0 -144 -48t-51 -116q0 -54 33 -99.5t94 -74.5zM502 1192q0 64 43 107.5t108 43.5
q66 0 111 -44t45 -107q0 -66 -45 -111t-111 -45t-108.5 44.5t-42.5 111.5z" />
    <glyph glyph-name="uniFECE" unicode="&#x63a;" horiz-adv-x="1353" arabic-form="final" 
d="M950 287h434v-287h-593q-86 0 -166 53q-114 -72 -176 -155t-62 -193q0 -121 89 -191.5t239 -70.5q130 0 240.5 39.5t170.5 83.5l146 -256q-30 -21 -72.5 -43.5t-119 -54t-184 -51t-224.5 -19.5q-285 0 -463 148.5t-178 387.5q0 80 19 149.5t48.5 121.5t78.5 103t96.5 88
t115.5 83l-258 203v301q255 236 610 236q68 0 131 -11t120.5 -35t99.5 -59t67 -88t25 -117q0 -109 -61 -197.5t-173 -168.5zM401 590l248 -199q99 72 152 127.5t53 102.5q0 86 -139 86q-89 0 -176 -38.5t-138 -78.5zM506 1190q0 64 43 107.5t108 43.5q66 0 111 -44t45 -107
q0 -66 -45 -111t-111 -45t-108.5 44.5t-42.5 111.5z" />
    <glyph glyph-name="uniFECF" unicode="&#x63a;" horiz-adv-x="1224" arabic-form="initial" 
d="M705 287h434v-287h-1170v287h275q-62 83 -62 221q0 135 72.5 240.5t192 160t262.5 54.5q97 0 181.5 -25.5t127.5 -67.5q47 -41 47 -102q0 -55 -37 -102.5t-74 -67.5q-88 88 -225 88q-95 0 -158 -55t-63 -154q0 -72 49.5 -131t147.5 -59zM535 1190q0 64 43 107.5t108 43.5
q66 0 111 -44t45 -107q0 -66 -45 -111t-111 -45t-108.5 44.5t-42.5 111.5z" />
    <glyph glyph-name="uniFED0" unicode="&#x63a;" horiz-adv-x="1112" arabic-form="medial" 
d="M705 287h438v-287h-1174v287h275q-62 83 -62 221q0 135 72.5 240.5t192 160t262.5 54.5q97 0 181.5 -25.5t127.5 -67.5q47 -41 47 -102q0 -55 -37 -102.5t-74 -67.5q-88 88 -225 88q-95 0 -158 -55t-63 -154q0 -72 49.5 -131t147.5 -59zM532 1190q0 64 43.5 107.5
t108.5 43.5q66 0 111 -44t45 -107q0 -66 -45 -111t-111 -45t-109 45t-43 111z" />
    <glyph glyph-name="uniFED1" unicode="&#x641;" horiz-adv-x="2142" arabic-form="isolated" 
d="M745 287h328q-22 43 -37.5 102t-15.5 100q0 139 70 248.5t186 167.5t254 58q234 0 372 -139t138 -380v-444h-1358q-280 0 -445 144t-165 374q0 131 42 187.5t152 56.5q76 0 156 -49q-25 -87 -25 -174q0 -252 348 -252zM1530 287h186v121q0 55 -6 96.5t-24 84t-57 66
t-97 23.5q-90 0 -139.5 -54t-49.5 -141q0 -82 54.5 -139t132.5 -57zM1372 1192q0 64 43.5 107.5t108.5 43.5q66 0 110.5 -44t44.5 -107q0 -66 -44.5 -111t-110.5 -45t-109 45t-43 111z" />
    <glyph glyph-name="uniFED2" unicode="&#x641;" horiz-adv-x="2240" arabic-form="final" 
d="M743 287h328q-21 42 -36 101.5t-15 100.5q0 138 70.5 248t186 168t251.5 58q234 0 372 -139t138 -380v-157h233v-287h-1591q-279 0 -443.5 144.5t-164.5 373.5q0 132 41.5 188t150.5 56q78 0 158 -49q-25 -87 -25 -174q0 -252 346 -252zM1528 287h186v121q0 43 -3 76.5
t-14.5 71.5t-30.5 63.5t-53 42t-81 16.5q-90 0 -139.5 -54t-49.5 -141q0 -84 53.5 -140t131.5 -56zM1370 1190q0 64 43.5 107.5t108.5 43.5q66 0 110.5 -44t44.5 -107q0 -66 -44.5 -111t-110.5 -45t-109 45t-43 111z" />
    <glyph glyph-name="uniFED3" unicode="&#x641;" horiz-adv-x="1302" arabic-form="initial" 
d="M-31 0v287h267q-22 43 -38 102t-16 100q0 138 70.5 248t186 168t251.5 58q236 0 373 -137t137 -382v-444h-1231zM690 287h187v121q0 46 -3 80.5t-14 72.5t-30.5 61.5t-54 39.5t-81.5 16q-90 0 -139 -54t-49 -141q0 -84 53 -140t131 -56zM553 1190q0 64 43.5 107.5
t108.5 43.5q66 0 110.5 -44t44.5 -107q0 -66 -44.5 -111t-110.5 -45t-109 45t-43 111z" />
    <glyph glyph-name="uniFED4" unicode="&#x641;" horiz-adv-x="1396" arabic-form="medial" 
d="M698 287q82 0 138.5 56t56.5 140t-56.5 141.5t-138.5 57.5t-138 -57t-56 -142q0 -84 56 -140t138 -56zM1427 287v-287h-1458v287h264q-21 42 -36 101.5t-15 100.5q0 96 37.5 182t103.5 151t163.5 103t211.5 38t211.5 -38t163.5 -103t103.5 -151t37.5 -182
q0 -49 -14 -107.5t-39 -94.5h266zM545 1190q0 64 43 107.5t108 43.5q66 0 111 -44t45 -107q0 -66 -45 -111t-111 -45t-108.5 44.5t-42.5 111.5z" />
    <glyph glyph-name="uniFED5" unicode="&#x642;" horiz-adv-x="1781" arabic-form="isolated" 
d="M82 176q0 109 12.5 178t41 105t64 48.5t91.5 12.5q70 0 158 -55q-23 -111 -29 -160t-6 -117q0 -178 119 -269t348 -91h477v172h-197q-236 0 -375 129.5t-139 341.5q0 138 67.5 251t184.5 177t258 64q263 0 392.5 -152.5t129.5 -431.5v-844h-829q-381 0 -574.5 165
t-193.5 476zM973 471q0 -84 55 -134t139 -50h191v98q0 295 -201 295q-80 0 -132 -60.5t-52 -148.5zM1200 1190q0 64 43.5 107.5t108.5 43.5q66 0 110.5 -44t44.5 -107q0 -66 -44.5 -111t-110.5 -45t-109 45t-43 111zM817 1190q0 63 44 107t110 44q65 0 109 -43.5t44 -107.5
q0 -66 -43.5 -111t-109.5 -45t-110 45t-44 111z" />
    <glyph glyph-name="uniFED6" unicode="&#x642;" horiz-adv-x="1884" arabic-form="final" 
d="M82 176q0 109 12.5 178t41 105t64 48.5t91.5 12.5q70 0 158 -55q-23 -108 -28 -156.5t-5 -120.5q0 -178 118 -269t347 -91h479v172h-197q-236 0 -375 129.5t-139 341.5q0 138 67.5 251t184.5 177t258 64q262 0 392 -152.5t130 -431.5v-92h234v-287h-234v-465h-829
q-382 0 -576 165t-194 476zM973 471q0 -84 56 -134t140 -50h191v98q0 295 -201 295q-81 0 -133.5 -60.5t-52.5 -148.5zM1202 1190q0 64 43.5 107.5t108.5 43.5q66 0 110.5 -44t44.5 -107q0 -66 -44.5 -111t-110.5 -45t-109 45t-43 111zM819 1190q0 63 44 107t110 44
q65 0 109 -43.5t44 -107.5q0 -66 -43.5 -111t-109.5 -45t-110 45t-44 111z" />
    <glyph glyph-name="uniFED7" unicode="&#x642;" horiz-adv-x="1325" arabic-form="initial" 
d="M1223 0h-1254v287h285q-26 26 -48 87.5t-22 131.5q0 131 70.5 236t192 163t268.5 58q108 0 207.5 -36t167.5 -104q133 -127 133 -379v-444zM696 287h201v121q0 146 -39 202q-50 68 -143 68q-91 0 -145 -54.5t-54 -140.5q0 -83 52 -137t128 -59zM758 1190q0 64 43 107.5
t108 43.5q66 0 111 -44t45 -107q0 -66 -45 -111t-111 -45t-108.5 44.5t-42.5 111.5zM375 1190q0 64 43.5 107.5t109.5 43.5t110 -44t44 -107q0 -66 -44 -111t-110 -45t-109.5 45t-43.5 111z" />
    <glyph glyph-name="uniFED8" unicode="&#x642;" horiz-adv-x="1396" arabic-form="medial" 
d="M698 287q82 0 138.5 56t56.5 140t-56.5 141.5t-138.5 57.5t-138 -57t-56 -142q0 -84 56 -140t138 -56zM1427 287v-287h-1458v287h264q-21 42 -36 101.5t-15 100.5q0 96 37.5 182t103.5 151t163.5 103t211.5 38t211.5 -38t163.5 -103t103.5 -151t37.5 -182
q0 -49 -14 -107.5t-39 -94.5h266zM731 1190q0 64 43.5 107.5t108.5 43.5q66 0 110.5 -44t44.5 -107q0 -66 -44.5 -111t-110.5 -45t-109 45t-43 111zM348 1190q0 63 44 107t110 44t109.5 -43.5t43.5 -107.5q0 -66 -43.5 -111t-109.5 -45t-110 45t-44 111z" />
    <glyph glyph-name="uniFED9" unicode="&#x643;" horiz-adv-x="1808" arabic-form="isolated" 
d="M420 721q-23 -88 -23 -180q0 -254 346 -254h623v1169q0 156 170 156q59 0 156 -33v-1579h-1012q-277 0 -442.5 148t-165.5 374q0 128 43.5 184t138.5 56q82 0 166 -41zM698 731v107h105q-37 37 -37 98q0 75 53.5 118.5t130.5 43.5q60 0 98.5 -18t38.5 -52q0 -32 -34 -59
q-48 24 -86 24q-37 0 -58.5 -17t-21.5 -48q0 -45 31 -67.5t77 -22.5h111v-107h-408z" />
    <glyph glyph-name="uniFEDA" unicode="&#x643;" horiz-adv-x="1929" arabic-form="final" 
d="M422 721q-25 -96 -25 -180q0 -121 85 -187.5t263 -66.5h623v1169q0 83 43 119.5t125 36.5q61 0 158 -33v-1292h266v-287h-1280q-277 0 -442.5 148t-165.5 374q0 127 44 183.5t138 56.5q81 0 168 -41zM698 731v107h105q-37 37 -37 98q0 75 53.5 118.5t130.5 43.5
q60 0 98.5 -18t38.5 -52q0 -32 -34 -59q-48 24 -86 24q-37 0 -58.5 -17t-21.5 -48q0 -45 31 -67.5t77 -22.5h111v-107h-408z" />
    <glyph glyph-name="uniFEDB" unicode="&#x643;" horiz-adv-x="1220" arabic-form="initial" 
d="M1130 1499l-595 -577q264 -12 416.5 -174t152.5 -437v-311h-1135v287h797v16q0 81 -21.5 144.5t-58 104t-88.5 67t-108 37t-121 10.5q-143 0 -228 -39q-13 8 -29 24t-34.5 52.5t-18.5 76.5q0 27 6 47.5t28.5 50.5t39 47.5t66.5 69.5l473 492q68 68 124 96.5t126 28.5
q129 0 208 -113z" />
    <glyph glyph-name="uniFEDC" unicode="&#x643;" horiz-adv-x="1280" arabic-form="medial" 
d="M766 287v16q0 81 -21.5 144.5t-58 104t-88.5 67t-108 37t-121 10.5q-143 0 -228 -39q-13 8 -29 24t-34.5 52.5t-18.5 76.5q0 27 6 47.5t28.5 50.5t39 47.5t66.5 69.5l473 492q68 68 124 96.5t126 28.5q129 0 208 -113l-595 -577q264 -12 416.5 -174t152.5 -437v-24h207
v-287h-1342v287h797z" />
    <glyph glyph-name="uniFEDD" unicode="&#x644;" horiz-adv-x="1449" arabic-form="isolated" 
d="M1333 1577v-1427q0 -142 -38.5 -254t-100.5 -181.5t-147.5 -114.5t-172.5 -63t-182 -18q-101 0 -190.5 22.5t-168 72t-134.5 122.5t-88.5 181t-32.5 241t24.5 210t69 105.5t117.5 28.5q52 0 94 -19t63 -37q-36 -149 -36 -276q0 -179 75.5 -266.5t214.5 -87.5
q308 0 308 356v1284q0 83 43 119.5t125 36.5q78 0 157 -35z" />
    <glyph glyph-name="uniFEDE" unicode="&#x644;" horiz-adv-x="1601" arabic-form="final" 
d="M1321 59q-18 -140 -76 -246.5t-144.5 -169.5t-189 -93.5t-219.5 -30.5q-101 0 -190.5 22.5t-168 72t-134.5 122.5t-88.5 181t-32.5 241t24.5 210t69 105.5t117.5 28.5q52 0 94 -19t63 -37q-36 -149 -36 -276q0 -179 75.5 -266.5t214.5 -87.5q308 0 308 377v1263
q0 156 170 156q76 0 155 -35v-1092q0 -104 29 -151t121 -47h149v-287h-116q-69 0 -112 12.5t-83 46.5z" />
    <glyph glyph-name="uniFEDF" unicode="&#x644;" horiz-adv-x="677" arabic-form="initial" 
d="M561 0h-592v287h267v1169q0 83 42.5 119.5t124.5 36.5q79 0 158 -35v-1577z" />
    <glyph glyph-name="uniFEE0" unicode="&#x644;" horiz-adv-x="860" arabic-form="medial" 
d="M592 1577v-1081q0 -109 29 -159t120 -50h150v-287h-203q-182 0 -254 115q-72 -115 -262 -115h-203v287h150q91 0 120 50t29 159v960q0 83 43 119.5t125 36.5q77 0 156 -35z" />
    <glyph glyph-name="uniFEE1" unicode="&#x645;" horiz-adv-x="1452" arabic-form="isolated" 
d="M1350 0h-850q-67 0 -91 -32.5t-24 -98.5v-340h-324v448q0 92 21.5 155t64 96t92.5 46t119 13h23q-26 26 -48 87.5t-22 131.5q0 131 70.5 236t192 163t268.5 58q108 0 207.5 -36t167.5 -104q133 -127 133 -379v-444zM823 287h201v121q0 146 -39 202q-50 68 -143 68
q-91 0 -145 -54.5t-54 -140.5q0 -83 52 -137t128 -59z" />
    <glyph glyph-name="uniFEE2" unicode="&#x645;" horiz-adv-x="1552" arabic-form="final" 
d="M61 -471v448q0 92 21.5 155t64 96t92.5 46t119 13h23q-26 26 -48 87.5t-22 131.5q0 131 70.5 236t192 163t268.5 58q108 0 207.5 -36t167.5 -104q133 -127 133 -379v-157h233v-287h-1083q-67 0 -91 -32.5t-24 -98.5v-340h-324zM823 287h201v121q0 146 -39 202
q-50 68 -143 68q-91 0 -145 -54.5t-54 -140.5q0 -83 52 -137t128 -59z" />
    <glyph glyph-name="uniFEE3" unicode="&#x645;" horiz-adv-x="1277" arabic-form="initial" 
d="M1210 469q0 -92 -25.5 -169.5t-69 -129t-96.5 -90t-112 -59.5t-111 -31t-98 -10q-204 0 -364 143q-54 -56 -110.5 -89.5t-133.5 -33.5h-121v287h66q90 0 118.5 41.5t28.5 140.5q0 110 41.5 203.5t112.5 156.5t165.5 98.5t198.5 35.5q234 0 372 -134t138 -360zM508 481
q0 -86 54 -143t136 -57t135.5 57t53.5 143q0 87 -54 145t-135 58q-82 0 -136 -58t-54 -145z" />
    <glyph glyph-name="uniFEE4" unicode="&#x645;" horiz-adv-x="1378" arabic-form="medial" 
d="M492 479q0 -87 53.5 -145t138.5 -58t140 58t55 145q0 86 -55 145.5t-140 59.5t-138.5 -59.5t-53.5 -145.5zM692 -20q-200 0 -360 143q-110 -123 -242 -123h-121v287h64q91 0 120 41.5t29 140.5q0 110 40.5 203.5t109 156.5t160 98.5t192.5 35.5q140 0 256 -60t186 -174
t70 -260q0 -99 29.5 -140.5t120.5 -41.5h63v-287h-121q-77 0 -133.5 33.5t-110.5 89.5q-160 -143 -352 -143z" />
    <glyph glyph-name="uniFEE5" unicode="&#x646;" horiz-adv-x="1449" arabic-form="isolated" 
d="M1333 909v-759q0 -142 -38.5 -254t-100.5 -181.5t-147.5 -114.5t-172.5 -63t-182 -18q-101 0 -190.5 22.5t-168 72t-134.5 122.5t-88.5 181t-32.5 241t24.5 210t69 105.5t117.5 28.5q52 0 94 -19t63 -37q-36 -149 -36 -276q0 -179 75.5 -266.5t214.5 -87.5q308 0 308 356
v616q0 83 43 119.5t125 36.5q78 0 157 -35zM547 1192q0 64 43 107.5t108 43.5q66 0 111 -44t45 -107q0 -66 -45 -111t-111 -45t-108.5 44.5t-42.5 111.5z" />
    <glyph glyph-name="uniFEE6" unicode="&#x646;" horiz-adv-x="1601" arabic-form="final" 
d="M1321 59q-18 -140 -76 -246.5t-144.5 -169.5t-189 -93.5t-219.5 -30.5q-101 0 -190.5 22.5t-168 72t-134.5 122.5t-88.5 181t-32.5 241t24.5 210t69 105.5t117.5 28.5q52 0 94 -19t63 -37q-36 -149 -36 -276q0 -179 75.5 -266.5t214.5 -87.5q308 0 308 377v593
q0 156 170 156q76 0 155 -35v-422q0 -104 29 -151t121 -47h149v-287h-116q-69 0 -112 12.5t-83 46.5zM549 1192q0 64 43 107.5t108 43.5q66 0 111 -44t45 -107q0 -66 -45 -111t-111 -45t-108.5 44.5t-42.5 111.5z" />
    <glyph glyph-name="uniFEE7" unicode="&#x646;" horiz-adv-x="677" arabic-form="initial" 
d="M-31 287h267v506q0 149 167 149q59 0 158 -33v-909h-592v287zM248 1190q0 64 43 107.5t108 43.5q66 0 111 -44t45 -107q0 -66 -45 -111t-111 -45t-108.5 44.5t-42.5 111.5z" />
    <glyph glyph-name="uniFEE8" unicode="&#x646;" horiz-adv-x="860" arabic-form="medial" 
d="M592 909v-424q0 -52 5 -84.5t20 -60.5t45.5 -40.5t78.5 -12.5h150v-287h-205q-178 0 -250 115q-72 -115 -262 -115h-205v287h150q48 0 78.5 12.5t45.5 40.5t20 60.5t5 84.5v308q0 79 42.5 114t123.5 35q84 0 158 -33zM279 1190q0 64 43 107.5t108 43.5q66 0 111 -44
t45 -107q0 -66 -45 -111t-111 -45t-108.5 44.5t-42.5 111.5z" />
    <glyph glyph-name="uniFEE9" unicode="&#x647;" horiz-adv-x="1169" arabic-form="isolated" 
d="M1067 944v-471q0 -98 -23 -177.5t-57 -130t-84.5 -87.5t-95 -55t-98.5 -28.5t-84 -12.5t-64 -2q-122 0 -218 36.5t-155 100.5t-89.5 146.5t-30.5 178.5q0 82 18.5 152.5t66 136.5t121 112t190 73.5t267.5 27.5h336zM391 442q0 -75 50.5 -115t119.5 -40q184 0 184 192v183
h-75q-82 0 -139.5 -18t-86.5 -50.5t-41 -69t-12 -82.5z" />
    <glyph glyph-name="uniFEEA" unicode="&#x647;" horiz-adv-x="1325" arabic-form="final" 
d="M731 944h336v-471q0 -101 25.5 -143.5t111.5 -42.5h152v-287h-205q-173 0 -248 111q-151 -131 -342 -131q-122 0 -218 36.5t-155 100.5t-89.5 146.5t-30.5 178.5q0 82 18.5 152.5t66 136.5t121 112t190 73.5t267.5 27.5zM399 444q0 -71 48.5 -110t113.5 -39
q77 0 126.5 41.5t49.5 142.5v174h-71q-79 0 -134 -17t-83 -48.5t-39 -65.5t-11 -78z" />
    <glyph glyph-name="uniFEEB" unicode="&#x647;" horiz-adv-x="1927" arabic-form="initial" 
d="M1810 596v-596h-1050q-233 0 -373 123q-110 -123 -242 -123h-176v287h119q91 0 120.5 41.5t29.5 140.5v20q0 103 41.5 192t111.5 149.5t162.5 95.5t194.5 37q-11 32 -11 65q0 64 41 105q37 37 133.5 62.5t208.5 25.5q109 0 207 -21t187.5 -69t154.5 -119t103 -177.5
t38 -238.5zM750 287h192v121q0 146 -39 202q-45 68 -143 68q-91 0 -145 -54t-54 -141q0 -84 55 -140t134 -56zM1491 287v295q0 93 -29.5 164t-82.5 113.5t-121 63.5t-150 21q-83 0 -145 -12q147 -55 220.5 -180t73.5 -308v-157h234z" />
    <glyph glyph-name="uniFEEC" unicode="&#x647;" horiz-adv-x="2082" arabic-form="medial" 
d="M750 287h192v121q0 146 -39 202q-45 68 -143 68q-91 0 -145 -54t-54 -141q0 -84 55 -140t134 -56zM1257 287h82q84 0 118 42.5t34 137.5v115q0 93 -29.5 164t-82.5 113.5t-121 63.5t-150 21q-83 0 -145 -12q147 -55 220.5 -180t73.5 -308v-157zM1810 596v-111
q0 -104 29 -151t121 -47h154v-287h-209q-167 0 -248 117q-70 -117 -262 -117h-635q-233 0 -373 123q-110 -123 -242 -123h-176v287h119q91 0 120.5 41.5t29.5 140.5v20q0 103 41.5 192t111.5 149.5t162.5 95.5t194.5 37q-11 32 -11 65q0 64 41 105q37 37 133.5 62.5
t208.5 25.5q109 0 207 -21t187.5 -69t154.5 -119t103 -177.5t38 -238.5z" />
    <glyph glyph-name="uniFEED" unicode="&#x648;" horiz-adv-x="1202" arabic-form="isolated" 
d="M1100 379v-262q0 -133 -26.5 -238t-74 -176t-115 -117.5t-145.5 -67t-170 -20.5q-78 0 -164 18.5t-133 45.5l78 250q35 -17 92.5 -29t106.5 -12q103 0 158 55.5t65 173.5h-190q-236 0 -375 129.5t-139 341.5q0 145 68 258t184 173.5t258 60.5q129 0 241.5 -47t179.5 -138
q101 -141 101 -399zM778 287v116q0 281 -205 281q-84 0 -134 -53.5t-50 -155.5q0 -85 55.5 -136.5t139.5 -51.5h194z" />
    <glyph glyph-name="uniFEEE" unicode="&#x648;" horiz-adv-x="1302" arabic-form="final" 
d="M549 -229q103 0 158 55.5t65 173.5h-190q-236 0 -375 129.5t-139 341.5q0 145 68 258t184 173.5t258 60.5q129 0 241.5 -47t179.5 -138q101 -141 101 -399v-92h233v-287h-239q-26 -250 -161 -376t-364 -126q-78 0 -164 18.5t-133 45.5l78 250q84 -41 199 -41zM778 287
v116q0 281 -205 281q-84 0 -134 -53.5t-50 -155.5q0 -85 55.5 -136.5t139.5 -51.5h194z" />
    <glyph glyph-name="uniFEEF" unicode="&#x649;" horiz-adv-x="1849" arabic-form="isolated" 
d="M987 -176v696q0 197 125.5 308.5t331.5 111.5q53 0 108 -11.5t107.5 -35t85.5 -65.5t33 -95q0 -26 -7.5 -47.5t-25 -39.5t-30 -28t-38.5 -28q-59 65 -176 65q-80 0 -132 -48.5t-52 -145.5v-932h-588q-108 0 -202 21.5t-176.5 70.5t-141.5 121t-93 179t-34 239
q0 107 13 175.5t41 105t64.5 50t92.5 13.5q53 0 95.5 -18.5t62.5 -36.5q-35 -157 -35 -277q0 -178 84 -263t237 -85h250z" />
    <glyph glyph-name="uniFEF0" unicode="&#x649;" horiz-adv-x="2250" arabic-form="final" 
d="M1004 -168v688q0 139 71.5 240.5t188 151t262.5 49.5t262 -49.5t187 -151t71 -240.5v-233h235v-287h-565v444q0 213 -190 213q-193 0 -193 -213v-907h-606q-107 0 -201 21.5t-176.5 70.5t-141 121t-92.5 179t-34 239q0 140 25 216.5t68 102t118 25.5q52 0 95 -19t63 -36
q-37 -154 -37 -277q0 -176 86 -262t235 -86h269z" />
    <glyph glyph-name="uniFEF1" unicode="&#x64a;" horiz-adv-x="1849" arabic-form="isolated" 
d="M987 -176v696q0 197 125.5 308.5t331.5 111.5q53 0 108 -11.5t107.5 -35t85.5 -65.5t33 -95q0 -26 -7.5 -47.5t-25 -39.5t-30 -28t-38.5 -28q-59 65 -176 65q-80 0 -132 -48.5t-52 -145.5v-932h-588q-108 0 -202 21.5t-176.5 70.5t-141.5 121t-93 179t-34 239
q0 107 13 175.5t41 105t64.5 50t92.5 13.5q53 0 95.5 -18.5t62.5 -36.5q-35 -157 -35 -277q0 -178 84 -263t237 -85h250zM780 -705q0 64 43.5 108t108.5 44q66 0 110.5 -44.5t44.5 -107.5q0 -66 -44.5 -110.5t-110.5 -44.5t-109 44.5t-43 110.5zM397 -705q0 63 44.5 107.5
t109.5 44.5t109.5 -44.5t44.5 -107.5q0 -66 -44 -110.5t-110 -44.5t-110 44.5t-44 110.5z" />
    <glyph glyph-name="uniFEF2" unicode="&#x64a;" horiz-adv-x="2250" arabic-form="final" 
d="M1004 -168v688q0 139 71.5 240.5t188 151t262.5 49.5t262 -49.5t187 -151t71 -240.5v-233h235v-287h-565v444q0 213 -190 213q-193 0 -193 -213v-907h-606q-107 0 -201 21.5t-176.5 70.5t-141 121t-92.5 179t-34 239q0 140 25 216.5t68 102t118 25.5q52 0 95 -19t63 -36
q-37 -154 -37 -277q0 -176 86 -262t235 -86h269zM811 -705q0 64 43.5 108t108.5 44q66 0 110.5 -44.5t44.5 -107.5q0 -66 -44.5 -110.5t-110.5 -44.5t-109 44.5t-43 110.5zM428 -705q0 63 44 107.5t110 44.5q65 0 109 -44t44 -108q0 -66 -43.5 -110.5t-109.5 -44.5
t-110 44.5t-44 110.5z" />
    <glyph glyph-name="uniFEF3" unicode="&#x64a;" horiz-adv-x="747" arabic-form="initial" 
d="M-31 287h267v506q0 149 167 149q59 0 158 -33v-909h-592v287zM397 -254q0 64 43.5 108t108.5 44q66 0 111 -44.5t45 -107.5q0 -66 -45 -111t-111 -45t-109 45t-43 111zM14 -254q0 64 44 108t110 44t110 -44t44 -108q0 -66 -44 -111t-110 -45t-110 45t-44 111z" />
    <glyph glyph-name="uniFEF4" unicode="&#x64a;" horiz-adv-x="860" arabic-form="medial" 
d="M592 909v-424q0 -52 5 -84.5t20 -60.5t45.5 -40.5t78.5 -12.5h150v-287h-205q-178 0 -250 115q-72 -115 -262 -115h-205v287h150q48 0 78.5 12.5t45.5 40.5t20 60.5t5 84.5v308q0 79 42.5 114t123.5 35q84 0 158 -33zM467 -254q0 64 43 108t108 44q66 0 111 -44.5
t45 -107.5q0 -66 -45 -111t-111 -45t-108.5 44.5t-42.5 111.5zM84 -254q0 64 44 108t110 44q65 0 109 -44t44 -108q0 -66 -43.5 -111t-109.5 -45t-110 45t-44 111z" />
    <glyph glyph-name=".notdef" 
d="M922 0h-820v1536h820v-1536zM205 102h614v1332h-614v-1332z" />
    <glyph glyph-name=".null" horiz-adv-x="0" 
 />
    <glyph glyph-name=".null" horiz-adv-x="0" 
 />
    <glyph glyph-name=".null" horiz-adv-x="0" 
 />
    <glyph glyph-name="nonmarkingreturn" horiz-adv-x="682" 
 />
    <glyph glyph-name="CR" unicode="&#x9;" horiz-adv-x="503" 
 />
    <glyph glyph-name="CR" unicode="&#xd;" horiz-adv-x="503" 
 />
    <glyph glyph-name="space" unicode=" " horiz-adv-x="503" 
 />
    <glyph glyph-name="exclam" unicode="!" horiz-adv-x="569" 
d="M119 502v758q0 145 172 145q75 0 158 -31v-872h-330zM88 156q0 76 58.5 132t138.5 56t138 -56t58 -132q0 -78 -58 -134.5t-138 -56.5t-138.5 56.5t-58.5 134.5z" />
    <glyph glyph-name="quotedbl" unicode="&#x22;" horiz-adv-x="1173" 
d="M174 864v504q0 141 168 141q79 0 154 -28v-617h-322zM678 864v504q0 141 168 141q78 0 153 -28v-617h-321z" />
    <glyph glyph-name="numbersign" unicode="#" horiz-adv-x="1546" 
d="M520 0h-282l49 297h-64q-80 0 -115.5 32.5t-35.5 100.5q0 74 37 139h225l49 293h-64q-80 0 -115.5 32t-35.5 99q0 68 37 142h225l31 182q22 125 168 125q68 0 131 -27l-49 -280h268l31 182q19 125 166 125q68 0 131 -27l-50 -280h66q80 0 116 -33t36 -101q0 -74 -37 -139
h-226l-51 -293h66q80 0 115.5 -32t35.5 -99t-37 -141h-223l-51 -297h-283l52 297h-267zM664 862l-50 -293h269l49 293h-268z" />
    <glyph glyph-name="dollar" unicode="$" horiz-adv-x="1341" 
d="M53 150l135 262q39 -29 147 -71t240 -52v266l-51 10q-70 13 -126.5 30.5t-116 49.5t-99.5 74.5t-66 108t-26 147.5q0 181 124 303t361 139v135q0 78 89 78q14 0 29.5 -2.5t25 -5t19 -5.5t10.5 -3v-199q228 -19 337 -90q95 -60 95 -137q0 -60 -36.5 -117t-72.5 -78
q-36 40 -122.5 77.5t-200.5 53.5v-282l53 -11q113 -23 191.5 -53.5t137 -78t86 -115t27.5 -160.5q0 -191 -128.5 -303t-366.5 -131v-211h-173v211q-100 6 -198.5 28.5t-164 49.5t-107 49t-52.5 33zM575 877v249q-49 -6 -82 -20t-47 -34t-19 -37.5t-5 -39.5q0 -43 28.5 -69
t124.5 -49zM748 524v-235q92 11 122.5 40.5t30.5 78.5q0 45 -34 71t-119 45z" />
    <glyph glyph-name="percent" unicode="%" horiz-adv-x="2109" 
d="M51 1100q0 172 124 290.5t304 118.5q181 0 305.5 -118.5t124.5 -290.5q0 -171 -124.5 -289.5t-305.5 -118.5q-180 0 -304 118.5t-124 289.5zM479 946q63 0 106.5 44t43.5 110t-43.5 110.5t-106.5 44.5t-106 -44.5t-43 -110.5t43 -110t106 -44zM1200 373q0 172 124 290.5
t304 118.5q181 0 305.5 -118.5t124.5 -290.5q0 -171 -124.5 -289.5t-305.5 -118.5q-180 0 -304 118.5t-124 289.5zM1628 219q63 0 106.5 44t43.5 110t-43.5 110.5t-106.5 44.5t-106 -44.5t-43 -110.5t43 -110t106 -44zM473 0l815 1405q30 52 63.5 78t98.5 26q26 0 52 -5.5
t46 -14t34.5 -16t26.5 -15t13 -8.5l-842 -1450h-307z" />
    <glyph glyph-name="ampersand" unicode="&#x26;" horiz-adv-x="1480" 
d="M956 268v299h-315q-93 0 -140.5 -43t-47.5 -110q0 -33 12 -59t41 -49.5t87.5 -36.5t143.5 -13q165 0 219 12zM702 866h562q90 0 128 -34.5t38 -108.5q0 -86 -39 -156h-103v-565q-204 -37 -532 -37q-322 0 -482.5 111t-160.5 319q0 111 59 193t158 129q-86 47 -137.5 126
t-51.5 185q0 193 145 303.5t382 110.5q227 0 344 -62q92 -47 92 -129q0 -54 -32 -101.5t-62 -62.5q-30 25 -119 51.5t-182 26.5q-234 0 -234 -157q0 -142 227 -142z" />
    <glyph glyph-name="quotesingle" unicode="'" horiz-adv-x="690" 
d="M184 864v504q0 141 168 141q79 0 154 -28v-617h-322z" />
    <glyph glyph-name="parenleft" unicode="(" horiz-adv-x="722" 
d="M692 41v-311q-295 49 -447.5 282.5t-152.5 608.5t152.5 607t447.5 281v-311q-134 -52 -202 -187.5t-68 -389.5q0 -172 33 -292t91 -187t146 -101z" />
    <glyph glyph-name="parenright" unicode=")" horiz-adv-x="722" 
d="M31 -270v311q88 34 146 101t91 187t33 292q0 254 -68 389.5t-202 187.5v311q295 -49 447.5 -281t152.5 -607t-153.5 -608.5t-446.5 -282.5z" />
    <glyph glyph-name="asterisk" unicode="*" horiz-adv-x="1132" 
d="M373 510l-238 164l211 260l-285 84q0 2 -1 14t-1 21q0 69 21 125q19 43 46 66.5t71 23.5q39 0 86 -21l155 -69l-18 200v15q0 60 42 88t113 28q77 0 142 -28l-21 -303l156 69q46 21 86 21q44 0 71 -23.5t46 -66.5q20 -54 20 -125q0 -9 -1 -21t-1 -14l-285 -84l211 -260
l-237 -164l-195 287z" />
    <glyph glyph-name="plus" unicode="+" horiz-adv-x="1290" 
d="M483 166v375h-231q-77 0 -111.5 41.5t-34.5 122.5q0 77 31 149h346v240q0 145 170 145q71 0 154 -31v-354h231q77 0 111.5 -41.5t34.5 -122.5q0 -77 -31 -149h-346v-375h-324z" />
    <glyph glyph-name="comma" unicode="," horiz-adv-x="690" 
d="M37 -258l139 477q22 72 58 106.5t106 34.5q106 0 192 -86l-268 -618z" />
    <glyph glyph-name="hyphen" unicode="-" horiz-adv-x="690" 
d="M90 713h406q133 0 133 -160q0 -77 -29 -145h-405q-134 0 -134 159q0 78 29 146z" />
    <glyph glyph-name="period" unicode="." horiz-adv-x="690" 
d="M346 -35q-80 0 -138 58.5t-58 140.5q0 80 58 138t138 58t138.5 -58.5t58.5 -137.5q0 -81 -58.5 -140t-138.5 -59z" />
    <glyph glyph-name="slash" unicode="/" horiz-adv-x="753" 
d="M0 0l426 1380q20 67 52.5 98t96.5 31q63 0 111.5 -26.5t67.5 -52.5l-441 -1430h-313z" />
    <glyph glyph-name="zero" unicode="0" horiz-adv-x="1376" 
d="M688 -35q-288 0 -444 195.5t-156 541.5t156.5 543t443.5 197q286 0 443 -197t157 -543t-157 -541.5t-443 -195.5zM688 279q124 0 190 105t66 318t-66 319.5t-190 106.5q-125 0 -191.5 -106.5t-66.5 -319.5t66.5 -318t191.5 -105z" />
    <glyph glyph-name="one" unicode="1" horiz-adv-x="978" 
d="M442 0v1006l-247 -193q-28 14 -56.5 34.5t-58 61t-29.5 82.5q0 36 8.5 63t32 53.5t44 43.5t65.5 51l121 90q85 62 143 87.5t135 25.5q76 0 174 -39v-1366h-332z" />
    <glyph glyph-name="two" unicode="2" horiz-adv-x="1155" 
d="M27 0v281q40 21 208 139.5t244 185.5q129 113 174 187.5t45 160.5q0 83 -59.5 137t-171.5 54q-57 0 -104.5 -16t-80 -42.5t-53 -54t-34.5 -57.5q-21 7 -46 21.5t-53 36.5t-46.5 54.5t-18.5 67.5q0 68 41 123q16 21 41.5 43t76 52.5t133 49.5t183.5 19q253 0 397 -127.5
t144 -323.5q0 -209 -156 -395q-57 -67 -153.5 -150.5t-162.5 -134.5h482v-311h-1030z" />
    <glyph glyph-name="three" unicode="3" horiz-adv-x="1216" 
d="M16 117l150 252q48 -37 143 -71t217 -34q120 0 177 43.5t57 110.5q0 147 -230 147h-141q-41 74 -41 158q0 74 42.5 109.5t133.5 35.5h21q104 0 150 38t46 100q0 63 -51.5 105t-165.5 42q-65 0 -121 -18t-90 -45t-54.5 -52.5t-27.5 -46.5q-69 12 -119.5 64.5t-50.5 115.5
q0 72 52 129q17 20 47 41t81 45.5t131 40t175 15.5q131 0 234.5 -32.5t168 -88t98 -127t33.5 -152.5q0 -108 -55.5 -189t-142.5 -128q112 -45 166.5 -130.5t54.5 -193.5q0 -195 -149 -315.5t-388 -120.5q-113 0 -213.5 18t-169.5 46.5t-105.5 48.5t-62.5 39z" />
    <glyph glyph-name="four" unicode="4" horiz-adv-x="1298" 
d="M502 580h233v477q-104 -62 -196 -176q-133 -166 -133 -248q0 -32 24 -42.5t72 -10.5zM735 0v272h-309q-163 0 -260.5 64t-97.5 199q0 126 62.5 257t160.5 246q129 160 282 263.5t293 103.5q125 0 197 -41v-784h18q90 0 130 -36.5t40 -111.5q0 -47 -14 -92t-27 -68h-147
v-272h-328z" />
    <glyph glyph-name="five" unicode="5" horiz-adv-x="1177" 
d="M23 90l127 254q39 -24 137.5 -53t201.5 -29q265 0 265 176q0 37 -12 66.5t-43 57.5t-95 43.5t-158 15.5q-79 0 -183.5 -15.5t-149.5 -32.5l20 637q5 100 53 147.5t150 47.5h528q90 0 130 -36.5t40 -111.5q0 -85 -41 -159h-559l-6 -205q41 8 160 8q136 0 236.5 -36
t158 -100.5t84.5 -142.5t27 -171q0 -219 -148.5 -352.5t-408.5 -133.5q-92 0 -177 12t-141.5 28t-102 35t-66.5 31.5t-27 18.5z" />
    <glyph glyph-name="six" unicode="6" horiz-adv-x="1269" 
d="M313 1026l242 324q69 92 182 92q54 0 105.5 -19t77 -37t32.5 -28l-288 -395q28 4 51 4q116 0 209 -37.5t152 -102t90.5 -148t31.5 -179.5q0 -237 -158 -386t-405 -149q-246 0 -400.5 145t-154.5 375q0 136 60.5 264t172.5 277zM399 494q0 -103 65 -167.5t169 -64.5
q108 0 170.5 63.5t62.5 168.5q0 104 -64 169.5t-169 65.5q-104 0 -169 -66t-65 -169z" />
    <glyph glyph-name="seven" unicode="7" horiz-adv-x="1146" 
d="M571 0h-348q16 42 219 501.5t254 583.5h-491q-91 0 -132.5 39.5t-41.5 116.5q0 49 14 94.5t29 69.5h819q88 0 135 -48t47 -140q0 -37 -37 -150q-44 -124 -202.5 -482.5t-264.5 -584.5z" />
    <glyph glyph-name="eight" unicode="8" horiz-adv-x="1392" 
d="M319 715q-88 54 -133 134t-45 169q0 195 151.5 309.5t403.5 114.5t403.5 -114.5t151.5 -309.5q0 -89 -45 -169t-133 -134q101 -54 154 -138.5t53 -181.5q0 -198 -158.5 -314t-425.5 -116t-425 116t-158 314q0 98 52 182t154 138zM473 1008q0 -71 54 -114.5t169 -43.5
t169.5 43.5t54.5 114.5q0 70 -54.5 114.5t-169.5 44.5q-114 0 -168.5 -44.5t-54.5 -114.5zM449 416q0 -75 61.5 -119.5t185.5 -44.5t186 44.5t62 119.5q0 73 -62 117.5t-186 44.5q-123 0 -185 -44.5t-62 -117.5z" />
    <glyph glyph-name="nine" unicode="9" horiz-adv-x="1269" 
d="M262 -16l340 462q-28 -4 -51 -4q-116 0 -209 37.5t-152 102t-90.5 148t-31.5 179.5q0 237 158 386t405 149q246 0 400.5 -145t154.5 -375q0 -136 -60.5 -263.5t-173.5 -277.5l-295 -399h-395zM633 680q104 0 168.5 66t64.5 169t-64.5 167.5t-168.5 64.5
q-108 0 -171 -63.5t-63 -168.5q0 -104 64.5 -169.5t169.5 -65.5z" />
    <glyph glyph-name="colon" unicode=":" horiz-adv-x="690" 
d="M346 649q-80 0 -138 58.5t-58 140.5q0 80 58 138t138 58t138.5 -58.5t58.5 -137.5q0 -81 -58.5 -140t-138.5 -59zM346 -35q-80 0 -138 58.5t-58 140.5q0 80 58 138t138 58t138.5 -58.5t58.5 -137.5q0 -81 -58.5 -140t-138.5 -59z" />
    <glyph glyph-name="semicolon" unicode=";" horiz-adv-x="690" 
d="M37 -258l139 477q22 72 58 106.5t106 34.5q106 0 192 -86l-268 -618zM346 649q-80 0 -138 58.5t-58 140.5q0 80 58 138t138 58t138.5 -58.5t58.5 -137.5q0 -81 -58.5 -140t-138.5 -59z" />
    <glyph glyph-name="less" unicode="&#x3c;" horiz-adv-x="1290" 
d="M211 862l938 377v-340l-569 -197l569 -196v-340l-889 356q-119 47 -119 180q0 98 70 160z" />
    <glyph glyph-name="equal" unicode="=" horiz-adv-x="1290" 
d="M137 1114h901q77 0 111.5 -41.5t34.5 -122.5q0 -77 -31 -149h-901q-77 0 -111.5 41.5t-34.5 122.5q0 77 31 149zM137 604h901q77 0 111.5 -41.5t34.5 -122.5q0 -77 -31 -149h-901q-77 0 -111.5 41.5t-34.5 122.5q0 77 31 149z" />
    <glyph glyph-name="greater" unicode="&#x3e;" horiz-adv-x="1290" 
d="M141 166v340l570 196l-570 197v340l889 -356q119 -47 119 -181q0 -97 -70 -159z" />
    <glyph glyph-name="question" unicode="?" horiz-adv-x="1110" 
d="M322 451v47q0 101 38 164.5t125 113.5q52 30 82.5 50t62.5 48t46 60t14 70q0 66 -51 110.5t-156 44.5q-102 0 -172.5 -42t-109.5 -109q-66 14 -112 64t-46 110q0 75 51 131q25 28 67 54t137.5 50.5t215.5 24.5q128 0 228 -32.5t161.5 -89.5t93 -130t31.5 -158
q0 -77 -18.5 -141.5t-53 -112t-68.5 -80t-79 -63.5q-11 -7 -37.5 -25t-35.5 -24.5t-28 -21t-26 -24.5t-16.5 -24.5t-13 -30.5t-3.5 -34h-327zM289 156q0 76 58 132t138 56t138.5 -56t58.5 -132q0 -78 -58.5 -134.5t-138.5 -56.5t-138 56.5t-58 134.5z" />
    <glyph glyph-name="at" unicode="@" horiz-adv-x="2023" 
d="M1440 -76l108 -252q-173 -84 -512 -84q-166 0 -314 44t-264.5 126.5t-201 195.5t-129.5 255t-45 301q0 266 120 479t332.5 333t477.5 120q133 0 255.5 -31t224.5 -88.5t186 -141.5t142.5 -186t90 -226t31.5 -259q0 -139 -26.5 -246t-72.5 -219q-69 -9 -268.5 -18
t-425.5 -9q-75 0 -132.5 2.5t-119.5 11t-106.5 22.5t-86.5 38t-67.5 57.5t-41 81.5t-15.5 109q0 155 105.5 231t326.5 76q36 0 129 -6q0 63 -41 99t-154 36q-158 0 -229 -55q-17 10 -43.5 47t-26.5 82q0 86 77.5 124t248.5 38q454 0 454 -379v-391l191 8q9 32 20 106t11 154
q0 292 -177.5 472.5t-459.5 180.5q-185 0 -330.5 -83t-226 -232t-80.5 -338q0 -143 48 -262.5t136.5 -204.5t220 -132.5t291.5 -47.5q133 0 234 21t135 40zM1143 240v206q-55 11 -105 11q-57 0 -93.5 -8t-54 -24.5t-23 -34t-5.5 -44.5q0 -56 35 -84.5t137 -28.5q74 0 109 7z
" />
    <glyph glyph-name="A" unicode="A" horiz-adv-x="1574" 
d="M365 0h-355q205 543 535 1284q38 87 94 122.5t149 35.5q90 0 193 -62q80 -135 292.5 -650t291.5 -730h-377q-12 31 -49.5 130.5t-65.5 172.5h-596q-14 -36 -52 -141.5t-60 -161.5zM600 612h356q-126 343 -178 457q-45 -101 -178 -457z" />
    <glyph glyph-name="B" unicode="B" horiz-adv-x="1400" 
d="M143 0v1223q0 85 40.5 128t101.5 52q121 22 366 22q148 0 261 -20.5t184.5 -55t116.5 -87t63 -110.5t18 -130q0 -114 -48.5 -191.5t-115.5 -115.5q37 -14 70.5 -37.5t66.5 -60.5t52.5 -94t19.5 -126q0 -80 -17.5 -140.5t-63.5 -114.5t-122 -88.5t-196 -54t-283 -19.5
q-76 0 -155 2t-139 5t-109 6t-78.5 5t-32.5 2zM477 854h297q94 0 135 38t41 95q0 31 -10 54.5t-36 45.5t-78.5 34t-129.5 12q-128 0 -219 -13v-266zM477 557v-270q91 -13 244 -13q150 0 209 36.5t59 109.5q0 137 -188 137h-324z" />
    <glyph glyph-name="C" unicode="C" horiz-adv-x="1374" 
d="M1348 104h4q-27 -21 -65.5 -41t-101.5 -45t-154 -40t-193 -15q-124 0 -236 29t-207 89.5t-165 146.5t-109 206t-39 262q0 139 37.5 259t106 208.5t161.5 151.5t206 95t238 32q256 0 420 -105q88 -66 88 -151q0 -67 -46 -128.5t-85 -82.5q-153 153 -362 153
q-181 0 -293.5 -117t-112.5 -315t119.5 -306.5t310.5 -108.5q106 0 190 26t134 62z" />
    <glyph glyph-name="D" unicode="D" horiz-adv-x="1538" 
d="M485 1110v-807q64 -8 156 -8q213 0 335 101t122 309q0 188 -111.5 300.5t-329.5 112.5q-140 0 -172 -8zM143 0v1223q0 85 40.5 128t101.5 52q112 22 333 22q255 0 442.5 -82t291.5 -245.5t104 -392.5q0 -347 -222.5 -536t-647.5 -189q-343 0 -443 20z" />
    <glyph glyph-name="E" unicode="E" horiz-adv-x="1312" 
d="M143 0v1210q0 195 203 195h701q91 0 132.5 -39.5t41.5 -116.5q0 -49 -14 -94.5t-29 -69.5h-693v-219h535q91 0 132.5 -39t41.5 -116q0 -49 -14 -94.5t-29 -69.5h-666v-228h725v-319h-1067z" />
    <glyph glyph-name="F" unicode="F" horiz-adv-x="1214" 
d="M143 0v1210q0 195 203 195h653q91 0 133 -39.5t42 -116.5q0 -49 -14.5 -94t-29.5 -70h-645v-237h461q91 0 132.5 -39.5t41.5 -116.5q0 -49 -14 -94.5t-29 -69.5h-592v-528h-342z" />
    <glyph glyph-name="G" unicode="G" horiz-adv-x="1474" 
d="M1026 283v233h-125q-92 0 -133 37.5t-41 114.5q0 88 43 159h389q203 0 203 -194v-633q-21 -5 -78 -12.5t-164.5 -16t-208.5 -8.5q-249 0 -433.5 80.5t-290 248t-105.5 408.5q0 225 101 394.5t277.5 258.5t401.5 89q262 0 412 -99q86 -53 86 -137q0 -110 -131 -207
q-134 134 -361 134q-200 0 -315 -117.5t-115 -315.5q0 -214 120.5 -319t342.5 -105q90 0 125 7z" />
    <glyph glyph-name="H" unicode="H" horiz-adv-x="1515" 
d="M485 0h-342v1253q0 152 179 152q75 0 163 -33v-481h545v362q0 152 178 152q76 0 164 -33v-1372h-342v567h-545v-567z" />
    <glyph glyph-name="I" unicode="I" horiz-adv-x="628" 
d="M485 0h-342v1253q0 152 179 152q75 0 163 -33v-1372z" />
    <glyph glyph-name="J" unicode="J" horiz-adv-x="1226" 
d="M16 231l236 203q41 -59 72 -87q87 -79 204 -79t172.5 56.5t55.5 185.5v743q0 152 178 152q76 0 164 -33v-883q0 -243 -138 -384.5t-409 -141.5q-97 0 -185 24t-145.5 57.5t-105 74t-68.5 67.5t-31 45z" />
    <glyph glyph-name="K" unicode="K" horiz-adv-x="1433" 
d="M485 0h-342v1253q0 152 179 152q75 0 163 -33v-522q271 306 445 463q31 27 55 44t66 32.5t88 15.5q83 0 140 -31.5t85 -64.5q-428 -428 -543 -559q171 -183 311.5 -358.5t290.5 -391.5h-419q-110 149 -258 324t-261 288v-612z" />
    <glyph glyph-name="L" unicode="L" horiz-adv-x="1144" 
d="M1135 0h-992v1253q0 152 179 152q75 0 163 -33v-1053h650v-319z" />
    <glyph glyph-name="M" unicode="M" horiz-adv-x="1851" 
d="M133 0l70 1229q8 176 200 176q71 0 128 -20t81 -42q17 -36 92 -193t126 -260.5t102 -199.5q187 375 274 563q36 83 91.5 117.5t132.5 34.5q68 0 126 -18.5t84 -36.5l78 -1350h-344l-47 840q-126 -259 -274 -588h-254q-82 205 -275 586l-45 -838h-346z" />
    <glyph glyph-name="N" unicode="N" horiz-adv-x="1513" 
d="M143 0v1227q0 51 16 87t44.5 55t60 27.5t68.5 8.5q63 0 107 -16.5t63 -32.5q29 -29 240.5 -338.5t289.5 -437.5v673q0 152 178 152q83 0 160 -33v-1372h-321q-58 96 -260 403.5t-308 460.5v-864h-338z" />
    <glyph glyph-name="O" unicode="O" horiz-adv-x="1683" 
d="M82 702q0 153 59 290.5t160 236t242 156t299 57.5t299 -57.5t242 -156t160 -236t59 -290.5q0 -205 -100 -374.5t-274.5 -267t-385.5 -97.5t-385.5 97.5t-274.5 267t-100 374.5zM842 283q176 0 288.5 119.5t112.5 299.5q0 181 -112.5 300.5t-288.5 119.5t-289 -119.5
t-113 -300.5q0 -180 113 -299.5t289 -119.5z" />
    <glyph glyph-name="P" unicode="P" horiz-adv-x="1368" 
d="M477 1124v-379q2 0 18.5 -2.5t32 -4.5t47.5 -3.5t70 -1.5q299 0 299 199q0 30 -5 54.5t-23.5 53t-49 48t-86.5 32.5t-131 13q-109 0 -172 -9zM143 0v1223q0 85 40.5 128t101.5 52q121 22 366 22q142 0 254 -27.5t184 -73.5t119 -110t66.5 -133.5t19.5 -148.5
q0 -111 -35.5 -199t-107.5 -154t-190 -101.5t-275 -35.5q-43 0 -91.5 4t-81 7.5t-36.5 3.5v-457h-334z" />
    <glyph glyph-name="Q" unicode="Q" horiz-adv-x="1683" 
d="M1311 -223l-187 243q-114 -51 -282 -51q-211 0 -385.5 96t-274.5 264t-100 373q0 153 59 290.5t160 236t242 156t299 57.5t299 -57.5t242 -156t160 -236t59 -290.5q0 -151 -57.5 -284.5t-158.5 -227.5l179 -219zM920 283l-48 59q-79 99 -79 150q0 46 24 80t62 51
t74.5 24.5t72.5 7.5l152 -200q28 39 46.5 105.5t18.5 141.5q0 181 -112.5 300.5t-288.5 119.5t-289 -119.5t-113 -300.5q0 -180 113.5 -301.5t288.5 -121.5q63 0 78 4z" />
    <glyph glyph-name="R" unicode="R" horiz-adv-x="1413" 
d="M143 0v1223q0 85 40.5 128t101.5 52q121 22 366 22q142 0 254 -26.5t184 -71t119 -107t66.5 -131t19.5 -147.5q0 -269 -219 -387q149 -238 297 -555h-391q-1 3 -28 60l-49.5 104.5t-54 111t-60 115t-48.5 80.5q-26 -4 -120 -4q-116 0 -144 8v-475h-334zM477 1126v-360
q4 0 23.5 -2.5t60.5 -5t96 -2.5q86 0 145 15t88.5 42.5t41.5 57.5t12 69q0 37 -11 67.5t-40.5 61.5t-93 48.5t-156.5 17.5q-103 0 -166 -9z" />
    <glyph glyph-name="S" unicode="S" horiz-adv-x="1396" 
d="M61 131l142 270q43 -36 186.5 -83.5t315.5 -47.5q79 0 131 10.5t76.5 31t33 41t8.5 48.5q0 52 -41.5 82.5t-146.5 48.5l-209 37q-73 13 -132.5 30.5t-122.5 50.5t-105 76t-69.5 110t-27.5 151q0 96 35.5 177.5t105.5 144t182.5 98t256.5 35.5q99 0 184.5 -11t142 -29
t88.5 -31.5t54 -27.5q98 -56 98 -141q0 -62 -37 -116.5t-77 -84.5q-51 51 -173.5 96.5t-275.5 45.5q-76 0 -126 -12.5t-72 -34.5t-29.5 -42t-7.5 -46q0 -28 10.5 -46.5t52 -38.5t119.5 -36l217 -43q239 -46 353 -143t114 -281q0 -216 -161.5 -336.5t-453.5 -120.5
q-122 0 -242 22t-201 52.5t-132 55.5t-64 38z" />
    <glyph glyph-name="T" unicode="T" horiz-adv-x="1366" 
d="M512 0v1085h-328q-91 0 -132.5 39.5t-41.5 116.5q0 49 14 94.5t29 69.5h1129q91 0 132.5 -39.5t41.5 -116.5q0 -49 -14 -94.5t-29 -69.5h-459v-1085h-342z" />
    <glyph glyph-name="U" unicode="U" horiz-adv-x="1556" 
d="M129 623v630q0 152 178 152q76 0 164 -33v-715q0 -193 69 -285.5t238 -92.5t238 92.5t69 285.5v596q0 152 179 152q75 0 163 -33v-749q0 -314 -168.5 -487t-480.5 -173t-480.5 173t-168.5 487z" />
    <glyph glyph-name="V" unicode="V" horiz-adv-x="1478" 
d="M897 0h-354q-127 249 -268.5 571.5t-190.5 446.5q-1 3 -15.5 37t-18 43t-14.5 38.5t-14.5 45.5t-7.5 39t-4 43q0 141 168 141q99 0 164 -37q66 -191 181 -483t202 -492q164 394 338 858q31 83 75 118.5t132 35.5q26 0 52.5 -5t46 -12t38.5 -16.5t30 -17t21 -14.5l10 -7
q-57 -146 -255 -613.5t-316 -719.5z" />
    <glyph glyph-name="W" unicode="W" horiz-adv-x="2068" 
d="M799 0h-363q-77 175 -194 503.5t-164 479.5q-7 22 -24.5 76t-23.5 76t-13 57.5t-7 64.5q0 70 42.5 109t123.5 39q99 0 164 -37q38 -156 125 -439.5t156 -486.5q26 91 59 212.5t55.5 209t55.5 218t45 175.5q19 74 59.5 111t126.5 37q51 0 100 -15.5t70 -27.5
q36 -163 107 -452.5t120 -465.5q134 405 234 799q24 89 67.5 125.5t134.5 36.5q25 0 51 -4.5t46 -10.5t40 -14t31.5 -14t22.5 -12l12 -7q-158 -578 -469 -1343h-364q-36 88 -101.5 321.5t-107.5 421.5q-166 -620 -217 -743z" />
    <glyph glyph-name="X" unicode="X" horiz-adv-x="1538" 
d="M416 0h-396q333 427 525 680q-243 297 -355 418q-84 96 -84 164q0 67 45.5 105t120.5 38q84 0 138 -33q6 -7 63.5 -80.5t131.5 -166.5t147 -183q248 333 252 338q57 74 100 99.5t115 25.5q50 0 100 -19.5t75 -37.5t42 -35q-180 -220 -482 -613q72 -89 231.5 -284
t234 -288.5t98.5 -127.5h-416q-22 25 -143 180t-209 260q-85 -108 -199.5 -262t-134.5 -178z" />
    <glyph glyph-name="Y" unicode="Y" horiz-adv-x="1415" 
d="M516 0v518q-192 236 -362 469q-4 5 -19 26.5t-21.5 31t-21 30.5t-21.5 33.5t-18.5 32t-17.5 33.5t-12.5 31t-9.5 32t-3 29q0 69 44 104t114 35q89 0 147 -33q68 -105 188.5 -281.5t188.5 -267.5q84 112 305 457q18 26 32 42t40 38.5t62 33.5t81 11q65 0 118 -26t75 -48
q-42 -91 -215.5 -344t-331.5 -469v-518h-342z" />
    <glyph glyph-name="Z" unicode="Z" horiz-adv-x="1318" 
d="M20 0v293q221 210 460.5 448t334.5 344h-584q-91 0 -132.5 39.5t-41.5 116.5q0 49 14 94.5t29 69.5h973q98 0 151.5 -43.5t53.5 -128.5q0 -37 -11 -72t-37.5 -74t-46 -63t-61.5 -72q-271 -303 -612 -633h760v-319h-1250z" />
    <glyph glyph-name="bracketleft" unicode="[" horiz-adv-x="720" 
d="M143 -260v1573q0 194 203 194h332q9 -17 20 -64.5t11 -90.5q0 -156 -134 -156h-118v-1145h233v-311h-547z" />
    <glyph glyph-name="backslash" unicode="\" horiz-adv-x="753" 
d="M754 0h-314l-440 1430q19 27 67 53t111 26q64 0 97 -31.5t53 -97.5z" />
    <glyph glyph-name="bracketright" unicode="]" horiz-adv-x="720" 
d="M578 -260h-547v311h233v1145h-119q-133 0 -133 156q0 43 11 90.5t20 64.5h332q203 0 203 -194v-1573z" />
    <glyph glyph-name="asciicircum" unicode="^" horiz-adv-x="1069" 
d="M41 678l303 584q42 83 83.5 114t104.5 31q91 0 150 -59l346 -670h-319l-179 358l-180 -358h-309z" />
    <glyph glyph-name="underscore" unicode="_" 
d="M0 -264v121h1024v-121h-1024z" />
    <glyph glyph-name="grave" unicode="`" 
d="M682 1167l-432 185q0 9 7 31t22 52t47 52t73 22q52 0 138 -57l235 -149z" />
    <glyph glyph-name="a" unicode="a" horiz-adv-x="1191" 
d="M1079 625v-619q-33 -10 -177 -22.5t-308 -12.5q-533 0 -533 344q0 187 119.5 269t384.5 82q125 0 183 -9q0 154 -252 154q-77 0 -141.5 -13t-91.5 -24.5t-44 -23.5q-74 74 -74 145q0 178 365 178q569 0 569 -448zM750 215v219q-42 10 -162 10q-113 0 -156 -34t-43 -91
q0 -22 6.5 -39t26 -35.5t62.5 -29t108 -10.5q128 0 158 10z" />
    <glyph glyph-name="b" unicode="b" horiz-adv-x="1294" 
d="M88 569v795q0 145 172 145q76 0 156 -30v-518q112 112 301 112q139 0 254 -67.5t183.5 -194.5t68.5 -289q0 -122 -43.5 -225t-119 -174.5t-179.5 -111.5t-224 -40q-149 0 -269 53.5t-198 155.5q-102 136 -102 389zM649 274q103 0 169.5 68t66.5 178t-66.5 181t-169.5 71
q-102 0 -168.5 -72.5t-66.5 -179.5q0 -114 65 -180t170 -66z" />
    <glyph glyph-name="c" unicode="c" horiz-adv-x="1060" 
d="M913 340l144 -250q-180 -119 -418 -119q-113 0 -214 35t-180.5 102t-126 174t-46.5 240q0 129 46 234t125 174t184 106t224 37q110 0 204.5 -27.5t141.5 -74.5q50 -50 50 -109q0 -60 -37.5 -108t-77.5 -72q-100 100 -258 100q-112 0 -188 -68.5t-76 -191.5
q0 -128 74.5 -191t193.5 -63q80 0 148 26.5t87 45.5z" />
    <glyph glyph-name="d" unicode="d" horiz-adv-x="1294" 
d="M1206 1479v-910q0 -253 -102 -389q-78 -102 -198 -155.5t-269 -53.5q-160 0 -288.5 68t-202.5 194.5t-74 288.5t68.5 289t183.5 194.5t254 67.5q189 0 301 -112v403q0 145 172 145q75 0 155 -30zM645 274q105 0 170.5 66t65.5 180q0 107 -67 179.5t-169 72.5
q-103 0 -169 -71t-66 -181t66 -178t169 -68z" />
    <glyph glyph-name="e" unicode="e" horiz-adv-x="1148" 
d="M494 385h-72q9 -55 76 -96t194 -41q64 0 128 14t97.5 28t40.5 21l115 -229q-33 -21 -81 -42t-153.5 -45t-217.5 -24q-115 0 -215 37.5t-175 106.5t-118 174t-43 233q0 244 160 397.5t401 153.5q214 0 342.5 -107t128.5 -255q0 -64 -16.5 -112.5t-58 -90t-110 -67.5
t-174.5 -41t-249 -15zM406 598q88 0 154.5 4.5t106 13.5t65 18.5t36 24.5t13.5 26t3 28q0 45 -40.5 75.5t-114.5 30.5q-103 0 -160.5 -65.5t-62.5 -155.5z" />
    <glyph glyph-name="f" unicode="f" horiz-adv-x="870" 
d="M123 0v1077q0 218 116.5 325t321.5 107q173 0 262 -55q70 -38 70 -115q0 -45 -26.5 -84.5t-61.5 -58.5q-25 24 -77.5 40.5t-106.5 16.5q-80 0 -124 -41.5t-44 -121.5v-46h227q90 0 130 -36t40 -111q0 -47 -14 -92t-27 -68h-356v-737h-330z" />
    <glyph glyph-name="g" unicode="g" horiz-adv-x="1294" 
d="M162 -338l90 236q11 -8 49.5 -22t116 -29t155.5 -15q141 0 222.5 66.5t81.5 212.5v22q-20 -20 -50.5 -41.5t-101 -46.5t-147.5 -25q-227 0 -366.5 135.5t-139.5 374.5t161.5 391t413.5 152q143 0 262.5 -53.5t196.5 -155.5q51 -68 75.5 -157t24.5 -220v-305
q0 -156 -44.5 -274.5t-126 -191.5t-188.5 -109.5t-239 -36.5q-156 0 -282 32.5t-164 59.5zM410 530q0 -113 63 -172t170 -59q101 0 167.5 64t66.5 167q0 104 -67 171t-167 67q-101 0 -167 -69t-66 -169z" />
    <glyph glyph-name="h" unicode="h" horiz-adv-x="1263" 
d="M113 0v1364q0 145 172 145q75 0 155 -30v-496q100 92 281 92q93 0 170.5 -26.5t136 -78.5t91 -137t32.5 -196v-637h-330v569q0 103 -45.5 151t-138.5 48q-195 0 -195 -227v-541h-329z" />
    <glyph glyph-name="i" unicode="i" horiz-adv-x="575" 
d="M123 0v899q0 145 172 145q78 0 158 -30v-1014h-330zM104 1325q0 78 52.5 131t130.5 53t131 -53t53 -131t-53 -130t-131 -52t-130.5 52t-52.5 130z" />
    <glyph glyph-name="j" unicode="j" horiz-adv-x="575" 
d="M-264 -367l82 244q68 -35 155 -35q150 0 150 148v909q0 145 172 145q78 0 158 -30v-998q0 -124 -34.5 -214t-96 -139t-134 -71t-161.5 -22q-82 0 -170.5 22.5t-120.5 40.5zM104 1325q0 78 52.5 131t130.5 53t131 -53t53 -131t-53 -130t-131 -52t-130.5 52t-52.5 130z" />
    <glyph glyph-name="k" unicode="k" horiz-adv-x="1230" 
d="M113 0v1364q0 145 172 145q77 0 157 -30v-783q42 36 152 126t143 120q50 43 73.5 59.5t62.5 29.5t92 13q73 0 129.5 -36.5t79.5 -75.5q-46 -49 -128 -118t-181 -147.5t-126 -101.5q282 -256 492 -565h-408q-27 36 -61.5 77.5t-60 70t-72.5 77.5t-62 64.5t-69 69t-56 55.5
v-414h-329z" />
    <glyph glyph-name="l" unicode="l" horiz-adv-x="575" 
d="M123 0v1364q0 145 172 145q78 0 158 -30v-1479h-330z" />
    <glyph glyph-name="m" unicode="m" horiz-adv-x="1902" 
d="M113 0v670q0 193 130 298t337 105q247 0 374 -155q127 155 371 155q133 0 237 -44.5t166 -137t62 -221.5v-670h-330v575q0 195 -164 195q-83 0 -131.5 -55t-48.5 -168v-547h-330v547q0 113 -47.5 168t-130.5 55q-166 0 -166 -195v-575h-329z" />
    <glyph glyph-name="n" unicode="n" horiz-adv-x="1236" 
d="M82 0v633q0 139 71.5 240.5t188 150.5t262.5 49t262 -49t187 -150.5t71 -240.5v-633h-329v557q0 213 -191 213q-192 0 -192 -213v-557h-330z" />
    <glyph glyph-name="o" unicode="o" horiz-adv-x="1298" 
d="M72 522q0 154 77.5 281t209.5 198.5t290 71.5t290.5 -71.5t210 -198.5t77.5 -281t-77.5 -281t-210 -198.5t-290.5 -71.5t-290 71.5t-209.5 198.5t-77.5 281zM649 266q104 0 172 73t68 183t-68 183t-172 73t-171.5 -72.5t-67.5 -183.5t67.5 -183.5t171.5 -72.5z" />
    <glyph glyph-name="p" unicode="p" horiz-adv-x="1294" 
d="M416 -410h-328v885q0 253 102 389q78 102 198 155.5t269 53.5q120 0 224 -40t179.5 -111.5t119 -174.5t43.5 -225t-40 -225t-108.5 -173.5t-161 -109.5t-196.5 -39q-105 0 -180.5 32t-120.5 77v-494zM649 272q103 0 169.5 71t66.5 181t-66.5 178t-169.5 68
q-105 0 -170 -66t-65 -180q0 -107 66.5 -179.5t168.5 -72.5z" />
    <glyph glyph-name="q" unicode="q" horiz-adv-x="1294" 
d="M879 -410v494q-45 -45 -120.5 -77t-180.5 -32q-104 0 -196.5 39t-161 109.5t-108.5 173.5t-40 225q0 162 74 288.5t202.5 194.5t288.5 68q149 0 269 -53.5t198 -155.5q102 -136 102 -389v-885h-327zM645 272q102 0 169 72.5t67 179.5q0 114 -65.5 180t-170.5 66
q-103 0 -169 -68t-66 -178t66 -181t169 -71z" />
    <glyph glyph-name="r" unicode="r" horiz-adv-x="897" 
d="M113 0v655q0 197 124.5 307.5t329.5 110.5q207 0 291 -84q39 -42 39 -96q0 -84 -76 -160q-92 45 -192 45q-84 0 -135.5 -47.5t-51.5 -146.5v-584h-329z" />
    <glyph glyph-name="s" unicode="s" horiz-adv-x="1155" 
d="M51 106l117 213q45 -33 158.5 -66.5t244.5 -33.5q87 0 128.5 16.5t41.5 53.5q0 39 -32.5 54.5t-114.5 27.5l-107 12q-70 9 -125 22t-109.5 38t-90.5 60t-58 89.5t-22 124.5q0 160 121 258t364 98q255 0 383 -67q86 -46 86 -123q0 -86 -96 -144q-13 13 -52 33t-126.5 41
t-186.5 21q-163 0 -163 -78q0 -33 29.5 -48t101.5 -26l186 -27q61 -9 109.5 -22t96.5 -37.5t80 -58.5t52 -85t20 -116q0 -172 -130.5 -268.5t-362.5 -96.5q-113 0 -212.5 15.5t-165 39.5t-104.5 43.5t-61 36.5z" />
    <glyph glyph-name="t" unicode="t" horiz-adv-x="909" 
d="M113 344v862q0 146 172 146q74 0 157 -31v-277h236q90 0 130 -36t40 -111q0 -47 -14 -92t-27 -68h-365v-321q0 -146 156 -146q93 0 172 47l129 -225q-47 -41 -151.5 -81t-225.5 -40q-191 0 -300 101t-109 272z" />
    <glyph glyph-name="u" unicode="u" horiz-adv-x="1269" 
d="M442 1014v-527q0 -213 193 -213q192 0 192 213v412q0 145 172 145q78 0 158 -30v-588q0 -147 -69.5 -251.5t-185.5 -154t-267 -49.5t-267 49.5t-185.5 154t-69.5 251.5v473q0 145 172 145q77 0 157 -30z" />
    <glyph glyph-name="v" unicode="v" horiz-adv-x="1208" 
d="M737 0h-305q-110 195 -221 427t-135 296q-56 134 -56 184q0 60 42.5 98.5t121.5 38.5q40 0 76.5 -6.5t54 -13t23.5 -10.5q61 -177 139 -368.5t115 -270.5q15 31 53 123.5t92.5 228.5t69.5 174q28 72 69 107.5t123 35.5q94 0 189 -57q-22 -96 -186 -444.5t-265 -542.5z
" />
    <glyph glyph-name="w" unicode="w" horiz-adv-x="1714" 
d="M672 0h-318q-89 195 -173.5 411.5t-114.5 305.5q-2 5 -10 26t-12.5 35t-11 35.5t-9.5 43.5t-3 44q0 61 42 102t120 41q92 0 152 -30q150 -521 182 -617q38 113 148 512q21 70 57 102.5t117 32.5q47 0 91 -13t62 -23l174 -611q64 188 140 465q27 98 71 140t131 42
q31 0 60 -5.5t50.5 -13.5t37.5 -16t27 -15t12 -7q-29 -122 -152 -446t-225 -541h-316q-17 47 -79.5 264.5t-85.5 286.5q-26 -82 -89 -297.5t-75 -253.5z" />
    <glyph glyph-name="x" unicode="x" horiz-adv-x="1306" 
d="M418 0h-398q24 27 402 485q-226 243 -258 281q-36 43 -54 77t-18 77q0 53 42.5 88.5t125.5 35.5q79 0 154 -32q6 -11 89.5 -112.5t139.5 -166.5q48 64 110 141t78 93q66 77 173 77q75 0 140.5 -32.5t80.5 -59.5q-6 -8 -142 -168.5t-231 -275.5l434 -508h-416
q-44 53 -233 270z" />
    <glyph glyph-name="y" unicode="y" horiz-adv-x="1269" 
d="M154 -354l79 241q35 -15 122.5 -35t183.5 -20q158 0 227.5 68t69.5 223q-37 -46 -117 -74.5t-162 -28.5q-96 0 -176 24.5t-140.5 72t-94 125t-33.5 176.5v481q0 145 172 145q77 0 157 -30v-529q0 -97 46 -140.5t145 -43.5q94 0 144 54t50 163v381q0 145 172 145
q78 0 158 -30v-869q0 -153 -40.5 -265t-117.5 -179t-179 -99t-234 -32q-107 0 -212 17.5t-156 34t-64 24.5z" />
    <glyph glyph-name="z" unicode="z" horiz-adv-x="1124" 
d="M39 0v256q461 402 553 487h-383q-91 0 -130.5 34t-39.5 108q0 85 41 159h811q74 0 119 -40.5t45 -116.5q0 -51 -21.5 -92t-72.5 -88q-38 -38 -229.5 -208.5t-252.5 -219.5h580v-279h-1020z" />
    <glyph glyph-name="braceleft" unicode="{" horiz-adv-x="784" 
d="M741 -260h-182q-156 0 -245 88t-89 248v223q0 164 -141 164h-53v321h53q141 0 141 164v223q0 160 89 248t245 88h174q9 -17 20 -64.5t11 -90.5q0 -156 -127 -156q-54 0 -71 -23.5t-17 -66.5v-211q0 -204 -123 -272q123 -64 123 -271v-211q0 -22 2 -35t10.5 -27.5t28 -21
t51.5 -6.5h100v-311z" />
    <glyph glyph-name="bar" unicode="|" horiz-adv-x="581" 
d="M143 -270v1650q0 69 40 99t116 30q78 0 139 -26v-1753h-295z" />
    <glyph glyph-name="braceright" unicode="}" horiz-adv-x="784" 
d="M43 -260v311h100q60 0 76.5 22.5t16.5 67.5v211q0 207 122 271q-122 68 -122 272v211q0 43 -17.5 66.5t-71.5 23.5q-127 0 -127 156q0 43 11 90.5t20 64.5h174q156 0 245 -88t89 -248v-223q0 -164 141 -164h54v-321h-54q-141 0 -141 -164v-223q0 -160 -89 -248t-245 -88
h-182z" />
    <glyph glyph-name="asciitilde" unicode="~" horiz-adv-x="1290" 
d="M340 502h-256q0 395 330 395q36 0 80 -7.5t73 -15.5t80.5 -23.5t71.5 -21.5q105 -32 149 -32q38 0 57 22t23 82h256q0 -395 -330 -395q-37 0 -81 7.5t-72 15t-81.5 23.5t-70.5 21q-108 33 -149 33q-38 0 -57 -22t-23 -82z" />
    <glyph glyph-name="uni00A0" unicode="&#xa0;" horiz-adv-x="503" 
 />
    <glyph glyph-name="exclamdown" unicode="&#xa1;" horiz-adv-x="569" 
d="M121 16v873h330v-758q0 -145 -172 -145q-78 0 -158 30zM88 1235q0 78 58.5 134t138.5 56t138 -56t58 -134q0 -76 -58 -132t-138 -56t-138.5 56t-58.5 132z" />
    <glyph glyph-name="cent" unicode="&#xa2;" horiz-adv-x="1120" 
d="M582 -74v230q-101 13 -188 53t-155 106t-106.5 165.5t-38.5 221.5q0 153 66 272.5t175 187.5t247 85v170q0 78 88 78q14 0 29.5 -2.5t25 -5t19 -5.5t10.5 -3v-230q188 -23 266 -98q49 -49 49 -109t-37.5 -108t-77.5 -72q-77 77 -200 96v-507q64 9 114 31t68 38l143 -250
q-140 -94 -325 -114v-230h-172zM582 467v473q-69 -27 -109.5 -88t-40.5 -150q0 -179 150 -235z" />
    <glyph glyph-name="sterling" unicode="&#xa3;" horiz-adv-x="1253" 
d="M174 0v911q0 255 149 393t412 138q128 0 231 -31.5t158 -79.5q56 -53 56 -112q0 -65 -43 -114.5t-93 -78.5q-118 109 -294 109q-126 0 -187 -61.5t-61 -168.5v-26h370q90 0 130 -37t40 -113q0 -47 -14.5 -93.5t-26.5 -68.5h-499v-256h678v-311h-1006z" />
    <glyph glyph-name="currency" unicode="&#xa4;" horiz-adv-x="1331" 
d="M434 274l-139 -139l-197 197l135 135q-61 113 -61 235q0 123 61 236l-135 135l197 197l139 -137q113 55 232 55q112 0 231 -58l139 140l197 -197l-135 -135q61 -113 61 -236q0 -122 -61 -235l135 -135l-197 -197l-137 139q-117 -57 -233 -57q-115 0 -232 57zM666 459
q98 0 167.5 71t69.5 172t-69.5 172.5t-167.5 71.5q-100 0 -169 -71.5t-69 -172.5t69 -172t169 -71z" />
    <glyph glyph-name="yen" unicode="&#xa5;" horiz-adv-x="1386" 
d="M502 0v324h-322q-98 0 -98 100q0 47 20 94h400q-44 53 -117 156h-205q-98 0 -98 100q0 47 20 94h150l-82 119q-43 63 -59.5 88.5t-38.5 64t-28.5 65t-6.5 55.5q0 72 45 108.5t115 36.5q87 0 141 -27q21 -34 149 -248t191 -311q56 89 264 461q18 26 32 42t40 38.5t62 33.5
t81 11q65 0 118 -26t75 -48q-66 -138 -277 -463h98q99 0 99 -100q0 -59 -21 -94h-297l-108 -156h327q99 0 99 -100q0 -59 -21 -94h-405v-324h-342z" />
    <glyph glyph-name="brokenbar" unicode="&#xa6;" horiz-adv-x="581" 
d="M143 -270v592h295v-592h-295zM143 913v467q0 69 40 99t116 30q78 0 139 -26v-570h-295z" />
    <glyph glyph-name="section" unicode="&#xa7;" horiz-adv-x="1323" 
d="M88 -287l123 254q8 -5 28.5 -14.5t65 -25.5t95 -29t122 -23t142.5 -10q103 0 163 30t60 93q0 50 -41 82t-139 49l-193 26q-195 30 -306.5 123t-111.5 242q0 99 45.5 172.5t124.5 118.5q-55 28 -94.5 81.5t-57.5 110t-18 109.5q0 63 17 119.5t57.5 110t101.5 92t156 62
t215 23.5q285 0 422 -73q94 -51 94 -136q0 -35 -13.5 -65t-34.5 -49.5t-34 -28.5t-22 -14q-13 13 -59.5 34.5t-139 42.5t-190.5 21q-107 0 -163.5 -34.5t-56.5 -96.5q0 -93 156 -115l240 -34q393 -58 393 -345q0 -68 -23.5 -127t-57 -95t-59 -56t-40.5 -25
q39 -24 66.5 -47.5t55.5 -59.5t43 -86.5t15 -113.5q0 -187 -143 -301.5t-422 -114.5q-57 0 -113 4t-103 11t-90.5 16t-79.5 19t-66 20t-54 19.5t-39.5 16.5t-26.5 12zM430 561q0 -162 297 -162q75 0 124.5 39.5t49.5 110.5q0 162 -297 162q-75 0 -124.5 -39.5t-49.5 -110.5z
" />
    <glyph glyph-name="dieresis" unicode="&#xa8;" 
d="M143 1315q0 56 46.5 100.5t107.5 44.5t105 -44t44 -101q0 -58 -44 -103t-105 -45t-107.5 45.5t-46.5 102.5zM580 1315q0 57 44.5 101t106.5 44t106 -44t44 -101q0 -58 -44 -103t-106 -45t-106.5 45t-44.5 103z" />
    <glyph glyph-name="copyright" unicode="&#xa9;" horiz-adv-x="1671" 
d="M82 702q0 153 60 292.5t161 240.5t240.5 161t292.5 60t292.5 -60t240.5 -161t160.5 -240.5t59.5 -292.5t-59.5 -292.5t-160.5 -240.5t-240.5 -160.5t-292.5 -59.5t-292.5 59.5t-240.5 160.5t-161 240.5t-60 292.5zM836 143q148 0 272.5 74.5t196 203t71.5 281.5
q0 115 -42.5 218.5t-114.5 178.5t-172 119t-211 44q-148 0 -272.5 -74.5t-196.5 -203.5t-72 -282t72 -281.5t196.5 -203t272.5 -74.5zM1067 557l100 -176q-35 -31 -112.5 -59.5t-184.5 -28.5q-120 0 -215.5 44t-155 138t-59.5 225q0 194 122 303t308 109q77 0 146.5 -21.5
t105.5 -54.5q35 -27 35 -78q0 -44 -26.5 -80t-55.5 -51q-31 30 -81 52t-107 22q-89 0 -142 -53t-53 -150q0 -92 55.5 -143t149.5 -51q93 0 170 53z" />
    <glyph glyph-name="ordfeminine" unicode="&#xaa;" horiz-adv-x="884" 
d="M797 1108v-455q-202 -28 -355 -28q-413 0 -413 268q0 124 92 188t301 64q8 0 131 -6q0 108 -168 108q-57 0 -109.5 -12.5t-76 -23.5t-27.5 -15q-61 61 -61 107q0 51 53 90q66 49 223 49q197 0 303.5 -82.5t106.5 -251.5zM553 821v152q-42 6 -123 6q-82 0 -118 -17.5
t-36 -66.5q0 -44 39.5 -63t137.5 -19q28 0 100 8z" />
    <glyph glyph-name="guillemotleft" unicode="&#xab;" horiz-adv-x="1316" 
d="M657 211l-186 -172l-352 358q-58 62 -58 129q0 65 58 127l352 361l186 -172l-266 -316zM1255 211l-186 -172l-352 358q-58 62 -58 129q0 65 58 127l352 361l186 -172l-266 -316z" />
    <glyph glyph-name="logicalnot" unicode="&#xac;" horiz-adv-x="1290" 
d="M137 1040h901q77 0 111.5 -41t34.5 -122v-512h-324v362h-608q-77 0 -111.5 41.5t-34.5 122.5q0 77 31 149z" />
    <glyph glyph-name="uni00AD" unicode="&#xad;" horiz-adv-x="690" 
d="M90 713h406q133 0 133 -160q0 -77 -29 -145h-405q-134 0 -134 159q0 78 29 146z" />
    <glyph glyph-name="registered" unicode="&#xae;" horiz-adv-x="1671" 
d="M504 332v659q0 92 98 107q54 12 180 12q104 0 179 -21t116.5 -59t60.5 -83.5t19 -100.5q0 -70 -26 -119.5t-89 -83.5q61 -95 144 -311h-250q-14 44 -46.5 129.5t-55.5 124.5q-10 -2 -52 -2q-53 0 -63 2v-254h-215zM719 938v-178q1 0 9 -0.5t26.5 -1t44.5 -0.5
q76 0 104.5 23t28.5 63q0 96 -141 96q-21 0 -37.5 -0.5t-25 -1t-9.5 -0.5zM82 702q0 153 60 292.5t161 240.5t240.5 161t292.5 60t292.5 -60t240.5 -161t160.5 -240.5t59.5 -292.5t-59.5 -292.5t-160.5 -240.5t-240.5 -160.5t-292.5 -59.5t-292.5 59.5t-240.5 160.5
t-161 240.5t-60 292.5zM836 143q148 0 272.5 74.5t196 203t71.5 281.5q0 115 -42.5 218.5t-114.5 178.5t-172 119t-211 44q-148 0 -272.5 -74.5t-196.5 -203.5t-72 -282t72 -281.5t196.5 -203t272.5 -74.5z" />
    <glyph glyph-name="macron" unicode="&#xaf;" 
d="M182 1417h586q98 0 98 -100q0 -61 -20 -94h-586q-98 0 -98 100q0 47 20 94z" />
    <glyph glyph-name="degree" unicode="&#xb0;" horiz-adv-x="823" 
d="M37 1141q0 155 109.5 261.5t265.5 106.5t265 -106.5t109 -261.5q0 -153 -109 -260t-265 -107t-265.5 107t-109.5 260zM412 989q65 0 109 45t44 107q0 66 -43.5 110.5t-109.5 44.5q-62 0 -107 -45t-45 -110q0 -61 45 -106.5t107 -45.5z" />
    <glyph glyph-name="plusminus" unicode="&#xb1;" horiz-adv-x="1290" 
d="M137 313h346v248h-231q-77 0 -111.5 41.5t-34.5 122.5q0 77 31 149h346v220q0 145 170 145q71 0 154 -31v-334h231q77 0 111.5 -41t34.5 -122q0 -78 -31 -150h-346v-248h231q77 0 111.5 -41t34.5 -122q0 -78 -31 -150h-901q-77 0 -111.5 41.5t-34.5 122.5q0 77 31 149z
" />
    <glyph glyph-name="twosuperior" unicode="&#xb2;" horiz-adv-x="1017" 
d="M98 588v205q30 16 145.5 87.5t186.5 123.5q129 96 129 176q0 42 -27.5 68t-85.5 26q-68 0 -124 -46.5t-72 -80.5q-13 3 -26.5 7t-37 15t-40 25.5t-29.5 39t-13 54.5q0 91 108 156t251 65q199 0 302 -86.5t103 -228.5q0 -55 -26 -109t-59.5 -91.5t-82.5 -74.5t-77.5 -54
t-61.5 -34h313v-243h-776z" />
    <glyph glyph-name="threesuperior" unicode="&#xb3;" horiz-adv-x="1017" 
d="M63 649l82 213l7 -3q7 -3 16 -6.5t22.5 -9t29.5 -10.5t35 -10.5t41 -10t45 -8t50 -5.5t53 -2q134 0 134 71q0 74 -134 74h-96q-5 2 -14 11.5t-19 35.5t-10 58q0 50 27.5 72t95.5 22h14q68 0 95.5 18t27.5 53q0 72 -133 72q-62 0 -115.5 -20.5t-77 -39t-26.5 -26.5
q-35 7 -77 39.5t-42 81.5q0 55 41 96q29 34 110.5 64t217.5 30q108 0 191 -24.5t129 -64.5t68.5 -84.5t22.5 -90.5q0 -135 -137 -196q152 -59 152 -209q0 -117 -106.5 -196t-299.5 -79q-110 0 -212.5 20t-148.5 37.5t-59 26.5z" />
    <glyph glyph-name="acute" unicode="&#xb4;" 
d="M342 1167l-90 136l235 149q86 57 138 57q41 0 73 -22t47 -52t22 -52t7 -31z" />
    <glyph glyph-name="mu" unicode="&#xb5;" horiz-adv-x="1269" 
d="M440 -410h-327v1309q0 145 172 145q77 0 157 -30v-555q0 -213 271 -213q84 0 114 10v643q0 145 172 145q78 0 158 -30v-1014q-150 -29 -371 -29q-104 0 -185.5 20.5t-114 40t-46.5 36.5v-478z" />
    <glyph glyph-name="paragraph" unicode="&#xb6;" horiz-adv-x="1265" 
d="M721 -410h-219v854q-204 20 -316 148.5t-112 339.5q0 78 19 148t63.5 134t111.5 110t169.5 73.5t230.5 27.5q192 0 313 -22q61 -9 101 -52t40 -128v-1633h-219v1612q-49 6 -182 6v-1618z" />
    <glyph glyph-name="periodcentered" unicode="&#xb7;" horiz-adv-x="690" 
d="M346 504q-80 0 -138 58.5t-58 139.5q0 80 58.5 138.5t137.5 58.5q80 0 138.5 -58.5t58.5 -138.5q0 -81 -58.5 -139.5t-138.5 -58.5z" />
    <glyph glyph-name="cedilla" unicode="&#xb8;" 
d="M238 -373l59 140q8 -8 72.5 -25.5t113.5 -17.5q42 0 60 11t18 36q0 27 -37 42t-84 15l35 121q56 0 108.5 -9.5t99.5 -29.5t75 -56.5t28 -84.5q0 -92 -74.5 -146.5t-203.5 -54.5q-102 0 -172 19.5t-98 39.5z" />
    <glyph glyph-name="onesuperior" unicode="&#xb9;" horiz-adv-x="1017" 
d="M403 588v588l-143 -95q-10 3 -27.5 11.5t-42.5 25.5t-43 45t-18 60q0 41 22 71.5t76 65.5l135 86q61 36 95.5 49.5t81.5 13.5q87 0 157 -49v-872h-293z" />
    <glyph glyph-name="ordmasculine" unicode="&#xba;" horiz-adv-x="952" 
d="M47 1032q0 172 124 291t304 119q181 0 305.5 -119t124.5 -291q0 -171 -124.5 -289t-305.5 -118q-180 0 -304 118.5t-124 288.5zM475 860q71 0 115.5 49.5t44.5 122.5q0 74 -44.5 124t-115.5 50q-70 0 -114 -50t-44 -124t43.5 -123t114.5 -49z" />
    <glyph glyph-name="guillemotright" unicode="&#xbb;" horiz-adv-x="1316" 
d="M659 211l267 315l-267 316l187 172l352 -361q57 -61 57 -127q0 -68 -57 -129l-352 -358zM61 211l267 315l-267 316l187 172l352 -361q57 -61 57 -127q0 -68 -57 -129l-352 -358z" />
    <glyph glyph-name="onequarter" unicode="&#xbc;" horiz-adv-x="2088" 
d="M328 588v588l-144 -95q-10 3 -27.5 11.5t-42.5 25.5t-43 45t-18 60q0 41 22 71t77 66l135 86q61 37 95 50t81 13q88 0 158 -49v-872h-293zM406 0l815 1405q20 35 35.5 54t48 34.5t77.5 15.5q26 0 52 -5.5t46 -14t34.5 -16t26.5 -15t13 -8.5l-841 -1450h-307zM1602 2v164
h-273q-105 0 -157 37.5t-52 126.5q0 144 158 329q96 109 219 187t217 78q105 0 160 -31v-516h18q49 0 72 -27t23 -63q0 -61 -27 -121h-86v-164h-272zM1448 381h154v262q-37 -23 -77 -56.5t-61 -58.5q-59 -71 -59 -116q0 -31 43 -31z" />
    <glyph glyph-name="onehalf" unicode="&#xbd;" horiz-adv-x="2166" 
d="M328 588v588l-144 -95q-10 3 -27.5 11.5t-42.5 25.5t-43 45t-18 60q0 41 22 71t77 66l135 86q61 37 95 50t81 13q88 0 158 -49v-872h-293zM408 0l815 1405q20 35 35.5 54t48 34.5t77.5 15.5q26 0 52 -5.5t46 -14t34.5 -16t26.5 -15t13 -8.5l-841 -1450h-307zM1268 2v205
q29 15 144.5 87t186.5 124q130 97 130 176q0 42 -27.5 68t-85.5 26q-48 0 -94.5 -28t-70 -54.5t-32.5 -44.5q-13 3 -26.5 7t-36.5 15t-39.5 25.5t-29.5 39t-13 54.5q0 91 107.5 156.5t250.5 65.5q199 0 302.5 -87t103.5 -229q0 -200 -307 -362h313v-244h-776z" />
    <glyph glyph-name="threequarters" unicode="&#xbe;" horiz-adv-x="2252" 
d="M53 649l82 213l7 -3q7 -3 16 -6.5t22.5 -9t29.5 -10.5t35 -10.5t41 -10t45 -8t50 -5.5t53 -2q133 0 133 71q0 74 -133 74h-96q-5 2 -14 11.5t-19 35.5t-10 58q0 50 27.5 72t95.5 22h14q68 0 95.5 18t27.5 53q0 72 -133 72q-62 0 -115.5 -20.5t-77 -39t-26.5 -26.5
q-35 7 -77 39.5t-42 81.5q0 55 41 96q29 34 110.5 64t217.5 30q108 0 191 -24.5t129 -64.5t68.5 -84.5t22.5 -90.5q0 -135 -137 -196q152 -59 152 -209q0 -117 -106.5 -196t-299.5 -79q-110 0 -212.5 20t-148.5 37.5t-59 26.5zM565 0l815 1405q30 52 63.5 78t98.5 26
q26 0 52 -5.5t46 -14t34.5 -16t26.5 -15t13 -8.5l-842 -1450h-307zM1765 2v164h-272q-105 0 -157 37.5t-52 126.5q0 144 158 329q96 109 219 187t217 78q105 0 160 -31v-516h18q49 0 71.5 -27t22.5 -63q0 -63 -26 -121h-86v-164h-273zM1612 381h153v262q-85 -52 -137 -115
q-59 -71 -59 -116q0 -31 43 -31z" />
    <glyph glyph-name="questiondown" unicode="&#xbf;" horiz-adv-x="1110" 
d="M461 940h327v-47q0 -102 -38 -165.5t-125 -113.5q-53 -30 -83 -49.5t-62 -48t-46 -60t-14 -69.5q0 -66 51 -111t156 -45q101 0 172 42.5t110 109.5q65 -18 111.5 -67t46.5 -107q0 -75 -51 -131q-129 -129 -420 -129q-128 0 -228 32.5t-161.5 89.5t-93 129.5t-31.5 157.5
q0 77 18.5 141.5t53 112.5t68.5 80.5t79 63.5q11 7 37.5 25t35.5 24.5t28 21t26 24.5t16.5 24.5t13 30.5t3.5 34zM428 1235q0 78 58.5 134t138.5 56t138 -56t58 -134q0 -76 -58 -132t-138 -56t-138.5 56t-58.5 132z" />
    <glyph glyph-name="Agrave" unicode="&#xc0;" horiz-adv-x="1574" 
d="M365 0h-355q205 543 535 1284q38 87 94 122.5t149 35.5q90 0 193 -62q80 -135 292.5 -650t291.5 -730h-377q-12 31 -49.5 130.5t-65.5 172.5h-596q-14 -36 -52 -141.5t-60 -161.5zM600 612h356q-126 343 -178 457q-45 -101 -178 -457zM989 1530l-518 166q0 8 3.5 24.5
t14.5 43t27.5 49t47 39t69.5 16.5q58 0 151 -49l277 -140z" />
    <glyph glyph-name="Aacute" unicode="&#xc1;" horiz-adv-x="1574" 
d="M365 0h-355q205 543 535 1284q38 87 94 122.5t149 35.5q90 0 193 -62q80 -135 292.5 -650t291.5 -730h-377q-12 31 -49.5 130.5t-65.5 172.5h-596q-14 -36 -52 -141.5t-60 -161.5zM600 612h356q-126 343 -178 457q-45 -101 -178 -457zM641 1530l-70 149l277 140
q93 49 151 49q39 0 69.5 -16.5t47 -39t27.5 -49t14.5 -43t3.5 -24.5z" />
    <glyph glyph-name="Acircumflex" unicode="&#xc2;" horiz-adv-x="1574" 
d="M365 0h-355q205 543 535 1284q38 87 94 122.5t149 35.5q90 0 193 -62q80 -135 292.5 -650t291.5 -730h-377q-12 31 -49.5 130.5t-65.5 172.5h-596q-14 -36 -52 -141.5t-60 -161.5zM600 612h356q-126 343 -178 457q-45 -101 -178 -457zM786 1653l-319 -127l-82 129
l223 139q4 3 21.5 13.5l25 15t23.5 13.5t26.5 13t25.5 9.5t28.5 7.5t27.5 2q67 0 179 -74l223 -139l-82 -129z" />
    <glyph glyph-name="Atilde" unicode="&#xc3;" horiz-adv-x="1574" 
d="M365 0h-355q205 543 535 1284q38 87 94 122.5t149 35.5q90 0 193 -62q80 -135 292.5 -650t291.5 -730h-377q-12 31 -49.5 130.5t-65.5 172.5h-596q-14 -36 -52 -141.5t-60 -161.5zM600 612h356q-126 343 -178 457q-45 -101 -178 -457zM578 1536l-185 39q19 98 80.5 164.5
t163.5 66.5q67 0 151 -24l52 -17q46 -12 73 -12q53 0 72 70l182 -37q-26 -104 -82 -168t-161 -64q-16 0 -31.5 1.5t-33 5t-28 6t-32.5 8.5t-31 8l-49 14q-50 13 -72 13q-50 0 -69 -74z" />
    <glyph glyph-name="Adieresis" unicode="&#xc4;" horiz-adv-x="1574" 
d="M365 0h-355q205 543 535 1284q38 87 94 122.5t149 35.5q90 0 193 -62q80 -135 292.5 -650t291.5 -730h-377q-12 31 -49.5 130.5t-65.5 172.5h-596q-14 -36 -52 -141.5t-60 -161.5zM600 612h356q-126 343 -178 457q-45 -101 -178 -457zM870 1698q0 59 45 104t109 45
t109 -45t45 -104t-45 -104.5t-109 -45.5t-109 45.5t-45 104.5zM395 1698q0 58 47 103.5t109 45.5t108 -45.5t46 -103.5t-46 -104t-108 -46t-109 46t-47 104z" />
    <glyph glyph-name="Aring" unicode="&#xc5;" horiz-adv-x="1574" 
d="M365 0h-355q205 543 535 1284q35 81 86 117q-78 68 -78 170q0 94 70 162.5t168 68.5q96 0 164.5 -68.5t68.5 -162.5q0 -102 -76 -168q35 -24 62 -74q60 -108 273.5 -627t281.5 -702h-377q-12 31 -49.5 130.5t-65.5 172.5h-596q-14 -36 -52 -141.5t-60 -161.5zM600 612
h356q-126 343 -178 457q-45 -101 -178 -457zM791 1477q41 0 64.5 25.5t23.5 68.5q0 42 -23.5 68t-64.5 26q-42 0 -66.5 -26t-24.5 -68q0 -43 24.5 -68.5t66.5 -25.5z" />
    <glyph glyph-name="AE" unicode="&#xc6;" horiz-adv-x="2226" 
d="M383 0h-373q295 545 703 1217q70 113 134.5 150.5t162.5 37.5h950q91 0 132.5 -39.5t41.5 -116.5q0 -49 -14 -94.5t-29 -69.5h-651v-219h493q91 0 132.5 -39t41.5 -116q0 -49 -14 -94.5t-29 -69.5h-624v-228h684v-319h-1026v340h-527q-36 -64 -78 -141t-69.5 -127.5
t-40.5 -71.5zM745 649h353v430h-111z" />
    <glyph glyph-name="Ccedilla" unicode="&#xc7;" horiz-adv-x="1374" 
d="M1348 104h4q-27 -21 -65.5 -41t-101.5 -45t-154 -40t-193 -15q-124 0 -236 29t-207 89.5t-165 146.5t-109 206t-39 262q0 139 37.5 259t106 208.5t161.5 151.5t206 95t238 32q256 0 420 -105q88 -66 88 -151q0 -67 -46 -128.5t-85 -82.5q-153 153 -362 153
q-181 0 -293.5 -117t-112.5 -315t119.5 -306.5t310.5 -108.5q106 0 190 26t134 62zM446 -408l60 140q8 -8 72.5 -25.5t113.5 -17.5q42 0 60 11t18 36q0 27 -37 42t-84 15l35 121q56 0 108.5 -9.5t99.5 -29.5t75 -56.5t28 -84.5q0 -92 -74.5 -146.5t-203.5 -54.5
q-102 0 -172.5 19.5t-98.5 39.5z" />
    <glyph glyph-name="Egrave" unicode="&#xc8;" horiz-adv-x="1312" 
d="M143 0v1210q0 195 203 195h701q91 0 132.5 -39.5t41.5 -116.5q0 -49 -14 -94.5t-29 -69.5h-693v-219h535q91 0 132.5 -39t41.5 -116q0 -49 -14 -94.5t-29 -69.5h-666v-228h725v-319h-1067zM879 1530l-519 166q0 8 3.5 24.5t14.5 43t27.5 49t47 39t69.5 16.5q59 0 152 -49
l276 -140z" />
    <glyph glyph-name="Eacute" unicode="&#xc9;" horiz-adv-x="1312" 
d="M143 0v1210q0 195 203 195h701q91 0 132.5 -39.5t41.5 -116.5q0 -49 -14 -94.5t-29 -69.5h-693v-219h535q91 0 132.5 -39t41.5 -116q0 -49 -14 -94.5t-29 -69.5h-666v-228h725v-319h-1067zM496 1530l-70 149l276 140q93 49 152 49q39 0 69.5 -16.5t47 -39t27.5 -49
t14.5 -43t3.5 -24.5z" />
    <glyph glyph-name="Ecircumflex" unicode="&#xca;" horiz-adv-x="1312" 
d="M143 0v1210q0 195 203 195h701q91 0 132.5 -39.5t41.5 -116.5q0 -49 -14 -94.5t-29 -69.5h-693v-219h535q91 0 132.5 -39t41.5 -116q0 -49 -14 -94.5t-29 -69.5h-666v-228h725v-319h-1067zM696 1653l-319 -127l-82 129l223 139q4 3 21.5 13.5l25 15t23.5 13.5t26.5 13
t25.5 9.5t28.5 7.5t27.5 2q66 0 178 -74l224 -139l-82 -129z" />
    <glyph glyph-name="Edieresis" unicode="&#xcb;" horiz-adv-x="1312" 
d="M143 0v1210q0 195 203 195h701q91 0 132.5 -39.5t41.5 -116.5q0 -49 -14 -94.5t-29 -69.5h-693v-219h535q91 0 132.5 -39t41.5 -116q0 -49 -14 -94.5t-29 -69.5h-666v-228h725v-319h-1067zM739 1698q0 59 45 104t109 45t109 -45t45 -104t-45 -104.5t-109 -45.5t-109 45.5
t-45 104.5zM264 1698q0 58 47 103.5t109 45.5t107.5 -45.5t45.5 -103.5t-45.5 -104t-107.5 -46t-109 46t-47 104z" />
    <glyph glyph-name="Igrave" unicode="&#xcc;" horiz-adv-x="628" 
d="M485 0h-342v1253q0 152 179 152q75 0 163 -33v-1372zM557 1530l-518 166q0 8 3.5 24.5t14.5 43t27.5 49t47 39t69.5 16.5q58 0 151 -49l277 -140z" />
    <glyph glyph-name="Iacute" unicode="&#xcd;" horiz-adv-x="628" 
d="M485 0h-342v1253q0 152 179 152q75 0 163 -33v-1372zM92 1530l-69 149l276 140q93 49 152 49q47 0 82 -24t50.5 -57t22 -56.5t6.5 -34.5z" />
    <glyph glyph-name="Icircumflex" unicode="&#xce;" horiz-adv-x="628" 
d="M485 0h-342v1253q0 152 179 152q75 0 163 -33v-1372zM317 1653l-319 -127l-82 129l223 139q4 3 21.5 13.5l25 15t23.5 13.5t26.5 13t25.5 9.5t28.5 7.5t27.5 2q67 0 179 -74l223 -139l-82 -129z" />
    <glyph glyph-name="Idieresis" unicode="&#xcf;" horiz-adv-x="628" 
d="M485 0h-342v1253q0 152 179 152q75 0 163 -33v-1372zM401 1698q0 59 45 104t109 45t109 -45t45 -104t-45 -104.5t-109 -45.5t-109 45.5t-45 104.5zM-74 1698q0 58 47 103.5t109 45.5t108 -45.5t46 -103.5t-46 -104t-108 -46t-109 46t-47 104z" />
    <glyph glyph-name="Eth" unicode="&#xd0;" horiz-adv-x="1595" 
d="M201 0v590h-51q-66 0 -95.5 34.5t-29.5 102.5q0 70 28 115h148v381q0 85 40 128t101 52q112 22 334 22q191 0 345.5 -47.5t263.5 -137.5t168.5 -226.5t59.5 -308.5q0 -347 -222.5 -536t-647.5 -189q-342 0 -442 20zM543 590v-287q64 -8 155 -8q213 0 335 101t122 309
q0 188 -111 300.5t-329 112.5q-140 0 -172 -8v-268h241q125 0 125 -131q0 -76 -28 -121h-338z" />
    <glyph glyph-name="Ntilde" unicode="&#xd1;" horiz-adv-x="1513" 
d="M143 0v1227q0 51 16 87t44.5 55t60 27.5t68.5 8.5q63 0 107 -16.5t63 -32.5q29 -29 240.5 -338.5t289.5 -437.5v673q0 152 178 152q83 0 160 -33v-1372h-321q-58 96 -260 403.5t-308 460.5v-864h-338zM582 1526l-201 39q23 102 86 169.5t172 67.5q76 0 160 -24
q85 -29 129 -29q52 0 71 70l197 -37q-53 -238 -258 -238q-80 0 -213 43q-46 12 -74 12q-50 0 -69 -73z" />
    <glyph glyph-name="Ograve" unicode="&#xd2;" horiz-adv-x="1683" 
d="M82 702q0 153 59 290.5t160 236t242 156t299 57.5t299 -57.5t242 -156t160 -236t59 -290.5q0 -205 -100 -374.5t-274.5 -267t-385.5 -97.5t-385.5 97.5t-274.5 267t-100 374.5zM842 283q176 0 288.5 119.5t112.5 299.5q0 181 -112.5 300.5t-288.5 119.5t-289 -119.5
t-113 -300.5q0 -180 113 -299.5t289 -119.5zM1065 1530l-518 166q0 8 3.5 24.5t14.5 43t27.5 49t47 39t69.5 16.5q58 0 151 -49l277 -140z" />
    <glyph glyph-name="Oacute" unicode="&#xd3;" horiz-adv-x="1683" 
d="M82 702q0 153 59 290.5t160 236t242 156t299 57.5t299 -57.5t242 -156t160 -236t59 -290.5q0 -205 -100 -374.5t-274.5 -267t-385.5 -97.5t-385.5 97.5t-274.5 267t-100 374.5zM842 283q176 0 288.5 119.5t112.5 299.5q0 181 -112.5 300.5t-288.5 119.5t-289 -119.5
t-113 -300.5q0 -180 113 -299.5t289 -119.5zM635 1530l-70 149l277 140q93 49 151 49q39 0 69.5 -16.5t47 -39t27.5 -49t14.5 -43t3.5 -24.5z" />
    <glyph glyph-name="Ocircumflex" unicode="&#xd4;" horiz-adv-x="1683" 
d="M82 702q0 153 59 290.5t160 236t242 156t299 57.5t299 -57.5t242 -156t160 -236t59 -290.5q0 -205 -100 -374.5t-274.5 -267t-385.5 -97.5t-385.5 97.5t-274.5 267t-100 374.5zM842 283q176 0 288.5 119.5t112.5 299.5q0 181 -112.5 300.5t-288.5 119.5t-289 -119.5
t-113 -300.5q0 -180 113 -299.5t289 -119.5zM842 1653l-320 -127l-82 129l224 139q4 3 21.5 13.5l25 15t23.5 13.5t26.5 13t25.5 9.5t28.5 7.5t27.5 2q66 0 178 -74l223 -139l-82 -129z" />
    <glyph glyph-name="Otilde" unicode="&#xd5;" horiz-adv-x="1683" 
d="M82 702q0 153 59 290.5t160 236t242 156t299 57.5t299 -57.5t242 -156t160 -236t59 -290.5q0 -205 -100 -374.5t-274.5 -267t-385.5 -97.5t-385.5 97.5t-274.5 267t-100 374.5zM842 283q176 0 288.5 119.5t112.5 299.5q0 181 -112.5 300.5t-288.5 119.5t-289 -119.5
t-113 -300.5q0 -180 113 -299.5t289 -119.5zM635 1526l-201 39q23 102 86 169.5t172 67.5q76 0 160 -24q85 -29 129 -29q53 0 72 70l196 -37q-53 -238 -258 -238q-80 0 -213 43q-46 12 -73 12q-51 0 -70 -73z" />
    <glyph glyph-name="Odieresis" unicode="&#xd6;" horiz-adv-x="1683" 
d="M82 702q0 153 59 290.5t160 236t242 156t299 57.5t299 -57.5t242 -156t160 -236t59 -290.5q0 -205 -100 -374.5t-274.5 -267t-385.5 -97.5t-385.5 97.5t-274.5 267t-100 374.5zM842 283q176 0 288.5 119.5t112.5 299.5q0 181 -112.5 300.5t-288.5 119.5t-289 -119.5
t-113 -300.5q0 -180 113 -299.5t289 -119.5zM926 1698q0 59 44.5 104t108.5 45t109 -45t45 -104t-45 -104.5t-109 -45.5t-108.5 45.5t-44.5 104.5zM451 1698q0 58 46.5 103.5t108.5 45.5t108 -45.5t46 -103.5t-46 -104t-108 -46t-108.5 46t-46.5 104z" />
    <glyph glyph-name="multiply" unicode="&#xd7;" horiz-adv-x="1304" 
d="M168 451l258 249l-170 164q-49 49 -49 101q0 57 61 118q52 52 127 84l246 -249l170 174q47 47 98 47q61 0 125 -64q44 -48 86 -131l-256 -250l170 -164q47 -44 47 -98q0 -57 -61 -121q-52 -52 -127 -84l-246 252l-168 -176q-47 -47 -100 -47q-60 0 -123 63
q-53 53 -88 132z" />
    <glyph glyph-name="Oslash" unicode="&#xd8;" horiz-adv-x="1683" 
d="M262 -201l139 295q-150 101 -234.5 259.5t-84.5 348.5q0 153 59 290.5t160 236t242 156t299 57.5q82 0 186 -23l41 88q26 54 59.5 77.5t96.5 23.5q42 0 84.5 -15t63 -28t28.5 -21l-113 -239q146 -102 230 -259t84 -344q0 -205 -100 -374.5t-274.5 -267t-385.5 -97.5
q-94 0 -180 21l-87 -185h-313zM549 408l336 712q-2 0 -18.5 1t-24.5 1q-176 0 -289 -119.5t-113 -300.5q0 -179 109 -294zM805 283h37q176 0 288.5 119.5t112.5 299.5q0 172 -104 289z" />
    <glyph glyph-name="Ugrave" unicode="&#xd9;" horiz-adv-x="1556" 
d="M129 623v630q0 152 178 152q76 0 164 -33v-715q0 -193 69 -285.5t238 -92.5t238 92.5t69 285.5v596q0 152 179 152q75 0 163 -33v-749q0 -314 -168.5 -487t-480.5 -173t-480.5 173t-168.5 487zM1001 1530l-518 166q0 8 3.5 24.5t14.5 43t27.5 49t47 39t69.5 16.5
q59 0 152 -49l276 -140z" />
    <glyph glyph-name="Uacute" unicode="&#xda;" horiz-adv-x="1556" 
d="M129 623v630q0 152 178 152q76 0 164 -33v-715q0 -193 69 -285.5t238 -92.5t238 92.5t69 285.5v596q0 152 179 152q75 0 163 -33v-749q0 -314 -168.5 -487t-480.5 -173t-480.5 173t-168.5 487zM598 1530l-70 149l277 140q93 49 151 49q39 0 69.5 -16.5t47 -39t27.5 -49
t14.5 -43t3.5 -24.5z" />
    <glyph glyph-name="Ucircumflex" unicode="&#xdb;" horiz-adv-x="1556" 
d="M129 623v630q0 152 178 152q76 0 164 -33v-715q0 -193 69 -285.5t238 -92.5t238 92.5t69 285.5v596q0 152 179 152q75 0 163 -33v-749q0 -314 -168.5 -487t-480.5 -173t-480.5 173t-168.5 487zM793 1653l-320 -127l-82 129l223 139q3 2 22 13.5t25 15t23.5 13t27.5 13.5
t25 9.5t28.5 7.5t27.5 2q66 0 178 -74l223 -139l-82 -129z" />
    <glyph glyph-name="Udieresis" unicode="&#xdc;" horiz-adv-x="1556" 
d="M129 623v630q0 152 178 152q76 0 164 -33v-715q0 -193 69 -285.5t238 -92.5t238 92.5t69 285.5v596q0 152 179 152q75 0 163 -33v-749q0 -314 -168.5 -487t-480.5 -173t-480.5 173t-168.5 487zM891 1698q0 59 44.5 104t108.5 45t109 -45t45 -104t-45 -104.5t-109 -45.5
t-108.5 45.5t-44.5 104.5zM416 1698q0 58 46.5 103.5t108.5 45.5t108 -45.5t46 -103.5t-46 -104t-108 -46t-108.5 46t-46.5 104z" />
    <glyph glyph-name="Yacute" unicode="&#xdd;" horiz-adv-x="1415" 
d="M516 0v518q-192 236 -362 469q-4 5 -19 26.5t-21.5 31t-21 30.5t-21.5 33.5t-18.5 32t-17.5 33.5t-12.5 31t-9.5 32t-3 29q0 69 44 104t114 35q89 0 147 -33q68 -105 188.5 -281.5t188.5 -267.5q84 112 305 457q18 26 32 42t40 38.5t62 33.5t81 11q65 0 118 -26t75 -48
q-42 -91 -215.5 -344t-331.5 -469v-518h-342zM571 1536l-90 135l236 150q86 57 137 57q41 0 73 -22t47 -52t22.5 -52.5t7.5 -31.5z" />
    <glyph glyph-name="Thorn" unicode="&#xde;" horiz-adv-x="1368" 
d="M143 0v1253q0 152 174 152q83 0 160 -33v-180q94 4 174 4q142 0 254 -27.5t184 -73.5t119 -110.5t66.5 -134t19.5 -148.5q0 -227 -149.5 -358t-458.5 -131q-43 0 -91.5 3.5t-81 7t-36.5 3.5v-227h-334zM477 895v-379q2 0 18.5 -2.5t32 -4.5t47.5 -3.5t70 -1.5
q299 0 299 198q0 30 -5 54.5t-23.5 53t-49 48t-86.5 32.5t-131 13q-116 0 -172 -8z" />
    <glyph glyph-name="germandbls" unicode="&#xdf;" horiz-adv-x="1316" 
d="M440 0h-327v1069q0 67 14.5 127.5t51 119t92 100.5t144 67.5t201.5 25.5q103 0 187 -22.5t138.5 -59t91 -85t52 -99.5t15.5 -104q0 -108 -47 -184t-113 -105q62 -13 114 -41.5t96.5 -76.5t69.5 -124.5t25 -175.5q0 -110 -38.5 -198.5t-105 -145.5t-153.5 -87t-186 -30
q-58 0 -108 6.5t-72 12.5t-29 10l35 264q12 -5 48.5 -10.5t70.5 -5.5q59 0 100 16t62 45.5t29.5 63t8.5 76.5q0 108 -68.5 166.5t-181.5 58.5h-84v260h35q76 0 122 41t46 117q0 82 -48.5 125t-117.5 43q-86 0 -128 -49t-42 -138v-1073z" />
    <glyph glyph-name="agrave" unicode="&#xe0;" horiz-adv-x="1191" 
d="M1079 625v-619q-33 -10 -177 -22.5t-308 -12.5q-533 0 -533 344q0 187 119.5 269t384.5 82q125 0 183 -9q0 154 -252 154q-77 0 -141.5 -13t-91.5 -24.5t-44 -23.5q-74 74 -74 145q0 178 365 178q569 0 569 -448zM750 215v219q-42 10 -162 10q-113 0 -156 -34t-43 -91
q0 -22 6.5 -39t26 -35.5t62.5 -29t108 -10.5q128 0 158 10zM784 1167l-432 185q0 9 7.5 31t22.5 52t47 52t73 22q51 0 137 -57l235 -149z" />
    <glyph glyph-name="aacute" unicode="&#xe1;" horiz-adv-x="1191" 
d="M1079 625v-619q-33 -10 -177 -22.5t-308 -12.5q-533 0 -533 344q0 187 119.5 269t384.5 82q125 0 183 -9q0 154 -252 154q-77 0 -141.5 -13t-91.5 -24.5t-44 -23.5q-74 74 -74 145q0 178 365 178q569 0 569 -448zM750 215v219q-42 10 -162 10q-113 0 -156 -34t-43 -91
q0 -22 6.5 -39t26 -35.5t62.5 -29t108 -10.5q128 0 158 10zM504 1167l-90 136l235 149q86 57 137 57q41 0 73 -22t47 -52t22.5 -52t7.5 -31z" />
    <glyph glyph-name="acircumflex" unicode="&#xe2;" horiz-adv-x="1191" 
d="M1079 625v-619q-33 -10 -177 -22.5t-308 -12.5q-533 0 -533 344q0 187 119.5 269t384.5 82q125 0 183 -9q0 154 -252 154q-77 0 -141.5 -13t-91.5 -24.5t-44 -23.5q-74 74 -74 145q0 178 365 178q569 0 569 -448zM750 215v219q-42 10 -162 10q-113 0 -156 -34t-43 -91
q0 -22 6.5 -39t26 -35.5t62.5 -29t108 -10.5q128 0 158 10zM629 1311l-262 -144l-103 129l203 140q97 73 162 73t162 -73l202 -140l-102 -129z" />
    <glyph glyph-name="atilde" unicode="&#xe3;" horiz-adv-x="1191" 
d="M1079 625v-619q-33 -10 -177 -22.5t-308 -12.5q-533 0 -533 344q0 187 119.5 269t384.5 82q125 0 183 -9q0 154 -252 154q-77 0 -141.5 -13t-91.5 -24.5t-44 -23.5q-74 74 -74 145q0 178 365 178q569 0 569 -448zM750 215v219q-42 10 -162 10q-113 0 -156 -34t-43 -91
q0 -22 6.5 -39t26 -35.5t62.5 -29t108 -10.5q128 0 158 10zM430 1167l-184 39q19 99 80 165.5t163 66.5q65 0 152 -25l51 -16q50 -13 74 -13q53 0 72 70l182 -37q-57 -231 -244 -231q-16 0 -31 1t-33.5 5t-27 6t-33 8.5t-30.5 7.5l-50 15q-46 12 -71 12q-51 0 -70 -74z" />
    <glyph glyph-name="adieresis" unicode="&#xe4;" horiz-adv-x="1191" 
d="M1079 625v-619q-33 -10 -177 -22.5t-308 -12.5q-533 0 -533 344q0 187 119.5 269t384.5 82q125 0 183 -9q0 154 -252 154q-77 0 -141.5 -13t-91.5 -24.5t-44 -23.5q-74 74 -74 145q0 178 365 178q569 0 569 -448zM750 215v219q-42 10 -162 10q-113 0 -156 -34t-43 -91
q0 -22 6.5 -39t26 -35.5t62.5 -29t108 -10.5q128 0 158 10zM256 1315q0 56 46.5 100.5t107.5 44.5q60 0 104.5 -44t44.5 -101q0 -58 -44 -103t-105 -45t-107.5 45.5t-46.5 102.5zM692 1315q0 57 45 101t107 44t105.5 -44t43.5 -101q0 -58 -43.5 -103t-105.5 -45t-107 45
t-45 103z" />
    <glyph glyph-name="aring" unicode="&#xe5;" horiz-adv-x="1191" 
d="M1079 625v-619q-33 -10 -177 -22.5t-308 -12.5q-533 0 -533 344q0 187 119.5 269t384.5 82q125 0 183 -9q0 154 -252 154q-77 0 -141.5 -13t-91.5 -24.5t-44 -23.5q-74 74 -74 145q0 178 365 178q569 0 569 -448zM750 215v219q-42 10 -162 10q-113 0 -156 -34t-43 -91
q0 -22 6.5 -39t26 -35.5t62.5 -29t108 -10.5q128 0 158 10zM406 1364q0 85 61.5 146t148.5 61t149 -61t62 -146t-62 -146t-149 -61t-148.5 61t-61.5 146zM616 1274q41 0 63.5 24t22.5 66t-22.5 66t-63.5 24t-63.5 -24t-22.5 -66t22.5 -66t63.5 -24z" />
    <glyph glyph-name="ae" unicode="&#xe6;" horiz-adv-x="1822" 
d="M1632 311l115 -229q-33 -20 -81.5 -41.5t-153.5 -45.5t-218 -24q-81 0 -157 20t-113 39t-63 38q-5 -5 -20 -14t-49.5 -24t-78 -27.5t-111 -22t-141.5 -9.5q-111 0 -198 18t-143 49t-92.5 75.5t-51.5 94t-15 107.5q0 186 116 268.5t364 82.5q53 0 124 -5t83 -10
q0 80 -60 121t-192 41q-76 0 -141.5 -14t-92.5 -26t-43 -23q-74 74 -74 145q0 178 365 178q98 0 178 -16t130.5 -42.5t78.5 -47.5t47 -43q15 18 43 39.5t74.5 48t114 44t141.5 17.5q104 0 191.5 -30t145.5 -80.5t90 -115.5t32 -136q0 -79 -27 -137t-87 -101t-161 -64.5
t-244 -21.5q-107 0 -161 6q8 -62 74.5 -103.5t195.5 -41.5q64 0 128 14t97.5 28t40.5 21zM803 250q-53 122 -53 184q-42 10 -162 10q-113 0 -156 -34t-43 -91q0 -22 6.5 -39.5t26 -36.5t62.5 -29.5t108 -10.5q25 0 49.5 2t44 6t36 8.5t31.5 10t23.5 8.5t17.5 8zM1079 602h80
q83 0 141 7t88.5 17t47 26.5t19.5 29t3 31.5q0 45 -40.5 75.5t-114.5 30.5q-100 0 -159.5 -64t-64.5 -149v-4z" />
    <glyph glyph-name="ccedilla" unicode="&#xe7;" horiz-adv-x="1060" 
d="M913 340l144 -250q-180 -119 -418 -119q-113 0 -214 35t-180.5 102t-126 174t-46.5 240q0 129 46 234t125 174t184 106t224 37q110 0 204.5 -27.5t141.5 -74.5q50 -50 50 -109q0 -60 -37.5 -108t-77.5 -72q-100 100 -258 100q-112 0 -188 -68.5t-76 -191.5
q0 -128 74.5 -191t193.5 -63q80 0 148 26.5t87 45.5zM272 -373l60 140q8 -8 72.5 -25.5t113.5 -17.5q42 0 60 11t18 36q0 27 -37 42t-84 15l35 121q56 0 108.5 -9.5t99.5 -29.5t75 -56.5t28 -84.5q0 -92 -74.5 -146.5t-203.5 -54.5q-102 0 -172.5 19.5t-98.5 39.5z" />
    <glyph glyph-name="egrave" unicode="&#xe8;" horiz-adv-x="1148" 
d="M494 385h-72q9 -55 76 -96t194 -41q64 0 128 14t97.5 28t40.5 21l115 -229q-33 -21 -81 -42t-153.5 -45t-217.5 -24q-115 0 -215 37.5t-175 106.5t-118 174t-43 233q0 244 160 397.5t401 153.5q214 0 342.5 -107t128.5 -255q0 -64 -16.5 -112.5t-58 -90t-110 -67.5
t-174.5 -41t-249 -15zM406 598q88 0 154.5 4.5t106 13.5t65 18.5t36 24.5t13.5 26t3 28q0 45 -40.5 75.5t-114.5 30.5q-103 0 -160.5 -65.5t-62.5 -155.5zM813 1167l-432 185q0 9 7 31t22 52t47 52t73 22q52 0 138 -57l235 -149z" />
    <glyph glyph-name="eacute" unicode="&#xe9;" horiz-adv-x="1148" 
d="M494 385h-72q9 -55 76 -96t194 -41q64 0 128 14t97.5 28t40.5 21l115 -229q-33 -21 -81 -42t-153.5 -45t-217.5 -24q-115 0 -215 37.5t-175 106.5t-118 174t-43 233q0 244 160 397.5t401 153.5q214 0 342.5 -107t128.5 -255q0 -64 -16.5 -112.5t-58 -90t-110 -67.5
t-174.5 -41t-249 -15zM406 598q88 0 154.5 4.5t106 13.5t65 18.5t36 24.5t13.5 26t3 28q0 45 -40.5 75.5t-114.5 30.5q-103 0 -160.5 -65.5t-62.5 -155.5zM522 1167l-90 136l236 149q86 57 137 57q41 0 73 -22t47 -52t22 -52t7 -31z" />
    <glyph glyph-name="ecircumflex" unicode="&#xea;" horiz-adv-x="1148" 
d="M494 385h-72q9 -55 76 -96t194 -41q64 0 128 14t97.5 28t40.5 21l115 -229q-33 -21 -81 -42t-153.5 -45t-217.5 -24q-115 0 -215 37.5t-175 106.5t-118 174t-43 233q0 244 160 397.5t401 153.5q214 0 342.5 -107t128.5 -255q0 -64 -16.5 -112.5t-58 -90t-110 -67.5
t-174.5 -41t-249 -15zM406 598q88 0 154.5 4.5t106 13.5t65 18.5t36 24.5t13.5 26t3 28q0 45 -40.5 75.5t-114.5 30.5q-103 0 -160.5 -65.5t-62.5 -155.5zM639 1311l-262 -144l-103 129l203 140q97 73 162 73t162 -73l203 -140l-103 -129z" />
    <glyph glyph-name="edieresis" unicode="&#xeb;" horiz-adv-x="1148" 
d="M494 385h-72q9 -55 76 -96t194 -41q64 0 128 14t97.5 28t40.5 21l115 -229q-33 -21 -81 -42t-153.5 -45t-217.5 -24q-115 0 -215 37.5t-175 106.5t-118 174t-43 233q0 244 160 397.5t401 153.5q214 0 342.5 -107t128.5 -255q0 -64 -16.5 -112.5t-58 -90t-110 -67.5
t-174.5 -41t-249 -15zM406 598q88 0 154.5 4.5t106 13.5t65 18.5t36 24.5t13.5 26t3 28q0 45 -40.5 75.5t-114.5 30.5q-103 0 -160.5 -65.5t-62.5 -155.5zM252 1315q0 56 46.5 100.5t107.5 44.5q60 0 104.5 -44t44.5 -101q0 -58 -44 -103t-105 -45t-107.5 45.5t-46.5 102.5z
M688 1315q0 57 45 101t107 44t105.5 -44t43.5 -101q0 -58 -43.5 -103t-105.5 -45t-107 45t-45 103z" />
    <glyph glyph-name="igrave" unicode="&#xec;" horiz-adv-x="575" 
d="M123 0v899q0 145 172 145q78 0 158 -30v-1014h-330zM492 1167l-433 185q0 9 7.5 31t22.5 52t47 52t73 22q51 0 137 -57l236 -149z" />
    <glyph glyph-name="iacute" unicode="&#xed;" horiz-adv-x="575" 
d="M123 0v899q0 145 172 145q78 0 158 -30v-1014h-330zM137 1167l-90 136l236 149q86 57 137 57q41 0 73 -22t47 -52t22 -52t7 -31z" />
    <glyph glyph-name="icircumflex" unicode="&#xee;" horiz-adv-x="575" 
d="M123 0v899q0 145 172 145q78 0 158 -30v-1014h-330zM291 1311l-262 -144l-103 129l203 140q97 73 162 73t162 -73l202 -140l-102 -129z" />
    <glyph glyph-name="idieresis" unicode="&#xef;" horiz-adv-x="575" 
d="M123 0v899q0 145 172 145q78 0 158 -30v-1014h-330zM-80 1315q0 56 46.5 100.5t107.5 44.5q60 0 104.5 -44t44.5 -101q0 -58 -44 -103t-105 -45t-107.5 45.5t-46.5 102.5zM356 1315q0 57 45 101t107 44t105.5 -44t43.5 -101q0 -58 -43.5 -103t-105.5 -45t-107 45t-45 103
z" />
    <glyph glyph-name="eth" unicode="&#xf0;" horiz-adv-x="1298" 
d="M379 1010l-84 153l186 97q-52 29 -137 57l90 192q158 -48 293 -120l234 120l81 -153l-151 -80q167 -138 251.5 -320t84.5 -385q0 -298 -155 -449t-423 -151q-257 0 -417 135.5t-160 360.5q0 147 70 260t179 170t234 57q88 0 155.5 -19t93.5 -36.5t42 -36.5
q-55 159 -199 287zM410 467q0 -101 65 -166t174 -65t174.5 65t65.5 166t-65.5 166t-174.5 65t-174 -65t-65 -166z" />
    <glyph glyph-name="ntilde" unicode="&#xf1;" horiz-adv-x="1267" 
d="M113 0v633q0 139 71.5 240.5t188 150.5t262.5 49t262 -49t187 -150.5t71 -240.5v-633h-330v557q0 213 -190 213q-193 0 -193 -213v-557h-329zM432 1167l-184 39q19 99 80.5 165.5t163.5 66.5q64 0 151 -25l51 -16q50 -13 74 -13q53 0 72 70l182 -37q-57 -231 -244 -231
q-16 0 -31 1t-33.5 5t-27 6t-33 8.5t-30.5 7.5l-50 15q-46 12 -71 12q-51 0 -70 -74z" />
    <glyph glyph-name="ograve" unicode="&#xf2;" horiz-adv-x="1298" 
d="M72 522q0 154 77.5 281t209.5 198.5t290 71.5t290.5 -71.5t210 -198.5t77.5 -281t-77.5 -281t-210 -198.5t-290.5 -71.5t-290 71.5t-209.5 198.5t-77.5 281zM649 266q104 0 172 73t68 183t-68 183t-172 73t-171.5 -72.5t-67.5 -183.5t67.5 -183.5t171.5 -72.5zM801 1167
l-432 185q0 9 7 31t22 52t47 52t73 22q51 0 137 -57l236 -149z" />
    <glyph glyph-name="oacute" unicode="&#xf3;" horiz-adv-x="1298" 
d="M72 522q0 154 77.5 281t209.5 198.5t290 71.5t290.5 -71.5t210 -198.5t77.5 -281t-77.5 -281t-210 -198.5t-290.5 -71.5t-290 71.5t-209.5 198.5t-77.5 281zM649 266q104 0 172 73t68 183t-68 183t-172 73t-171.5 -72.5t-67.5 -183.5t67.5 -183.5t171.5 -72.5zM510 1167
l-90 136l235 149q86 57 138 57q41 0 73 -22t47 -52t22 -52t7 -31z" />
    <glyph glyph-name="ocircumflex" unicode="&#xf4;" horiz-adv-x="1298" 
d="M72 522q0 154 77.5 281t209.5 198.5t290 71.5t290.5 -71.5t210 -198.5t77.5 -281t-77.5 -281t-210 -198.5t-290.5 -71.5t-290 71.5t-209.5 198.5t-77.5 281zM649 266q104 0 172 73t68 183t-68 183t-172 73t-171.5 -72.5t-67.5 -183.5t67.5 -183.5t171.5 -72.5zM651 1311
l-262 -144l-102 129l202 140q97 73 162 73t162 -73l203 -140l-103 -129z" />
    <glyph glyph-name="otilde" unicode="&#xf5;" horiz-adv-x="1298" 
d="M72 522q0 154 77.5 281t209.5 198.5t290 71.5t290.5 -71.5t210 -198.5t77.5 -281t-77.5 -281t-210 -198.5t-290.5 -71.5t-290 71.5t-209.5 198.5t-77.5 281zM649 266q104 0 172 73t68 183t-68 183t-172 73t-171.5 -72.5t-67.5 -183.5t67.5 -183.5t171.5 -72.5zM446 1167
l-184 39q19 99 80.5 165.5t163.5 66.5q64 0 151 -25l52 -16q50 -13 73 -13q53 0 72 70l182 -37q-57 -231 -243 -231q-46 0 -156 28l-49 15q-46 12 -72 12q-51 0 -70 -74z" />
    <glyph glyph-name="odieresis" unicode="&#xf6;" horiz-adv-x="1298" 
d="M72 522q0 154 77.5 281t209.5 198.5t290 71.5t290.5 -71.5t210 -198.5t77.5 -281t-77.5 -281t-210 -198.5t-290.5 -71.5t-290 71.5t-209.5 198.5t-77.5 281zM649 266q104 0 172 73t68 183t-68 183t-172 73t-171.5 -72.5t-67.5 -183.5t67.5 -183.5t171.5 -72.5zM281 1315
q0 56 46 100.5t107 44.5t105.5 -44.5t44.5 -100.5q0 -58 -44.5 -103t-105.5 -45t-107 45t-46 103zM717 1315q0 57 44.5 101t106.5 44t106 -44t44 -101q0 -58 -44 -103t-106 -45t-106.5 45t-44.5 103z" />
    <glyph glyph-name="divide" unicode="&#xf7;" horiz-adv-x="1290" 
d="M137 854h901q77 0 111.5 -41.5t34.5 -122.5q0 -77 -31 -149h-901q-77 0 -111.5 41.5t-34.5 122.5q0 77 31 149zM463 1118q0 78 52 131.5t130 53.5t131 -53.5t53 -131.5t-53 -130t-131 -52t-130 52t-52 130zM463 274q0 78 52 131.5t130 53.5t131 -53.5t53 -131.5t-53 -130
t-131 -52t-130 52t-52 130z" />
    <glyph glyph-name="oslash" unicode="&#xf8;" horiz-adv-x="1298" 
d="M215 -156l107 219q-117 75 -183.5 194t-66.5 265q0 154 77.5 281t209.5 198.5t290 71.5q86 0 156 -20l39 82q18 36 41 51.5t65 15.5q62 0 119 -43l-90 -182q115 -75 181.5 -193.5t66.5 -261.5q0 -154 -77.5 -281t-210 -198.5t-290.5 -71.5q-75 0 -153 19l-72 -146h-209z
M461 346l211 436q-4 2 -23 2q-107 0 -177.5 -74.5t-70.5 -187.5q0 -104 60 -176zM629 260h20q107 0 177.5 74.5t70.5 187.5q0 101 -57 170z" />
    <glyph glyph-name="ugrave" unicode="&#xf9;" horiz-adv-x="1269" 
d="M442 1014v-527q0 -213 193 -213q192 0 192 213v412q0 145 172 145q78 0 158 -30v-588q0 -147 -69.5 -251.5t-185.5 -154t-267 -49.5t-267 49.5t-185.5 154t-69.5 251.5v473q0 145 172 145q77 0 157 -30zM752 1167l-433 185q0 9 7.5 31t22.5 52t47 52t73 22q51 0 137 -57
l236 -149z" />
    <glyph glyph-name="uacute" unicode="&#xfa;" horiz-adv-x="1269" 
d="M442 1014v-527q0 -213 193 -213q192 0 192 213v412q0 145 172 145q78 0 158 -30v-588q0 -147 -69.5 -251.5t-185.5 -154t-267 -49.5t-267 49.5t-185.5 154t-69.5 251.5v473q0 145 172 145q77 0 157 -30zM543 1167l-90 136l235 149q86 57 137 57q41 0 73 -22t47 -52
t22.5 -52t7.5 -31z" />
    <glyph glyph-name="ucircumflex" unicode="&#xfb;" horiz-adv-x="1269" 
d="M442 1014v-527q0 -213 193 -213q192 0 192 213v412q0 145 172 145q78 0 158 -30v-588q0 -147 -69.5 -251.5t-185.5 -154t-267 -49.5t-267 49.5t-185.5 154t-69.5 251.5v473q0 145 172 145q77 0 157 -30zM635 1311l-262 -144l-103 129l203 140q97 73 162 73t162 -73
l202 -140l-102 -129z" />
    <glyph glyph-name="udieresis" unicode="&#xfc;" horiz-adv-x="1269" 
d="M442 1014v-527q0 -213 193 -213q192 0 192 213v412q0 145 172 145q78 0 158 -30v-588q0 -147 -69.5 -251.5t-185.5 -154t-267 -49.5t-267 49.5t-185.5 154t-69.5 251.5v473q0 145 172 145q77 0 157 -30zM266 1315q0 56 46.5 100.5t107.5 44.5q60 0 104.5 -44t44.5 -101
q0 -58 -44 -103t-105 -45t-107.5 45.5t-46.5 102.5zM702 1315q0 57 45 101t107 44t106 -44t44 -101q0 -58 -44 -103t-106 -45t-107 45t-45 103z" />
    <glyph glyph-name="yacute" unicode="&#xfd;" horiz-adv-x="1269" 
d="M154 -354l79 241q35 -15 122.5 -35t183.5 -20q158 0 227.5 68t69.5 223q-37 -46 -117 -74.5t-162 -28.5q-96 0 -176 24.5t-140.5 72t-94 125t-33.5 176.5v481q0 145 172 145q77 0 157 -30v-529q0 -97 46 -140.5t145 -43.5q94 0 144 54t50 163v381q0 145 172 145
q78 0 158 -30v-869q0 -153 -40.5 -265t-117.5 -179t-179 -99t-234 -32q-107 0 -212 17.5t-156 34t-64 24.5zM547 1167l-90 136l235 149q86 57 137 57q41 0 73 -22t47 -52t22.5 -52t7.5 -31z" />
    <glyph glyph-name="thorn" unicode="&#xfe;" horiz-adv-x="1294" 
d="M416 -410h-328v1774q0 145 174 145q76 0 156 -30v-512q44 44 120 75t179 31q104 0 196.5 -39t161 -109.5t108.5 -173.5t40 -225q0 -123 -40 -227.5t-108.5 -174.5t-161 -109.5t-196.5 -39.5q-105 0 -180.5 32t-120.5 77v-494zM649 272q103 0 169.5 71t66.5 181t-66.5 178
t-169.5 68q-105 0 -170 -66t-65 -180q0 -107 66.5 -179.5t168.5 -72.5z" />
    <glyph glyph-name="ydieresis" unicode="&#xff;" horiz-adv-x="1269" 
d="M154 -354l79 241q35 -15 122.5 -35t183.5 -20q158 0 227.5 68t69.5 223q-37 -46 -117 -74.5t-162 -28.5q-96 0 -176 24.5t-140.5 72t-94 125t-33.5 176.5v481q0 145 172 145q77 0 157 -30v-529q0 -97 46 -140.5t145 -43.5q94 0 144 54t50 163v381q0 145 172 145
q78 0 158 -30v-869q0 -153 -40.5 -265t-117.5 -179t-179 -99t-234 -32q-107 0 -212 17.5t-156 34t-64 24.5zM281 1315q0 56 46 100.5t107 44.5t105.5 -44.5t44.5 -100.5q0 -58 -44.5 -103t-105.5 -45t-107 45t-46 103zM717 1315q0 57 44.5 101t106.5 44t106 -44t44 -101
q0 -58 -44 -103t-106 -45t-106.5 45t-44.5 103z" />
    <glyph glyph-name="Amacron" unicode="&#x100;" horiz-adv-x="1574" 
d="M365 0h-355q205 543 535 1284q38 87 94 122.5t149 35.5q90 0 193 -62q80 -135 292.5 -650t291.5 -730h-377q-12 31 -49.5 130.5t-65.5 172.5h-596q-14 -36 -52 -141.5t-60 -161.5zM600 612h356q-126 343 -178 457q-45 -101 -178 -457zM399 1774h686q62 0 84.5 -28.5
t22.5 -84.5q0 -54 -18 -96h-682q-109 0 -109 102q0 57 16 107z" />
    <glyph glyph-name="amacron" unicode="&#x101;" horiz-adv-x="1191" 
d="M1079 625v-619q-33 -10 -177 -22.5t-308 -12.5q-533 0 -533 344q0 187 119.5 269t384.5 82q125 0 183 -9q0 154 -252 154q-77 0 -141.5 -13t-91.5 -24.5t-44 -23.5q-74 74 -74 145q0 178 365 178q569 0 569 -448zM750 215v219q-42 10 -162 10q-113 0 -156 -34t-43 -91
q0 -22 6.5 -39t26 -35.5t62.5 -29t108 -10.5q128 0 158 10zM287 1417h585q99 0 99 -100q0 -59 -21 -94h-585q-99 0 -99 100q0 45 21 94z" />
    <glyph glyph-name="Abreve" unicode="&#x102;" horiz-adv-x="1574" 
d="M365 0h-355q205 543 535 1284q38 87 94 122.5t149 35.5q90 0 193 -62q80 -135 292.5 -650t291.5 -730h-377q-12 31 -49.5 130.5t-65.5 172.5h-596q-14 -36 -52 -141.5t-60 -161.5zM600 612h356q-126 343 -178 457q-45 -101 -178 -457zM444 1837l172 21q44 -140 175 -140
q134 0 174 137l170 -18q-2 -39 -12.5 -78t-35.5 -81.5t-62 -74t-97.5 -52.5t-136.5 -21q-77 0 -138 21t-98.5 52.5t-62.5 74t-35.5 81.5t-12.5 78z" />
    <glyph glyph-name="abreve" unicode="&#x103;" horiz-adv-x="1191" 
d="M1079 625v-619q-33 -10 -177 -22.5t-308 -12.5q-533 0 -533 344q0 187 119.5 269t384.5 82q125 0 183 -9q0 154 -252 154q-77 0 -141.5 -13t-91.5 -24.5t-44 -23.5q-74 74 -74 145q0 178 365 178q569 0 569 -448zM750 215v219q-42 10 -162 10q-113 0 -156 -34t-43 -91
q0 -22 6.5 -39t26 -35.5t62.5 -29t108 -10.5q128 0 158 10zM264 1475l154 20q19 -72 55.5 -105.5t99.5 -33.5t100 33.5t56 105.5l154 -20q-2 -38 -11.5 -76t-32 -79.5t-56 -73t-88 -52t-122.5 -20.5q-69 0 -123.5 20.5t-87.5 52t-55.5 73.5t-31.5 79.5t-11 75.5z" />
    <glyph glyph-name="Aogonek" unicode="&#x104;" horiz-adv-x="1574" 
d="M365 0h-355q205 543 535 1284q38 87 94 122.5t149 35.5q90 0 193 -62q80 -135 292.5 -650t291.5 -730h-125q-25 -5 -53 -14.5t-60 -26.5t-53 -43.5t-21 -58.5q0 -62 82 -62q76 0 138 37l63 -137q-102 -60 -252 -60q-111 0 -176.5 44t-65.5 133q0 43 17 79.5t42.5 59
t46.5 35t38 18.5l-113 299h-596q-14 -36 -52 -141.5t-60 -161.5zM600 612h356q-126 343 -178 457q-45 -101 -178 -457z" />
    <glyph glyph-name="aogonek" unicode="&#x105;" horiz-adv-x="1191" 
d="M1079 625v-619q-9 -4 -143 -18q-139 -54 -139 -135q0 -68 88 -68q73 0 135 37l59 -131q-98 -58 -248 -58q-110 0 -173.5 42t-63.5 130q0 100 94 168q-31 -2 -94 -2q-533 0 -533 344q0 187 119.5 269t384.5 82q125 0 183 -9q0 154 -252 154q-77 0 -141.5 -13t-91.5 -24.5
t-44 -23.5q-74 74 -74 145q0 178 365 178q569 0 569 -448zM750 215v219q-42 10 -162 10q-113 0 -156 -34t-43 -91q0 -22 6.5 -39t26 -35.5t62.5 -29t108 -10.5q128 0 158 10z" />
    <glyph glyph-name="Cacute" unicode="&#x106;" horiz-adv-x="1374" 
d="M1348 104h4q-27 -21 -65.5 -41t-101.5 -45t-154 -40t-193 -15q-124 0 -236 29t-207 89.5t-165 146.5t-109 206t-39 262q0 139 37.5 259t106 208.5t161.5 151.5t206 95t238 32q256 0 420 -105q88 -66 88 -151q0 -67 -46 -128.5t-85 -82.5q-153 153 -362 153
q-181 0 -293.5 -117t-112.5 -315t119.5 -306.5t310.5 -108.5q106 0 190 26t134 62zM616 1530l-69 149l276 140q93 49 152 49q39 0 69.5 -16.5t47 -39t27.5 -49t14.5 -43t3.5 -24.5z" />
    <glyph glyph-name="cacute" unicode="&#x107;" horiz-adv-x="1060" 
d="M913 340l144 -250q-180 -119 -418 -119q-113 0 -214 35t-180.5 102t-126 174t-46.5 240q0 129 46 234t125 174t184 106t224 37q110 0 204.5 -27.5t141.5 -74.5q50 -50 50 -109q0 -60 -37.5 -108t-77.5 -72q-100 100 -258 100q-112 0 -188 -68.5t-76 -191.5
q0 -128 74.5 -191t193.5 -63q80 0 148 26.5t87 45.5zM500 1167l-90 136l235 149q86 57 137 57q41 0 73 -22t47 -52t22.5 -52t7.5 -31z" />
    <glyph glyph-name="Ccircumflex" unicode="&#x108;" horiz-adv-x="1374" 
d="M1348 104h4q-27 -21 -65.5 -41t-101.5 -45t-154 -40t-193 -15q-124 0 -236 29t-207 89.5t-165 146.5t-109 206t-39 262q0 139 37.5 259t106 208.5t161.5 151.5t206 95t238 32q256 0 420 -105q88 -66 88 -151q0 -67 -46 -128.5t-85 -82.5q-153 153 -362 153
q-181 0 -293.5 -117t-112.5 -315t119.5 -306.5t310.5 -108.5q106 0 190 26t134 62zM844 1653l-320 -127l-82 129l224 139q4 3 21.5 13.5l25 15t23.5 13.5t26.5 13t25.5 9.5t28.5 7.5t27.5 2q66 0 178 -74l223 -139l-82 -129z" />
    <glyph glyph-name="ccircumflex" unicode="&#x109;" horiz-adv-x="1060" 
d="M913 340l144 -250q-180 -119 -418 -119q-113 0 -214 35t-180.5 102t-126 174t-46.5 240q0 129 46 234t125 174t184 106t224 37q110 0 204.5 -27.5t141.5 -74.5q50 -50 50 -109q0 -60 -37.5 -108t-77.5 -72q-100 100 -258 100q-112 0 -188 -68.5t-76 -191.5
q0 -128 74.5 -191t193.5 -63q80 0 148 26.5t87 45.5zM633 1311l-262 -144l-103 129l203 140q97 73 162 73t162 -73l202 -140l-102 -129z" />
    <glyph glyph-name="Cdotaccent" unicode="&#x10a;" horiz-adv-x="1374" 
d="M1348 104h4q-27 -21 -65.5 -41t-101.5 -45t-154 -40t-193 -15q-124 0 -236 29t-207 89.5t-165 146.5t-109 206t-39 262q0 139 37.5 259t106 208.5t161.5 151.5t206 95t238 32q256 0 420 -105q88 -66 88 -151q0 -67 -46 -128.5t-85 -82.5q-153 153 -362 153
q-181 0 -293.5 -117t-112.5 -315t119.5 -306.5t310.5 -108.5q106 0 190 26t134 62zM682 1698q0 58 47 103.5t109 45.5t107.5 -45.5t45.5 -103.5t-45.5 -104t-107.5 -46t-109 46t-47 104z" />
    <glyph glyph-name="cdotaccent" unicode="&#x10b;" horiz-adv-x="1060" 
d="M913 340l144 -250q-180 -119 -418 -119q-113 0 -214 35t-180.5 102t-126 174t-46.5 240q0 129 46 234t125 174t184 106t224 37q110 0 204.5 -27.5t141.5 -74.5q50 -50 50 -109q0 -60 -37.5 -108t-77.5 -72q-100 100 -258 100q-112 0 -188 -68.5t-76 -191.5
q0 -128 74.5 -191t193.5 -63q80 0 148 26.5t87 45.5zM502 1315q0 55 45 97t102 42q58 0 101 -41.5t43 -97.5t-42.5 -98.5t-101.5 -42.5q-57 0 -102 43t-45 98z" />
    <glyph glyph-name="Ccaron" unicode="&#x10c;" horiz-adv-x="1374" 
d="M1348 104h4q-27 -21 -65.5 -41t-101.5 -45t-154 -40t-193 -15q-124 0 -236 29t-207 89.5t-165 146.5t-109 206t-39 262q0 139 37.5 259t106 208.5t161.5 151.5t206 95t238 32q256 0 420 -105q88 -66 88 -151q0 -67 -46 -128.5t-85 -82.5q-153 153 -362 153
q-181 0 -293.5 -117t-112.5 -315t119.5 -306.5t310.5 -108.5q106 0 190 26t134 62zM432 1741l82 129l320 -127l321 127l80 -129l-223 -139q-112 -74 -178 -74q-14 0 -27.5 2t-28.5 7.5t-25 9.5t-27.5 13.5t-23.5 13t-25 15t-22 13.5z" />
    <glyph glyph-name="ccaron" unicode="&#x10d;" horiz-adv-x="1060" 
d="M913 340l144 -250q-180 -119 -418 -119q-113 0 -214 35t-180.5 102t-126 174t-46.5 240q0 129 46 234t125 174t184 106t224 37q110 0 204.5 -27.5t141.5 -74.5q50 -50 50 -109q0 -60 -37.5 -108t-77.5 -72q-100 100 -258 100q-112 0 -188 -68.5t-76 -191.5
q0 -128 74.5 -191t193.5 -63q80 0 148 26.5t87 45.5zM473 1241l-199 139l95 129l266 -143l266 143l94 -129l-198 -139q-98 -74 -162 -74t-162 74z" />
    <glyph glyph-name="Dcaron" unicode="&#x10e;" horiz-adv-x="1538" 
d="M485 1110v-807q64 -8 156 -8q213 0 335 101t122 309q0 188 -111.5 300.5t-329.5 112.5q-140 0 -172 -8zM143 0v1223q0 85 40.5 128t101.5 52q112 22 333 22q255 0 442.5 -82t291.5 -245.5t104 -392.5q0 -347 -222.5 -536t-647.5 -189q-343 0 -443 20zM266 1741l82 129
l320 -127l321 127l80 -129l-223 -139q-112 -74 -178 -74q-14 0 -27.5 2t-28.5 7.5t-25 9.5t-27.5 13.5t-23.5 13t-25 15t-22 13.5z" />
    <glyph glyph-name="dcaron" unicode="&#x10f;" horiz-adv-x="1662" 
d="M1206 1479v-910q0 -253 -102 -389q-78 -102 -198 -155.5t-269 -53.5q-160 0 -288.5 68t-202.5 194.5t-74 288.5t68.5 289t183.5 194.5t254 67.5q189 0 301 -112v403q0 145 172 145q75 0 155 -30zM645 274q105 0 170.5 66t65.5 180q0 107 -67 179.5t-169 72.5
q-103 0 -169 -71t-66 -181t66 -178t169 -68zM1386 1030v338q0 141 168 141q25 0 40.5 -3.5t20 -8t9 -9.5t8.5 -7l-39 -451h-207z" />
    <glyph glyph-name="Dcroat" unicode="&#x110;" horiz-adv-x="1595" 
d="M201 0v590h-51q-66 0 -95.5 34.5t-29.5 102.5q0 70 28 115h148v381q0 85 40 128t101 52q112 22 334 22q191 0 345.5 -47.5t263.5 -137.5t168.5 -226.5t59.5 -308.5q0 -347 -222.5 -536t-647.5 -189q-342 0 -442 20zM543 590v-287q64 -8 155 -8q213 0 335 101t122 309
q0 188 -111 300.5t-329 112.5q-140 0 -172 -8v-268h241q125 0 125 -131q0 -76 -28 -121h-338z" />
    <glyph glyph-name="dcroat" unicode="&#x111;" horiz-adv-x="1294" 
d="M410 500q0 -108 64.5 -167t170.5 -59t171 62.5t65 175.5q0 103 -66 161t-172 58q-105 0 -169 -61.5t-64 -169.5zM1206 1137v-576q0 -245 -102 -381q-78 -102 -198 -155.5t-269 -53.5q-161 0 -289 63.5t-202 185.5t-74 282q0 122 40 223t108.5 167.5t160.5 103t197 36.5
q189 0 301 -112v217h-199q-109 0 -109 102q0 54 17 107h291v18q0 145 172 145q75 0 155 -30v-133h88q62 0 84.5 -28.5t22.5 -84.5q0 -52 -19 -96h-176z" />
    <glyph glyph-name="Emacron" unicode="&#x112;" horiz-adv-x="1312" 
d="M143 0v1210q0 195 203 195h701q91 0 132.5 -39.5t41.5 -116.5q0 -49 -14 -94.5t-29 -69.5h-693v-219h535q91 0 132.5 -39t41.5 -116q0 -49 -14 -94.5t-29 -69.5h-666v-228h725v-319h-1067zM283 1774h686q62 0 84 -28t22 -85q0 -54 -18 -96h-682q-109 0 -109 102
q0 54 17 107z" />
    <glyph glyph-name="emacron" unicode="&#x113;" horiz-adv-x="1148" 
d="M494 385h-72q9 -55 76 -96t194 -41q64 0 128 14t97.5 28t40.5 21l115 -229q-33 -21 -81 -42t-153.5 -45t-217.5 -24q-115 0 -215 37.5t-175 106.5t-118 174t-43 233q0 244 160 397.5t401 153.5q214 0 342.5 -107t128.5 -255q0 -64 -16.5 -112.5t-58 -90t-110 -67.5
t-174.5 -41t-249 -15zM406 598q88 0 154.5 4.5t106 13.5t65 18.5t36 24.5t13.5 26t3 28q0 45 -40.5 75.5t-114.5 30.5q-103 0 -160.5 -65.5t-62.5 -155.5zM287 1417h585q99 0 99 -100q0 -59 -21 -94h-585q-99 0 -99 100q0 45 21 94z" />
    <glyph glyph-name="Ebreve" unicode="&#x114;" horiz-adv-x="1312" 
d="M143 0v1210q0 195 203 195h701q91 0 132.5 -39.5t41.5 -116.5q0 -49 -14 -94.5t-29 -69.5h-693v-219h535q91 0 132.5 -39t41.5 -116q0 -49 -14 -94.5t-29 -69.5h-666v-228h725v-319h-1067zM340 1837l172 21q44 -140 174 -140q134 0 174 137l170 -18q-2 -39 -12.5 -78
t-35.5 -81.5t-62 -74t-97.5 -52.5t-136.5 -21q-77 0 -138 21t-98 52.5t-62.5 74t-35.5 81.5t-12 78z" />
    <glyph glyph-name="ebreve" unicode="&#x115;" horiz-adv-x="1148" 
d="M494 385h-72q9 -55 76 -96t194 -41q64 0 128 14t97.5 28t40.5 21l115 -229q-33 -21 -81 -42t-153.5 -45t-217.5 -24q-115 0 -215 37.5t-175 106.5t-118 174t-43 233q0 244 160 397.5t401 153.5q214 0 342.5 -107t128.5 -255q0 -64 -16.5 -112.5t-58 -90t-110 -67.5
t-174.5 -41t-249 -15zM406 598q88 0 154.5 4.5t106 13.5t65 18.5t36 24.5t13.5 26t3 28q0 45 -40.5 75.5t-114.5 30.5q-103 0 -160.5 -65.5t-62.5 -155.5zM324 1475l153 20q19 -72 56 -105.5t100 -33.5t99.5 33.5t55.5 105.5l154 -20q-2 -38 -11.5 -76t-32 -79.5t-55.5 -73
t-87.5 -52t-122.5 -20.5q-69 0 -123.5 20.5t-87.5 52t-55.5 73.5t-31.5 79.5t-11 75.5z" />
    <glyph glyph-name="Edotaccent" unicode="&#x116;" horiz-adv-x="1312" 
d="M143 0v1210q0 195 203 195h701q91 0 132.5 -39.5t41.5 -116.5q0 -49 -14 -94.5t-29 -69.5h-693v-219h535q91 0 132.5 -39t41.5 -116q0 -49 -14 -94.5t-29 -69.5h-666v-228h725v-319h-1067zM543 1698q0 58 46.5 103.5t108.5 45.5t108 -45.5t46 -103.5t-46 -104t-108 -46
t-108.5 46t-46.5 104z" />
    <glyph glyph-name="edotaccent" unicode="&#x117;" horiz-adv-x="1148" 
d="M494 385h-72q9 -55 76 -96t194 -41q64 0 128 14t97.5 28t40.5 21l115 -229q-33 -21 -81 -42t-153.5 -45t-217.5 -24q-115 0 -215 37.5t-175 106.5t-118 174t-43 233q0 244 160 397.5t401 153.5q214 0 342.5 -107t128.5 -255q0 -64 -16.5 -112.5t-58 -90t-110 -67.5
t-174.5 -41t-249 -15zM406 598q88 0 154.5 4.5t106 13.5t65 18.5t36 24.5t13.5 26t3 28q0 45 -40.5 75.5t-114.5 30.5q-103 0 -160.5 -65.5t-62.5 -155.5zM487 1315q0 55 45.5 97t102.5 42q58 0 100.5 -41.5t42.5 -97.5t-42 -98.5t-101 -42.5q-57 0 -102.5 43t-45.5 98z" />
    <glyph glyph-name="Eogonek" unicode="&#x118;" horiz-adv-x="1312" 
d="M143 0v1210q0 195 203 195h701q91 0 132.5 -39.5t41.5 -116.5q0 -49 -14 -94.5t-29 -69.5h-693v-219h535q91 0 132.5 -39t41.5 -116q0 -49 -14 -94.5t-29 -69.5h-666v-228h725v-319h-96q-25 -5 -53 -14.5t-60 -26.5t-52.5 -43.5t-20.5 -58.5q0 -62 82 -62q75 0 137 37
l63 -137q-102 -60 -252 -60q-111 0 -176 44t-65 133q0 33 10 62t23 47.5t33.5 36t33.5 25t31 17.5h-705z" />
    <glyph glyph-name="eogonek" unicode="&#x119;" horiz-adv-x="1148" 
d="M494 385h-72q9 -55 76 -96t194 -41q64 0 128 14t97.5 28t40.5 21l115 -229q-33 -23 -103 -50t-167 -44q-56 -18 -96.5 -52t-40.5 -83q0 -68 88 -68q73 0 135 37l59 -131q-98 -58 -248 -58q-110 0 -173.5 42t-63.5 130q0 99 96 168q-141 14 -250.5 80.5t-174 187.5
t-64.5 281q0 244 160 397.5t401 153.5q214 0 342.5 -107t128.5 -255q0 -64 -16.5 -112.5t-58 -90t-110 -67.5t-174.5 -41t-249 -15zM406 598q88 0 154.5 4.5t106 13.5t65 18.5t36 24.5t13.5 26t3 28q0 45 -40.5 75.5t-114.5 30.5q-103 0 -160.5 -65.5t-62.5 -155.5z" />
    <glyph glyph-name="Ecaron" unicode="&#x11a;" horiz-adv-x="1312" 
d="M143 0v1210q0 195 203 195h701q91 0 132.5 -39.5t41.5 -116.5q0 -49 -14 -94.5t-29 -69.5h-693v-219h535q91 0 132.5 -39t41.5 -116q0 -49 -14 -94.5t-29 -69.5h-666v-228h725v-319h-1067zM299 1741l82 129l319 -127l322 127l80 -129l-223 -139q-112 -74 -179 -74
q-14 0 -27.5 2t-28.5 7.5t-25.5 9.5t-26.5 13t-23.5 13.5l-25 15t-21.5 13.5z" />
    <glyph glyph-name="ecaron" unicode="&#x11b;" horiz-adv-x="1148" 
d="M494 385h-72q9 -55 76 -96t194 -41q64 0 128 14t97.5 28t40.5 21l115 -229q-33 -21 -81 -42t-153.5 -45t-217.5 -24q-115 0 -215 37.5t-175 106.5t-118 174t-43 233q0 244 160 397.5t401 153.5q214 0 342.5 -107t128.5 -255q0 -64 -16.5 -112.5t-58 -90t-110 -67.5
t-174.5 -41t-249 -15zM406 598q88 0 154.5 4.5t106 13.5t65 18.5t36 24.5t13.5 26t3 28q0 45 -40.5 75.5t-114.5 30.5q-103 0 -160.5 -65.5t-62.5 -155.5zM461 1241l-199 139l94 129l267 -143l266 143l94 -129l-199 -139q-98 -74 -161 -74q-64 0 -162 74z" />
    <glyph glyph-name="Gcircumflex" unicode="&#x11c;" horiz-adv-x="1474" 
d="M1026 283v233h-125q-92 0 -133 37.5t-41 114.5q0 88 43 159h389q203 0 203 -194v-633q-21 -5 -78 -12.5t-164.5 -16t-208.5 -8.5q-249 0 -433.5 80.5t-290 248t-105.5 408.5q0 225 101 394.5t277.5 258.5t401.5 89q262 0 412 -99q86 -53 86 -137q0 -110 -131 -207
q-134 134 -361 134q-200 0 -315 -117.5t-115 -315.5q0 -214 120.5 -319t342.5 -105q90 0 125 7zM840 1653l-320 -127l-82 129l224 139q4 3 21.5 13.5l25 15t23.5 13.5t26.5 13t25.5 9.5t28.5 7.5t27.5 2q66 0 178 -74l223 -139l-82 -129z" />
    <glyph glyph-name="gcircumflex" unicode="&#x11d;" horiz-adv-x="1294" 
d="M162 -338l90 236q11 -8 49.5 -22t116 -29t155.5 -15q141 0 222.5 66.5t81.5 212.5v22q-20 -20 -50.5 -41.5t-101 -46.5t-147.5 -25q-227 0 -366.5 135.5t-139.5 374.5t161.5 391t413.5 152q143 0 262.5 -53.5t196.5 -155.5q51 -68 75.5 -157t24.5 -220v-305
q0 -156 -44.5 -274.5t-126 -191.5t-188.5 -109.5t-239 -36.5q-156 0 -282 32.5t-164 59.5zM410 530q0 -113 63 -172t170 -59q101 0 167.5 64t66.5 167q0 104 -67 171t-167 67q-101 0 -167 -69t-66 -169zM653 1311l-262 -144l-102 129l203 140q97 73 161 73q65 0 162 -73
l203 -140l-103 -129z" />
    <glyph glyph-name="Gbreve" unicode="&#x11e;" horiz-adv-x="1474" 
d="M1026 283v233h-125q-92 0 -133 37.5t-41 114.5q0 88 43 159h389q203 0 203 -194v-633q-21 -5 -78 -12.5t-164.5 -16t-208.5 -8.5q-249 0 -433.5 80.5t-290 248t-105.5 408.5q0 225 101 394.5t277.5 258.5t401.5 89q262 0 412 -99q86 -53 86 -137q0 -110 -131 -207
q-134 134 -361 134q-200 0 -315 -117.5t-115 -315.5q0 -214 120.5 -319t342.5 -105q90 0 125 7zM492 1837l172 21q44 -140 174 -140q134 0 174 137l170 -18q-2 -39 -12.5 -78t-35.5 -81.5t-62 -74t-97.5 -52.5t-136.5 -21q-77 0 -138 21t-98 52.5t-62.5 74t-35.5 81.5
t-12 78z" />
    <glyph glyph-name="gbreve" unicode="&#x11f;" horiz-adv-x="1294" 
d="M162 -338l90 236q11 -8 49.5 -22t116 -29t155.5 -15q141 0 222.5 66.5t81.5 212.5v22q-20 -20 -50.5 -41.5t-101 -46.5t-147.5 -25q-227 0 -366.5 135.5t-139.5 374.5t161.5 391t413.5 152q143 0 262.5 -53.5t196.5 -155.5q51 -68 75.5 -157t24.5 -220v-305
q0 -156 -44.5 -274.5t-126 -191.5t-188.5 -109.5t-239 -36.5q-156 0 -282 32.5t-164 59.5zM410 530q0 -113 63 -172t170 -59q101 0 167.5 64t66.5 167q0 104 -67 171t-167 67q-101 0 -167 -69t-66 -169zM346 1475l154 20q19 -72 55.5 -105.5t99.5 -33.5t100 33.5t56 105.5
l154 -20q-2 -38 -11.5 -76t-32 -79.5t-56 -73t-88 -52t-122.5 -20.5q-69 0 -123.5 20.5t-87.5 52t-55.5 73.5t-31.5 79.5t-11 75.5z" />
    <glyph glyph-name="Gdotaccent" unicode="&#x120;" horiz-adv-x="1474" 
d="M1026 283v233h-125q-92 0 -133 37.5t-41 114.5q0 88 43 159h389q203 0 203 -194v-633q-21 -5 -78 -12.5t-164.5 -16t-208.5 -8.5q-249 0 -433.5 80.5t-290 248t-105.5 408.5q0 225 101 394.5t277.5 258.5t401.5 89q262 0 412 -99q86 -53 86 -137q0 -110 -131 -207
q-134 134 -361 134q-200 0 -315 -117.5t-115 -315.5q0 -214 120.5 -319t342.5 -105q90 0 125 7zM698 1698q0 58 47 103.5t109 45.5t108 -45.5t46 -103.5t-46 -104t-108 -46t-109 46t-47 104z" />
    <glyph glyph-name="gdotaccent" unicode="&#x121;" horiz-adv-x="1294" 
d="M162 -338l90 236q11 -8 49.5 -22t116 -29t155.5 -15q141 0 222.5 66.5t81.5 212.5v22q-20 -20 -50.5 -41.5t-101 -46.5t-147.5 -25q-227 0 -366.5 135.5t-139.5 374.5t161.5 391t413.5 152q143 0 262.5 -53.5t196.5 -155.5q51 -68 75.5 -157t24.5 -220v-305
q0 -156 -44.5 -274.5t-126 -191.5t-188.5 -109.5t-239 -36.5q-156 0 -282 32.5t-164 59.5zM410 530q0 -113 63 -172t170 -59q101 0 167.5 64t66.5 167q0 104 -67 171t-167 67q-101 0 -167 -69t-66 -169zM510 1315q0 55 45 97t102 42q58 0 101 -41.5t43 -97.5t-42.5 -98.5
t-101.5 -42.5q-57 0 -102 43t-45 98z" />
    <glyph glyph-name="Gcommaaccent" unicode="&#x122;" horiz-adv-x="1474" 
d="M1026 283v233h-125q-92 0 -133 37.5t-41 114.5q0 88 43 159h389q203 0 203 -194v-633q-21 -5 -78 -12.5t-164.5 -16t-208.5 -8.5q-249 0 -433.5 80.5t-290 248t-105.5 408.5q0 225 101 394.5t277.5 258.5t401.5 89q262 0 412 -99q86 -53 86 -137q0 -110 -131 -207
q-134 134 -361 134q-200 0 -315 -117.5t-115 -315.5q0 -214 120.5 -319t342.5 -105q90 0 125 7zM653 -535l29 259q8 78 45.5 125t108.5 47q42 0 78.5 -14.5t52.5 -28.5l-133 -416z" />
    <glyph glyph-name="gcommaaccent" unicode="&#x123;" horiz-adv-x="1294" 
d="M162 -338l90 236q11 -8 49.5 -22t116 -29t155.5 -15q141 0 222.5 66.5t81.5 212.5v22q-20 -20 -50.5 -41.5t-101 -46.5t-147.5 -25q-227 0 -366.5 135.5t-139.5 374.5t161.5 391t413.5 152q143 0 262.5 -53.5t196.5 -155.5q51 -68 75.5 -157t24.5 -220v-305
q0 -156 -44.5 -274.5t-126 -191.5t-188.5 -109.5t-239 -36.5q-156 0 -282 32.5t-164 59.5zM410 530q0 -113 63 -172t170 -59q101 0 167.5 64t66.5 167q0 104 -67 171t-167 67q-101 0 -167 -69t-66 -169zM518 1212l133 416l180 -29l-28 -258q-8 -78 -45.5 -125t-108.5 -47
q-42 0 -78.5 14.5t-52.5 28.5z" />
    <glyph glyph-name="Hcircumflex" unicode="&#x124;" horiz-adv-x="1515" 
d="M485 0h-342v1253q0 152 179 152q75 0 163 -33v-481h545v362q0 152 178 152q76 0 164 -33v-1372h-342v567h-545v-567zM784 1653l-319 -127l-82 129l223 139q4 3 21.5 13.5l25 15t23.5 13.5t26.5 13t25.5 9.5t28.5 7.5t27.5 2q67 0 179 -74l223 -139l-82 -129z" />
    <glyph glyph-name="hcircumflex" unicode="&#x125;" horiz-adv-x="1263" 
d="M113 0v1364q0 145 172 145q75 0 155 -30v-496q100 92 281 92q93 0 170.5 -26.5t136 -78.5t91 -137t32.5 -196v-637h-330v569q0 103 -45.5 151t-138.5 48q-195 0 -195 -227v-541h-329zM481 1774l-262 -144l-102 129l202 139q98 74 162 74t162 -74l203 -139l-103 -129z" />
    <glyph glyph-name="Hbar" unicode="&#x126;" horiz-adv-x="1572" 
d="M514 0h-342v1001h-63q-109 0 -109 103q0 56 16 106h156v43q0 152 178 152q76 0 164 -33v-162h545v43q0 152 178 152q76 0 164 -33v-162h65q62 0 84.5 -28t22.5 -84q0 -53 -19 -97h-153v-1001h-342v547h-545v-547zM514 1001v-151h545v151h-545z" />
    <glyph glyph-name="hbar" unicode="&#x127;" horiz-adv-x="1263" 
d="M113 0v1137h-84q-109 0 -109 102q0 54 17 107h176v18q0 145 172 145q75 0 155 -30v-133h203q62 0 84.5 -28.5t22.5 -84.5q0 -52 -19 -96h-291v-215q100 92 281 92q126 0 220.5 -45.5t152 -146t57.5 -247.5v-575h-330v508q0 103 -45.5 151t-138.5 48q-94 0 -144.5 -56.5
t-50.5 -171.5v-479h-329z" />
    <glyph glyph-name="Itilde" unicode="&#x128;" horiz-adv-x="628" 
d="M485 0h-342v1253q0 152 179 152q75 0 163 -33v-1372zM111 1526l-201 39q23 102 86 169.5t172 67.5q76 0 160 -24q85 -29 129 -29q52 0 71 70l197 -37q-53 -238 -258 -238q-80 0 -213 43q-46 12 -74 12q-50 0 -69 -73z" />
    <glyph glyph-name="itilde" unicode="&#x129;" horiz-adv-x="575" 
d="M123 0v899q0 145 172 145q78 0 158 -30v-1014h-330zM88 1167l-184 39q19 99 80 165.5t163 66.5q65 0 152 -25l51 -16q50 -13 74 -13q53 0 72 70l182 -37q-57 -231 -244 -231q-16 0 -31 1t-33.5 5t-27 6t-33 8.5t-30.5 7.5l-50 15q-46 12 -71 12q-51 0 -70 -74z" />
    <glyph glyph-name="Imacron" unicode="&#x12a;" horiz-adv-x="628" 
d="M485 0h-342v1253q0 152 179 152q75 0 163 -33v-1372zM-72 1774h686q62 0 84.5 -28.5t22.5 -84.5q0 -52 -19 -96h-682q-108 0 -108 102q0 57 16 107z" />
    <glyph glyph-name="imacron" unicode="&#x12b;" horiz-adv-x="575" 
d="M123 0v899q0 145 172 145q78 0 158 -30v-1014h-330zM-39 1417h586q98 0 98 -100q0 -61 -20 -94h-586q-98 0 -98 100q0 47 20 94z" />
    <glyph glyph-name="Ibreve" unicode="&#x12c;" horiz-adv-x="628" 
d="M485 0h-342v1253q0 152 179 152q75 0 163 -33v-1372zM-29 1837l172 21q44 -140 174 -140q135 0 175 137l170 -18q-2 -39 -12.5 -78t-36 -81.5t-62.5 -74t-97.5 -52.5t-136.5 -21q-77 0 -138 21t-98 52.5t-62.5 74t-35.5 81.5t-12 78z" />
    <glyph glyph-name="ibreve" unicode="&#x12d;" horiz-adv-x="575" 
d="M123 0v899q0 145 172 145q78 0 158 -30v-1014h-330zM-18 1475l153 20q19 -72 56 -105.5t100 -33.5t99.5 33.5t55.5 105.5l154 -20q-2 -38 -11.5 -76t-32 -79.5t-55.5 -73t-87.5 -52t-122.5 -20.5q-69 0 -123.5 20.5t-87.5 52t-55.5 73.5t-31.5 79.5t-11 75.5z" />
    <glyph glyph-name="Iogonek" unicode="&#x12e;" horiz-adv-x="628" 
d="M485 0h-47q-25 -5 -53 -14.5t-60 -26.5t-52.5 -43.5t-20.5 -58.5q0 -62 82 -62q75 0 137 37l64 -137q-102 -60 -252 -60q-111 0 -176.5 44t-65.5 133q0 33 10 62t23 47.5t33.5 36t33.5 25t31 17.5h-29v1253q0 152 179 152q75 0 163 -33v-1372z" />
    <glyph glyph-name="iogonek" unicode="&#x12f;" horiz-adv-x="575" 
d="M123 0v899q0 145 172 145q78 0 158 -30v-1014h-41q-27 -5 -56 -14.5t-62 -26.5t-54 -44.5t-21 -61.5q0 -68 88 -68q73 0 135 37l60 -131q-98 -58 -248 -58q-110 0 -174 42t-64 130q0 48 19.5 87t50 61.5t47 31.5t31.5 15h-41zM104 1325q0 78 52.5 131t130.5 53t131 -53
t53 -131t-53 -130t-131 -52t-130.5 52t-52.5 130z" />
    <glyph glyph-name="Idotaccent" unicode="&#x130;" horiz-adv-x="628" 
d="M485 0h-342v1253q0 152 179 152q75 0 163 -33v-1372zM180 1698q0 58 47 103.5t109 45.5t107.5 -45.5t45.5 -103.5t-45.5 -104t-107.5 -46t-109 46t-47 104z" />
    <glyph glyph-name="dotlessi" unicode="&#x131;" horiz-adv-x="575" 
d="M123 0v899q0 145 172 145q78 0 158 -30v-1014h-330z" />
    <glyph glyph-name="IJ" unicode="&#x132;" horiz-adv-x="1869" 
d="M485 0h-342v1253q0 152 179 152q75 0 163 -33v-1372zM659 231l236 203q41 -59 72 -87q87 -79 204 -79t172.5 56.5t55.5 185.5v743q0 152 178 152q76 0 164 -33v-883q0 -243 -138 -384.5t-409 -141.5q-97 0 -185 24t-145.5 57.5t-105 74t-68.5 67.5t-31 45z" />
    <glyph glyph-name="ij" unicode="&#x133;" horiz-adv-x="1161" 
d="M123 0v899q0 145 172 145q78 0 158 -30v-1014h-330zM104 1325q0 78 52.5 131t130.5 53t131 -53t53 -131t-53 -130t-131 -52t-130.5 52t-52.5 130zM322 -367l81 244q68 -35 156 -35q150 0 150 148v909q0 145 172 145q77 0 157 -30v-998q0 -124 -34.5 -214t-96 -139
t-134 -71t-161.5 -22q-82 0 -170 22.5t-120 40.5zM690 1325q0 78 52 131t130 53t131.5 -53t53.5 -131t-53.5 -130t-131.5 -52t-130 52t-52 130z" />
    <glyph glyph-name="Jcircumflex" unicode="&#x134;" horiz-adv-x="1226" 
d="M16 231l236 203q41 -59 72 -87q87 -79 204 -79t172.5 56.5t55.5 185.5v743q0 152 178 152q76 0 164 -33v-883q0 -243 -138 -384.5t-409 -141.5q-97 0 -185 24t-145.5 57.5t-105 74t-68.5 67.5t-31 45zM942 1653l-319 -127l-82 129l223 139q4 3 21.5 13.5l25 15t23.5 13.5
t26.5 13t25.5 9.5t28.5 7.5t27.5 2q66 0 178 -74l223 -139l-81 -129z" />
    <glyph glyph-name="jcircumflex" unicode="&#x135;" horiz-adv-x="575" 
d="M-264 -367l82 244q68 -35 155 -35q150 0 150 148v909q0 145 172 145q78 0 158 -30v-998q0 -124 -34.5 -214t-96 -139t-134 -71t-161.5 -22q-82 0 -170.5 22.5t-120.5 40.5zM293 1311l-262 -144l-103 129l203 140q97 73 162 73t162 -73l202 -140l-102 -129z" />
    <glyph glyph-name="Kcommaaccent" unicode="&#x136;" horiz-adv-x="1433" 
d="M485 0h-342v1253q0 152 179 152q75 0 163 -33v-522q271 306 445 463q31 27 55 44t66 32.5t88 15.5q83 0 140 -31.5t85 -64.5q-428 -428 -543 -559q171 -183 311.5 -358.5t290.5 -391.5h-419q-110 149 -258 324t-261 288v-612zM580 -535l28 259q8 78 45.5 125t108.5 47
q42 0 78.5 -14.5t52.5 -28.5l-133 -416z" />
    <glyph glyph-name="kcommaaccent" unicode="&#x137;" horiz-adv-x="1230" 
d="M113 0v1364q0 145 172 145q77 0 157 -30v-783q42 36 152 126t143 120q50 43 73.5 59.5t62.5 29.5t92 13q73 0 129.5 -36.5t79.5 -75.5q-46 -49 -128 -118t-181 -147.5t-126 -101.5q282 -256 492 -565h-408q-27 36 -61.5 77.5t-60 70t-72.5 77.5t-62 64.5t-69 69t-56 55.5
v-414h-329zM444 -535l29 259q8 78 45.5 125t108.5 47q42 0 78.5 -14.5t52.5 -28.5l-133 -416z" />
    <glyph glyph-name="kgreenlandic" unicode="&#x138;" horiz-adv-x="1230" 
d="M113 0v899q0 145 172 145q77 0 157 -30v-361q56 47 166 159.5t129 129.5q50 43 73.5 59.5t62.5 29.5t92 13q73 0 129.5 -36.5t79.5 -75.5q-73 -78 -215.5 -211.5t-219.5 -198.5q144 -116 262.5 -239t229.5 -283h-408q-224 246 -381 371v-371h-329z" />
    <glyph glyph-name="Lacute" unicode="&#x139;" horiz-adv-x="1144" 
d="M1135 0h-992v1253q0 152 179 152q75 0 163 -33v-1053h650v-319zM205 1530l-70 149l277 140q93 49 151 49q39 0 69.5 -16.5t47 -39t27.5 -49t14.5 -43t3.5 -24.5z" />
    <glyph glyph-name="lacute" unicode="&#x13a;" horiz-adv-x="575" 
d="M123 0v1364q0 145 172 145q78 0 158 -30v-1479h-330zM145 1630l-90 135l236 150q86 57 137 57q41 0 73 -22t47 -52t22.5 -52t7.5 -31z" />
    <glyph glyph-name="Lcommaaccent" unicode="&#x13b;" horiz-adv-x="1144" 
d="M1135 0h-992v1253q0 152 179 152q75 0 163 -33v-1053h650v-319zM457 -535l28 259q8 78 45.5 125t108.5 47q42 0 78.5 -14.5t52.5 -28.5l-133 -416z" />
    <glyph glyph-name="lcommaaccent" unicode="&#x13c;" horiz-adv-x="575" 
d="M123 0v1364q0 145 172 145q78 0 158 -30v-1479h-330zM96 -535l29 259q8 78 45.5 125t108.5 47q42 0 78.5 -14.5t52.5 -28.5l-134 -416z" />
    <glyph glyph-name="Lcaron" unicode="&#x13d;" horiz-adv-x="1144" 
d="M1135 0h-992v1253q0 152 179 152q75 0 163 -33v-1053h650v-319zM707 930v338q0 141 167 141q25 0 40.5 -4t20 -8.5t9 -9.5t8.5 -7l-39 -450h-206z" />
    <glyph glyph-name="lcaron" unicode="&#x13e;" horiz-adv-x="868" 
d="M123 0v1364q0 145 172 145q78 0 158 -30v-1479h-330zM637 1030v338q0 141 168 141q25 0 40.5 -3.5t20 -8t9 -9.5t8.5 -7l-39 -451h-207z" />
    <glyph glyph-name="Ldot" unicode="&#x13f;" horiz-adv-x="1144" 
d="M1135 0h-992v1253q0 152 179 152q75 0 163 -33v-1053h650v-319zM729 864q0 58 47 104t109 46t107.5 -46t45.5 -104t-45.5 -103.5t-107.5 -45.5t-109 45.5t-47 103.5z" />
    <glyph glyph-name="ldot" unicode="&#x140;" horiz-adv-x="917" 
d="M123 0v1364q0 145 172 145q78 0 158 -30v-1479h-330zM608 817q0 55 45.5 97t102.5 42q58 0 100.5 -41.5t42.5 -97.5t-42 -98.5t-101 -42.5q-57 0 -102.5 43t-45.5 98z" />
    <glyph glyph-name="Lslash" unicode="&#x141;" horiz-adv-x="1144" 
d="M1135 0h-992v498l-135 -86v82q0 41 2 67t9 62t25.5 63t47.5 47l51 33v487q0 152 179 152q75 0 163 -33v-407l293 188v-96q0 -41 -2 -65t-9 -58t-25.5 -59.5t-47.5 -45.5l-209 -133v-377h650v-319z" />
    <glyph glyph-name="lslash" unicode="&#x142;" horiz-adv-x="575" 
d="M123 0v557l-115 -82v158q0 70 12.5 102.5t65.5 69.5l37 26v533q0 145 172 145q78 0 158 -30v-453l114 82v-158q0 -68 -12.5 -100t-65.5 -70l-36 -26v-754h-330z" />
    <glyph glyph-name="Nacute" unicode="&#x143;" horiz-adv-x="1513" 
d="M143 0v1227q0 51 16 87t44.5 55t60 27.5t68.5 8.5q63 0 107 -16.5t63 -32.5q29 -29 240.5 -338.5t289.5 -437.5v673q0 152 178 152q83 0 160 -33v-1372h-321q-58 96 -260 403.5t-308 460.5v-864h-338zM580 1530l-70 149l276 140q93 49 152 49q39 0 69.5 -16.5t47 -39
t27.5 -49t14.5 -43t3.5 -24.5z" />
    <glyph glyph-name="nacute" unicode="&#x144;" horiz-adv-x="1267" 
d="M113 0v633q0 139 71.5 240.5t188 150.5t262.5 49t262 -49t187 -150.5t71 -240.5v-633h-330v557q0 213 -190 213q-193 0 -193 -213v-557h-329zM489 1167l-90 136l236 149q86 57 137 57q41 0 73 -22t47 -52t22.5 -52t7.5 -31z" />
    <glyph glyph-name="Ncommaaccent" unicode="&#x145;" horiz-adv-x="1513" 
d="M143 0v1227q0 51 16 87t44.5 55t60 27.5t68.5 8.5q63 0 107 -16.5t63 -32.5q29 -29 240.5 -338.5t289.5 -437.5v673q0 152 178 152q83 0 160 -33v-1372h-321q-58 96 -260 403.5t-308 460.5v-864h-338zM606 -535l29 259q8 78 45 125t108 47q42 0 79 -14.5t53 -28.5
l-134 -416z" />
    <glyph glyph-name="ncommaaccent" unicode="&#x146;" horiz-adv-x="1267" 
d="M113 0v633q0 139 71.5 240.5t188 150.5t262.5 49t262 -49t187 -150.5t71 -240.5v-633h-330v557q0 213 -190 213q-193 0 -193 -213v-557h-329zM463 -535l29 259q8 78 45 125t108 47q42 0 78.5 -14.5t52.5 -28.5l-133 -416z" />
    <glyph glyph-name="Ncaron" unicode="&#x147;" horiz-adv-x="1513" 
d="M143 0v1227q0 51 16 87t44.5 55t60 27.5t68.5 8.5q63 0 107 -16.5t63 -32.5q29 -29 240.5 -338.5t289.5 -437.5v673q0 152 178 152q83 0 160 -33v-1372h-321q-58 96 -260 403.5t-308 460.5v-864h-338zM401 1741l82 129l320 -127l321 127l80 -129l-223 -139
q-112 -74 -178 -74q-14 0 -27.5 2t-28.5 7.5t-25.5 9.5t-26.5 13t-23.5 13.5l-25 15t-21.5 13.5z" />
    <glyph glyph-name="ncaron" unicode="&#x148;" horiz-adv-x="1267" 
d="M113 0v633q0 139 71.5 240.5t188 150.5t262.5 49t262 -49t187 -150.5t71 -240.5v-633h-330v557q0 213 -190 213q-193 0 -193 -213v-557h-329zM481 1241l-198 139l94 129l266 -143l266 143l95 -129l-199 -139q-98 -74 -162 -74t-162 74z" />
    <glyph glyph-name="napostrophe" unicode="&#x149;" horiz-adv-x="1415" 
d="M258 0v633q0 139 71.5 240.5t188 150.5t262.5 49t262 -49t187 -150.5t71 -240.5v-633h-329v557q0 213 -191 213q-192 0 -192 -213v-557h-330zM61 1024l103 365q18 61 48.5 89.5t88.5 28.5q56 0 100 -24t60 -47l-211 -484z" />
    <glyph glyph-name="Eng" unicode="&#x14a;" horiz-adv-x="1513" 
d="M143 0v1227q0 51 16 87t44.5 55t60 27.5t68.5 8.5q63 0 107 -16.5t63 -32.5q29 -29 240.5 -338.5t289.5 -437.5v673q0 152 178 152q83 0 160 -33v-1356q0 -124 -34.5 -214t-96 -139t-134 -71t-161.5 -22q-82 0 -170.5 22.5t-120.5 40.5l82 244q68 -35 156 -35
q69 0 109 40.5t40 148.5q-51 84 -240.5 365t-318.5 468v-864h-338z" />
    <glyph glyph-name="eng" unicode="&#x14b;" horiz-adv-x="1267" 
d="M438 -367l82 244q68 -35 156 -35q149 0 149 148v567q0 213 -190 213q-193 0 -193 -213v-557h-329v633q0 139 71.5 240.5t188 150.5t262.5 49t262 -49t187 -150.5t71 -240.5v-617q0 -124 -34.5 -214t-96 -139t-134 -71t-161.5 -22q-82 0 -170.5 22.5t-120.5 40.5z" />
    <glyph glyph-name="Omacron" unicode="&#x14c;" horiz-adv-x="1683" 
d="M82 702q0 153 59 290.5t160 236t242 156t299 57.5t299 -57.5t242 -156t160 -236t59 -290.5q0 -205 -100 -374.5t-274.5 -267t-385.5 -97.5t-385.5 97.5t-274.5 267t-100 374.5zM842 283q176 0 288.5 119.5t112.5 299.5q0 181 -112.5 300.5t-288.5 119.5t-289 -119.5
t-113 -300.5q0 -180 113 -299.5t289 -119.5zM453 1774h686q62 0 84 -28t22 -85q0 -54 -18 -96h-682q-109 0 -109 102q0 54 17 107z" />
    <glyph glyph-name="omacron" unicode="&#x14d;" horiz-adv-x="1298" 
d="M72 522q0 154 77.5 281t209.5 198.5t290 71.5t290.5 -71.5t210 -198.5t77.5 -281t-77.5 -281t-210 -198.5t-290.5 -71.5t-290 71.5t-209.5 198.5t-77.5 281zM649 266q104 0 172 73t68 183t-68 183t-172 73t-171.5 -72.5t-67.5 -183.5t67.5 -183.5t171.5 -72.5zM319 1417
h586q99 0 99 -100q0 -59 -21 -94h-586q-98 0 -98 100q0 47 20 94z" />
    <glyph glyph-name="Obreve" unicode="&#x14e;" horiz-adv-x="1683" 
d="M82 702q0 153 59 290.5t160 236t242 156t299 57.5t299 -57.5t242 -156t160 -236t59 -290.5q0 -205 -100 -374.5t-274.5 -267t-385.5 -97.5t-385.5 97.5t-274.5 267t-100 374.5zM842 283q176 0 288.5 119.5t112.5 299.5q0 181 -112.5 300.5t-288.5 119.5t-289 -119.5
t-113 -300.5q0 -180 113 -299.5t289 -119.5zM498 1837l172 21q44 -140 174 -140q134 0 174 137l170 -18q-2 -39 -12.5 -78t-35.5 -81.5t-62 -74t-97.5 -52.5t-136.5 -21q-77 0 -138 21t-98 52.5t-62.5 74t-35.5 81.5t-12 78z" />
    <glyph glyph-name="obreve" unicode="&#x14f;" horiz-adv-x="1298" 
d="M72 522q0 154 77.5 281t209.5 198.5t290 71.5t290.5 -71.5t210 -198.5t77.5 -281t-77.5 -281t-210 -198.5t-290.5 -71.5t-290 71.5t-209.5 198.5t-77.5 281zM649 266q104 0 172 73t68 183t-68 183t-172 73t-171.5 -72.5t-67.5 -183.5t67.5 -183.5t171.5 -72.5zM340 1475
l154 20q19 -72 55.5 -105.5t99.5 -33.5t100 33.5t56 105.5l153 -20q-2 -38 -11.5 -76t-32 -79.5t-55.5 -73t-87.5 -52t-122.5 -20.5q-69 0 -123.5 20.5t-87.5 52t-55.5 73.5t-31.5 79.5t-11 75.5z" />
    <glyph glyph-name="Ohungarumlaut" unicode="&#x150;" horiz-adv-x="1683" 
d="M82 702q0 153 59 290.5t160 236t242 156t299 57.5t299 -57.5t242 -156t160 -236t59 -290.5q0 -205 -100 -374.5t-274.5 -267t-385.5 -97.5t-385.5 97.5t-274.5 267t-100 374.5zM842 283q176 0 288.5 119.5t112.5 299.5q0 181 -112.5 300.5t-288.5 119.5t-289 -119.5
t-113 -300.5q0 -180 113 -299.5t289 -119.5zM500 1550l-80 136l221 153q70 49 147 49q43 0 73 -21t41.5 -51.5t15.5 -49t4 -29.5zM1063 1550l-80 136l221 153q70 49 148 49q43 0 73 -21t41 -51.5t15 -49t4 -29.5z" />
    </font>
</defs>
</svg>
