<?xml version="1.0" standalone="no"?>
<!DOCTYPE svg PUBLIC "-//W3C//DTD SVG 1.1//EN" "http://www.w3.org/Graphics/SVG/1.1/DTD/svg11.dtd" >
<svg xmlns="http://www.w3.org/2000/svg" xmlns:xlink="http://www.w3.org/1999/xlink" version="1.1">
<metadata>
Created by FontForge 20170731 at Fri Sep 30 19:19:07 2022
 By Aleksey,,,
Copyright 2014 Dalton Maag Ltd. Modification of this file requires prior written permission from Dalton Maag Ltd.
</metadata>
<defs>
<font id="CoHeadline-Regular" horiz-adv-x="970" >
  <font-face 
    font-family="Co Headline"
    font-weight="400"
    font-stretch="normal"
    units-per-em="2048"
    panose-1="2 11 6 3 6 2 2 2 2 4"
    ascent="1593"
    descent="-455"
    x-height="1028"
    cap-height="1405"
    bbox="-479 -887 3135 2679"
    underline-thickness="120"
    underline-position="-384"
    unicode-range="U+0008-FEFC"
  />
<missing-glyph horiz-adv-x="1024" 
d="M922 0h-820v1536h820v-1536zM205 102h614v1332h-614v-1332z" />
    <glyph glyph-name="f_f" unicode="ff" horiz-adv-x="1480" 
d="M125 0v1092q0 213 112.5 315t307.5 102q123 0 194.5 -35.5t71.5 -105.5q0 -33 -17.5 -60t-43.5 -42q-72 59 -183 59q-209 0 -209 -235v-62h480v64q0 109 30.5 190t87 130t132 73t169.5 24q160 0 234 -38t74 -103q0 -33 -18 -60t-44 -42q-33 26 -90 42.5t-119 16.5
q-118 0 -170.5 -59t-52.5 -176v-62h307q66 0 94.5 -26.5t28.5 -81.5t-26 -107h-404v-813h-233v813h-480v-813h-233z" />
    <glyph glyph-name="f_i" unicode="fi" horiz-adv-x="1198" 
d="M125 0v1092q0 89 23.5 160t64 118.5t99 79t125.5 45.5t145 14q176 0 264 -36.5t88 -104.5q0 -33 -18 -61t-44 -43q-33 24 -110 42.5t-144 18.5q-126 0 -194 -60.5t-68 -185.5v-51h592q70 0 94.5 -29.5t24.5 -99.5v-899h-231v813h-480v-813h-231z" />
    <glyph glyph-name="f_l" unicode="fl" horiz-adv-x="1171" 
d="M125 0v1092q0 112 35 193.5t100.5 130t150.5 71t193 22.5q75 0 147 -8t119.5 -18.5t89.5 -23.5t57.5 -19t22.5 -10v-1430h-233v1296q-77 29 -201 29q-129 0 -188.5 -62t-59.5 -188v-47h234q66 0 94.5 -26.5t28.5 -81.5q0 -53 -27 -107h-330v-813h-233z" />
    <glyph glyph-name="f_f_i" unicode="ffi" horiz-adv-x="1923" 
d="M125 0v1092q0 213 112.5 315t307.5 102q123 0 194.5 -35.5t71.5 -105.5q0 -33 -17.5 -60t-43.5 -42q-72 59 -183 59q-209 0 -209 -235v-62h492v64q0 89 23.5 160t64 118.5t99 79t125.5 45.5t145 14q176 0 264 -36.5t88 -104.5q0 -33 -18 -61t-44 -43q-33 24 -110 42.5
t-144 18.5q-126 0 -194 -60.5t-68 -185.5v-51h592q70 0 94.5 -29.5t24.5 -99.5v-899h-233v813h-476v-813h-233v813h-492v-813h-233z" />
    <glyph glyph-name="f_f_l" unicode="ffl" horiz-adv-x="1880" 
d="M125 0v1092q0 213 112.5 315t307.5 102q123 0 194.5 -35.5t71.5 -105.5q0 -33 -17.5 -60t-43.5 -42q-72 59 -183 59q-209 0 -209 -235v-62h476v64q0 112 35 193.5t100.5 130t150.5 71t193 22.5q75 0 147 -8t119.5 -18.5t89.5 -23.5t57.5 -19t22.5 -10v-1430h-233v1296
q-77 29 -201 29q-129 0 -188.5 -62t-59.5 -188v-47h233q66 0 94.5 -26.5t28.5 -81.5t-26 -107h-330v-813h-233v813h-476v-813h-233z" />
    <glyph glyph-name="uniFEF5" unicode="&#xfedf;&#xfe82;" horiz-adv-x="1280" arabic-form="isolated" 
d="M930 203v1296q0 113 123 113q52 0 110 -25v-1587h-1075v203h236v598q0 112 120 112q69 0 111 -24v-686h375zM285 1044h-113q0 103 42 152t108 49q40 0 129 -39t106 -39q53 0 53 78h115q0 -103 -42.5 -150.5t-109.5 -47.5q-41 0 -128.5 37.5t-108.5 37.5q-51 0 -51 -78z
" />
    <glyph glyph-name="uniFEF6" unicode="&#xfee0;&#xfe82;" horiz-adv-x="1476" arabic-form="final" 
d="M1053 139q-26 -46 -61.5 -75t-84.5 -42.5t-94 -17.5t-113 -4h-612v203h236v598q0 61 33.5 85.5t103.5 24.5q43 0 94 -22v-686h174q66 0 108 18.5t63 58t28.5 85.5t7.5 116v1018q0 56 31.5 84.5t89.5 28.5q52 0 110 -25v-1106q0 -71 6.5 -116.5t27 -85t63 -58t108.5 -18.5
h135v-203h-104q-139 0 -222.5 28t-127.5 111zM285 1044h-113q0 103 42 152t108 49q40 0 129 -39t106 -39q53 0 53 78h115q0 -103 -42.5 -150.5t-109.5 -47.5q-41 0 -128.5 37.5t-108.5 37.5q-51 0 -51 -78z" />
    <glyph glyph-name="uniFEF7" unicode="&#xfedf;&#xfe84;" horiz-adv-x="1280" arabic-form="isolated" 
d="M930 203v1296q0 113 123 113q52 0 110 -25v-1587h-1075v203h236v598q0 112 120 112q69 0 111 -24v-686h375zM233 1065v102h109q-43 34 -43 101q0 75 53 117t129 42q56 0 96.5 -16.5t40.5 -50.5q0 -30 -30 -57q-46 26 -90 26q-38 0 -61 -18.5t-23 -50.5q0 -48 32 -70.5
t80 -22.5h107v-102h-400z" />
    <glyph glyph-name="uniFEF8" unicode="&#xfee0;&#xfe84;" horiz-adv-x="1476" arabic-form="final" 
d="M1053 139q-26 -46 -61.5 -75t-84.5 -42.5t-94 -17.5t-113 -4h-612v203h236v598q0 61 33.5 85.5t103.5 24.5q43 0 94 -22v-686h174q66 0 108 18.5t63 58t28.5 85.5t7.5 116v1018q0 56 31.5 84.5t89.5 28.5q52 0 110 -25v-1106q0 -71 6.5 -116.5t27 -85t63 -58t108.5 -18.5
h135v-203h-104q-139 0 -222.5 28t-127.5 111zM233 1065v102h109q-43 34 -43 101q0 75 53 117t129 42q56 0 96.5 -16.5t40.5 -50.5q0 -30 -30 -57q-46 26 -90 26q-38 0 -61 -18.5t-23 -50.5q0 -48 32 -70.5t80 -22.5h107v-102h-400z" />
    <glyph glyph-name="uniFEF9" unicode="&#xfedf;&#xfe88;" horiz-adv-x="1280" arabic-form="isolated" 
d="M930 203v1296q0 113 123 113q52 0 110 -25v-1587h-1075v203h236v598q0 112 120 112q69 0 111 -24v-686h375zM205 -502v103h108q-43 34 -43 100q0 75 53.5 117.5t129.5 42.5q56 0 96.5 -17t40.5 -51q0 -29 -31 -57q-45 26 -90 26q-38 0 -61 -18.5t-23 -50.5
q0 -47 32.5 -69.5t80.5 -22.5h106v-103h-399z" />
    <glyph glyph-name="uniFEFA" unicode="&#xfee0;&#xfe88;" horiz-adv-x="1476" arabic-form="final" 
d="M1053 139q-26 -46 -61.5 -75t-84.5 -42.5t-94 -17.5t-113 -4h-612v203h236v598q0 61 33.5 85.5t103.5 24.5q43 0 94 -22v-686h174q66 0 108 18.5t63 58t28.5 85.5t7.5 116v1018q0 56 31.5 84.5t89.5 28.5q52 0 110 -25v-1106q0 -71 6.5 -116.5t27 -85t63 -58t108.5 -18.5
h135v-203h-104q-139 0 -222.5 28t-127.5 111zM205 -502v103h108q-43 34 -43 100q0 75 53.5 117.5t129.5 42.5q56 0 96.5 -17t40.5 -51q0 -29 -31 -57q-45 26 -90 26q-38 0 -61 -18.5t-23 -50.5q0 -47 32.5 -69.5t80.5 -22.5h106v-103h-399z" />
    <glyph glyph-name="uniFEFB" unicode="&#xfedf;&#xfe8e;" horiz-adv-x="1280" arabic-form="isolated" 
d="M930 203v1296q0 113 123 113q52 0 110 -25v-1587h-1075v203h236v598q0 112 120 112q69 0 111 -24v-686h375z" />
    <glyph glyph-name="uniFEFC" unicode="&#xfee0;&#xfe8e;" horiz-adv-x="1476" arabic-form="final" 
d="M1053 139q-26 -46 -61.5 -75t-84.5 -42.5t-94 -17.5t-113 -4h-612v203h236v598q0 61 33.5 85.5t103.5 24.5q43 0 94 -22v-686h174q66 0 108 18.5t63 58t28.5 85.5t7.5 116v1018q0 56 31.5 84.5t89.5 28.5q52 0 110 -25v-1106q0 -71 6.5 -116.5t27 -85t63 -58t108.5 -18.5
h135v-203h-104q-139 0 -222.5 28t-127.5 111z" />
    <glyph glyph-name="uni06440671" unicode="&#xfedf;&#xfb51;" horiz-adv-x="1280" 
d="M930 203v1296q0 113 123 113q52 0 110 -25v-1587h-1075v203h236v598q0 112 120 112q69 0 111 -24v-686h375zM156 1157h80q17 113 87.5 177.5t176.5 64.5q39 0 73.5 -10t65 -31t48.5 -59.5t18 -90.5v-147h-549v96zM489 1298q-64 0 -107.5 -42.5t-45.5 -98.5h262v41
q0 44 -27.5 72t-81.5 28z" />
    <glyph glyph-name="uni06440671.fina" unicode="&#xfee0;&#xfb51;" horiz-adv-x="1476" 
d="M1053 139q-26 -46 -61.5 -75t-84.5 -42.5t-94 -17.5t-113 -4h-612v203h236v598q0 61 33.5 85.5t103.5 24.5q43 0 94 -22v-686h174q66 0 108 18.5t63 58t28.5 85.5t7.5 116v1018q0 56 31.5 84.5t89.5 28.5q52 0 110 -25v-1106q0 -71 6.5 -116.5t27 -85t63 -58t108.5 -18.5
h135v-203h-104q-139 0 -222.5 28t-127.5 111zM156 1157h80q17 113 87.5 177.5t176.5 64.5q39 0 73.5 -10t65 -31t48.5 -59.5t18 -90.5v-147h-549v96zM489 1298q-64 0 -107.5 -42.5t-45.5 -98.5h262v41q0 44 -27.5 72t-81.5 28z" />
    <glyph glyph-name="uniFEDBFE8E" unicode="&#xfedb;&#xfe8e;" horiz-adv-x="1398" 
d="M346 899l512 510q114 114 174 158t127 45q86 0 150 -80l-664 -627h27q283 0 448.5 -153.5t165.5 -438.5v-313h-1171v1499q0 56 31.5 84.5t89.5 28.5q52 0 110 -25v-688zM1047 203v86q0 117 -34.5 202.5t-96.5 134.5t-140 72t-174 23q-168 0 -256 -47v-471h701z" />
    <glyph glyph-name="uniFEDCFE8E" unicode="&#xfedc;&#xfe8e;" horiz-adv-x="1531" 
d="M1047 203v86q0 117 -34.5 202.5t-96.5 134.5t-140 72t-174 23q-168 0 -256 -47v-471h701zM1563 0h-1448v1499q0 56 31.5 84.5t89.5 28.5q52 0 110 -25v-688l512 510q114 114 174 158t127 45q86 0 150 -80l-664 -627h27q283 0 448.5 -153.5t165.5 -438.5v-110h277v-203z
" />
    <glyph glyph-name="uniFEDBFE82" unicode="&#xfedb;&#xfe82;" horiz-adv-x="1398" 
d="M346 899l512 510q114 114 174 158t127 45q86 0 150 -80l-664 -627h27q283 0 448.5 -153.5t165.5 -438.5v-313h-1171v1499q0 56 31.5 84.5t89.5 28.5q52 0 110 -25v-688zM1047 203v86q0 117 -34.5 202.5t-96.5 134.5t-140 72t-174 23q-168 0 -256 -47v-471h701zM80 1757
h-113q0 103 42 152t108 49q40 0 129 -39t106 -39q54 0 54 78h114q0 -103 -42.5 -151t-108.5 -48q-41 0 -129 38t-109 38q-51 0 -51 -78z" />
    <glyph glyph-name="uniFEDCFE82" unicode="&#xfedc;&#xfe82;" horiz-adv-x="1531" 
d="M1047 203v86q0 117 -34.5 202.5t-96.5 134.5t-140 72t-174 23q-168 0 -256 -47v-471h701zM1563 0h-1448v1499q0 56 31.5 84.5t89.5 28.5q52 0 110 -25v-688l512 510q114 114 174 158t127 45q86 0 150 -80l-664 -627h27q283 0 448.5 -153.5t165.5 -438.5v-110h277v-203z
M80 1757h-113q0 103 42 152t108 49q40 0 129 -39t106 -39q54 0 54 78h114q0 -103 -42.5 -151t-108.5 -48q-41 0 -129 38t-109 38q-51 0 -51 -78z" />
    <glyph glyph-name="uniFEDBFE84" unicode="&#xfedb;&#xfe84;" horiz-adv-x="1398" 
d="M346 899l512 510q114 114 174 158t127 45q86 0 150 -80l-664 -627h27q283 0 448.5 -153.5t165.5 -438.5v-313h-1171v1499q0 56 31.5 84.5t89.5 28.5q52 0 110 -25v-688zM1047 203v86q0 117 -34.5 202.5t-96.5 134.5t-140 72t-174 23q-168 0 -256 -47v-471h701zM29 1757
v103h108q-43 34 -43 100q0 75 53 117.5t129 42.5q56 0 97 -17t41 -51q0 -29 -31 -57q-46 26 -90 26q-38 0 -61 -18.5t-23 -50.5q0 -47 32.5 -69.5t80.5 -22.5h106v-103h-399z" />
    <glyph glyph-name="uniFEDCFE84" unicode="&#xfedc;&#xfe84;" horiz-adv-x="1531" 
d="M1047 203v86q0 117 -34.5 202.5t-96.5 134.5t-140 72t-174 23q-168 0 -256 -47v-471h701zM1563 0h-1448v1499q0 56 31.5 84.5t89.5 28.5q52 0 110 -25v-688l512 510q114 114 174 158t127 45q86 0 150 -80l-664 -627h27q283 0 448.5 -153.5t165.5 -438.5v-110h277v-203z
M29 1757v103h108q-43 34 -43 100q0 75 53 117.5t129 42.5q56 0 97 -17t41 -51q0 -29 -31 -57q-46 26 -90 26q-38 0 -61 -18.5t-23 -50.5q0 -47 32.5 -69.5t80.5 -22.5h106v-103h-399z" />
    <glyph glyph-name="uniFEDBFE88" unicode="&#xfedb;&#xfe88;" horiz-adv-x="1398" 
d="M346 899l512 510q114 114 174 158t127 45q86 0 150 -80l-664 -627h27q283 0 448.5 -153.5t165.5 -438.5v-313h-1171v1499q0 56 31.5 84.5t89.5 28.5q52 0 110 -25v-688zM1047 203v86q0 117 -34.5 202.5t-96.5 134.5t-140 72t-174 23q-168 0 -256 -47v-471h701zM41 -510
v102h109q-44 34 -44 101q0 75 53.5 117.5t129.5 42.5q56 0 96.5 -17t40.5 -51q0 -29 -31 -57q-45 26 -90 26q-38 0 -61 -18.5t-23 -50.5q0 -47 32.5 -70t80.5 -23h106v-102h-399z" />
    <glyph glyph-name="uniFEDCFE88" unicode="&#xfedc;&#xfe88;" horiz-adv-x="1531" 
d="M1047 203v86q0 117 -34.5 202.5t-96.5 134.5t-140 72t-174 23q-168 0 -256 -47v-471h701zM1563 0h-1448v1499q0 56 31.5 84.5t89.5 28.5q52 0 110 -25v-688l512 510q114 114 174 158t127 45q86 0 150 -80l-664 -627h27q283 0 448.5 -153.5t165.5 -438.5v-110h277v-203z
M41 -510v102h109q-44 34 -44 101q0 75 53.5 117.5t129.5 42.5q56 0 96.5 -17t40.5 -51q0 -29 -31 -57q-45 26 -90 26q-38 0 -61 -18.5t-23 -50.5q0 -47 32.5 -70t80.5 -23h106v-102h-399z" />
    <glyph glyph-name="uniFEDBFB51" unicode="&#xfedb;&#xfb51;" horiz-adv-x="1398" 
d="M346 899l512 510q114 114 174 158t127 45q86 0 150 -80l-664 -627h27q283 0 448.5 -153.5t165.5 -438.5v-313h-1171v1499q0 56 31.5 84.5t89.5 28.5q52 0 110 -25v-688zM1047 203v86q0 117 -34.5 202.5t-96.5 134.5t-140 72t-174 23q-168 0 -256 -47v-471h701zM-59 1853
h79q17 112 88 177t177 65q39 0 73.5 -9.5t65 -30.5t48 -59.5t17.5 -90.5v-148h-548v96zM274 1995q-64 0 -107.5 -43t-45.5 -99h262v41q0 44 -27.5 72.5t-81.5 28.5z" />
    <glyph glyph-name="uniFEDCFB51" unicode="&#xfedc;&#xfb51;" horiz-adv-x="1531" 
d="M1047 203v86q0 117 -34.5 202.5t-96.5 134.5t-140 72t-174 23q-168 0 -256 -47v-471h701zM1563 0h-1448v1499q0 56 31.5 84.5t89.5 28.5q52 0 110 -25v-688l512 510q114 114 174 158t127 45q86 0 150 -80l-664 -627h27q283 0 448.5 -153.5t165.5 -438.5v-110h277v-203z
M-59 1853h79q17 112 88 177t177 65q39 0 73.5 -9.5t65 -30.5t48 -59.5t17.5 -90.5v-148h-548v96zM274 1995q-64 0 -107.5 -43t-45.5 -99h262v41q0 44 -27.5 72.5t-81.5 28.5z" />
    <glyph glyph-name="uniFEDBFEDE" unicode="&#xfedb;&#xfede;" horiz-adv-x="2316" 
d="M1032 180v1319q0 56 31.5 84.5t89.5 28.5q53 0 111 -25v-688l512 510q114 114 174 158t127 45q85 0 149 -80l-663 -627h26q283 0 449 -153.5t166 -438.5v-313h-715q-81 0 -136.5 18.5t-95.5 61.5q-26 -267 -168.5 -414t-404.5 -147q-278 0 -432 163t-154 445q0 86 8 148
t22 99t36 58.5t45 29t55 7.5q58 0 117 -37q-45 -198 -45 -297q0 -194 89 -299.5t259 -105.5q166 0 257 111.5t91 338.5zM1470 203h494v86q0 117 -34 202.5t-96.5 134.5t-140 72t-173.5 23q-168 0 -256 -47v-193q0 -71 7 -116.5t28 -85t63 -58t108 -18.5z" />
    <glyph glyph-name="uniFEDCFEDE" unicode="&#xfedc;&#xfede;" horiz-adv-x="2449" 
d="M1470 203h494v86q0 117 -34 202.5t-96.5 134.5t-140 72t-173.5 23q-168 0 -256 -47v-193q0 -71 7 -116.5t28 -85t63 -58t108 -18.5zM2480 0h-991q-81 0 -136.5 18.5t-95.5 61.5q-26 -267 -168.5 -414t-404.5 -147q-278 0 -432 163t-154 445q0 86 8 148t22 99t36 58.5
t45 29t55 7.5q58 0 117 -37q-45 -198 -45 -297q0 -194 89 -299.5t259 -105.5q166 0 257 111.5t91 338.5v1319q0 56 31.5 84.5t89.5 28.5q53 0 111 -25v-688l512 510q114 114 174 158t127 45q85 0 149 -80l-663 -627h26q283 0 449 -153.5t166 -438.5v-110h276v-203z" />
    <glyph glyph-name="uniFEDBFEE0" unicode="&#xfedb;&#xfee0;" horiz-adv-x="1593" 
d="M541 674v-193q0 -70 7.5 -116t28.5 -85.5t63 -58t108 -18.5h493v86q0 117 -34 202.5t-96.5 134.5t-140 72t-173.5 23q-168 0 -256 -47zM541 1587v-688l512 510q114 114 174 158t127 45q85 0 149 -80l-663 -627h26q283 0 449 -153.5t166 -438.5v-313h-723
q-129 0 -209.5 30t-122.5 109q-46 -84 -125.5 -111.5t-208.5 -27.5h-123v203h133q66 0 108 18.5t63 58t28.5 85.5t7.5 116v1018q0 56 31.5 84.5t89.5 28.5q53 0 111 -25z" />
    <glyph glyph-name="uniFEDCFEE0" unicode="&#xfedc;&#xfee0;" horiz-adv-x="1726" 
d="M748 203h493v86q0 117 -34 202.5t-96.5 134.5t-140 72t-173.5 23q-168 0 -256 -47v-193q0 -70 7.5 -116t28.5 -85.5t63 -58t108 -18.5zM309 481v1018q0 56 31.5 84.5t89.5 28.5q53 0 111 -25v-688l512 510q114 114 174 158t127 45q85 0 149 -80l-663 -627h26
q283 0 449 -153.5t166 -438.5v-110h276v-203h-999q-129 0 -209.5 30t-122.5 109q-46 -84 -125.5 -111.5t-208.5 -27.5h-123v203h133q66 0 108 18.5t63 58t28.5 85.5t7.5 116z" />
    <glyph glyph-name="uni06C2.fina" unicode="&#x6c2;" horiz-adv-x="940" 
d="M258 600q185 0 332 -160q102 -119 172 -237h209v-203h-353q-116 221 -194 299q-49 49 -92.5 71.5t-95.5 22.5t-95 -22q-23 16 -43 47t-20 69q0 55 51 84t129 29zM268 717v102h109q-43 34 -43 101q0 75 53 117t129 42q56 0 96.5 -16.5t40.5 -50.5q0 -31 -30 -58
q-47 27 -91 27q-38 0 -60.5 -19t-22.5 -51q0 -47 32 -69.5t80 -22.5h107v-102h-400z" />
    <glyph glyph-name="uni06C3.fina" unicode="&#x6c3;" horiz-adv-x="940" 
d="M258 600q185 0 332 -160q102 -119 172 -237h209v-203h-353q-116 221 -194 299q-49 49 -92.5 71.5t-95.5 22.5t-95 -22q-23 16 -43 47t-20 69q0 55 51 84t129 29zM487 838q0 54 35.5 90.5t89.5 36.5t91.5 -36.5t37.5 -90.5t-37.5 -90.5t-91.5 -36.5t-89.5 36.5t-35.5 90.5
zM129 838q0 54 35.5 90.5t89.5 36.5t90.5 -36.5t36.5 -90.5t-36.5 -90.5t-90.5 -36.5t-89.5 36.5t-35.5 90.5z" />
    <glyph glyph-name="uni06D5.fina" unicode="&#x6d5;" horiz-adv-x="1296" 
d="M719 913h315v-481q0 -122 45 -175.5t170 -53.5h78v-203h-110q-99 0 -175 37t-118 108q-132 -145 -367 -145q-112 0 -203.5 36t-148 95.5t-87 133.5t-30.5 153q0 78 18 146.5t63 134t115 111.5t181 74.5t254 28.5zM322 422q0 -104 68.5 -161.5t162.5 -57.5q250 0 250 270
v238h-88q-393 0 -393 -289z" />
    <glyph glyph-name="uniFB50" unicode="&#x671;" horiz-adv-x="501" arabic-form="isolated" 
d="M135 0v1499q0 56 31.5 84.5t89.5 28.5q53 0 111 -25v-1587h-232zM-39 1853h80q17 113 87.5 177.5t176.5 64.5q39 0 73.5 -9.5t65 -30.5t48.5 -59.5t18 -90.5v-148h-549v96zM295 1995q-64 0 -108 -43t-46 -99h262v41q0 44 -27 72.5t-81 28.5z" />
    <glyph glyph-name="uniFB51" unicode="&#x671;" horiz-adv-x="647" arabic-form="final" 
d="M135 0v1499q0 56 31.5 84.5t89.5 28.5q53 0 111 -25v-1384h311v-203h-543zM-39 1853h80q17 113 87.5 177.5t176.5 64.5q39 0 73.5 -9.5t65 -30.5t48.5 -59.5t18 -90.5v-148h-549v96zM295 1995q-64 0 -108 -43t-46 -99h262v41q0 44 -27 72.5t-81 28.5z" />
    <glyph glyph-name="uniFB56" unicode="&#x67e;" horiz-adv-x="1773" arabic-form="isolated" 
d="M354 705q-22 -99 -22 -175q0 -156 110 -241.5t324 -85.5h659v598q0 112 121 112q55 0 111 -24v-889h-946q-279 0 -446 144.5t-167 369.5q0 103 31.5 160t108.5 57q53 0 116 -26zM1014 -270q0 54 35.5 90.5t89.5 36.5t90.5 -36.5t36.5 -90.5t-36.5 -90.5t-90.5 -36.5
t-89.5 36.5t-35.5 90.5zM655 -270q0 54 35.5 90.5t89.5 36.5t90.5 -36.5t36.5 -90.5t-36.5 -90.5t-90.5 -36.5t-89.5 36.5t-35.5 90.5zM838 -565q0 54 36.5 90.5t90.5 36.5t90.5 -36.5t36.5 -90.5t-36.5 -89.5t-90.5 -35.5t-90.5 35.5t-36.5 89.5z" />
    <glyph glyph-name="uniFB57" unicode="&#x67e;" horiz-adv-x="1935" arabic-form="final" 
d="M354 705q-22 -99 -22 -175q0 -156 110 -241.5t324 -85.5h659v598q0 112 121 112q55 0 111 -24v-686h309v-203h-1255q-279 0 -446 144.5t-167 369.5q0 103 31.5 160t108.5 57q53 0 116 -26zM1014 -270q0 54 35.5 90.5t89.5 36.5t90.5 -36.5t36.5 -90.5t-36.5 -90.5
t-90.5 -36.5t-89.5 36.5t-35.5 90.5zM655 -270q0 54 35.5 90.5t89.5 36.5t90.5 -36.5t36.5 -90.5t-36.5 -90.5t-90.5 -36.5t-89.5 36.5t-35.5 90.5zM838 -565q0 54 36.5 90.5t90.5 36.5t90.5 -36.5t36.5 -90.5t-36.5 -89.5t-90.5 -35.5t-90.5 35.5t-36.5 89.5z" />
    <glyph glyph-name="uniFB58" unicode="&#x67e;" horiz-adv-x="626" arabic-form="initial" 
d="M279 203v602q0 108 120 108q60 0 111 -22v-891h-541v203h310zM358 -270q0 54 35.5 90.5t89.5 36.5t90.5 -36.5t36.5 -90.5t-36.5 -90.5t-90.5 -36.5t-89.5 36.5t-35.5 90.5zM0 -270q0 54 35.5 90.5t89.5 36.5t90.5 -36.5t36.5 -90.5t-36.5 -90.5t-90.5 -36.5t-89.5 36.5
t-35.5 90.5zM182 -565q0 54 36.5 90.5t90.5 36.5t90.5 -36.5t36.5 -90.5t-36.5 -89.5t-90.5 -35.5t-90.5 35.5t-36.5 89.5z" />
    <glyph glyph-name="uniFB59" unicode="&#x67e;" horiz-adv-x="849" arabic-form="medial" 
d="M428 139q-18 -33 -42 -57t-55.5 -39t-59.5 -24t-70.5 -13t-72.5 -5t-79 -1h-80v203h103q77 0 124.5 15.5t72 52t32.5 82.5t8 122v330q0 108 121 108q60 0 111 -22v-416q0 -60 4 -98t18 -74.5t39.5 -56.5t69 -31.5t106.5 -11.5h105v-203h-203q-178 0 -252 139zM481 -270
q0 54 35.5 90.5t89.5 36.5t90.5 -36.5t36.5 -90.5t-36.5 -90.5t-90.5 -36.5t-89.5 36.5t-35.5 90.5zM123 -270q0 54 35.5 90.5t89.5 36.5t90.5 -36.5t36.5 -90.5t-36.5 -90.5t-90.5 -36.5t-89.5 36.5t-35.5 90.5zM305 -565q0 54 36.5 90.5t90.5 36.5t90.5 -36.5t36.5 -90.5
t-36.5 -89.5t-90.5 -35.5t-90.5 35.5t-36.5 89.5z" />
    <glyph glyph-name="uniFB66" unicode="&#x679;" horiz-adv-x="1773" arabic-form="isolated" 
d="M354 705q-22 -99 -22 -175q0 -156 110 -241.5t324 -85.5h659v598q0 112 121 112q55 0 111 -24v-889h-946q-279 0 -446 144.5t-167 369.5q0 103 31.5 160t108.5 57q53 0 116 -26zM788 903h261v31q0 110 -111 110q-64 0 -104.5 -39.5t-45.5 -101.5zM791 1249v-178
q52 72 159 72q85 0 145 -47.5t60 -153.5v-135h-549v96h76v311q0 24 15 38t40 14q24 0 54 -17z" />
    <glyph glyph-name="uniFB67" unicode="&#x679;" horiz-adv-x="1935" arabic-form="final" 
d="M354 705q-22 -99 -22 -175q0 -156 110 -241.5t324 -85.5h659v598q0 112 121 112q55 0 111 -24v-686h309v-203h-1255q-279 0 -446 144.5t-167 369.5q0 103 31.5 160t108.5 57q53 0 116 -26zM788 903h261v31q0 110 -111 110q-64 0 -104.5 -39.5t-45.5 -101.5zM791 1249
v-178q52 72 159 72q85 0 145 -47.5t60 -153.5v-135h-549v96h76v311q0 24 15 38t40 14q24 0 54 -17z" />
    <glyph glyph-name="uniFB68" unicode="&#x679;" horiz-adv-x="684" arabic-form="initial" 
d="M279 203v602q0 108 120 108q60 0 111 -22v-891h-541v203h310zM256 1159h260v31q0 110 -110 110q-64 0 -104.5 -39.5t-45.5 -101.5zM258 1505v-178q52 72 160 72q85 0 145 -47.5t60 -153.5v-135h-549v96h76v311q0 24 15 38t40 14q23 0 53 -17z" />
    <glyph glyph-name="uniFB69" unicode="&#x679;" horiz-adv-x="849" arabic-form="medial" 
d="M428 139q-18 -33 -42 -57t-55.5 -39t-59.5 -24t-70.5 -13t-72.5 -5t-79 -1h-80v203h103q77 0 124.5 15.5t72 52t32.5 82.5t8 122v330q0 108 121 108q60 0 111 -22v-416q0 -60 4 -98t18 -74.5t39.5 -56.5t69 -31.5t106.5 -11.5h105v-203h-203q-178 0 -252 139zM332 1159
h260v31q0 110 -111 110q-64 0 -104 -39.5t-45 -101.5zM334 1505v-178q52 72 160 72q85 0 144.5 -47.5t59.5 -153.5v-135h-548v96h75v311q0 24 15.5 38t40.5 14q23 0 53 -17z" />
    <glyph glyph-name="uniFB6A" unicode="&#x6a4;" horiz-adv-x="2123" arabic-form="isolated" 
d="M2011 0h-1302q-280 0 -445.5 143t-165.5 369q0 110 33 163.5t127 53.5q46 0 94 -29q-20 -79 -20 -172q0 -156 109 -240.5t323 -84.5h381q-46 38 -74.5 115t-28.5 149q0 198 141 327.5t345 129.5q216 0 349.5 -133t133.5 -349v-442zM1780 203v209q0 139 -61 226t-189 87
q-115 0 -184.5 -74.5t-69.5 -185.5q0 -110 73 -186t179 -76h252zM1579 1167q0 54 36.5 89.5t90.5 35.5t90.5 -35.5t36.5 -89.5t-36.5 -90.5t-90.5 -36.5t-90.5 36.5t-36.5 90.5zM1221 1167q0 54 36.5 89.5t90.5 35.5t90.5 -35.5t36.5 -89.5t-36.5 -90.5t-90.5 -36.5
t-90.5 36.5t-36.5 90.5zM1405 1462q0 54 35.5 89.5t89.5 35.5t90.5 -35.5t36.5 -89.5t-36.5 -90.5t-90.5 -36.5t-89.5 36.5t-35.5 90.5z" />
    <glyph glyph-name="uniFB6B" unicode="&#x6a4;" horiz-adv-x="2258" arabic-form="final" 
d="M2290 0h-1581q-280 0 -445.5 143t-165.5 369q0 110 33 163.5t127 53.5q46 0 94 -29q-20 -79 -20 -172q0 -156 109 -240.5t323 -84.5h381q-46 38 -74.5 115t-28.5 149q0 198 141 327.5t345 129.5q216 0 349.5 -133t133.5 -349v-239h279v-203zM1780 203v209q0 139 -61 226
t-189 87q-115 0 -184.5 -74.5t-69.5 -185.5q0 -110 73 -186t179 -76h252zM1579 1167q0 54 36.5 89.5t90.5 35.5t90.5 -35.5t36.5 -89.5t-36.5 -90.5t-90.5 -36.5t-90.5 36.5t-36.5 90.5zM1221 1167q0 54 36.5 89.5t90.5 35.5t90.5 -35.5t36.5 -89.5t-36.5 -90.5t-90.5 -36.5
t-90.5 36.5t-36.5 90.5zM1405 1462q0 54 35.5 89.5t89.5 35.5t90.5 -35.5t36.5 -89.5t-36.5 -90.5t-90.5 -36.5t-89.5 36.5t-35.5 90.5z" />
    <glyph glyph-name="uniFB6C" unicode="&#x6a4;" horiz-adv-x="1304" arabic-form="initial" 
d="M1192 0h-1223v203h357q-46 38 -74.5 115t-28.5 149q0 198 140 327.5t344 129.5q219 0 352 -132.5t133 -349.5v-442zM961 203v209q0 141 -61 227t-189 86q-115 0 -184.5 -74.5t-69.5 -185.5q0 -110 73 -186t177 -76h254zM766 1167q0 54 36.5 89.5t90.5 35.5t90.5 -35.5
t36.5 -89.5t-36.5 -90.5t-90.5 -36.5t-90.5 36.5t-36.5 90.5zM408 1167q0 54 36.5 89.5t90.5 35.5t90.5 -35.5t36.5 -89.5t-36.5 -90.5t-90.5 -36.5t-90.5 36.5t-36.5 90.5zM592 1462q0 54 35.5 89.5t89.5 35.5t90.5 -35.5t36.5 -89.5t-36.5 -90.5t-90.5 -36.5t-89.5 36.5
t-35.5 90.5z" />
    <glyph glyph-name="uniFB6D" unicode="&#x6a4;" horiz-adv-x="1423" arabic-form="medial" 
d="M-31 0v203h355q-46 46 -73.5 119.5t-27.5 144.5q0 126 61.5 230.5t174 165.5t252.5 61q214 0 351.5 -132t137.5 -325q0 -71 -27 -144.5t-73 -119.5h356v-203h-1487zM969 465q0 111 -73 185.5t-185 74.5q-110 0 -183 -74.5t-73 -185.5q0 -113 73 -189.5t183 -76.5
q112 0 185 76.5t73 189.5zM760 1167q0 54 36.5 89.5t90.5 35.5t90.5 -35.5t36.5 -89.5t-36.5 -90.5t-90.5 -36.5t-90.5 36.5t-36.5 90.5zM401 1167q0 54 36.5 89.5t90.5 35.5t90.5 -35.5t36.5 -89.5t-36.5 -90.5t-90.5 -36.5t-90.5 36.5t-36.5 90.5zM586 1462
q0 54 35.5 89.5t89.5 35.5t90.5 -35.5t36.5 -89.5t-36.5 -90.5t-90.5 -36.5t-89.5 36.5t-35.5 90.5z" />
    <glyph glyph-name="uniFB7A" unicode="&#x686;" horiz-adv-x="1323" arabic-form="isolated" 
d="M821 354q-89 119 -156 191.5t-143 119t-149 46.5q-59 0 -117 -23q-51 51 -51 115q0 59 53.5 90t147.5 31q75 0 152.5 -30t140 -72t132.5 -115.5t117 -131t108.5 -149.5t91 -140.5t79.5 -133.5q-29 -36 -76 -61t-86 -25q-32 0 -50.5 12.5t-41.5 42.5l-41 51
q-666 -9 -666 -465q0 -151 99.5 -252.5t281.5 -101.5q102 0 199 25.5t155 58.5l91 -178q-82 -43 -203 -78t-256 -35q-272 0 -440 149.5t-168 399.5q0 309 207 473.5t589 185.5zM768 -170q0 41 28.5 70.5t69.5 29.5q42 0 71.5 -29t29.5 -71q0 -41 -29 -69.5t-72 -28.5
q-41 0 -69.5 28.5t-28.5 69.5zM621 -410q0 42 28.5 71.5t69.5 29.5t70.5 -30t29.5 -71t-29.5 -69.5t-70.5 -28.5t-69.5 28.5t-28.5 69.5zM467 -170q0 41 28.5 70.5t69.5 29.5t71 -29.5t30 -70.5t-29.5 -69.5t-71.5 -28.5q-41 0 -69.5 28.5t-28.5 69.5z" />
    <glyph glyph-name="uniFB7B" unicode="&#x686;" horiz-adv-x="1413" arabic-form="final" 
d="M1004 74l-72 98q-666 -9 -666 -465q0 -151 99.5 -252.5t281.5 -101.5q102 0 199 25.5t155 58.5l91 -178q-82 -43 -203 -78t-256 -35q-272 0 -440 149.5t-168 399.5q0 309 207 473.5t589 185.5q-89 119 -156 191.5t-143 119t-149 46.5q-59 0 -117 -23q-51 51 -51 115
q0 59 53.5 90t147.5 31q54 0 108.5 -15t101 -37t97 -61.5t89.5 -75t86 -91t78.5 -95.5t75 -103t67.5 -99.5t64 -98.5q6 -10 10 -15.5t9.5 -14t9.5 -15.5h242v-203h-277q-58 0 -93 14.5t-70 59.5zM768 -170q0 41 28.5 70.5t69.5 29.5q42 0 71.5 -29t29.5 -71q0 -41 -29 -69.5
t-72 -28.5q-41 0 -69.5 28.5t-28.5 69.5zM621 -410q0 42 28.5 71.5t69.5 29.5t70.5 -30t29.5 -71t-29.5 -69.5t-70.5 -28.5t-69.5 28.5t-28.5 69.5zM467 -170q0 41 28.5 70.5t69.5 29.5t71 -29.5t30 -70.5t-29.5 -69.5t-71.5 -28.5q-41 0 -69.5 28.5t-28.5 69.5z" />
    <glyph glyph-name="uniFB7C" unicode="&#x686;" horiz-adv-x="1163" arabic-form="initial" 
d="M279 924q75 0 139 -18t122.5 -57.5t98.5 -75t100 -97.5q84 -91 181 -235t149 -240v-201h-1100v203h832q-116 188 -238 329q-86 97 -163 140t-158 43q-53 0 -117 -23q-49 49 -49 115q0 58 54 87.5t149 29.5zM584 -270q0 54 35.5 90.5t89.5 36.5t90.5 -36.5t36.5 -90.5
t-36.5 -90.5t-90.5 -36.5t-89.5 36.5t-35.5 90.5zM225 -270q0 54 35.5 90.5t89.5 36.5t90.5 -36.5t36.5 -90.5t-36.5 -90.5t-90.5 -36.5t-89.5 36.5t-35.5 90.5zM408 -565q0 54 36.5 90.5t90.5 36.5t90.5 -36.5t36.5 -90.5t-36.5 -89.5t-90.5 -35.5t-90.5 35.5t-36.5 89.5z
" />
    <glyph glyph-name="uniFB7D" unicode="&#x686;" horiz-adv-x="1253" arabic-form="medial" 
d="M279 924q75 0 139 -18t122.5 -57.5t98.5 -75t100 -97.5q85 -92 181.5 -235t146.5 -238h217v-203h-1315v203h832q-116 188 -238 329q-86 97 -163 140t-158 43q-53 0 -117 -23q-49 49 -49 115q0 58 54 87.5t149 29.5zM584 -270q0 54 35.5 90.5t89.5 36.5t90.5 -36.5
t36.5 -90.5t-36.5 -90.5t-90.5 -36.5t-89.5 36.5t-35.5 90.5zM225 -270q0 54 35.5 90.5t89.5 36.5t90.5 -36.5t36.5 -90.5t-36.5 -90.5t-90.5 -36.5t-89.5 36.5t-35.5 90.5zM408 -565q0 54 36.5 90.5t90.5 36.5t90.5 -36.5t36.5 -90.5t-36.5 -89.5t-90.5 -35.5t-90.5 35.5
t-36.5 89.5z" />
    <glyph glyph-name="uniFB88" unicode="&#x688;" horiz-adv-x="1318" arabic-form="isolated" 
d="M86 203h881v76q0 94 -25 169.5t-67 124.5t-101 81.5t-124 46.5t-138 14q-146 0 -252 -49q-21 14 -39 46.5t-18 69.5q0 41 32 70.5t85 44t106 21t111 6.5q113 0 213.5 -25t184 -76.5t144 -125t94 -176t33.5 -224.5v-297h-1120v203zM530 1157h261v31q0 110 -111 110
q-64 0 -104.5 -39.5t-45.5 -101.5zM532 1503v-178q52 72 160 72q85 0 145 -47.5t60 -153.5v-135h-549v96h76v311q0 24 15 38t40 14q23 0 53 -17z" />
    <glyph glyph-name="uniFB89" unicode="&#x688;" horiz-adv-x="1454" arabic-form="final" 
d="M86 203h881v76q0 94 -25 169.5t-67 124.5t-101 81.5t-124 46.5t-138 14q-146 0 -252 -49q-21 14 -39 46.5t-18 69.5q0 41 32 70.5t85 44t106 21t111 6.5q113 0 213.5 -25t184 -76.5t144 -125t94 -176t33.5 -224.5v-94h279v-203h-1399v203zM530 1157h261v31
q0 110 -111 110q-64 0 -104.5 -39.5t-45.5 -101.5zM532 1503v-178q52 72 160 72q85 0 145 -47.5t60 -153.5v-135h-549v96h76v311q0 24 15 38t40 14q23 0 53 -17z" />
    <glyph glyph-name="uniFB8A" unicode="&#x698;" horiz-adv-x="886" arabic-form="isolated" 
d="M406 -106v909q0 110 126 110q54 0 105 -22v-975q0 -90 -21.5 -160.5t-57 -114.5t-86 -72.5t-104.5 -40t-116 -11.5q-73 0 -139.5 17t-102.5 34l60 176q64 -31 157 -31q179 0 179 181zM573 1167q0 54 36.5 89.5t90.5 35.5t90.5 -35.5t36.5 -89.5t-36.5 -90.5t-90.5 -36.5
t-90.5 36.5t-36.5 90.5zM215 1167q0 54 36.5 89.5t90.5 35.5t90.5 -35.5t36.5 -89.5t-36.5 -90.5t-90.5 -36.5t-90.5 36.5t-36.5 90.5zM399 1462q0 54 35.5 89.5t89.5 35.5t90.5 -35.5t36.5 -89.5t-36.5 -90.5t-90.5 -36.5t-89.5 36.5t-35.5 90.5z" />
    <glyph glyph-name="uniFB8B" unicode="&#x698;" horiz-adv-x="917" arabic-form="final" 
d="M406 -106v909q0 110 126 110q54 0 105 -22v-688h311v-203h-311v-84q0 -90 -21.5 -160.5t-57 -114.5t-86 -72.5t-104.5 -40t-116 -11.5q-73 0 -139.5 17t-102.5 34l60 176q64 -31 157 -31q179 0 179 181zM573 1167q0 54 36.5 89.5t90.5 35.5t90.5 -35.5t36.5 -89.5
t-36.5 -90.5t-90.5 -36.5t-90.5 36.5t-36.5 90.5zM215 1167q0 54 36.5 89.5t90.5 35.5t90.5 -35.5t36.5 -89.5t-36.5 -90.5t-90.5 -36.5t-90.5 36.5t-36.5 90.5zM399 1462q0 54 35.5 89.5t89.5 35.5t90.5 -35.5t36.5 -89.5t-36.5 -90.5t-90.5 -36.5t-89.5 36.5t-35.5 90.5z
" />
    <glyph glyph-name="uniFB8C" unicode="&#x691;" horiz-adv-x="811" arabic-form="isolated" 
d="M406 -106v909q0 110 126 110q54 0 105 -22v-975q0 -90 -21.5 -160.5t-57 -114.5t-86 -72.5t-104.5 -40t-116 -11.5q-73 0 -139.5 17t-102.5 34l60 176q64 -31 157 -31q179 0 179 181zM381 1157h260v31q0 110 -111 110q-64 0 -104 -39.5t-45 -101.5zM383 1503v-178
q52 72 160 72q85 0 145 -47.5t60 -153.5v-135h-549v96h75v311q0 24 15.5 38t40.5 14q23 0 53 -17z" />
    <glyph glyph-name="uniFB8D" unicode="&#x691;" horiz-adv-x="917" arabic-form="final" 
d="M406 -106v909q0 110 126 110q54 0 105 -22v-688h311v-203h-311v-84q0 -90 -21.5 -160.5t-57 -114.5t-86 -72.5t-104.5 -40t-116 -11.5q-73 0 -139.5 17t-102.5 34l60 176q64 -31 157 -31q179 0 179 181zM381 1157h260v31q0 110 -111 110q-64 0 -104 -39.5t-45 -101.5z
M383 1503v-178q52 72 160 72q85 0 145 -47.5t60 -153.5v-135h-549v96h75v311q0 24 15.5 38t40.5 14q23 0 53 -17z" />
    <glyph glyph-name="uniFB8E" unicode="&#x6a9;" horiz-adv-x="1931" arabic-form="isolated" 
d="M1579 203v86q0 94 -25 168t-67 121.5t-100 79t-120 44.5t-132 13q-90 0 -161 -16.5t-106 -36.5q-57 45 -57 110q0 39 22 71.5t78 88.5l480 477q114 114 174 158t127 45q85 0 149 -80l-663 -627h53q126 0 233 -38.5t186 -111.5t124 -186.5t45 -255.5v-313h-1108
q-279 0 -446 144.5t-167 369.5q0 103 31.5 160t108.5 57q53 0 116 -26q-22 -99 -22 -175q0 -156 110 -241.5t324 -85.5h813z" />
    <glyph glyph-name="uniFB8F" unicode="&#x6a9;" horiz-adv-x="2064" arabic-form="final" 
d="M2095 0h-1384q-279 0 -446 144.5t-167 369.5q0 103 31.5 160t108.5 57q53 0 116 -26q-22 -99 -22 -175q0 -156 110 -241.5t324 -85.5h813v86q0 94 -25 168t-67 121.5t-100 79t-120 44.5t-132 13q-90 0 -161 -16.5t-106 -36.5q-57 45 -57 110q0 39 22 71.5t78 88.5
l480 477q114 114 174 158t127 45q85 0 149 -80l-663 -627h53q126 0 233 -38.5t186 -111.5t124 -186.5t45 -255.5v-110h276v-203z" />
    <glyph glyph-name="uniFB90" unicode="&#x6a9;" horiz-adv-x="1210" arabic-form="initial" 
d="M858 203v86q0 94 -25 168t-67 121.5t-100 79t-120 44.5t-132 13q-90 0 -161 -16.5t-106 -36.5q-57 45 -57 110q0 39 22 71.5t78 88.5l480 477q114 114 174 158t127 45q85 0 149 -80l-663 -627h53q126 0 233 -38.5t186 -111.5t124 -186.5t45 -255.5v-313h-1129v203h889z
" />
    <glyph glyph-name="uniFB91" unicode="&#x6a9;" horiz-adv-x="1343" arabic-form="medial" 
d="M858 203v86q0 94 -25 168t-67 121.5t-100 79t-120 44.5t-132 13q-90 0 -161 -16.5t-106 -36.5q-57 45 -57 110q0 39 22 71.5t78 88.5l480 477q114 114 174 158t127 45q85 0 149 -80l-663 -627h53q126 0 233 -38.5t186 -111.5t124 -186.5t45 -255.5v-110h276v-203h-1405
v203h889z" />
    <glyph glyph-name="uniFB92" unicode="&#x6af;" horiz-adv-x="1931" arabic-form="isolated" 
d="M1579 203v86q0 94 -25 168t-67 121.5t-100 79t-120 44.5t-132 13q-90 0 -161 -16.5t-106 -36.5q-57 45 -57 110q0 39 22 71.5t78 88.5l480 477q114 114 174 158t127 45q85 0 149 -80l-663 -627h53q126 0 233 -38.5t186 -111.5t124 -186.5t45 -255.5v-313h-1108
q-279 0 -446 144.5t-167 369.5q0 103 31.5 160t108.5 57q53 0 116 -26q-22 -99 -22 -175q0 -156 110 -241.5t324 -85.5h813zM1526 1737l-817 -809q-76 49 -76 121q0 57 84 141l516 512q98 98 168 98q74 0 125 -63z" />
    <glyph glyph-name="uniFB93" unicode="&#x6af;" horiz-adv-x="2064" arabic-form="final" 
d="M2095 0h-1384q-279 0 -446 144.5t-167 369.5q0 103 31.5 160t108.5 57q53 0 116 -26q-22 -99 -22 -175q0 -156 110 -241.5t324 -85.5h813v86q0 94 -25 168t-67 121.5t-100 79t-120 44.5t-132 13q-90 0 -161 -16.5t-106 -36.5q-57 45 -57 110q0 39 22 71.5t78 88.5
l480 477q114 114 174 158t127 45q85 0 149 -80l-663 -627h53q126 0 233 -38.5t186 -111.5t124 -186.5t45 -255.5v-110h276v-203zM1526 1737l-817 -809q-76 49 -76 121q0 57 84 141l516 512q98 98 168 98q74 0 125 -63z" />
    <glyph glyph-name="uniFB94" unicode="&#x6af;" horiz-adv-x="1427" arabic-form="initial" 
d="M1075 203v86q0 94 -25 168t-67 121.5t-100 79t-120 44.5t-132 13q-90 0 -160.5 -16t-105.5 -37q-58 45 -58 110q0 38 22 70.5t79 89.5l479 477q114 114 174 158t127 45q85 0 149 -80l-663 -627h53q126 0 233 -38.5t186 -111.5t124 -186.5t45 -255.5v-313h-1346v203h1106z
M1024 1737l-817 -809q-76 49 -76 121q0 57 84 141l516 512q98 98 168 98q74 0 125 -63z" />
    <glyph glyph-name="uniFB95" unicode="&#x6af;" horiz-adv-x="1560" arabic-form="medial" 
d="M1591 0h-1622v203h1106v86q0 94 -25 168t-67 121.5t-100 79t-120 44.5t-132 13q-90 0 -160.5 -16t-105.5 -37q-58 45 -58 110q0 38 22 70.5t79 89.5l479 477q114 114 174 158t127 45q85 0 149 -80l-663 -627h53q126 0 233 -38.5t186 -111.5t124 -186.5t45 -255.5v-110
h276v-203zM1024 1737l-817 -809q-76 49 -76 121q0 57 84 141l516 512q98 98 168 98q74 0 125 -63z" />
    <glyph glyph-name="uniFB9E" unicode="&#x6ba;" horiz-adv-x="1380" arabic-form="isolated" 
d="M1264 774v-541q0 -57 -4 -155q-18 -258 -170.5 -408.5t-417.5 -150.5q-273 0 -423.5 163.5t-150.5 444.5q0 187 40 264.5t126 77.5q56 0 115 -37q-47 -175 -47 -297q0 -193 89.5 -299t254.5 -106q184 0 269 131t85 413v412q0 113 123 113q67 0 111 -25z" />
    <glyph glyph-name="uniFB9F" unicode="&#x6ba;" horiz-adv-x="1570" arabic-form="final" 
d="M1030 195v606q0 59 30.5 85.5t92.5 26.5q69 0 111 -24v-414q0 -71 7.5 -116.5t28.5 -83t62 -55t106 -17.5h134v-203h-115q-81 0 -136.5 18.5t-95.5 61.5q-21 -258 -173.5 -409.5t-407.5 -151.5q-273 0 -424.5 163.5t-151.5 444.5q0 132 20.5 209t55.5 105t90 28
q56 0 115 -37q-47 -175 -47 -297q0 -192 88.5 -298.5t259.5 -106.5q163 0 256.5 114t93.5 351z" />
    <glyph glyph-name="uniFBA4" unicode="&#x6c0;" horiz-adv-x="1150" arabic-form="isolated" 
d="M322 422q0 -104 68.5 -161.5t162.5 -57.5q250 0 250 270v238h-111q-106 0 -181.5 -24t-115 -66.5t-56.5 -90.5t-17 -108zM719 913h315v-477q0 -193 -130 -314.5t-347 -121.5q-113 0 -204 34.5t-148 93.5t-87 134.5t-30 159.5q0 77 18 145t63 133t115 111t181 74t254 28z
M446 1063v102h109q-43 34 -43 101q0 75 53 117t129 42q56 0 96.5 -16.5t40.5 -50.5q0 -31 -30 -58q-47 27 -90 27q-38 0 -61 -19t-23 -51q0 -47 32 -69.5t80 -22.5h107v-102h-400z" />
    <glyph glyph-name="uniFBA5" unicode="&#x6c0;" horiz-adv-x="1296" arabic-form="final" 
d="M719 913h315v-481q0 -122 45 -175.5t170 -53.5h78v-203h-110q-99 0 -175 37t-118 108q-132 -145 -367 -145q-112 0 -203.5 36t-148 95.5t-87 133.5t-30.5 153q0 78 18 146.5t63 134t115 111.5t181 74.5t254 28.5zM322 422q0 -104 68.5 -161.5t162.5 -57.5q250 0 250 270
v238h-88q-393 0 -393 -289zM446 1063v102h109q-43 34 -43 101q0 75 53 117t129 42q56 0 96.5 -16.5t40.5 -50.5q0 -31 -30 -58q-47 27 -90 27q-38 0 -61 -19t-23 -51q0 -47 32 -69.5t80 -22.5h107v-102h-400z" />
    <glyph glyph-name="uniFBA6" unicode="&#x6c1;" horiz-adv-x="1150" arabic-form="isolated" 
d="M322 422q0 -104 68.5 -161.5t162.5 -57.5q250 0 250 270v238h-111q-106 0 -181.5 -24t-115 -66.5t-56.5 -90.5t-17 -108zM719 913h315v-477q0 -193 -130 -314.5t-347 -121.5q-113 0 -204 34.5t-148 93.5t-87 134.5t-30 159.5q0 77 18 145t63 133t115 111t181 74t254 28z
" />
    <glyph glyph-name="uniFBA7" unicode="&#x6c1;" horiz-adv-x="940" arabic-form="final" 
d="M258 600q185 0 332 -160q102 -119 172 -237h209v-203h-353q-116 221 -194 299q-49 49 -92.5 71.5t-95.5 22.5t-95 -22q-23 16 -43 47t-20 69q0 55 51 84t129 29z" />
    <glyph glyph-name="uniFBA8" unicode="&#x6c1;" horiz-adv-x="626" arabic-form="initial" 
d="M279 203v602q0 108 120 108q60 0 111 -22v-891h-541v203h310zM113 -457l125 316l114 -35l-53 -242q-7 -35 -30.5 -55.5t-55.5 -20.5q-63 0 -100 37z" />
    <glyph glyph-name="uniFBA9" unicode="&#x6c1;" horiz-adv-x="851" arabic-form="medial" 
d="M428 61q42 81 121.5 111.5t208.5 30.5h125v-203h-105q-74 0 -120.5 -13t-72 -44t-35 -73t-9.5 -108v-294q-54 -23 -111 -23q-71 0 -96 31t-25 102v115q0 61 -2.5 99t-10.5 77t-23.5 60.5t-42 39t-65 24.5t-93.5 7h-103v203h123q129 0 209.5 -29t126.5 -113zM-76 -618
l125 315l115 -35l-53 -242q-7 -35 -30.5 -55t-55.5 -20q-64 0 -101 37z" />
    <glyph glyph-name="uniFBAA" unicode="&#x6be;" horiz-adv-x="1628" arabic-form="isolated" 
d="M88 449q0 188 134 317t333 129h31q6 37 50 64.5t105 41t113.5 19.5t91.5 6q86 0 164 -15t153.5 -53.5t130.5 -96.5t88.5 -152t33.5 -213v-496h-496v-158h-232v158h-217q-78 0 -148 15.5t-132 49.5t-106.5 85.5t-70.5 128t-26 170.5zM788 203v227q0 135 -65 201.5
t-172 66.5q-104 0 -169 -71.5t-65 -177.5q0 -105 66.5 -175.5t181.5 -70.5h223zM1286 203v291q0 157 -92.5 238t-239.5 81q-81 0 -112 -8q178 -118 178 -361v-241h266z" />
    <glyph glyph-name="uniFBAB" unicode="&#x6be;" horiz-adv-x="1777" arabic-form="final" 
d="M1096 0h-525q-78 0 -148 15.5t-132 49.5t-106.5 85.5t-70.5 128t-26 170.5q0 188 134 317t333 129h31q6 37 50 64.5t105 41t113.5 19.5t91.5 6q86 0 164 -15t153.5 -53.5t130.5 -96.5t88.5 -152t33.5 -213v-47q0 -133 42.5 -189.5t157.5 -56.5h92v-203h-96
q-113 0 -183 21t-130 96q-108 -117 -303 -117zM1286 428v66q0 157 -92.5 238t-239.5 81q-81 0 -112 -8q178 -118 178 -361v-241h59q116 0 159 52.5t48 172.5zM565 203h223v227q0 135 -65 201.5t-172 66.5q-104 0 -169 -71.5t-65 -177.5q0 -105 66.5 -175.5t181.5 -70.5z" />
    <glyph glyph-name="uniFBAC" unicode="&#x6be;" horiz-adv-x="1818" arabic-form="initial" 
d="M279 449q0 188 133.5 317t332.5 129h31q6 37 50 64.5t105.5 41t113.5 19.5t92 6q86 0 164 -15t153.5 -53.5t130 -96.5t88 -152t33.5 -213v-496h-965q-202 0 -335 133q-56 -80 -137.5 -106.5t-196.5 -26.5h-103v203h103q118 0 162.5 56.5t44.5 189.5zM1477 203v291
q0 157 -92.5 238t-239.5 81q-82 0 -113 -8q178 -118 178 -361v-241h267zM979 203v227q0 135 -65.5 201.5t-172.5 66.5q-104 0 -168.5 -71.5t-64.5 -177.5q0 -102 66 -174t163 -72h242z" />
    <glyph glyph-name="uniFBAD" unicode="&#x6be;" horiz-adv-x="1968" arabic-form="medial" 
d="M979 203v227q0 135 -65.5 201.5t-172.5 66.5q-104 0 -168.5 -71.5t-64.5 -177.5q0 -102 66 -174t163 -72h242zM1286 0h-545q-202 0 -335 133q-56 -80 -137.5 -106.5t-196.5 -26.5h-103v203h103q118 0 162.5 56.5t44.5 189.5q0 188 133.5 317t332.5 129h31q6 37 50 64.5
t105.5 41t113.5 19.5t92 6q86 0 164 -15t153.5 -53.5t130 -96.5t88 -152t33.5 -213v-47q0 -132 43 -189t158 -57h92v-203h-96q-113 0 -183.5 21t-130.5 96q-108 -117 -303 -117zM1477 428v66q0 157 -92.5 238t-239.5 81q-82 0 -113 -8q178 -118 178 -361v-241h60
q116 0 159 52.5t48 172.5z" />
    <glyph glyph-name="uniFBAE" unicode="&#x6d2;" horiz-adv-x="1554" arabic-form="isolated" 
d="M1460 0h-1366v207l545 543q43 43 106 43q110 0 144 -123l-486 -467h1057v-203z" />
    <glyph glyph-name="uniFBAF" unicode="&#x6d2;" horiz-adv-x="1296" arabic-form="final" 
d="M340 -242q0 -241 328 -241h444v-203h-459q-266 0 -410.5 119.5t-144.5 324.5t145 325t410 120h674v-203h-659q-179 0 -253.5 -64.5t-74.5 -177.5z" />
    <glyph glyph-name="uniFBB0" unicode="&#x6d3;" horiz-adv-x="1554" arabic-form="isolated" 
d="M1460 0h-1366v207l545 543q43 43 106 43q110 0 144 -123l-486 -467h1057v-203zM94 807v102h109q-43 34 -43 101q0 75 53 117t129 42q56 0 96.5 -16.5t40.5 -50.5q0 -31 -30 -58q-47 27 -91 27q-38 0 -61 -19t-23 -51q0 -47 32.5 -69.5t80.5 -22.5h107v-102h-400z" />
    <glyph glyph-name="uniFBB1" unicode="&#x6d3;" horiz-adv-x="1296" arabic-form="final" 
d="M340 -242q0 -241 328 -241h444v-203h-459q-266 0 -410.5 119.5t-144.5 324.5t145 325t410 120h674v-203h-659q-179 0 -253.5 -64.5t-74.5 -177.5zM106 432v103h109q-43 34 -43 100q0 75 53 117.5t129 42.5q56 0 97 -17t41 -51q0 -29 -31 -57q-46 26 -90 26
q-38 0 -61 -18.5t-23 -50.5q0 -47 32 -69.5t80 -22.5h107v-103h-400z" />
    <glyph glyph-name="uniFBE8" unicode="&#x649;" horiz-adv-x="626" arabic-form="initial" 
d="M279 203v602q0 108 120 108q60 0 111 -22v-891h-541v203h310z" />
    <glyph glyph-name="uniFBE9" unicode="&#x649;" horiz-adv-x="851" arabic-form="medial" 
d="M428 139q-18 -33 -42 -57t-55.5 -39t-59.5 -24t-70.5 -13t-72.5 -5t-79 -1h-80v203h103q77 0 124.5 15.5t72 52t32.5 82.5t8 122v330q0 108 121 108q60 0 111 -22v-416q0 -60 4 -98t18 -74.5t39.5 -56.5t69 -31.5t106.5 -11.5h105v-203h-203q-178 0 -252 139z" />
    <glyph glyph-name="uniFBFC" unicode="&#x6cc;" horiz-adv-x="1757" arabic-form="isolated" 
d="M1018 -262v735q0 216 91.5 326t289.5 110q50 0 109.5 -15t110 -52t50.5 -86q0 -32 -17 -55.5t-53 -53.5q-60 66 -172 66q-82 0 -129 -50t-47 -155v-979h-557q-282 0 -439 160.5t-157 439.5q0 102 12.5 171t36.5 105t52.5 50t68.5 14q56 0 115 -37q-49 -180 -49 -297
q0 -190 94.5 -293.5t271.5 -103.5h318z" />
    <glyph glyph-name="uniFBFD" unicode="&#x6cc;" horiz-adv-x="2150" arabic-form="final" 
d="M1673 0v465q0 123 -53.5 186.5t-157.5 63.5t-157.5 -63.5t-53.5 -186.5v-936h-499q-654 0 -654 600q0 102 12.5 171t36.5 105t52.5 50t68.5 14q56 0 115 -37q-49 -180 -49 -297q0 -190 94.5 -293.5t271.5 -103.5h320v803q0 175 124 279t318 104q195 0 319 -103.5
t124 -279.5v-338h276v-203h-508z" />
    <glyph glyph-name="uniFBFE" unicode="&#x6cc;" horiz-adv-x="626" arabic-form="initial" 
d="M279 203v602q0 108 120 108q60 0 111 -22v-891h-541v203h310zM14 -270q0 54 36.5 90.5t90.5 36.5t90.5 -36.5t36.5 -90.5t-36.5 -90.5t-90.5 -36.5t-90.5 36.5t-36.5 90.5zM373 -270q0 54 36.5 90.5t90.5 36.5t90.5 -36.5t36.5 -90.5t-36.5 -90.5t-90.5 -36.5t-90.5 36.5
t-36.5 90.5z" />
    <glyph glyph-name="uniFBFF" unicode="&#x6cc;" horiz-adv-x="851" arabic-form="medial" 
d="M428 139q-18 -33 -42 -57t-55.5 -39t-59.5 -24t-70.5 -13t-72.5 -5t-79 -1h-80v203h103q77 0 124.5 15.5t72 52t32.5 82.5t8 122v330q0 108 121 108q60 0 111 -22v-416q0 -60 4 -98t18 -74.5t39.5 -56.5t69 -31.5t106.5 -11.5h105v-203h-203q-178 0 -252 139zM123 -270
q0 54 36.5 90.5t90.5 36.5t90.5 -36.5t36.5 -90.5t-36.5 -90.5t-90.5 -36.5t-90.5 36.5t-36.5 90.5zM481 -270q0 54 36.5 90.5t90.5 36.5t90.5 -36.5t36.5 -90.5t-36.5 -90.5t-90.5 -36.5t-90.5 36.5t-36.5 90.5z" />
    <glyph glyph-name="uniFDF2" unicode="&#xfdf2;" horiz-adv-x="3252" arabic-form="isolated" 
d="M2904 0v1499q0 56 31.5 84.5t89.5 28.5q52 0 110 -25v-1587h-231zM1741 139q-45 -76 -116 -107.5t-179 -31.5h-748q-102 0 -145 2q-122 4 -214 40.5t-145.5 98t-79.5 135.5t-26 160q0 221 162 349t465 128h319v-710h381q66 0 108 18.5t63 58t28.5 85.5t7.5 116v1018
q0 56 31.5 84.5t89.5 28.5q52 0 110 -25v-1106q0 -68 8.5 -116t31 -86t64 -57t103.5 -19h381v1296q0 113 123 113q53 0 111 -25v-1587h-559q-147 0 -238.5 27t-136.5 112zM803 203v508h-127q-177 0 -259.5 -77.5t-82.5 -195.5q0 -130 81.5 -182.5t235.5 -52.5h152z
M2019 2101v-344h-184q-61 0 -98 43q-49 -49 -123 -49q-27 0 -51.5 6t-51.5 22t-43 50.5t-16 85.5v145q0 51 61 51q10 0 20 -2t18.5 -4.5t11.5 -3.5v-190q0 -29 16.5 -45.5t42.5 -16.5q25 0 42 16.5t17 41.5v153q0 51 60 51q14 0 31 -5t20 -5v-188q0 -55 51 -55h66v202
q0 51 57 51q14 0 32.5 -5t20.5 -5zM1794 2630v-379h-113v334q0 57 64 57q33 0 49 -12z" />
    <glyph glyph-name="uniFDFA" unicode="&#xfdfa;" horiz-adv-x="2295" arabic-form="isolated" 
d="M1393 688v-51q39 59 137 59q59 0 101 -31.5t42 -103.5v-82h-440q-51 0 -68 33q-17 -33 -69 -33h-160q-80 0 -80 -65q0 -62 80 -62h457v-49h-463q-66 0 -99.5 30.5t-33.5 80.5t34 81t99 31h160q30 0 39.5 16.5t9.5 51.5v508q0 28 28 28q15 0 23 -8v-528q0 -34 10 -51
t39 -17h100v142q0 26 29 26q19 0 25 -6zM1393 526h227v29q0 44 -25.5 68t-70.5 24q-56 0 -93.5 -34t-37.5 -87zM489 -223v47q0 33 -15.5 53.5t-43.5 20.5q-26 0 -43.5 -15t-17.5 -43q0 -26 17 -44.5t42 -18.5h61zM270 174v121h-30q-82 0 -82 -66q0 -55 75 -55h37zM942 596
v444q0 29 29 29q18 0 24 -6v-467h-53zM1333 760l-14 37l317 112q34 9 31 -30zM666 1073v39q0 14 16 14q2 0 14 -4v-49q0 -16 17 -16h16v55q0 14 16 14q3 0 15 -4v-92h-55q-17 0 -25 14q-10 -16 -37 -16q-16 0 -29.5 9.5t-13.5 35.5v39q0 14 16 14q3 0 15 -4v-49
q0 -18 16 -18q19 0 19 18zM887 -8q0 11 10 21t23 10t22.5 -10t9.5 -21q0 -35 -32 -35q-33 0 -33 35zM989 -8q0 11 10 21t23 10q12 0 22.5 -10t10.5 -21q0 -16 -10 -25.5t-23 -9.5q-33 0 -33 35zM483 643v121h-30q-82 0 -82 -66q0 -55 75 -55h37zM537 643h63q30 0 38.5 16
t8.5 52v229q0 29 29 29q16 0 24 -8v-250q0 -68 50 -68h65v356q0 29 31 29l24 -8v-424h-143q-35 0 -53 33q-14 -33 -51 -33h-172q-75 0 -105.5 29t-30.5 73q0 51 38.5 83t109.5 32h74v-170zM1878 961v-719q0 -33 10.5 -50.5t38.5 -17.5h80q-27 21 -27 66q0 47 32.5 75.5
t82.5 28.5q40 0 61 -11.5t21 -29.5q0 -15 -18 -29q-25 25 -60 25q-29 0 -46 -16t-17 -45q0 -30 21.5 -47t58.5 -17h77v-47h-274q-51 0 -68 33q-14 -33 -69 -33h-68q-52 0 -69 33q-14 -33 -68 -33h-877v-283q0 -34 10.5 -50.5t39.5 -16.5h542q28 0 37.5 16t9.5 49v76
q0 27 29 27q1 0 25 -8v-80q0 -26 2.5 -41.5t12.5 -28t28 -12.5q45 0 45 59v84q0 27 28 27q7 0 25 -6v-84q0 -50 8 -63q10 -15 35 -15h43v141q0 27 29 27q6 0 24 -6v-211h-100q-45 0 -62 32q-27 -34 -75 -34q-52 0 -72 36q-19 -34 -64 -34h-557q-51 0 -69 34q-17 -31 -66 -34
h-268q-29 0 -29 -33v-76h-53v94q0 64 61 64h17q-25 25 -25 63q0 46 34.5 76.5t82.5 30.5q52 0 83.5 -29.5t31.5 -87.5v-53h55q30 0 39.5 16t9.5 51v283h-409q-75 0 -105.5 29t-30.5 73q0 51 38.5 83t109.5 32h74v-170h323v342q0 29 29 29q16 0 24 -8v-363h871
q30 0 39.5 16.5t9.5 51.5v75q0 27 29 27q6 0 24 -6v-96q0 -33 10 -50.5t37 -17.5h56q30 0 39.5 16.5t9.5 51.5v698q0 27 28 27q7 0 25 -6zM1985 385l-15 37l191 67q17 4 24 -3t6 -27zM377 385l-15 37l191 67q34 9 31 -30zM1337 1073v39q0 14 17 14q2 0 14 -4v-49
q0 -16 16 -16h17v55q0 14 16 14q3 0 15 -4v-92h-56q-16 0 -24 14q-10 -16 -37 -16q-16 0 -29.5 9.5t-13.5 35.5v39q0 14 16 14q3 0 15 -4v-49q0 -18 16 -18q18 0 18 18zM1901 -285v13h-52q-125 0 -125 104q0 50 33.5 82.5t81.5 32.5q64 0 90.5 -34t26.5 -103v-82
q0 -125 -113 -125q-47 0 -67 12l14 45q17 -10 47 -10q64 0 64 65zM1901 -223v37q0 84 -64 84q-25 0 -40 -17.5t-15 -46.5q0 -57 65 -57h54z" />
    <glyph glyph-name="uniFE80" unicode="&#x621;" horiz-adv-x="755" arabic-form="isolated" 
d="M524 162h138v-162h-568v162h137q-51 51 -51 131q0 97 74 154t184 57q83 0 141 -33.5t58 -75.5q0 -26 -20.5 -53.5t-43.5 -44.5q-45 45 -116 45q-43 0 -69 -21.5t-26 -56.5q0 -102 162 -102z" />
    <glyph glyph-name="uniFE81" unicode="&#x622;" horiz-adv-x="501" arabic-form="isolated" 
d="M135 0v1499q0 56 31.5 84.5t89.5 28.5q53 0 111 -25v-1587h-232zM100 1757h-112q0 104 41.5 152.5t107.5 48.5q40 0 129.5 -39t106.5 -39q53 0 53 78h115q0 -103 -43 -151t-109 -48q-41 0 -128.5 38t-108.5 38q-52 0 -52 -78z" />
    <glyph glyph-name="uniFE82" unicode="&#x622;" horiz-adv-x="647" arabic-form="final" 
d="M135 0v1499q0 56 31.5 84.5t89.5 28.5q53 0 111 -25v-1384h311v-203h-543zM111 1757h-113q0 104 41.5 152.5t107.5 48.5q40 0 129.5 -39t106.5 -39q53 0 53 78h115q0 -103 -43 -151t-109 -48q-41 0 -128.5 38t-108.5 38q-51 0 -51 -78z" />
    <glyph glyph-name="uniFE83" unicode="&#x623;" horiz-adv-x="501" arabic-form="isolated" 
d="M135 0v1499q0 56 31.5 84.5t89.5 28.5q53 0 111 -25v-1587h-232zM49 1757v103h109q-43 34 -43 100q0 75 53 117.5t129 42.5q56 0 96.5 -17t40.5 -51q0 -29 -31 -57q-46 26 -90 26q-38 0 -61 -18.5t-23 -50.5q0 -47 32.5 -69.5t80.5 -22.5h107v-103h-400z" />
    <glyph glyph-name="uniFE84" unicode="&#x623;" horiz-adv-x="647" arabic-form="final" 
d="M135 0v1499q0 56 31.5 84.5t89.5 28.5q53 0 111 -25v-1384h311v-203h-543zM63 1757v103h109q-43 34 -43 100q0 75 53 117.5t129 42.5q56 0 97 -17t41 -51q0 -29 -31 -57q-46 26 -90 26q-38 0 -61 -18.5t-23 -50.5q0 -47 32 -69.5t80 -22.5h107v-103h-400z" />
    <glyph glyph-name="uniFE85" unicode="&#x624;" horiz-adv-x="1175" arabic-form="isolated" 
d="M831 -31v31h-223q-238 0 -379 117.5t-141 339.5q0 198 139 332.5t346 134.5q131 0 225.5 -39t152.5 -115t85 -180.5t27 -241.5v-266q0 -303 -122 -438.5t-357 -135.5q-83 0 -158 16.5t-119 41.5q22 78 62 180q80 -45 202 -45q113 0 184.5 62.5t75.5 205.5zM831 203v151
q0 192 -62.5 280.5t-197.5 88.5q-111 0 -179 -75.5t-68 -192.5q0 -123 74 -187.5t206 -64.5h227zM391 1063v102h109q-43 34 -43 101q0 75 53 117t129 42q56 0 96.5 -16.5t40.5 -50.5q0 -30 -31 -58q-47 27 -90 27q-38 0 -61 -19t-23 -51q0 -47 32.5 -69.5t80.5 -22.5h107
v-102h-400z" />
    <glyph glyph-name="uniFE86" unicode="&#x624;" horiz-adv-x="1290" arabic-form="final" 
d="M831 -31v31h-223q-238 0 -379 117.5t-141 339.5q0 198 139 332.5t346 134.5q131 0 225.5 -39t152.5 -115t85 -180.5t27 -241.5v-145h258v-203h-262q-17 -257 -137.5 -374.5t-337.5 -117.5q-83 0 -158 16.5t-119 41.5q22 78 62 180q80 -45 202 -45q113 0 184.5 62.5
t75.5 205.5zM831 203v151q0 192 -62.5 280.5t-197.5 88.5q-111 0 -179 -75.5t-68 -192.5q0 -123 74 -187.5t206 -64.5h227zM391 1063v102h109q-43 34 -43 101q0 75 53 117t129 42q56 0 96.5 -16.5t40.5 -50.5q0 -30 -31 -58q-47 27 -90 27q-38 0 -61 -19t-23 -51
q0 -47 32.5 -69.5t80.5 -22.5h107v-102h-400z" />
    <glyph glyph-name="uniFE87" unicode="&#x625;" horiz-adv-x="501" arabic-form="isolated" 
d="M135 0v1499q0 56 31.5 84.5t89.5 28.5q53 0 111 -25v-1587h-232zM61 -510v102h109q-43 34 -43 101q0 75 53 117.5t129 42.5q56 0 96.5 -17t40.5 -51q0 -30 -30 -57q-46 26 -90 26q-38 0 -61 -18.5t-23 -50.5q0 -48 32 -70.5t80 -22.5h107v-102h-400z" />
    <glyph glyph-name="uniFE88" unicode="&#x625;" horiz-adv-x="647" arabic-form="final" 
d="M135 0v1499q0 56 31.5 84.5t89.5 28.5q53 0 111 -25v-1384h311v-203h-543zM168 -510v102h108q-43 34 -43 101q0 75 53.5 117.5t129.5 42.5q56 0 96.5 -17t40.5 -51q0 -29 -31 -57q-46 26 -90 26q-38 0 -61 -18.5t-23 -50.5q0 -47 32.5 -70t80.5 -23h106v-102h-399z" />
    <glyph glyph-name="uniFE89" unicode="&#x626;" horiz-adv-x="1757" arabic-form="isolated" 
d="M1018 -262v735q0 216 91.5 326t289.5 110q50 0 109.5 -15t110 -52t50.5 -86q0 -32 -17 -55.5t-53 -53.5q-60 66 -172 66q-82 0 -129 -50t-47 -155v-979h-557q-282 0 -439 160.5t-157 439.5q0 102 12.5 171t36.5 105t52.5 50t68.5 14q56 0 115 -37q-49 -180 -49 -297
q0 -190 94.5 -293.5t271.5 -103.5h318zM481 612v103h109q-43 34 -43 100q0 75 53 117.5t129 42.5q56 0 96.5 -17t40.5 -51q0 -30 -30 -57q-47 27 -91 27q-38 0 -60.5 -19t-22.5 -51q0 -47 32 -69.5t80 -22.5h107v-103h-400z" />
    <glyph glyph-name="uniFE8A" unicode="&#x626;" horiz-adv-x="2150" arabic-form="final" 
d="M1673 0v465q0 123 -53.5 186.5t-157.5 63.5t-157.5 -63.5t-53.5 -186.5v-936h-499q-654 0 -654 600q0 102 12.5 171t36.5 105t52.5 50t68.5 14q56 0 115 -37q-49 -180 -49 -297q0 -190 94.5 -293.5t271.5 -103.5h320v803q0 175 124 279t318 104q195 0 319 -103.5
t124 -279.5v-338h276v-203h-508zM473 616v103h109q-43 34 -43 100q0 75 53 117.5t129 42.5q56 0 96.5 -17t40.5 -51q0 -29 -31 -57q-47 27 -90 27q-38 0 -61 -19t-23 -51q0 -47 32.5 -69.5t80.5 -22.5h106v-103h-399z" />
    <glyph glyph-name="uniFE8B" unicode="&#x626;" horiz-adv-x="626" arabic-form="initial" 
d="M279 203v602q0 108 120 108q60 0 111 -22v-891h-541v203h310zM166 1065v102h108q-43 34 -43 101q0 75 53.5 117t129.5 42q56 0 96.5 -16.5t40.5 -50.5q0 -29 -31 -57q-46 26 -90 26q-38 0 -61 -18.5t-23 -50.5q0 -47 32.5 -70t80.5 -23h106v-102h-399z" />
    <glyph glyph-name="uniFE8C" unicode="&#x626;" horiz-adv-x="851" arabic-form="medial" 
d="M428 139q-18 -33 -42 -57t-55.5 -39t-59.5 -24t-70.5 -13t-72.5 -5t-79 -1h-80v203h103q77 0 124.5 15.5t72 52t32.5 82.5t8 122v330q0 108 121 108q60 0 111 -22v-416q0 -60 4 -98t18 -74.5t39.5 -56.5t69 -31.5t106.5 -11.5h105v-203h-203q-178 0 -252 139zM221 1065
v102h109q-43 34 -43 101q0 75 53 117t129 42q56 0 96.5 -16.5t40.5 -50.5q0 -29 -31 -57q-46 26 -90 26q-38 0 -61 -18.5t-23 -50.5q0 -47 32.5 -70t80.5 -23h107v-102h-400z" />
    <glyph glyph-name="uniFE8D" unicode="&#x627;" horiz-adv-x="460" arabic-form="isolated" 
d="M115 0v1499q0 56 31.5 84.5t89.5 28.5q52 0 110 -25v-1587h-231z" />
    <glyph glyph-name="uniFE8E" unicode="&#x627;" horiz-adv-x="626" arabic-form="final" 
d="M115 0v1499q0 56 31.5 84.5t89.5 28.5q52 0 110 -25v-1384h311v-203h-542z" />
    <glyph glyph-name="uniFE8F" unicode="&#x628;" horiz-adv-x="1773" arabic-form="isolated" 
d="M354 705q-22 -99 -22 -175q0 -156 110 -241.5t324 -85.5h659v598q0 112 121 112q55 0 111 -24v-889h-946q-279 0 -446 144.5t-167 369.5q0 103 31.5 160t108.5 57q53 0 116 -26zM877 -270q0 50 38 87.5t91 37.5t91 -37.5t38 -87.5q0 -52 -37.5 -89.5t-91.5 -37.5
t-91.5 37.5t-37.5 89.5z" />
    <glyph glyph-name="uniFE90" unicode="&#x628;" horiz-adv-x="1935" arabic-form="final" 
d="M354 705q-22 -99 -22 -175q0 -156 110 -241.5t324 -85.5h659v598q0 112 121 112q55 0 111 -24v-686h309v-203h-1255q-279 0 -446 144.5t-167 369.5q0 103 31.5 160t108.5 57q53 0 116 -26zM877 -270q0 50 38 87.5t91 37.5t91 -37.5t38 -87.5q0 -52 -37.5 -89.5
t-91.5 -37.5t-91.5 37.5t-37.5 89.5z" />
    <glyph glyph-name="uniFE91" unicode="&#x628;" horiz-adv-x="626" arabic-form="initial" 
d="M279 203v602q0 108 120 108q60 0 111 -22v-891h-541v203h310zM150 -270q0 50 38 87.5t91 37.5t91 -37.5t38 -87.5q0 -52 -38 -89.5t-91 -37.5t-91 37.5t-38 89.5z" />
    <glyph glyph-name="uniFE92" unicode="&#x628;" horiz-adv-x="849" arabic-form="medial" 
d="M428 139q-18 -33 -42 -57t-55.5 -39t-59.5 -24t-70.5 -13t-72.5 -5t-79 -1h-80v203h103q77 0 124.5 15.5t72 52t32.5 82.5t8 122v330q0 108 121 108q60 0 111 -22v-416q0 -60 4 -98t18 -74.5t39.5 -56.5t69 -31.5t106.5 -11.5h105v-203h-203q-178 0 -252 139zM301 -270
q0 50 38 87.5t91 37.5t91 -37.5t38 -87.5q0 -52 -37.5 -89.5t-91.5 -37.5t-91.5 37.5t-37.5 89.5z" />
    <glyph glyph-name="uniFE93" unicode="&#x629;" horiz-adv-x="1150" arabic-form="isolated" 
d="M322 422q0 -104 68.5 -161.5t162.5 -57.5q250 0 250 270v238h-111q-106 0 -181.5 -24t-115 -66.5t-56.5 -90.5t-17 -108zM719 913h315v-477q0 -193 -130 -314.5t-347 -121.5q-113 0 -204 34.5t-148 93.5t-87 134.5t-30 159.5q0 77 18 145t63 133t115 111t181 74t254 28z
M723 1167q0 54 35.5 90.5t89.5 36.5t91.5 -36.5t37.5 -90.5t-37.5 -90.5t-91.5 -36.5t-89.5 36.5t-35.5 90.5zM365 1167q0 54 35 90.5t89 36.5t90.5 -36.5t36.5 -90.5t-36.5 -90.5t-90.5 -36.5t-89 36.5t-35 90.5z" />
    <glyph glyph-name="uniFE94" unicode="&#x629;" horiz-adv-x="1296" arabic-form="final" 
d="M719 913h315v-481q0 -122 45 -175.5t170 -53.5h78v-203h-110q-99 0 -175 37t-118 108q-132 -145 -367 -145q-112 0 -203.5 36t-148 95.5t-87 133.5t-30.5 153q0 78 18 146.5t63 134t115 111.5t181 74.5t254 28.5zM322 422q0 -104 68.5 -161.5t162.5 -57.5q250 0 250 270
v238h-88q-393 0 -393 -289zM723 1167q0 54 35.5 90.5t89.5 36.5t91.5 -36.5t37.5 -90.5t-37.5 -90.5t-91.5 -36.5t-89.5 36.5t-35.5 90.5zM365 1167q0 54 35 90.5t89 36.5t90.5 -36.5t36.5 -90.5t-36.5 -90.5t-90.5 -36.5t-89 36.5t-35 90.5z" />
    <glyph glyph-name="uniFE95" unicode="&#x62a;" horiz-adv-x="1773" arabic-form="isolated" 
d="M354 705q-22 -99 -22 -175q0 -156 110 -241.5t324 -85.5h659v598q0 112 121 112q55 0 111 -24v-889h-946q-279 0 -446 144.5t-167 369.5q0 103 31.5 160t108.5 57q53 0 116 -26zM973 1167q0 54 35.5 90.5t89.5 36.5t91.5 -36.5t37.5 -90.5t-37.5 -90.5t-91.5 -36.5
t-89.5 36.5t-35.5 90.5zM614 1167q0 54 35.5 90.5t89.5 36.5t90.5 -36.5t36.5 -90.5t-36.5 -90.5t-90.5 -36.5t-89.5 36.5t-35.5 90.5z" />
    <glyph glyph-name="uniFE96" unicode="&#x62a;" horiz-adv-x="1935" arabic-form="final" 
d="M354 705q-22 -99 -22 -175q0 -156 110 -241.5t324 -85.5h659v598q0 112 121 112q55 0 111 -24v-686h309v-203h-1255q-279 0 -446 144.5t-167 369.5q0 103 31.5 160t108.5 57q53 0 116 -26zM973 1167q0 54 35.5 90.5t89.5 36.5t91.5 -36.5t37.5 -90.5t-37.5 -90.5
t-91.5 -36.5t-89.5 36.5t-35.5 90.5zM614 1167q0 54 35.5 90.5t89.5 36.5t90.5 -36.5t36.5 -90.5t-36.5 -90.5t-90.5 -36.5t-89.5 36.5t-35.5 90.5z" />
    <glyph glyph-name="uniFE97" unicode="&#x62a;" horiz-adv-x="759" arabic-form="initial" 
d="M279 203v602q0 108 120 108q60 0 111 -22v-891h-541v203h310zM457 1167q0 54 35.5 90.5t89.5 36.5t91.5 -36.5t37.5 -90.5t-37.5 -90.5t-91.5 -36.5t-89.5 36.5t-35.5 90.5zM98 1167q0 54 35.5 90.5t89.5 36.5t90.5 -36.5t36.5 -90.5t-36.5 -90.5t-90.5 -36.5t-89.5 36.5
t-35.5 90.5z" />
    <glyph glyph-name="uniFE98" unicode="&#x62a;" horiz-adv-x="849" arabic-form="medial" 
d="M428 139q-18 -33 -42 -57t-55.5 -39t-59.5 -24t-70.5 -13t-72.5 -5t-79 -1h-80v203h103q77 0 124.5 15.5t72 52t32.5 82.5t8 122v330q0 108 121 108q60 0 111 -22v-416q0 -60 4 -98t18 -74.5t39.5 -56.5t69 -31.5t106.5 -11.5h105v-203h-203q-178 0 -252 139zM479 1167
q0 54 35.5 90.5t89.5 36.5t91.5 -36.5t37.5 -90.5t-37.5 -90.5t-91.5 -36.5t-89.5 36.5t-35.5 90.5zM121 1167q0 54 35.5 90.5t89.5 36.5t90.5 -36.5t36.5 -90.5t-36.5 -90.5t-90.5 -36.5t-89.5 36.5t-35.5 90.5z" />
    <glyph glyph-name="uniFE99" unicode="&#x62b;" horiz-adv-x="1773" arabic-form="isolated" 
d="M354 705q-22 -99 -22 -175q0 -156 110 -241.5t324 -85.5h659v598q0 112 121 112q55 0 111 -24v-889h-946q-279 0 -446 144.5t-167 369.5q0 103 31.5 160t108.5 57q53 0 116 -26zM969 1167q0 54 36.5 89.5t90.5 35.5t90.5 -35.5t36.5 -89.5t-36.5 -90.5t-90.5 -36.5
t-90.5 36.5t-36.5 90.5zM610 1167q0 54 36.5 89.5t90.5 35.5t90.5 -35.5t36.5 -89.5t-36.5 -90.5t-90.5 -36.5t-90.5 36.5t-36.5 90.5zM795 1462q0 54 35.5 89.5t89.5 35.5t90.5 -35.5t36.5 -89.5t-36.5 -90.5t-90.5 -36.5t-89.5 36.5t-35.5 90.5z" />
    <glyph glyph-name="uniFE9A" unicode="&#x62b;" horiz-adv-x="1935" arabic-form="final" 
d="M354 705q-22 -99 -22 -175q0 -156 110 -241.5t324 -85.5h659v598q0 112 121 112q55 0 111 -24v-686h309v-203h-1255q-279 0 -446 144.5t-167 369.5q0 103 31.5 160t108.5 57q53 0 116 -26zM969 1167q0 54 36.5 89.5t90.5 35.5t90.5 -35.5t36.5 -89.5t-36.5 -90.5
t-90.5 -36.5t-90.5 36.5t-36.5 90.5zM610 1167q0 54 36.5 89.5t90.5 35.5t90.5 -35.5t36.5 -89.5t-36.5 -90.5t-90.5 -36.5t-90.5 36.5t-36.5 90.5zM795 1462q0 54 35.5 89.5t89.5 35.5t90.5 -35.5t36.5 -89.5t-36.5 -90.5t-90.5 -36.5t-89.5 36.5t-35.5 90.5z" />
    <glyph glyph-name="uniFE9B" unicode="&#x62b;" horiz-adv-x="759" arabic-form="initial" 
d="M279 203v602q0 108 120 108q60 0 111 -22v-891h-541v203h310zM451 1167q0 54 36.5 89.5t90.5 35.5t90.5 -35.5t36.5 -89.5t-36.5 -90.5t-90.5 -36.5t-90.5 36.5t-36.5 90.5zM92 1167q0 54 36.5 89.5t90.5 35.5t90.5 -35.5t36.5 -89.5t-36.5 -90.5t-90.5 -36.5t-90.5 36.5
t-36.5 90.5zM276 1462q0 54 35.5 89.5t89.5 35.5t90.5 -35.5t36.5 -89.5t-36.5 -90.5t-90.5 -36.5t-89.5 36.5t-35.5 90.5z" />
    <glyph glyph-name="uniFE9C" unicode="&#x62b;" horiz-adv-x="849" arabic-form="medial" 
d="M428 139q-18 -33 -42 -57t-55.5 -39t-59.5 -24t-70.5 -13t-72.5 -5t-79 -1h-80v203h103q77 0 124.5 15.5t72 52t32.5 82.5t8 122v330q0 108 121 108q60 0 111 -22v-416q0 -60 4 -98t18 -74.5t39.5 -56.5t69 -31.5t106.5 -11.5h105v-203h-203q-178 0 -252 139zM479 1167
q0 54 36.5 89.5t90.5 35.5t90.5 -35.5t36.5 -89.5t-36.5 -90.5t-90.5 -36.5t-90.5 36.5t-36.5 90.5zM121 1167q0 54 36.5 89.5t90.5 35.5t90.5 -35.5t36.5 -89.5t-36.5 -90.5t-90.5 -36.5t-90.5 36.5t-36.5 90.5zM305 1462q0 54 35.5 89.5t89.5 35.5t90.5 -35.5t36.5 -89.5
t-36.5 -90.5t-90.5 -36.5t-89.5 36.5t-35.5 90.5z" />
    <glyph glyph-name="uniFE9D" unicode="&#x62c;" horiz-adv-x="1323" arabic-form="isolated" 
d="M821 354q-89 119 -156 191.5t-143 119t-149 46.5q-59 0 -117 -23q-51 51 -51 115q0 59 53.5 90t147.5 31q75 0 152.5 -30t140 -72t132.5 -115.5t117 -131t108.5 -149.5t91 -140.5t79.5 -133.5q-29 -36 -76 -61t-86 -25q-32 0 -50.5 12.5t-41.5 42.5l-41 51
q-666 -9 -666 -465q0 -151 99.5 -252.5t281.5 -101.5q102 0 199 25.5t155 58.5l91 -178q-82 -43 -203 -78t-256 -35q-272 0 -440 149.5t-168 399.5q0 309 207 473.5t589 185.5zM561 -242q0 50 38 87.5t91 37.5t91 -37.5t38 -87.5q0 -52 -37.5 -89.5t-91.5 -37.5t-91.5 37.5
t-37.5 89.5z" />
    <glyph glyph-name="uniFE9E" unicode="&#x62c;" horiz-adv-x="1413" arabic-form="final" 
d="M1004 74l-72 98q-666 -9 -666 -465q0 -151 99.5 -252.5t281.5 -101.5q102 0 199 25.5t155 58.5l91 -178q-82 -43 -203 -78t-256 -35q-272 0 -440 149.5t-168 399.5q0 309 207 473.5t589 185.5q-89 119 -156 191.5t-143 119t-149 46.5q-59 0 -117 -23q-51 51 -51 115
q0 59 53.5 90t147.5 31q54 0 108.5 -15t101 -37t97 -61.5t89.5 -75t86 -91t78.5 -95.5t75 -103t67.5 -99.5t64 -98.5q6 -10 10 -15.5t9.5 -14t9.5 -15.5h242v-203h-277q-58 0 -93 14.5t-70 59.5zM561 -242q0 50 38 87.5t91 37.5t91 -37.5t38 -87.5q0 -52 -37.5 -89.5
t-91.5 -37.5t-91.5 37.5t-37.5 89.5z" />
    <glyph glyph-name="uniFE9F" unicode="&#x62c;" horiz-adv-x="1163" arabic-form="initial" 
d="M279 924q75 0 139 -18t122.5 -57.5t98.5 -75t100 -97.5q84 -91 181 -235t149 -240v-201h-1100v203h832q-116 188 -238 329q-86 97 -163 140t-158 43q-53 0 -117 -23q-49 49 -49 115q0 58 54 87.5t149 29.5zM389 -270q0 50 38 87.5t91 37.5t91 -37.5t38 -87.5
q0 -52 -37.5 -89.5t-91.5 -37.5t-91.5 37.5t-37.5 89.5z" />
    <glyph glyph-name="uniFEA0" unicode="&#x62c;" horiz-adv-x="1253" arabic-form="medial" 
d="M279 924q75 0 139 -18t122.5 -57.5t98.5 -75t100 -97.5q85 -92 181.5 -235t146.5 -238h217v-203h-1315v203h832q-116 188 -238 329q-86 97 -163 140t-158 43q-53 0 -117 -23q-49 49 -49 115q0 58 54 87.5t149 29.5zM389 -270q0 50 38 87.5t91 37.5t91 -37.5t38 -87.5
q0 -52 -37.5 -89.5t-91.5 -37.5t-91.5 37.5t-37.5 89.5z" />
    <glyph glyph-name="uniFEA1" unicode="&#x62d;" horiz-adv-x="1323" arabic-form="isolated" 
d="M821 354q-89 119 -156 191.5t-143 119t-149 46.5q-59 0 -117 -23q-51 51 -51 115q0 59 53.5 90t147.5 31q75 0 152.5 -30t140 -72t132.5 -115.5t117 -131t108.5 -149.5t91 -140.5t79.5 -133.5q-29 -36 -76 -61t-86 -25q-32 0 -50.5 12.5t-41.5 42.5l-41 51
q-666 -9 -666 -465q0 -151 99.5 -252.5t281.5 -101.5q102 0 199 25.5t155 58.5l91 -178q-82 -43 -203 -78t-256 -35q-272 0 -440 149.5t-168 399.5q0 309 207 473.5t589 185.5z" />
    <glyph glyph-name="uniFEA2" unicode="&#x62d;" horiz-adv-x="1413" arabic-form="final" 
d="M1004 74l-72 98q-666 -9 -666 -465q0 -151 99.5 -252.5t281.5 -101.5q102 0 199 25.5t155 58.5l91 -178q-82 -43 -203 -78t-256 -35q-272 0 -440 149.5t-168 399.5q0 309 207 473.5t589 185.5q-89 119 -156 191.5t-143 119t-149 46.5q-59 0 -117 -23q-51 51 -51 115
q0 59 53.5 90t147.5 31q54 0 108.5 -15t101 -37t97 -61.5t89.5 -75t86 -91t78.5 -95.5t75 -103t67.5 -99.5t64 -98.5q6 -10 10 -15.5t9.5 -14t9.5 -15.5h242v-203h-277q-58 0 -93 14.5t-70 59.5z" />
    <glyph glyph-name="uniFEA3" unicode="&#x62d;" horiz-adv-x="1163" arabic-form="initial" 
d="M279 924q75 0 139 -18t122.5 -57.5t98.5 -75t100 -97.5q84 -91 181 -235t149 -240v-201h-1100v203h832q-116 188 -238 329q-86 97 -163 140t-158 43q-53 0 -117 -23q-49 49 -49 115q0 58 54 87.5t149 29.5z" />
    <glyph glyph-name="uniFEA4" unicode="&#x62d;" horiz-adv-x="1253" arabic-form="medial" 
d="M279 924q75 0 139 -18t122.5 -57.5t98.5 -75t100 -97.5q85 -92 181.5 -235t146.5 -238h217v-203h-1315v203h832q-116 188 -238 329q-86 97 -163 140t-158 43q-53 0 -117 -23q-49 49 -49 115q0 58 54 87.5t149 29.5z" />
    <glyph glyph-name="uniFEA5" unicode="&#x62e;" horiz-adv-x="1323" arabic-form="isolated" 
d="M821 354q-89 119 -156 191.5t-143 119t-149 46.5q-59 0 -117 -23q-51 51 -51 115q0 59 53.5 90t147.5 31q75 0 152.5 -30t140 -72t132.5 -115.5t117 -131t108.5 -149.5t91 -140.5t79.5 -133.5q-29 -36 -76 -61t-86 -25q-32 0 -50.5 12.5t-41.5 42.5l-41 51
q-666 -9 -666 -465q0 -151 99.5 -252.5t281.5 -101.5q102 0 199 25.5t155 58.5l91 -178q-82 -43 -203 -78t-256 -35q-272 0 -440 149.5t-168 399.5q0 309 207 473.5t589 185.5zM334 1159q0 51 38.5 89t92.5 38q53 0 90 -37.5t37 -89.5t-37 -89.5t-90 -37.5q-54 0 -92.5 38
t-38.5 89z" />
    <glyph glyph-name="uniFEA6" unicode="&#x62e;" horiz-adv-x="1413" arabic-form="final" 
d="M1004 74l-72 98q-666 -9 -666 -465q0 -151 99.5 -252.5t281.5 -101.5q102 0 199 25.5t155 58.5l91 -178q-82 -43 -203 -78t-256 -35q-272 0 -440 149.5t-168 399.5q0 309 207 473.5t589 185.5q-89 119 -156 191.5t-143 119t-149 46.5q-59 0 -117 -23q-51 51 -51 115
q0 59 53.5 90t147.5 31q54 0 108.5 -15t101 -37t97 -61.5t89.5 -75t86 -91t78.5 -95.5t75 -103t67.5 -99.5t64 -98.5q6 -10 10 -15.5t9.5 -14t9.5 -15.5h242v-203h-277q-58 0 -93 14.5t-70 59.5zM334 1159q0 51 38.5 89t92.5 38q53 0 90 -37.5t37 -89.5t-37 -89.5t-90 -37.5
q-54 0 -92.5 38t-38.5 89z" />
    <glyph glyph-name="uniFEA7" unicode="&#x62e;" horiz-adv-x="1163" arabic-form="initial" 
d="M279 924q75 0 139 -18t122.5 -57.5t98.5 -75t100 -97.5q84 -91 181 -235t149 -240v-201h-1100v203h832q-116 188 -238 329q-86 97 -163 140t-158 43q-53 0 -117 -23q-49 49 -49 115q0 58 54 87.5t149 29.5zM174 1167q0 51 38.5 89t92.5 38q53 0 90 -37.5t37 -89.5
t-37 -89.5t-90 -37.5q-54 0 -92.5 38t-38.5 89z" />
    <glyph glyph-name="uniFEA8" unicode="&#x62e;" horiz-adv-x="1253" arabic-form="medial" 
d="M279 924q75 0 139 -18t122.5 -57.5t98.5 -75t100 -97.5q85 -92 181.5 -235t146.5 -238h217v-203h-1315v203h832q-116 188 -238 329q-86 97 -163 140t-158 43q-53 0 -117 -23q-49 49 -49 115q0 58 54 87.5t149 29.5zM172 1167q0 51 38.5 89t92.5 38q53 0 90 -37.5
t37 -89.5t-37 -89.5t-90 -37.5q-54 0 -92.5 38t-38.5 89z" />
    <glyph glyph-name="uniFEA9" unicode="&#x62f;" horiz-adv-x="1318" arabic-form="isolated" 
d="M86 203h881v76q0 94 -25 169.5t-67 124.5t-101 81.5t-124 46.5t-138 14q-146 0 -252 -49q-21 14 -39 46.5t-18 69.5q0 41 32 70.5t85 44t106 21t111 6.5q113 0 213.5 -25t184 -76.5t144 -125t94 -176t33.5 -224.5v-297h-1120v203z" />
    <glyph glyph-name="uniFEAA" unicode="&#x62f;" horiz-adv-x="1454" arabic-form="final" 
d="M86 203h881v76q0 94 -25 169.5t-67 124.5t-101 81.5t-124 46.5t-138 14q-146 0 -252 -49q-21 14 -39 46.5t-18 69.5q0 41 32 70.5t85 44t106 21t111 6.5q113 0 213.5 -25t184 -76.5t144 -125t94 -176t33.5 -224.5v-94h279v-203h-1399v203z" />
    <glyph glyph-name="uniFEAB" unicode="&#x630;" horiz-adv-x="1318" arabic-form="isolated" 
d="M86 203h881v76q0 94 -25 169.5t-67 124.5t-101 81.5t-124 46.5t-138 14q-146 0 -252 -49q-21 14 -39 46.5t-18 69.5q0 41 32 70.5t85 44t106 21t111 6.5q113 0 213.5 -25t184 -76.5t144 -125t94 -176t33.5 -224.5v-297h-1120v203zM475 1167q0 51 38.5 89t92.5 38
q53 0 90 -37.5t37 -89.5t-37 -89.5t-90 -37.5q-54 0 -92.5 38t-38.5 89z" />
    <glyph glyph-name="uniFEAC" unicode="&#x630;" horiz-adv-x="1454" arabic-form="final" 
d="M86 203h881v76q0 94 -25 169.5t-67 124.5t-101 81.5t-124 46.5t-138 14q-146 0 -252 -49q-21 14 -39 46.5t-18 69.5q0 41 32 70.5t85 44t106 21t111 6.5q113 0 213.5 -25t184 -76.5t144 -125t94 -176t33.5 -224.5v-94h279v-203h-1399v203zM475 1167q0 51 38.5 89t92.5 38
q53 0 90 -37.5t37 -89.5t-37 -89.5t-90 -37.5q-54 0 -92.5 38t-38.5 89z" />
    <glyph glyph-name="uniFEAD" unicode="&#x631;" horiz-adv-x="753" arabic-form="isolated" 
d="M406 -106v909q0 110 126 110q54 0 105 -22v-975q0 -90 -21.5 -160.5t-57 -114.5t-86 -72.5t-104.5 -40t-116 -11.5q-73 0 -139.5 17t-102.5 34l60 176q64 -31 157 -31q179 0 179 181z" />
    <glyph glyph-name="uniFEAE" unicode="&#x631;" horiz-adv-x="917" arabic-form="final" 
d="M406 -106v909q0 110 126 110q54 0 105 -22v-688h311v-203h-311v-84q0 -90 -21.5 -160.5t-57 -114.5t-86 -72.5t-104.5 -40t-116 -11.5q-73 0 -139.5 17t-102.5 34l60 176q64 -31 157 -31q179 0 179 181z" />
    <glyph glyph-name="uniFEAF" unicode="&#x632;" horiz-adv-x="753" arabic-form="isolated" 
d="M406 -106v909q0 110 126 110q54 0 105 -22v-975q0 -90 -21.5 -160.5t-57 -114.5t-86 -72.5t-104.5 -40t-116 -11.5q-73 0 -139.5 17t-102.5 34l60 176q64 -31 157 -31q179 0 179 181zM395 1167q0 51 38.5 89t92.5 38q53 0 90 -37.5t37 -89.5t-37 -89.5t-90 -37.5
q-54 0 -92.5 38t-38.5 89z" />
    <glyph glyph-name="uniFEB0" unicode="&#x632;" horiz-adv-x="917" arabic-form="final" 
d="M406 -106v909q0 110 126 110q54 0 105 -22v-688h311v-203h-311v-84q0 -90 -21.5 -160.5t-57 -114.5t-86 -72.5t-104.5 -40t-116 -11.5q-73 0 -139.5 17t-102.5 34l60 176q64 -31 157 -31q179 0 179 181zM395 1167q0 51 38.5 89t92.5 38q53 0 90 -37.5t37 -89.5t-37 -89.5
t-90 -37.5q-54 0 -92.5 38t-38.5 89z" />
    <glyph glyph-name="uniFEB1" unicode="&#x633;" horiz-adv-x="2578" arabic-form="isolated" 
d="M1444 193q47 0 80.5 13.5t54 37.5t32.5 62t16.5 80t4.5 99v320q0 108 121 108q60 0 111 -22v-404q0 -59 3 -96.5t13.5 -77t30 -61t55 -35.5t86.5 -14h178v602q0 108 121 108q60 0 111 -22v-891h-387q-140 0 -212 25.5t-114 105.5q-38 -72 -112.5 -110.5t-174.5 -38.5
q-133 0 -211 71q-17 -250 -173 -391t-404 -141q-280 0 -428 164t-148 442q0 131 20.5 208t56 105.5t91.5 28.5t115 -37q-45 -210 -45 -297q0 -194 89 -300.5t259 -106.5q166 0 257 111.5t91 340.5v625q0 58 35 82t104 24q31 0 59 -7t36 -13v-461q0 -116 41.5 -176.5
t136.5 -60.5z" />
    <glyph glyph-name="uniFEB2" unicode="&#x633;" horiz-adv-x="2770" arabic-form="final" 
d="M1266 891v-461q0 -116 41.5 -176.5t136.5 -60.5q188 0 188 237v375q0 108 121 108q60 0 111 -22v-467q0 -231 188 -231q95 0 136.5 60.5t41.5 176.5v375q0 108 121 108q60 0 111 -22v-420q0 -144 42 -206t165 -62h133v-203h-166q-181 0 -273 133q-57 -76 -129 -113.5
t-182 -37.5q-98 0 -177 38t-126 109q-47 -68 -125.5 -107.5t-165.5 -39.5q-129 0 -207 71q-17 -250 -173 -391t-404 -141q-280 0 -428 164t-148 442q0 131 20.5 208t56 105.5t91.5 28.5t115 -37q-45 -210 -45 -297q0 -194 89 -300.5t259 -106.5q166 0 257 111.5t91 340.5
v625q0 58 35 82t104 24q31 0 59 -7t36 -13z" />
    <glyph glyph-name="uniFEB3" unicode="&#x633;" horiz-adv-x="1853" arabic-form="initial" 
d="M719 -18q-113 0 -186 37.5t-125 113.5q-85 -133 -273 -133h-166v203h135q62 0 103.5 18t63 55t30 82.5t8.5 112.5v334q0 108 121 108q60 0 111 -22v-461q0 -116 41.5 -176.5t136.5 -60.5q188 0 188 237v375q0 108 121 108q60 0 111 -22v-457q0 -117 41.5 -174t146.5 -57
h178v602q0 108 121 108q60 0 111 -22v-891h-432q-102 0 -168 30.5t-103 100.5q-112 -149 -315 -149z" />
    <glyph glyph-name="uniFEB4" unicode="&#x633;" horiz-adv-x="2045" arabic-form="medial" 
d="M719 -18q-110 0 -182 37.5t-129 113.5q-96 -133 -283 -133h-156v203h125q67 0 109.5 16t65.5 51.5t31.5 82t8.5 118.5v334q0 108 121 108q60 0 111 -22v-461q0 -116 41.5 -176.5t136.5 -60.5q188 0 188 237v375q0 108 121 108q60 0 111 -22v-467q0 -231 188 -231
q95 0 136.5 60.5t41.5 176.5v375q0 108 121 108q60 0 111 -22v-420q0 -144 42 -206t165 -62h133v-203h-166q-181 0 -273 133q-57 -76 -129 -113.5t-182 -37.5q-98 0 -177 38t-126 109q-47 -69 -127.5 -108t-177.5 -39z" />
    <glyph glyph-name="uniFEB5" unicode="&#x634;" horiz-adv-x="2578" arabic-form="isolated" 
d="M1444 193q47 0 80.5 13.5t54 37.5t32.5 62t16.5 80t4.5 99v320q0 108 121 108q60 0 111 -22v-404q0 -59 3 -96.5t13.5 -77t30 -61t55 -35.5t86.5 -14h178v602q0 108 121 108q60 0 111 -22v-891h-387q-140 0 -212 25.5t-114 105.5q-38 -72 -112.5 -110.5t-174.5 -38.5
q-133 0 -211 71q-17 -250 -173 -391t-404 -141q-280 0 -428 164t-148 442q0 131 20.5 208t56 105.5t91.5 28.5t115 -37q-45 -210 -45 -297q0 -194 89 -300.5t259 -106.5q166 0 257 111.5t91 340.5v625q0 58 35 82t104 24q31 0 59 -7t36 -13v-461q0 -116 41.5 -176.5
t136.5 -60.5zM1804 1167q0 54 36.5 89.5t90.5 35.5t90.5 -35.5t36.5 -89.5t-36.5 -90.5t-90.5 -36.5t-90.5 36.5t-36.5 90.5zM1446 1167q0 54 36.5 89.5t90.5 35.5t90.5 -35.5t36.5 -89.5t-36.5 -90.5t-90.5 -36.5t-90.5 36.5t-36.5 90.5zM1630 1462q0 54 35.5 89.5
t89.5 35.5t90.5 -35.5t36.5 -89.5t-36.5 -90.5t-90.5 -36.5t-89.5 36.5t-35.5 90.5z" />
    <glyph glyph-name="uniFEB6" unicode="&#x634;" horiz-adv-x="2770" arabic-form="final" 
d="M1266 891v-461q0 -116 41.5 -176.5t136.5 -60.5q188 0 188 237v375q0 108 121 108q60 0 111 -22v-467q0 -231 188 -231q95 0 136.5 60.5t41.5 176.5v375q0 108 121 108q60 0 111 -22v-420q0 -144 42 -206t165 -62h133v-203h-166q-181 0 -273 133q-57 -76 -129 -113.5
t-182 -37.5q-98 0 -177 38t-126 109q-47 -68 -125.5 -107.5t-165.5 -39.5q-129 0 -207 71q-17 -250 -173 -391t-404 -141q-280 0 -428 164t-148 442q0 131 20.5 208t56 105.5t91.5 28.5t115 -37q-45 -210 -45 -297q0 -194 89 -300.5t259 -106.5q166 0 257 111.5t91 340.5
v625q0 58 35 82t104 24q31 0 59 -7t36 -13zM1802 1167q0 54 36.5 89.5t90.5 35.5t90.5 -35.5t36.5 -89.5t-36.5 -90.5t-90.5 -36.5t-90.5 36.5t-36.5 90.5zM1444 1167q0 54 36.5 89.5t90.5 35.5t90.5 -35.5t36.5 -89.5t-36.5 -90.5t-90.5 -36.5t-90.5 36.5t-36.5 90.5z
M1628 1462q0 54 35.5 89.5t89.5 35.5t90.5 -35.5t36.5 -89.5t-36.5 -90.5t-90.5 -36.5t-89.5 36.5t-35.5 90.5z" />
    <glyph glyph-name="uniFEB7" unicode="&#x634;" horiz-adv-x="1853" arabic-form="initial" 
d="M719 -18q-113 0 -186 37.5t-125 113.5q-85 -133 -273 -133h-166v203h135q62 0 103.5 18t63 55t30 82.5t8.5 112.5v334q0 108 121 108q60 0 111 -22v-461q0 -116 41.5 -176.5t136.5 -60.5q188 0 188 237v375q0 108 121 108q60 0 111 -22v-457q0 -117 41.5 -174t146.5 -57
h178v602q0 108 121 108q60 0 111 -22v-891h-432q-102 0 -168 30.5t-103 100.5q-112 -149 -315 -149zM1081 1167q0 54 36.5 89.5t90.5 35.5t90.5 -35.5t36.5 -89.5t-36.5 -90.5t-90.5 -36.5t-90.5 36.5t-36.5 90.5zM723 1167q0 54 36.5 89.5t90.5 35.5t90.5 -35.5t36.5 -89.5
t-36.5 -90.5t-90.5 -36.5t-90.5 36.5t-36.5 90.5zM907 1462q0 54 35.5 89.5t89.5 35.5t90.5 -35.5t36.5 -89.5t-36.5 -90.5t-90.5 -36.5t-89.5 36.5t-35.5 90.5z" />
    <glyph glyph-name="uniFEB8" unicode="&#x634;" horiz-adv-x="2045" arabic-form="medial" 
d="M719 -18q-110 0 -182 37.5t-129 113.5q-96 -133 -283 -133h-156v203h125q67 0 109.5 16t65.5 51.5t31.5 82t8.5 118.5v334q0 108 121 108q60 0 111 -22v-461q0 -116 41.5 -176.5t136.5 -60.5q188 0 188 237v375q0 108 121 108q60 0 111 -22v-467q0 -231 188 -231
q95 0 136.5 60.5t41.5 176.5v375q0 108 121 108q60 0 111 -22v-420q0 -144 42 -206t165 -62h133v-203h-166q-181 0 -273 133q-57 -76 -129 -113.5t-182 -37.5q-98 0 -177 38t-126 109q-47 -69 -127.5 -108t-177.5 -39zM1077 1167q0 54 36.5 89.5t90.5 35.5t90.5 -35.5
t36.5 -89.5t-36.5 -90.5t-90.5 -36.5t-90.5 36.5t-36.5 90.5zM719 1167q0 54 36.5 89.5t90.5 35.5t90.5 -35.5t36.5 -89.5t-36.5 -90.5t-90.5 -36.5t-90.5 36.5t-36.5 90.5zM903 1462q0 54 35.5 89.5t89.5 35.5t90.5 -35.5t36.5 -89.5t-36.5 -90.5t-90.5 -36.5t-89.5 36.5
t-35.5 90.5z" />
    <glyph glyph-name="uniFEB9" unicode="&#x635;" horiz-adv-x="2490" arabic-form="isolated" 
d="M1264 889v-217q56 108 196 180t334 72q87 0 166.5 -17t157 -59t134 -107.5t91.5 -169.5t35 -237v-334h-1127q-36 -230 -191 -355.5t-388 -125.5q-280 0 -427 165t-147 443q0 104 11.5 173t35 105t51.5 50t68 14q58 0 117 -37q-47 -165 -47 -297q0 -193 86.5 -299
t255.5 -106q165 0 259.5 114.5t94.5 350.5v606q0 59 30.5 85.5t92.5 26.5q69 0 111 -24zM1763 707q-226 0 -363.5 -140.5t-137.5 -363.5h880v112q0 392 -379 392z" />
    <glyph glyph-name="uniFEBA" unicode="&#x635;" horiz-adv-x="2623" arabic-form="final" 
d="M1264 889v-217q56 108 196 180t334 72q87 0 166.5 -17t157 -59t134 -107.5t91.5 -169.5t35 -237v-131h276v-203h-1403q-36 -230 -191 -355.5t-388 -125.5q-280 0 -427 165t-147 443q0 104 11.5 173t35 105t51.5 50t68 14q58 0 117 -37q-47 -165 -47 -297
q0 -193 86.5 -299t255.5 -106q165 0 259.5 114.5t94.5 350.5v606q0 59 30.5 85.5t92.5 26.5q69 0 111 -24zM1763 707q-226 0 -363.5 -140.5t-137.5 -363.5h880v112q0 392 -379 392z" />
    <glyph glyph-name="uniFEBB" unicode="&#x635;" horiz-adv-x="1736" arabic-form="initial" 
d="M1624 0h-1655v203h310v598q0 59 30.5 85.5t91.5 26.5q67 0 109 -24v-217q56 108 196 180t334 72q87 0 166.5 -17t157 -59t134 -107.5t91.5 -169.5t35 -237v-334zM1010 707q-226 0 -364 -140.5t-138 -363.5h881v112q0 392 -379 392z" />
    <glyph glyph-name="uniFEBC" unicode="&#x635;" horiz-adv-x="1871" arabic-form="medial" 
d="M-31 0v203h310v598q0 59 30.5 85.5t91.5 26.5q67 0 109 -24v-217q56 108 196 180t334 72q87 0 166.5 -17t157 -59t134 -107.5t91.5 -169.5t35 -237v-131h279v-203h-1934zM1010 707q-226 0 -364 -140.5t-138 -363.5h881v112q0 392 -379 392z" />
    <glyph glyph-name="uniFEBD" unicode="&#x636;" horiz-adv-x="2490" arabic-form="isolated" 
d="M1264 889v-217q56 108 196 180t334 72q87 0 166.5 -17t157 -59t134 -107.5t91.5 -169.5t35 -237v-334h-1127q-36 -230 -191 -355.5t-388 -125.5q-280 0 -427 165t-147 443q0 104 11.5 173t35 105t51.5 50t68 14q58 0 117 -37q-47 -165 -47 -297q0 -193 86.5 -299
t255.5 -106q165 0 259.5 114.5t94.5 350.5v606q0 59 30.5 85.5t92.5 26.5q69 0 111 -24zM1763 707q-226 0 -363.5 -140.5t-137.5 -363.5h880v112q0 392 -379 392zM1653 1167q0 51 38.5 89t92.5 38q53 0 90 -37.5t37 -89.5t-37 -89.5t-90 -37.5q-54 0 -92.5 38t-38.5 89z" />
    <glyph glyph-name="uniFEBE" unicode="&#x636;" horiz-adv-x="2623" arabic-form="final" 
d="M1264 889v-217q56 108 196 180t334 72q87 0 166.5 -17t157 -59t134 -107.5t91.5 -169.5t35 -237v-131h276v-203h-1403q-36 -230 -191 -355.5t-388 -125.5q-280 0 -427 165t-147 443q0 104 11.5 173t35 105t51.5 50t68 14q58 0 117 -37q-47 -165 -47 -297
q0 -193 86.5 -299t255.5 -106q165 0 259.5 114.5t94.5 350.5v606q0 59 30.5 85.5t92.5 26.5q69 0 111 -24zM1763 707q-226 0 -363.5 -140.5t-137.5 -363.5h880v112q0 392 -379 392zM1653 1167q0 51 38.5 89t92.5 38q53 0 90 -37.5t37 -89.5t-37 -89.5t-90 -37.5
q-54 0 -92.5 38t-38.5 89z" />
    <glyph glyph-name="uniFEBF" unicode="&#x636;" horiz-adv-x="1736" arabic-form="initial" 
d="M1624 0h-1655v203h310v598q0 59 30.5 85.5t91.5 26.5q67 0 109 -24v-217q56 108 196 180t334 72q87 0 166.5 -17t157 -59t134 -107.5t91.5 -169.5t35 -237v-334zM1010 707q-226 0 -364 -140.5t-138 -363.5h881v112q0 392 -379 392zM901 1167q0 51 38.5 89t92.5 38
q53 0 90 -37.5t37 -89.5t-37 -89.5t-90 -37.5q-54 0 -92.5 38t-38.5 89z" />
    <glyph glyph-name="uniFEC0" unicode="&#x636;" horiz-adv-x="1871" arabic-form="medial" 
d="M-31 0v203h310v598q0 59 30.5 85.5t91.5 26.5q67 0 109 -24v-217q56 108 196 180t334 72q87 0 166.5 -17t157 -59t134 -107.5t91.5 -169.5t35 -237v-131h279v-203h-1934zM1010 707q-226 0 -364 -140.5t-138 -363.5h881v112q0 392 -379 392zM901 1167q0 51 38.5 89
t92.5 38q53 0 90 -37.5t37 -89.5t-37 -89.5t-90 -37.5q-54 0 -92.5 38t-38.5 89z" />
    <glyph glyph-name="uniFEC1" unicode="&#x637;" horiz-adv-x="1781" arabic-form="isolated" 
d="M1669 0h-1581v203h236v1298q0 113 122 113q51 0 109 -25v-917q56 108 196 180t334 72q87 0 166.5 -17t157 -59t134 -107.5t91.5 -169.5t35 -237v-334zM1055 707q-226 0 -364 -140.5t-138 -363.5h881v112q0 392 -379 392z" />
    <glyph glyph-name="uniFEC2" unicode="&#x637;" horiz-adv-x="1914" arabic-form="final" 
d="M88 0v203h236v1298q0 113 122 113q51 0 109 -25v-917q56 108 196 180t334 72q87 0 166.5 -17t157 -59t134 -107.5t91.5 -169.5t35 -237v-131h277v-203h-1858zM1055 707q-226 0 -364 -140.5t-138 -363.5h881v112q0 392 -379 392z" />
    <glyph glyph-name="uniFEC3" unicode="&#x637;" horiz-adv-x="1736" arabic-form="initial" 
d="M-31 0v203h310v1298q0 113 122 113q51 0 109 -25v-917q56 108 196 180t334 72q87 0 166.5 -17t157 -59t134 -107.5t91.5 -169.5t35 -237v-334h-1655zM1010 707q-226 0 -364 -140.5t-138 -363.5h881v112q0 392 -379 392z" />
    <glyph glyph-name="uniFEC4" unicode="&#x637;" horiz-adv-x="1869" arabic-form="medial" 
d="M-31 0v203h310v1298q0 113 122 113q51 0 109 -25v-917q56 108 196 180t334 72q87 0 166.5 -17t157 -59t134 -107.5t91.5 -169.5t35 -237v-131h277v-203h-1932zM1010 707q-226 0 -364 -140.5t-138 -363.5h881v112q0 392 -379 392z" />
    <glyph glyph-name="uniFEC5" unicode="&#x638;" horiz-adv-x="1781" arabic-form="isolated" 
d="M1669 0h-1581v203h236v1298q0 113 122 113q51 0 109 -25v-917q56 108 196 180t334 72q87 0 166.5 -17t157 -59t134 -107.5t91.5 -169.5t35 -237v-334zM1055 707q-226 0 -364 -140.5t-138 -363.5h881v112q0 392 -379 392zM950 1167q0 51 38.5 89t92.5 38q53 0 90 -37.5
t37 -89.5t-37 -89.5t-90 -37.5q-54 0 -92.5 38t-38.5 89z" />
    <glyph glyph-name="uniFEC6" unicode="&#x638;" horiz-adv-x="1914" arabic-form="final" 
d="M88 0v203h236v1298q0 113 122 113q51 0 109 -25v-917q56 108 196 180t334 72q87 0 166.5 -17t157 -59t134 -107.5t91.5 -169.5t35 -237v-131h277v-203h-1858zM1055 707q-226 0 -364 -140.5t-138 -363.5h881v112q0 392 -379 392zM950 1167q0 51 38.5 89t92.5 38
q53 0 90 -37.5t37 -89.5t-37 -89.5t-90 -37.5q-54 0 -92.5 38t-38.5 89z" />
    <glyph glyph-name="uniFEC7" unicode="&#x638;" horiz-adv-x="1736" arabic-form="initial" 
d="M-31 0v203h310v1298q0 113 122 113q51 0 109 -25v-917q56 108 196 180t334 72q87 0 166.5 -17t157 -59t134 -107.5t91.5 -169.5t35 -237v-334h-1655zM1010 707q-226 0 -364 -140.5t-138 -363.5h881v112q0 392 -379 392zM905 1167q0 51 38.5 89t92.5 38q53 0 90 -37.5
t37 -89.5t-37 -89.5t-90 -37.5q-54 0 -92.5 38t-38.5 89z" />
    <glyph glyph-name="uniFEC8" unicode="&#x638;" horiz-adv-x="1869" arabic-form="medial" 
d="M-31 0v203h310v1298q0 113 122 113q51 0 109 -25v-917q56 108 196 180t334 72q87 0 166.5 -17t157 -59t134 -107.5t91.5 -169.5t35 -237v-131h277v-203h-1932zM1010 707q-226 0 -364 -140.5t-138 -363.5h881v112q0 392 -379 392zM905 1167q0 51 38.5 89t92.5 38
q53 0 90 -37.5t37 -89.5t-37 -89.5t-90 -37.5q-54 0 -92.5 38t-38.5 89z" />
    <glyph glyph-name="uniFEC9" unicode="&#x639;" horiz-adv-x="1259" arabic-form="isolated" 
d="M606 279q77 25 118 38t115 29t124 16t81 -32t31 -86q0 -48 -14 -80q-374 -40 -544.5 -161.5t-170.5 -315.5q0 -159 95.5 -244.5t277.5 -85.5q237 0 428 123l104 -178q-87 -60 -229.5 -108t-325.5 -48q-285 0 -443.5 144.5t-158.5 392.5q0 316 299 495
q-87 55 -135.5 142.5t-48.5 195.5q0 79 30.5 151.5t87 130t145 92t196.5 34.5q97 0 170 -16t112 -42.5t57.5 -54.5t18.5 -57q0 -35 -24.5 -68t-55.5 -53q-103 94 -260 94q-112 0 -178 -65.5t-66 -157.5q0 -69 48 -134.5t116 -90.5z" />
    <glyph glyph-name="uniFECA" unicode="&#x639;" horiz-adv-x="1363" arabic-form="final" 
d="M1395 0h-547q-45 0 -81.5 11.5t-58.5 25.5t-65 47q-155 -94 -228 -192.5t-73 -223.5q0 -142 101 -226.5t272 -84.5q140 0 254.5 39.5t185.5 85.5l105 -176q-32 -23 -80 -47t-121 -52t-171.5 -45.5t-201.5 -17.5q-267 0 -429.5 142t-162.5 366q0 169 94.5 300.5
t298.5 266.5l-307 260v185q9 13 40.5 40t90 65.5t127.5 72.5t162 58t184 24q181 0 287.5 -76t106.5 -213q0 -63 -24.5 -120t-73 -108t-106 -95t-138.5 -93q43 -16 92 -16h467v-203zM385 588l285 -256q67 43 106 70t83 64.5t64.5 73t20.5 72.5q0 61 -46 92t-128 31
q-169 0 -385 -147z" />
    <glyph glyph-name="uniFECB" unicode="&#x639;" horiz-adv-x="1220" arabic-form="initial" 
d="M709 924q170 0 258 -52.5t88 -115.5q0 -67 -76 -123q-101 92 -258 92q-122 0 -194 -71t-72 -189q0 -117 78.5 -189.5t191.5 -72.5h405v-203h-1161v203h344q-94 88 -94 276q0 132 66 234.5t177 156.5t247 54z" />
    <glyph glyph-name="uniFECC" unicode="&#x639;" horiz-adv-x="1232" arabic-form="medial" 
d="M709 924q170 0 258 -52.5t88 -115.5q0 -67 -76 -123q-101 92 -258 92q-122 0 -194 -71t-72 -189q0 -117 78.5 -189.5t191.5 -72.5h539v-203h-1295v203h344q-94 88 -94 276q0 132 66 234.5t177 156.5t247 54z" />
    <glyph glyph-name="uniFECD" unicode="&#x63a;" horiz-adv-x="1259" arabic-form="isolated" 
d="M606 279q77 25 118 38t115 29t124 16t81 -32t31 -86q0 -48 -14 -80q-374 -40 -544.5 -161.5t-170.5 -315.5q0 -159 95.5 -244.5t277.5 -85.5q237 0 428 123l104 -178q-87 -60 -229.5 -108t-325.5 -48q-285 0 -443.5 144.5t-158.5 392.5q0 316 299 495
q-87 55 -135.5 142.5t-48.5 195.5q0 79 30.5 151.5t87 130t145 92t196.5 34.5q97 0 170 -16t112 -42.5t57.5 -54.5t18.5 -57q0 -35 -24.5 -68t-55.5 -53q-103 94 -260 94q-112 0 -178 -65.5t-66 -157.5q0 -69 48 -134.5t116 -90.5zM530 1167q0 51 39 89t93 38
q53 0 89.5 -37.5t36.5 -89.5t-36.5 -89.5t-89.5 -37.5q-54 0 -93 38t-39 89z" />
    <glyph glyph-name="uniFECE" unicode="&#x63a;" horiz-adv-x="1363" arabic-form="final" 
d="M1395 0h-547q-45 0 -81.5 11.5t-58.5 25.5t-65 47q-155 -94 -228 -192.5t-73 -223.5q0 -142 101 -226.5t272 -84.5q140 0 254.5 39.5t185.5 85.5l105 -176q-32 -23 -80 -47t-121 -52t-171.5 -45.5t-201.5 -17.5q-267 0 -429.5 142t-162.5 366q0 169 94.5 300.5
t298.5 266.5l-307 260v185q9 13 40.5 40t90 65.5t127.5 72.5t162 58t184 24q181 0 287.5 -76t106.5 -213q0 -63 -24.5 -120t-73 -108t-106 -95t-138.5 -93q43 -16 92 -16h467v-203zM385 588l285 -256q67 43 106 70t83 64.5t64.5 73t20.5 72.5q0 61 -46 92t-128 31
q-169 0 -385 -147zM602 1167q0 51 38.5 89t92.5 38q53 0 90 -37.5t37 -89.5t-37 -89.5t-90 -37.5q-54 0 -92.5 38t-38.5 89z" />
    <glyph glyph-name="uniFECF" unicode="&#x63a;" horiz-adv-x="1220" arabic-form="initial" 
d="M709 924q170 0 258 -52.5t88 -115.5q0 -67 -76 -123q-101 92 -258 92q-122 0 -194 -71t-72 -189q0 -117 78.5 -189.5t191.5 -72.5h405v-203h-1161v203h344q-94 88 -94 276q0 132 66 234.5t177 156.5t247 54zM559 1167q0 51 38.5 89t92.5 38q53 0 90 -37.5t37 -89.5
t-37 -89.5t-90 -37.5q-54 0 -92.5 38t-38.5 89z" />
    <glyph glyph-name="uniFED0" unicode="&#x63a;" horiz-adv-x="1232" arabic-form="medial" 
d="M709 924q170 0 258 -52.5t88 -115.5q0 -67 -76 -123q-101 92 -258 92q-122 0 -194 -71t-72 -189q0 -117 78.5 -189.5t191.5 -72.5h539v-203h-1295v203h344q-94 88 -94 276q0 132 66 234.5t177 156.5t247 54zM559 1167q0 51 38.5 89t92.5 38q53 0 90 -37.5t37 -89.5
t-37 -89.5t-90 -37.5q-54 0 -92.5 38t-38.5 89z" />
    <glyph glyph-name="uniFED1" unicode="&#x641;" horiz-adv-x="2123" arabic-form="isolated" 
d="M2011 0h-1302q-280 0 -445.5 143t-165.5 369q0 110 33 163.5t127 53.5q46 0 94 -29q-20 -79 -20 -172q0 -156 109 -240.5t323 -84.5h381q-46 38 -74.5 115t-28.5 149q0 198 141 327.5t345 129.5q216 0 349.5 -133t133.5 -349v-442zM1780 203v209q0 139 -61 226t-189 87
q-115 0 -184.5 -74.5t-69.5 -185.5q0 -110 73 -186t179 -76h252zM1399 1167q0 51 38.5 89t92.5 38q53 0 90 -37.5t37 -89.5t-37 -89.5t-90 -37.5q-54 0 -92.5 38t-38.5 89z" />
    <glyph glyph-name="uniFED2" unicode="&#x641;" horiz-adv-x="2258" arabic-form="final" 
d="M2290 0h-1581q-280 0 -445.5 143t-165.5 369q0 110 33 163.5t127 53.5q46 0 94 -29q-20 -79 -20 -172q0 -156 109 -240.5t323 -84.5h381q-46 38 -74.5 115t-28.5 149q0 198 141 327.5t345 129.5q216 0 349.5 -133t133.5 -349v-239h279v-203zM1780 203v209q0 139 -61 226
t-189 87q-115 0 -184.5 -74.5t-69.5 -185.5q0 -110 73 -186t179 -76h252zM1399 1167q0 51 38.5 89t92.5 38q53 0 90 -37.5t37 -89.5t-37 -89.5t-90 -37.5q-54 0 -92.5 38t-38.5 89z" />
    <glyph glyph-name="uniFED3" unicode="&#x641;" horiz-adv-x="1304" arabic-form="initial" 
d="M1192 0h-1223v203h357q-46 38 -74.5 115t-28.5 149q0 198 140 327.5t344 129.5q219 0 352 -132.5t133 -349.5v-442zM961 203v209q0 141 -61 227t-189 86q-115 0 -184.5 -74.5t-69.5 -185.5q0 -110 73 -186t177 -76h254zM590 1167q0 51 38.5 89t92.5 38q53 0 90 -37.5
t37 -89.5t-37 -89.5t-90 -37.5q-54 0 -92.5 38t-38.5 89z" />
    <glyph glyph-name="uniFED4" unicode="&#x641;" horiz-adv-x="1425" arabic-form="medial" 
d="M-31 0v203h355q-46 46 -73.5 119.5t-27.5 144.5q0 126 61.5 230.5t174 165.5t252.5 61q214 0 351.5 -132t137.5 -325q0 -71 -27 -144.5t-73 -119.5h356v-203h-1487zM969 465q0 111 -73 185.5t-185 74.5q-110 0 -183 -74.5t-73 -185.5q0 -113 73 -189.5t183 -76.5
q112 0 185 76.5t73 189.5zM584 1167q0 51 38.5 89t92.5 38q53 0 90 -37.5t37 -89.5t-37 -89.5t-90 -37.5q-54 0 -92.5 38t-38.5 89z" />
    <glyph glyph-name="uniFED5" unicode="&#x642;" horiz-adv-x="1757" arabic-form="isolated" 
d="M1415 203v153q0 82 -11.5 144t-39.5 114.5t-81.5 80.5t-131.5 28q-113 0 -179.5 -75t-66.5 -193q0 -123 74 -187.5t205 -64.5h231zM1645 -471h-762q-194 0 -336 33t-244.5 105.5t-153.5 192t-51 287.5q0 136 21 210.5t54.5 98t90.5 23.5q35 0 67.5 -12t47.5 -25
q-26 -95 -35.5 -156t-9.5 -141q0 -215 135.5 -312t398.5 -97h547v264h-227q-80 0 -151.5 13.5t-140 47t-117.5 84t-79 131t-30 181.5q0 199 138.5 333t344.5 134q492 0 492 -549v-846zM1219 1167q0 54 35 90.5t89 36.5t92 -36.5t38 -90.5t-38 -90.5t-92 -36.5t-89 36.5
t-35 90.5zM860 1167q0 54 35.5 90.5t89.5 36.5t90.5 -36.5t36.5 -90.5t-36.5 -90.5t-90.5 -36.5t-89.5 36.5t-35.5 90.5z" />
    <glyph glyph-name="uniFED6" unicode="&#x642;" horiz-adv-x="1892" arabic-form="final" 
d="M1645 -471h-762q-194 0 -336 33t-244.5 105.5t-153.5 192t-51 287.5q0 136 21 210.5t54.5 98t90.5 23.5q35 0 67.5 -12t47.5 -25q-26 -95 -35.5 -156t-9.5 -141q0 -215 135.5 -312t398.5 -97h547v264h-227q-80 0 -151.5 13.5t-140 47t-117.5 84t-79 131t-30 181.5
q0 199 138.5 333t344.5 134q492 0 492 -549v-172h278v-203h-278v-471zM1415 203v153q0 82 -11.5 144t-39.5 114.5t-81.5 80.5t-131.5 28q-113 0 -179.5 -75t-66.5 -193q0 -123 74 -187.5t205 -64.5h231zM1219 1167q0 54 35 90.5t89 36.5t92 -36.5t38 -90.5t-38 -90.5
t-92 -36.5t-89 36.5t-35 90.5zM860 1167q0 54 35.5 90.5t89.5 36.5t90.5 -36.5t36.5 -90.5t-36.5 -90.5t-90.5 -36.5t-89.5 36.5t-35.5 90.5z" />
    <glyph glyph-name="uniFED7" unicode="&#x642;" horiz-adv-x="1310" arabic-form="initial" 
d="M1198 0h-1229v203h357q-46 38 -74.5 115t-28.5 149q0 131 66.5 236.5t178.5 163t245 57.5q219 0 352 -132.5t133 -349.5v-442zM967 203v209q0 67 -14 121.5t-43 98t-79 67.5t-118 24q-115 0 -185.5 -73t-70.5 -185q0 -110 73 -186t177 -76h260zM774 1167q0 54 35.5 90.5
t89.5 36.5t91.5 -36.5t37.5 -90.5t-37.5 -90.5t-91.5 -36.5t-89.5 36.5t-35.5 90.5zM416 1167q0 54 35.5 90.5t89.5 36.5t90.5 -36.5t36.5 -90.5t-36.5 -90.5t-90.5 -36.5t-89.5 36.5t-35.5 90.5z" />
    <glyph glyph-name="uniFED8" unicode="&#x642;" horiz-adv-x="1423" arabic-form="medial" 
d="M-31 0v203h355q-46 46 -73.5 119.5t-27.5 144.5q0 126 61.5 230.5t174 165.5t252.5 61q214 0 351.5 -132t137.5 -325q0 -71 -27 -144.5t-73 -119.5h356v-203h-1487zM969 465q0 111 -73 185.5t-185 74.5q-110 0 -183 -74.5t-73 -185.5q0 -113 73 -189.5t183 -76.5
q112 0 185 76.5t73 189.5zM766 1167q0 54 35.5 90.5t89.5 36.5t91.5 -36.5t37.5 -90.5t-37.5 -90.5t-91.5 -36.5t-89.5 36.5t-35.5 90.5zM408 1167q0 54 35 90.5t89 36.5t90.5 -36.5t36.5 -90.5t-36.5 -90.5t-90.5 -36.5t-89 36.5t-35 90.5z" />
    <glyph glyph-name="uniFED9" unicode="&#x643;" horiz-adv-x="1771" arabic-form="isolated" 
d="M354 705q-22 -99 -22 -175q0 -156 110 -241.5t324 -85.5h659v1296q0 56 31.5 84.5t89.5 28.5q53 0 111 -25v-1587h-946q-279 0 -446 144.5t-167 369.5q0 103 31.5 160t108.5 57q53 0 116 -26zM705 735v103h108q-43 34 -43 100q0 75 53 117.5t129 42.5q56 0 97 -17t41 -51
q0 -29 -31 -57q-45 26 -90 26q-38 0 -61 -18.5t-23 -50.5q0 -47 32 -69.5t80 -22.5h107v-103h-399z" />
    <glyph glyph-name="uniFEDA" unicode="&#x643;" horiz-adv-x="1935" arabic-form="final" 
d="M354 705q-22 -99 -22 -175q0 -156 110 -241.5t324 -85.5h659v1296q0 56 31.5 84.5t89.5 28.5q53 0 111 -25v-1384h309v-203h-1255q-279 0 -446 144.5t-167 369.5q0 103 31.5 160t108.5 57q53 0 116 -26zM702 735v103h109q-43 34 -43 100q0 75 53 117.5t129 42.5
q56 0 96.5 -17t40.5 -51q0 -30 -30 -57q-45 26 -90 26q-38 0 -61 -18.5t-23 -50.5q0 -47 32 -69.5t80 -22.5h107v-103h-400z" />
    <glyph glyph-name="uniFEDB" unicode="&#x643;" horiz-adv-x="1210" arabic-form="initial" 
d="M858 203v86q0 94 -25 168t-67 121.5t-100 79t-120 44.5t-132 13q-90 0 -161 -16.5t-106 -36.5q-57 45 -57 110q0 39 22 71.5t78 88.5l480 477q114 114 174 158t127 45q85 0 149 -80l-663 -627h53q126 0 233 -38.5t186 -111.5t124 -186.5t45 -255.5v-313h-1129v203h889z
" />
    <glyph glyph-name="uniFEDC" unicode="&#x643;" horiz-adv-x="1343" arabic-form="medial" 
d="M858 203v86q0 94 -25 168t-67 121.5t-100 79t-120 44.5t-132 13q-90 0 -161 -16.5t-106 -36.5q-57 45 -57 110q0 39 22 71.5t78 88.5l480 477q114 114 174 158t127 45q85 0 149 -80l-663 -627h53q126 0 233 -38.5t186 -111.5t124 -186.5t45 -255.5v-110h276v-203h-1405
v203h889z" />
    <glyph glyph-name="uniFEDD" unicode="&#x644;" horiz-adv-x="1380" arabic-form="isolated" 
d="M1032 180v1319q0 113 123 113q51 0 109 -25v-1417q0 -307 -144.5 -479t-439.5 -172q-275 0 -428.5 163.5t-153.5 444.5q0 85 8 147t22 99.5t35.5 59t45 29t55.5 7.5q50 0 117 -37q-45 -181 -45 -297q0 -199 91.5 -302t254.5 -103q167 0 258.5 109.5t91.5 340.5z" />
    <glyph glyph-name="uniFEDE" unicode="&#x644;" horiz-adv-x="1572" arabic-form="final" 
d="M1032 180v1319q0 113 123 113q51 0 109 -25v-1106q0 -71 7 -116.5t28 -85t63 -58t108 -18.5h134v-203h-115q-81 0 -136.5 18.5t-95.5 61.5q-26 -267 -168.5 -414t-404.5 -147q-278 0 -432 163t-154 445q0 86 8 148t22 99t36 58.5t45 29t55 7.5q58 0 117 -37
q-45 -198 -45 -297q0 -194 89 -299.5t259 -105.5q166 0 257 111.5t91 338.5z" />
    <glyph glyph-name="uniFEDF" unicode="&#x644;" horiz-adv-x="626" arabic-form="initial" 
d="M279 203v1296q0 113 120 113q53 0 111 -25v-1587h-541v203h310z" />
    <glyph glyph-name="uniFEE0" unicode="&#x644;" horiz-adv-x="849" arabic-form="medial" 
d="M426 139q-46 -84 -125.5 -111.5t-208.5 -27.5h-123v203h133q66 0 108 18.5t63 58t28.5 85.5t7.5 116v1018q0 56 31.5 84.5t89.5 28.5q53 0 111 -25v-1106q0 -70 7.5 -116t28.5 -85.5t63 -58t108 -18.5h133v-203h-123q-129 0 -209.5 30t-122.5 109z" />
    <glyph glyph-name="uniFEE1" unicode="&#x645;" horiz-adv-x="1361" arabic-form="isolated" 
d="M1249 0h-854q-71 0 -96 -33.5t-25 -105.5v-326h-231v393q0 141 66 208t198 67h70q-52 46 -80.5 118t-28.5 150q0 128 68 232.5t181.5 162.5t246.5 58q212 0 348.5 -130t136.5 -352v-442zM1018 203v209q0 155 -66 233t-186 78q-115 0 -186.5 -73t-71.5 -185
q0 -110 73 -186t179 -76h258z" />
    <glyph glyph-name="uniFEE2" unicode="&#x645;" horiz-adv-x="1495" arabic-form="final" 
d="M1526 0h-1131q-71 0 -96 -33.5t-25 -105.5v-326h-231v393q0 141 66 208t198 67h70q-52 46 -80.5 118t-28.5 150q0 128 68 232.5t181.5 162.5t246.5 58q212 0 348.5 -130t136.5 -352v-239h277v-203zM1018 203v209q0 155 -66 233t-186 78q-115 0 -186.5 -73t-71.5 -185
q0 -110 73 -186t179 -76h258z" />
    <glyph glyph-name="uniFEE3" unicode="&#x645;" horiz-adv-x="1302" arabic-form="initial" 
d="M252 465q0 200 133 329.5t336 129.5q207 0 336 -130t129 -345q0 -191 -126.5 -319t-332.5 -128q-130 0 -214 36.5t-148 111.5q-43 -72 -120 -111t-175 -39h-101v203h68q67 0 110 16t66 52t31 80.5t8 113.5zM725 203q113 0 171 72.5t58 173.5q0 58 -11.5 104.5t-37 86
t-72 61.5t-110.5 22q-114 0 -175 -72.5t-61 -187.5q0 -124 62.5 -192t175.5 -68z" />
    <glyph glyph-name="uniFEE4" unicode="&#x645;" horiz-adv-x="1443" arabic-form="medial" 
d="M723 723q-64 0 -110.5 -21.5t-72 -59.5t-37 -81.5t-11.5 -95.5q0 -72 23 -129.5t76.5 -95t131.5 -37.5t131.5 37.5t76.5 95t23 129.5q0 52 -11.5 95.5t-37 81.5t-72 59.5t-110.5 21.5zM723 924q209 0 334 -121t129 -338q0 -145 44.5 -203.5t170.5 -58.5h74v-203h-107
q-98 0 -176 41t-121 113q-149 -152 -348 -152q-202 0 -348 152q-43 -72 -121 -113t-176 -41h-109v203h76q126 0 170.5 58.5t44.5 203.5q4 217 129 338t334 121z" />
    <glyph glyph-name="uniFEE5" unicode="&#x646;" horiz-adv-x="1378" arabic-form="isolated" 
d="M1264 774v-541q0 -57 -4 -155q-18 -258 -170.5 -408.5t-417.5 -150.5q-273 0 -423.5 163.5t-150.5 444.5q0 187 40 264.5t126 77.5q56 0 115 -37q-47 -175 -47 -297q0 -193 89.5 -299t254.5 -106q184 0 269 131t85 413v412q0 113 123 113q67 0 111 -25zM559 1167
q0 51 38.5 89t92.5 38q53 0 90 -37.5t37 -89.5t-37 -89.5t-90 -37.5q-54 0 -92.5 38t-38.5 89z" />
    <glyph glyph-name="uniFEE6" unicode="&#x646;" horiz-adv-x="1572" arabic-form="final" 
d="M1030 195v606q0 59 30.5 85.5t92.5 26.5q69 0 111 -24v-414q0 -71 7.5 -116.5t28.5 -83t62 -55t106 -17.5h134v-203h-115q-81 0 -136.5 18.5t-95.5 61.5q-21 -258 -173.5 -409.5t-407.5 -151.5q-273 0 -424.5 163.5t-151.5 444.5q0 132 20.5 209t55.5 105t90 28
q56 0 115 -37q-47 -175 -47 -297q0 -192 88.5 -298.5t259.5 -106.5q163 0 256.5 114t93.5 351zM557 1167q0 51 38.5 89t92.5 38q53 0 90 -37.5t37 -89.5t-37 -89.5t-90 -37.5q-54 0 -92.5 38t-38.5 89z" />
    <glyph glyph-name="uniFEE7" unicode="&#x646;" horiz-adv-x="626" arabic-form="initial" 
d="M279 203v602q0 108 120 108q60 0 111 -22v-891h-541v203h310zM266 1167q0 51 38.5 89t92.5 38q53 0 90 -37.5t37 -89.5t-37 -89.5t-90 -37.5q-54 0 -92.5 38t-38.5 89z" />
    <glyph glyph-name="uniFEE8" unicode="&#x646;" horiz-adv-x="851" arabic-form="medial" 
d="M428 139q-18 -33 -42 -57t-55.5 -39t-59.5 -24t-70.5 -13t-72.5 -5t-79 -1h-80v203h103q77 0 124.5 15.5t72 52t32.5 82.5t8 122v330q0 108 121 108q60 0 111 -22v-416q0 -60 4 -98t18 -74.5t39.5 -56.5t69 -31.5t106.5 -11.5h105v-203h-203q-178 0 -252 139zM297 1167
q0 51 38.5 89t92.5 38q53 0 90 -37.5t37 -89.5t-37 -89.5t-90 -37.5q-54 0 -92.5 38t-38.5 89z" />
    <glyph glyph-name="uniFEE9" unicode="&#x647;" horiz-adv-x="1150" arabic-form="isolated" 
d="M322 422q0 -104 68.5 -161.5t162.5 -57.5q250 0 250 270v238h-111q-106 0 -181.5 -24t-115 -66.5t-56.5 -90.5t-17 -108zM719 913h315v-477q0 -193 -130 -314.5t-347 -121.5q-113 0 -204 34.5t-148 93.5t-87 134.5t-30 159.5q0 77 18 145t63 133t115 111t181 74t254 28z
" />
    <glyph glyph-name="uniFEEA" unicode="&#x647;" horiz-adv-x="1296" arabic-form="final" 
d="M719 913h315v-481q0 -122 45 -175.5t170 -53.5h78v-203h-110q-99 0 -175 37t-118 108q-132 -145 -367 -145q-112 0 -203.5 36t-148 95.5t-87 133.5t-30.5 153q0 78 18 146.5t63 134t115 111.5t181 74.5t254 28.5zM322 422q0 -104 68.5 -161.5t162.5 -57.5q250 0 250 270
v238h-88q-393 0 -393 -289z" />
    <glyph glyph-name="uniFEEB" unicode="&#x647;" horiz-adv-x="1818" arabic-form="initial" 
d="M279 449q0 188 133.5 317t332.5 129h31q6 37 50 64.5t105.5 41t113.5 19.5t92 6q86 0 164 -15t153.5 -53.5t130 -96.5t88 -152t33.5 -213v-496h-965q-202 0 -335 133q-56 -80 -137.5 -106.5t-196.5 -26.5h-103v203h103q118 0 162.5 56.5t44.5 189.5zM1477 203v291
q0 157 -92.5 238t-239.5 81q-82 0 -113 -8q178 -118 178 -361v-241h267zM979 203v227q0 135 -65.5 201.5t-172.5 66.5q-104 0 -168.5 -71.5t-64.5 -177.5q0 -102 66 -174t163 -72h242z" />
    <glyph glyph-name="uniFEEC" unicode="&#x647;" horiz-adv-x="1968" arabic-form="medial" 
d="M979 203v227q0 135 -65.5 201.5t-172.5 66.5q-104 0 -168.5 -71.5t-64.5 -177.5q0 -102 66 -174t163 -72h242zM1286 0h-545q-202 0 -335 133q-56 -80 -137.5 -106.5t-196.5 -26.5h-103v203h103q118 0 162.5 56.5t44.5 189.5q0 188 133.5 317t332.5 129h31q6 37 50 64.5
t105.5 41t113.5 19.5t92 6q86 0 164 -15t153.5 -53.5t130 -96.5t88 -152t33.5 -213v-47q0 -132 43 -189t158 -57h92v-203h-96q-113 0 -183.5 21t-130.5 96q-108 -117 -303 -117zM1477 428v66q0 157 -92.5 238t-239.5 81q-82 0 -113 -8q178 -118 178 -361v-241h60
q116 0 159 52.5t48 172.5z" />
    <glyph glyph-name="uniFEED" unicode="&#x648;" horiz-adv-x="1175" arabic-form="isolated" 
d="M831 -31v31h-223q-238 0 -379 117.5t-141 339.5q0 198 139 332.5t346 134.5q131 0 225.5 -39t152.5 -115t85 -180.5t27 -241.5v-266q0 -303 -122 -438.5t-357 -135.5q-83 0 -158 16.5t-119 41.5q22 78 62 180q80 -45 202 -45q113 0 184.5 62.5t75.5 205.5zM831 203v151
q0 192 -62.5 280.5t-197.5 88.5q-111 0 -179 -75.5t-68 -192.5q0 -123 74 -187.5t206 -64.5h227z" />
    <glyph glyph-name="uniFEEE" unicode="&#x648;" horiz-adv-x="1290" arabic-form="final" 
d="M831 -31v31h-223q-238 0 -379 117.5t-141 339.5q0 198 139 332.5t346 134.5q131 0 225.5 -39t152.5 -115t85 -180.5t27 -241.5v-145h258v-203h-262q-17 -257 -137.5 -374.5t-337.5 -117.5q-83 0 -158 16.5t-119 41.5q22 78 62 180q80 -45 202 -45q113 0 184.5 62.5
t75.5 205.5zM831 203v151q0 192 -62.5 280.5t-197.5 88.5q-111 0 -179 -75.5t-68 -192.5q0 -123 74 -187.5t206 -64.5h227z" />
    <glyph glyph-name="uniFEEF" unicode="&#x649;" horiz-adv-x="1757" arabic-form="isolated" 
d="M1018 -262v735q0 216 91.5 326t289.5 110q50 0 109.5 -15t110 -52t50.5 -86q0 -32 -17 -55.5t-53 -53.5q-60 66 -172 66q-82 0 -129 -50t-47 -155v-979h-557q-282 0 -439 160.5t-157 439.5q0 102 12.5 171t36.5 105t52.5 50t68.5 14q56 0 115 -37q-49 -180 -49 -297
q0 -190 94.5 -293.5t271.5 -103.5h318z" />
    <glyph glyph-name="uniFEF0" unicode="&#x649;" horiz-adv-x="2150" arabic-form="final" 
d="M1673 0v465q0 123 -53.5 186.5t-157.5 63.5t-157.5 -63.5t-53.5 -186.5v-936h-499q-654 0 -654 600q0 102 12.5 171t36.5 105t52.5 50t68.5 14q56 0 115 -37q-49 -180 -49 -297q0 -190 94.5 -293.5t271.5 -103.5h320v803q0 175 124 279t318 104q195 0 319 -103.5
t124 -279.5v-338h276v-203h-508z" />
    <glyph glyph-name="uniFEF1" unicode="&#x64a;" horiz-adv-x="1757" arabic-form="isolated" 
d="M1018 -262v735q0 216 91.5 326t289.5 110q50 0 109.5 -15t110 -52t50.5 -86q0 -32 -17 -55.5t-53 -53.5q-60 66 -172 66q-82 0 -129 -50t-47 -155v-979h-557q-282 0 -439 160.5t-157 439.5q0 102 12.5 171t36.5 105t52.5 50t68.5 14q56 0 115 -37q-49 -180 -49 -297
q0 -190 94.5 -293.5t271.5 -103.5h318zM459 -739q0 54 36.5 90.5t90.5 36.5t90.5 -36.5t36.5 -90.5t-36.5 -90.5t-90.5 -36.5t-90.5 36.5t-36.5 90.5zM817 -739q0 54 36.5 90.5t90.5 36.5t90.5 -36.5t36.5 -90.5t-36.5 -90.5t-90.5 -36.5t-90.5 36.5t-36.5 90.5z" />
    <glyph glyph-name="uniFEF2" unicode="&#x64a;" horiz-adv-x="2150" arabic-form="final" 
d="M1673 0v465q0 123 -53.5 186.5t-157.5 63.5t-157.5 -63.5t-53.5 -186.5v-936h-499q-654 0 -654 600q0 102 12.5 171t36.5 105t52.5 50t68.5 14q56 0 115 -37q-49 -180 -49 -297q0 -190 94.5 -293.5t271.5 -103.5h320v803q0 175 124 279t318 104q195 0 319 -103.5
t124 -279.5v-338h276v-203h-508zM465 -739q0 54 36.5 90.5t90.5 36.5t90.5 -36.5t36.5 -90.5t-36.5 -90.5t-90.5 -36.5t-90.5 36.5t-36.5 90.5zM823 -739q0 54 36.5 90.5t90.5 36.5t90.5 -36.5t36.5 -90.5t-36.5 -90.5t-90.5 -36.5t-90.5 36.5t-36.5 90.5z" />
    <glyph glyph-name="uniFEF3" unicode="&#x64a;" horiz-adv-x="626" arabic-form="initial" 
d="M279 203v602q0 108 120 108q60 0 111 -22v-891h-541v203h310zM14 -270q0 54 36.5 90.5t90.5 36.5t90.5 -36.5t36.5 -90.5t-36.5 -90.5t-90.5 -36.5t-90.5 36.5t-36.5 90.5zM373 -270q0 54 36.5 90.5t90.5 36.5t90.5 -36.5t36.5 -90.5t-36.5 -90.5t-90.5 -36.5t-90.5 36.5
t-36.5 90.5z" />
    <glyph glyph-name="uniFEF4" unicode="&#x64a;" horiz-adv-x="851" arabic-form="medial" 
d="M428 139q-18 -33 -42 -57t-55.5 -39t-59.5 -24t-70.5 -13t-72.5 -5t-79 -1h-80v203h103q77 0 124.5 15.5t72 52t32.5 82.5t8 122v330q0 108 121 108q60 0 111 -22v-416q0 -60 4 -98t18 -74.5t39.5 -56.5t69 -31.5t106.5 -11.5h105v-203h-203q-178 0 -252 139zM123 -270
q0 54 36.5 90.5t90.5 36.5t90.5 -36.5t36.5 -90.5t-36.5 -90.5t-90.5 -36.5t-90.5 36.5t-36.5 90.5zM481 -270q0 54 36.5 90.5t90.5 36.5t90.5 -36.5t36.5 -90.5t-36.5 -90.5t-90.5 -36.5t-90.5 36.5t-36.5 90.5z" />
    <glyph glyph-name=".notdef" horiz-adv-x="1024" 
d="M922 0h-820v1536h820v-1536zM205 102h614v1332h-614v-1332z" />
    <glyph glyph-name=".null" horiz-adv-x="0" 
 />
    <glyph glyph-name=".null" horiz-adv-x="0" 
 />
    <glyph glyph-name=".null" horiz-adv-x="0" 
 />
    <glyph glyph-name="nonmarkingreturn" horiz-adv-x="682" 
 />
    <glyph glyph-name="CR" unicode="&#x9;" horiz-adv-x="514" 
 />
    <glyph glyph-name="CR" unicode="&#xd;" horiz-adv-x="514" 
 />
    <glyph glyph-name="space" unicode=" " horiz-adv-x="514" 
 />
    <glyph glyph-name="exclam" unicode="!" horiz-adv-x="489" 
d="M127 451v845q0 54 33 81.5t90 27.5q52 0 110 -25v-929h-233zM246 274q63 0 109 -45t46 -108q0 -62 -46 -108t-109 -46t-110.5 46.5t-47.5 107.5q0 63 47.5 108t110.5 45z" />
    <glyph glyph-name="quotedbl" unicode="&#x22;" horiz-adv-x="1054" 
d="M180 938v463q0 53 33 80.5t90 27.5q61 0 113 -26v-545h-236zM641 938v463q0 53 32 80.5t89 27.5q60 0 112 -26v-545h-233z" />
    <glyph glyph-name="numbersign" unicode="#" horiz-adv-x="1558" 
d="M276 0l56 330h-139q-115 0 -115 100q0 59 28 98h261l63 375h-139q-115 0 -115 98q0 60 29 101h260l41 239q20 101 123 101q41 0 90 -21l-55 -319h364l41 239q20 101 121 101q43 0 92 -21l-55 -319h141q59 0 85 -25t26 -76q0 -54 -25 -98h-260l-66 -375h142q58 0 84 -24.5
t26 -73.5q0 -58 -24 -100h-260l-58 -330h-198l55 330h-365l-55 -330h-199zM565 528h365l63 375h-364z" />
    <glyph glyph-name="dollar" unicode="$" horiz-adv-x="1320" 
d="M59 150l103 182q31 -22 76 -45.5t139.5 -52t195.5 -35.5v407l-65 15q-420 86 -420 389q0 168 119.5 279t365.5 130v152q0 63 74 63q26 0 68 -14v-203q139 -11 232 -39.5t130 -54.5q70 -44 70 -109q0 -42 -24.5 -82.5t-55.5 -58.5q-37 43 -132 86.5t-220 54.5v-405l73 -14
q216 -42 320.5 -133.5t105.5 -253.5q0 -180 -126 -288t-373 -128v-217h-142v217q-124 7 -241 40.5t-175 62t-98 55.5zM573 836v381q-249 -20 -249 -191q0 -74 59.5 -118.5t189.5 -71.5zM715 582v-385q129 13 189.5 60t60.5 132q0 84 -60 126t-190 67z" />
    <glyph glyph-name="percent" unicode="%" horiz-adv-x="1992" 
d="M1522 766q172 0 291.5 -115t119.5 -282t-119.5 -282.5t-291.5 -115.5t-292 115.5t-120 282.5t120 282t292 115zM461 0l817 1430q16 27 26.5 40.5t35 26t59.5 12.5q41 0 72.5 -14t44.5 -27l-836 -1468h-219zM1735 369q0 91 -61.5 154t-151.5 63t-151.5 -63t-61.5 -154
t61.5 -154t151.5 -63t151.5 63t61.5 154zM59 1112q0 167 120 282t292 115t292 -115t120 -282t-120 -282t-292 -115t-292 115t-120 282zM471 895q90 0 151.5 63t61.5 154t-61.5 154t-151.5 63t-151.5 -63t-61.5 -154t61.5 -154t151.5 -63z" />
    <glyph glyph-name="ampersand" unicode="&#x26;" horiz-adv-x="1478" 
d="M1057 184v430h-406q-137 0 -207.5 -58.5t-70.5 -164.5q0 -112 95 -167.5t302 -55.5q226 0 287 16zM713 827h612q64 0 92.5 -26.5t28.5 -79.5t-27 -107h-127v-618q-152 -31 -506 -31q-657 0 -657 414q0 247 246 342q-104 47 -158.5 130t-54.5 189q0 186 137.5 294
t376.5 108q237 0 352 -68q66 -41 66 -98q0 -37 -21.5 -69.5t-46.5 -49.5q-36 34 -127 62t-205 28q-297 0 -297 -217q0 -107 79 -155t237 -48z" />
    <glyph glyph-name="quotesingle" unicode="'" horiz-adv-x="614" 
d="M190 938v463q0 53 32.5 80.5t90.5 27.5q65 0 111 -26v-545h-234z" />
    <glyph glyph-name="parenleft" unicode="(" horiz-adv-x="700" 
d="M664 -53v-217q-259 51 -412.5 284t-153.5 607q0 373 152 605.5t414 282.5v-217q-328 -126 -328 -671q0 -548 328 -674z" />
    <glyph glyph-name="parenright" unicode=")" horiz-adv-x="700" 
d="M37 -270v217q328 123 328 674q0 545 -328 671v217q260 -50 411.5 -283t151.5 -605t-152 -606.5t-411 -284.5z" />
    <glyph glyph-name="asterisk" unicode="*" horiz-adv-x="1099" 
d="M170 696l223 287l-325 96q0 178 100 178q25 0 65 -16l224 -94l-15 268q0 94 115 94q49 0 100 -22l-14 -338l225 92q40 16 66 16q49 0 75.5 -42t26.5 -107q0 -8 -1 -17.5t-1 -11.5l-327 -96l227 -287l-172 -116l-211 309l-211 -309z" />
    <glyph glyph-name="plus" unicode="+" horiz-adv-x="1296" 
d="M535 168v418h-314q-108 0 -108 116q0 52 22 103h400v323q0 109 120 109q65 0 109 -25v-407h311q109 0 109 -115q0 -50 -23 -104h-397v-418h-229z" />
    <glyph glyph-name="comma" unicode="," horiz-adv-x="614" 
d="M49 -260l133 440q18 56 46.5 81.5t80.5 25.5t92.5 -23t53.5 -41l-236 -549z" />
    <glyph glyph-name="hyphen" unicode="-" horiz-adv-x="673" 
d="M90 672h410q108 0 108 -119q0 -57 -22 -107h-412q-106 0 -106 119q0 57 22 107z" />
    <glyph glyph-name="period" unicode="." horiz-adv-x="614" 
d="M150 129q0 66 46 112t113 46q66 0 112 -46t46 -112t-46 -114t-112 -48t-112.5 48t-46.5 114z" />
    <glyph glyph-name="slash" unicode="/" horiz-adv-x="708" 
d="M0 -18l471 1431q19 52 42.5 74t74.5 22q41 0 73.5 -16.5t47.5 -34.5l-486 -1476h-223z" />
    <glyph glyph-name="zero" unicode="0" horiz-adv-x="1368" 
d="M94 702q0 345 156.5 542.5t433.5 197.5q276 0 432 -197.5t156 -542.5q0 -346 -155.5 -541.5t-432.5 -195.5q-278 0 -434 195.5t-156 541.5zM684 180q165 0 252.5 142t87.5 380q0 237 -87.5 380t-252.5 143q-112 0 -190 -68t-115 -184t-37 -271q0 -238 87.5 -380
t254.5 -142z" />
    <glyph glyph-name="one" unicode="1" horiz-adv-x="960" 
d="M465 0v1128l-326 -235q-23 11 -44 24.5t-41.5 41.5t-20.5 59q0 43 21.5 74t74.5 67l246 170q58 41 98 58.5t98 17.5q43 0 80.5 -13.5t50.5 -23.5v-1368h-237z" />
    <glyph glyph-name="two" unicode="2" horiz-adv-x="1144" 
d="M33 0v207q88 57 253 176t249 197q85 76 135.5 135.5t80 128t29.5 143.5q0 105 -75.5 176.5t-221.5 71.5q-59 0 -110.5 -15.5t-84.5 -36.5t-60.5 -50t-40 -49t-21.5 -40q-43 9 -85 44.5t-42 82.5q0 56 39 109q11 15 29 32.5t55.5 41.5t82.5 43t113.5 32t145.5 13
q250 0 388 -122t138 -314q0 -69 -15.5 -131.5t-45 -116t-58 -92t-69.5 -84.5q-61 -69 -207.5 -188t-228.5 -177h634v-217h-1007z" />
    <glyph glyph-name="three" unicode="3" horiz-adv-x="1206" 
d="M23 104l102 181q60 -41 166.5 -75t234.5 -34q151 0 231.5 58t80.5 165q0 104 -84 156.5t-236 52.5h-129q-31 54 -31 113q0 106 129 106h41q139 0 214 55.5t75 151.5q0 95 -73.5 150t-215.5 55q-61 0 -115.5 -14t-91 -34.5t-65 -45t-43.5 -45t-20 -35.5q-52 8 -89.5 43.5
t-37.5 81.5q0 60 45 110q20 20 48 39.5t79.5 45t130.5 41.5t172 16q132 0 235 -32.5t163.5 -87.5t91 -121t30.5 -140q0 -116 -67 -203t-165 -133q129 -42 192.5 -132.5t63.5 -205.5q0 -188 -145 -305t-385 -117q-184 0 -325.5 46t-206.5 93z" />
    <glyph glyph-name="four" unicode="4" horiz-adv-x="1275" 
d="M451 524h346v647q-97 -50 -207.5 -149.5t-191.5 -218t-81 -201.5q0 -47 33 -62.5t101 -15.5zM797 0v309h-394q-164 0 -246.5 54.5t-82.5 173.5q0 103 54.5 226t144 234t194.5 204t216 148.5t198 55.5q93 0 151 -35v-846h68q121 0 121 -104q0 -57 -31 -111h-158v-309h-235
z" />
    <glyph glyph-name="five" unicode="5" horiz-adv-x="1167" 
d="M29 82l92 182q166 -90 373 -90q169 0 252 66.5t83 177.5q0 115 -87.5 183.5t-284.5 68.5q-85 0 -180.5 -13.5t-157.5 -31.5l20 641q3 139 150 139h604q121 0 121 -105q0 -56 -31 -110h-629l-10 -334q100 14 211 14q112 0 202 -25t148.5 -66.5t97.5 -99t55.5 -119.5
t16.5 -132q0 -209 -147.5 -336t-415.5 -127q-173 0 -302 40.5t-181 76.5z" />
    <glyph glyph-name="six" unicode="6" horiz-adv-x="1259" 
d="M313 995l289 377q27 35 57.5 52.5t77.5 17.5q53 0 93.5 -21.5t52.5 -38.5l-361 -477q79 41 183 41q143 0 253 -64.5t166 -169.5t56 -231q0 -225 -157 -370.5t-392 -145.5q-237 0 -391 140.5t-154 359.5q0 132 57.5 258t169.5 272zM629 168q140 0 225.5 83.5t85.5 217.5
q0 138 -87 220.5t-224 82.5q-135 0 -223.5 -85.5t-88.5 -217.5q0 -131 88 -216t224 -85z" />
    <glyph glyph-name="seven" unicode="7" horiz-adv-x="1073" 
d="M514 0h-248q27 65 257 576.5t268 605.5h-660q-123 0 -123 108q0 34 10.5 67.5t20.5 47.5h866q71 0 108.5 -32t37.5 -89q0 -60 -43 -168q-44 -112 -250 -569t-244 -547z" />
    <glyph glyph-name="eight" unicode="8" horiz-adv-x="1382" 
d="M360 715q-208 108 -208 323q0 181 146 292.5t394 111.5q246 0 392.5 -112t146.5 -292q0 -214 -209 -323q86 -36 142 -92.5t78 -116t22 -125.5q0 -191 -152 -303.5t-420 -112.5t-420.5 112.5t-152.5 303.5q0 103 57.5 192t183.5 142zM692 809q147 0 224 60.5t77 158.5
q0 101 -77 162t-224 61q-149 0 -226 -61t-77 -162q0 -98 77.5 -158.5t225.5 -60.5zM692 166q158 0 243 59.5t85 165.5q0 104 -85.5 164.5t-242.5 60.5q-158 0 -244 -60.5t-86 -164.5q0 -105 86 -165t244 -60z" />
    <glyph glyph-name="nine" unicode="9" horiz-adv-x="1263" 
d="M346 -16l385 510q-66 -39 -156 -39q-157 0 -272.5 65.5t-172 170.5t-56.5 233q0 227 155.5 372.5t397.5 145.5q239 0 391.5 -140.5t152.5 -361.5q0 -134 -55.5 -253.5t-157.5 -256.5l-337 -446h-275zM311 934q0 -139 88 -222t228 -83q139 0 228 85.5t89 219.5
q0 133 -89 219t-228 86q-142 0 -229 -85.5t-87 -219.5z" />
    <glyph glyph-name="colon" unicode=":" horiz-adv-x="614" 
d="M150 870q0 66 46 112t113 46q66 0 112 -46t46 -112t-46 -113.5t-112 -47.5t-112.5 47.5t-46.5 113.5zM150 129q0 66 46 112t113 46q66 0 112 -46t46 -112t-46 -114t-112 -48t-112.5 48t-46.5 114z" />
    <glyph glyph-name="semicolon" unicode=";" horiz-adv-x="614" 
d="M49 -260l133 440q18 56 46.5 81.5t82.5 25.5q88 0 144 -64l-236 -549zM150 870q0 66 46 112t113 46q66 0 112 -46t46 -112t-46 -113.5t-112 -47.5t-112.5 47.5t-46.5 113.5z" />
    <glyph glyph-name="less" unicode="&#x3c;" horiz-adv-x="1300" 
d="M199 823l950 391v-241l-713 -271l713 -270v-239l-901 368q-101 41 -101 141q0 73 52 121z" />
    <glyph glyph-name="equal" unicode="=" horiz-adv-x="1296" 
d="M135 1063h940q109 0 109 -115q0 -50 -23 -104h-940q-58 0 -83 29t-25 85q0 54 22 105zM135 553h940q109 0 109 -115q0 -50 -23 -104h-940q-108 0 -108 117q0 51 22 102z" />
    <glyph glyph-name="greater" unicode="&#x3e;" horiz-adv-x="1300" 
d="M150 193v241l714 268l-714 271v241l901 -370q100 -42 100 -142q0 -73 -51 -120z" />
    <glyph glyph-name="question" unicode="?" horiz-adv-x="1105" 
d="M598 424h-233q0 129 36 198t138 128q128 73 181.5 132t53.5 146q0 95 -69 155t-209 60q-124 0 -207.5 -55t-120.5 -123q-56 13 -86.5 48t-30.5 81q0 42 29 85t83 80t145 60t202 23q131 0 231 -33t158.5 -90t87.5 -126.5t29 -148.5q0 -77 -20 -140t-59.5 -111t-79 -81
t-97.5 -69q-95 -60 -128.5 -102.5t-33.5 -116.5zM324 121q0 62 46 107.5t111 45.5q63 0 109.5 -45.5t46.5 -107.5q0 -63 -46.5 -107.5t-109.5 -44.5q-66 0 -111.5 44.5t-45.5 107.5z" />
    <glyph glyph-name="at" unicode="@" horiz-adv-x="2041" 
d="M1448 -158l74 -182q-34 -14 -85.5 -29t-161 -31t-228.5 -16q-210 0 -389.5 69t-304 191t-195 293t-70.5 369q0 200 69 373.5t191.5 297t299 194.5t382.5 71q220 0 396 -70.5t289.5 -195.5t174 -291.5t60.5 -362.5q0 -135 -29.5 -272.5t-60.5 -204.5q-333 -22 -732 -22
q-105 0 -183 7.5t-147.5 27.5t-113.5 54t-69 88.5t-25 129.5q0 305 426 305q82 0 205 -19q0 111 -66 162t-201 51q-140 0 -243 -57q-45 45 -45 98q0 134 309 134q220 0 334 -93t114 -276v-442q32 0 133 5t138 9q39 131 39 315q0 151 -50 283t-140 229.5t-224 154t-293 56.5
q-152 0 -285 -55.5t-228 -153t-149.5 -235t-54.5 -295.5q0 -211 94 -375.5t267.5 -256t398.5 -91.5q218 0 379 59zM1217 193v276q-83 16 -183 16q-132 0 -184.5 -35.5t-52.5 -115.5q0 -78 62.5 -112t203.5 -34q57 0 154 5z" />
    <glyph glyph-name="A" unicode="A" horiz-adv-x="1501" 
d="M256 0h-246q205 548 541 1296q36 80 83 113t120 33q32 0 67.5 -10.5t54 -20t23.5 -14.5q86 -151 302.5 -673.5t289.5 -723.5h-270q-15 37 -69 180t-71 187h-686q-58 -147 -139 -367zM481 582h518q-56 149 -137 343t-119 269q-141 -298 -262 -612z" />
    <glyph glyph-name="B" unicode="B" horiz-adv-x="1415" 
d="M150 0v1272q0 114 108 133q110 20 395 20q145 0 255.5 -21.5t178.5 -57t110.5 -88t58.5 -106.5t16 -120q0 -118 -53.5 -194t-128.5 -111q108 -36 170.5 -122.5t62.5 -211.5q0 -74 -16 -132t-60 -112.5t-116.5 -90t-192 -57t-279.5 -21.5q-116 0 -235 5t-193 10t-81 5z
M387 821h381q135 0 196.5 53t61.5 142q0 203 -350 203q-218 0 -289 -17v-381zM387 610v-405q71 -17 299 -17q211 0 299 53t88 165q0 204 -272 204h-414z" />
    <glyph glyph-name="C" unicode="C" horiz-adv-x="1359" 
d="M1327 94h2q-180 -131 -491 -131q-152 0 -286.5 48.5t-238.5 139t-164.5 231.5t-60.5 314q0 172 58.5 314.5t159.5 236t236 144.5t289 51q111 0 200 -16.5t141.5 -41.5t87 -56t47 -57.5t12.5 -49.5q0 -47 -33.5 -90.5t-64.5 -59.5q-53 56 -155 104t-230 48
q-214 0 -353 -143t-139 -384q0 -122 40 -220t110 -161t163.5 -96t202.5 -33q116 0 211 29.5t148 65.5z" />
    <glyph glyph-name="D" unicode="D" horiz-adv-x="1527" 
d="M393 1198v-985q37 -14 215 -14q277 0 425.5 132t148.5 374q0 113 -34 204t-102.5 159t-180 105t-257.5 37q-155 0 -215 -12zM150 0v1272q0 36 8 60.5t31.5 42t52.5 27t86.5 15t117 7t158.5 1.5q388 0 611 -193t223 -527q0 -341 -220.5 -533t-629.5 -192q-298 0 -438 20z
" />
    <glyph glyph-name="E" unicode="E" horiz-adv-x="1306" 
d="M150 0v1266q0 139 149 139h786q123 0 123 -111q0 -60 -30 -112h-781v-353h660q121 0 121 -110q0 -34 -10.5 -66.5t-20.5 -46.5h-750v-383h799v-223h-1046z" />
    <glyph glyph-name="F" unicode="F" horiz-adv-x="1196" 
d="M150 0v1266q0 139 149 139h727q123 0 123 -111q0 -58 -31 -112h-721v-373h570q123 0 123 -111q0 -58 -31 -112h-662v-586h-247z" />
    <glyph glyph-name="G" unicode="G" horiz-adv-x="1472" 
d="M1112 195v370h-240q-120 0 -120 107q0 70 30 112h424q146 0 146 -139v-647q-44 -10 -177.5 -22.5t-273.5 -12.5q-240 0 -421.5 82t-286.5 250t-105 405q0 169 59.5 309t163.5 234.5t247 146.5t308 52q149 0 255 -31t159 -68q72 -48 72 -108q0 -46 -32.5 -87t-66.5 -63
q-54 54 -155.5 96t-235.5 42q-230 0 -374 -141.5t-144 -381.5q0 -132 41 -232t117 -162t178.5 -93t230.5 -31q162 0 201 13z" />
    <glyph glyph-name="H" unicode="H" horiz-adv-x="1507" 
d="M150 0v1292q0 56 34 84.5t95 28.5q56 0 114 -25v-538h721v450q0 56 33 84.5t94 28.5q70 0 117 -27v-1378h-244v618h-721v-618h-243z" />
    <glyph glyph-name="I" unicode="I" horiz-adv-x="542" 
d="M150 0v1292q0 56 34 84.5t95 28.5q56 0 114 -25v-1380h-243z" />
    <glyph glyph-name="J" unicode="J" horiz-adv-x="1202" 
d="M23 215l163 141q17 -25 40.5 -50t65 -58t102.5 -53.5t130 -20.5q299 0 299 320v798q0 56 33 84.5t94 28.5q70 0 117 -27v-901q0 -240 -135 -377t-397 -137q-91 0 -174.5 22.5t-139.5 54t-101.5 68.5t-67 64t-29.5 43z" />
    <glyph glyph-name="K" unicode="K" horiz-adv-x="1359" 
d="M150 0v1292q0 56 34 84.5t95 28.5q56 0 114 -25v-571q105 101 290.5 270t260.5 232q44 36 65 51t56.5 29t73.5 14q58 0 100 -23.5t59 -48.5q-29 -29 -272 -246t-385 -342q442 -390 709 -745h-301q-123 146 -308 331t-348 314v-645h-243z" />
    <glyph glyph-name="L" unicode="L" horiz-adv-x="1126" 
d="M150 0v1292q0 56 34 84.5t95 28.5q56 0 114 -25v-1157h723v-223h-966z" />
    <glyph glyph-name="M" unicode="M" horiz-adv-x="1835" 
d="M381 0h-242q6 160 33 635.5t39 634.5q4 69 46.5 102t104.5 33q57 0 99 -16t63 -37l103.5 -207l165.5 -331t129 -255q250 500 360 725q30 62 73 91.5t109 29.5q54 0 96 -13.5t56 -27.5q8 -116 39 -682t39 -682h-240q-4 60 -29.5 520.5t-29.5 526.5q-14 -28 -174 -356.5
t-205 -416.5h-201q-54 119 -176.5 368.5t-202.5 399.5q-4 -98 -27.5 -521t-27.5 -521z" />
    <glyph glyph-name="N" unicode="N" horiz-adv-x="1505" 
d="M150 0v1274q0 68 41 99.5t106 31.5q85 0 145 -47q63 -75 299 -415.5t373 -553.5v903q0 113 125 113q68 0 115 -27v-1378h-246q-130 201 -350 527.5t-367 529.5v-1057h-241z" />
    <glyph glyph-name="O" unicode="O" horiz-adv-x="1677" 
d="M838 1442q157 0 295.5 -57t238 -155t157.5 -235.5t58 -292.5t-58 -292.5t-157.5 -235t-238 -154.5t-295.5 -57q-209 0 -381 96.5t-270.5 266t-98.5 376.5q0 155 58 292.5t157.5 235.5t238.5 155t296 57zM838 186q213 0 353 146t140 370q0 226 -140 371.5t-353 145.5
q-215 0 -354.5 -145.5t-139.5 -371.5q0 -224 140 -370t354 -146z" />
    <glyph glyph-name="P" unicode="P" horiz-adv-x="1355" 
d="M387 1206v-499q1 0 27 -4t53 -7.5t74 -6.5t94 -3q389 0 389 266q0 44 -10 80.5t-37 72t-71 60t-116.5 39.5t-168.5 15q-184 0 -234 -13zM150 0v1272q0 61 29.5 91t82.5 42q108 20 365 20q319 0 483 -126t164 -347q0 -104 -34.5 -188t-106.5 -149t-194.5 -100.5
t-287.5 -35.5q-51 0 -112.5 5.5t-104 10.5t-47.5 5v-500h-237z" />
    <glyph glyph-name="Q" unicode="Q" horiz-adv-x="1677" 
d="M1356 -213l-195 250q-134 -70 -323 -70q-209 0 -381 96t-270.5 264.5t-98.5 374.5q0 155 58 292.5t157.5 235.5t238.5 155t296 57t295.5 -57t238 -155t157.5 -235.5t58 -292.5q0 -163 -63.5 -303t-175.5 -239l188 -236zM1018 221l-113 139q-55 69 -55 111q0 38 27 65
t61 38t76 14l186 -244q61 61 96 154.5t35 203.5q0 226 -140 371.5t-353 145.5q-215 0 -354.5 -145.5t-139.5 -371.5q0 -225 140 -371.5t354 -146.5q102 0 180 37z" />
    <glyph glyph-name="R" unicode="R" horiz-adv-x="1376" 
d="M150 0v1272q0 61 29.5 91t82.5 42q102 20 359 20q315 0 478 -120.5t163 -335.5q0 -278 -265 -394q120 -165 332 -575h-282q-40 85 -140 266.5t-151 251.5q-63 -8 -144 -8q-143 0 -225 14v-524h-237zM387 1206v-473q93 -16 234 -16q210 0 300.5 65.5t90.5 184.5
q0 252 -398 252q-177 0 -227 -13z" />
    <glyph glyph-name="S" unicode="S" horiz-adv-x="1411" 
d="M88 131l107 191q67 -48 204 -96t312 -48q174 0 252.5 50.5t78.5 150.5q0 89 -64 133t-196 66l-225 40q-92 16 -167 44t-139 74.5t-100 118t-36 163.5q0 89 33 164t99.5 134t177.5 92.5t257 33.5q309 0 475 -107q74 -53 74 -110q0 -43 -26 -83t-56 -61q-46 52 -171.5 101
t-291.5 49q-90 0 -154 -13.5t-100.5 -40.5t-53 -62t-16.5 -81q0 -78 60.5 -122t202.5 -70l229 -43q229 -42 339 -136.5t110 -267.5q0 -199 -155.5 -315.5t-440.5 -116.5q-115 0 -223.5 19t-187 49t-127.5 54t-81 46z" />
    <glyph glyph-name="T" unicode="T" horiz-adv-x="1341" 
d="M541 0v1182h-410q-121 0 -121 110q0 59 31 113h1169q121 0 121 -111q0 -34 -10.5 -66t-20.5 -46h-516v-1182h-243z" />
    <glyph glyph-name="U" unicode="U" horiz-adv-x="1548" 
d="M135 631v661q0 56 33 84.5t94 28.5q70 0 117 -27v-727q0 -240 90 -353.5t305 -113.5t305 113.5t90 353.5v641q0 56 33 84.5t94 28.5q70 0 117 -27v-747q0 -327 -161 -497.5t-478 -170.5t-478 170.5t-161 497.5z" />
    <glyph glyph-name="V" unicode="V" horiz-adv-x="1417" 
d="M827 0h-270q-133 265 -282 608.5t-212 503.5q-53 123 -53 186q0 51 30 79t89 28q69 0 117 -29q71 -208 200.5 -530.5t249.5 -591.5q42 92 103 238t103 252.5t115 293t93 236.5q30 75 63.5 103t98.5 28q17 0 34 -3t29.5 -7t26 -10t20.5 -10t15.5 -9t9.5 -6
q-66 -173 -260.5 -633.5t-319.5 -726.5z" />
    <glyph glyph-name="W" unicode="W" horiz-adv-x="2054" 
d="M733 0h-272q-82 199 -218 573t-169 486q-6 18 -18 54.5t-17 54t-12 43t-10 43.5t-3 34q0 55 32 86t93 31q67 0 115 -29q43 -170 151.5 -509.5t194.5 -571.5q164 550 274 983q19 63 52.5 95t97.5 32q77 0 131 -31q135 -579 283 -1077q156 452 307 975q21 71 56 102t100 31
q34 0 67 -9t48.5 -17.5t23.5 -14.5q-69 -254 -201.5 -629.5t-273.5 -734.5h-275q-38 109 -128 430t-144 545q-55 -224 -148 -540t-137 -435z" />
    <glyph glyph-name="X" unicode="X" horiz-adv-x="1421" 
d="M301 0h-276q63 91 520 690q-43 51 -97.5 115.5t-87 103.5t-73.5 87.5t-64.5 78t-50.5 64t-41 56t-27.5 43.5t-18.5 37.5t-5 27.5q0 44 30.5 73t82.5 29t98 -23q17 -21 157.5 -198t243.5 -303q64 83 131 173t99 134t70 91.5t56 65.5t43 35.5t45 21t50 3.5q85 0 149 -64
q-295 -366 -499 -632q449 -552 561 -709h-297q-240 309 -412 520q-237 -299 -387 -520z" />
    <glyph glyph-name="Y" unicode="Y" horiz-adv-x="1363" 
d="M549 0v528q-87 101 -215.5 273.5t-216.5 298.5q-36 50 -52 73.5t-35.5 63.5t-19.5 66q0 47 31 74.5t82 27.5q44 0 102 -25q73 -112 216 -314t237 -321q112 149 383 566q29 44 64 69t92 25q48 0 85 -18t52 -33q-52 -105 -231.5 -366t-329.5 -460v-528h-244z" />
    <glyph glyph-name="Z" unicode="Z" horiz-adv-x="1310" 
d="M27 0v227q542 534 925 955h-764q-122 0 -122 110q0 34 11 66.5t21 46.5h998q166 0 166 -133q0 -55 -34.5 -108.5t-111.5 -139.5q-351 -384 -768 -801h907v-223h-1228z" />
    <glyph glyph-name="bracketleft" unicode="[" horiz-adv-x="718" 
d="M150 -264v1640q0 131 137 131h383q24 -53 24 -116q0 -48 -22 -73.5t-88 -25.5h-211v-1341h307v-215h-530z" />
    <glyph glyph-name="backslash" unicode="\" horiz-adv-x="702" 
d="M481 -18l-481 1476q14 18 45.5 34.5t75.5 16.5q48 0 73 -23.5t44 -72.5l467 -1431h-224z" />
    <glyph glyph-name="bracketright" unicode="]" horiz-adv-x="718" 
d="M567 -264h-530v215h307v1341h-211q-66 0 -88 25.5t-22 73.5q0 63 24 116h383q137 0 137 -131v-1640z" />
    <glyph glyph-name="asciicircum" unicode="^" horiz-adv-x="1015" 
d="M47 690l299 594q35 69 74 96t90 27q64 0 117 -41l340 -676h-228l-235 484l-240 -484h-217z" />
    <glyph glyph-name="underscore" unicode="_" horiz-adv-x="1024" 
d="M0 -264v121h1024v-121h-1024z" />
    <glyph glyph-name="grave" unicode="`" horiz-adv-x="1024" 
d="M664 1159l-379 191q0 32 31.5 77.5t89.5 45.5q46 0 110 -46l223 -161z" />
    <glyph glyph-name="a" unicode="a" horiz-adv-x="1165" 
d="M1044 621v-617q-59 -11 -186 -22t-268 -11q-124 0 -217.5 18.5t-150.5 48.5t-92.5 74t-48.5 90t-13 101q0 173 113.5 256.5t377.5 83.5q142 0 252 -14q0 70 -22.5 118t-66 74t-97 36.5t-127.5 10.5q-104 0 -176.5 -22.5t-104.5 -48.5q-55 48 -55 108q0 152 340 152
q98 0 179 -14.5t149.5 -47t115 -83t72.5 -124t26 -167.5zM813 160v299q-90 20 -246 20q-139 0 -202.5 -41.5t-63.5 -132.5q0 -81 64.5 -122.5t224.5 -41.5q144 0 223 19z" />
    <glyph glyph-name="b" unicode="b" horiz-adv-x="1280" 
d="M94 563v838q0 108 125 108q58 0 109 -22v-588q54 70 145 114t203 44q225 0 374.5 -153.5t149.5 -389.5q0 -235 -156 -389t-397 -154q-122 0 -222.5 37t-174.5 109.5t-115 186t-41 259.5zM643 182q139 0 227 94.5t88 237.5q0 144 -88 239t-227 95t-228 -95.5t-89 -238.5
q0 -147 88.5 -239.5t228.5 -92.5z" />
    <glyph glyph-name="c" unicode="c" horiz-adv-x="1026" 
d="M913 248l99 -174q-158 -103 -379 -103q-115 0 -215 35.5t-176 102t-120 170t-44 231.5q0 171 74.5 296.5t201 188t287.5 62.5q186 0 277.5 -52.5t91.5 -121.5q0 -68 -80 -129q-43 41 -114 69.5t-165 28.5q-146 0 -237.5 -86t-91.5 -250q0 -87 26.5 -153t74 -105.5
t108.5 -59.5t133 -20q62 0 121 16t77.5 26t50.5 28z" />
    <glyph glyph-name="d" unicode="d" horiz-adv-x="1280" 
d="M952 899v502q0 108 123 108q58 0 109 -22v-924q0 -145 -41.5 -259t-116 -186.5t-174.5 -109.5t-219 -37q-239 0 -397 154t-158 389q0 236 149.5 389.5t374.5 153.5q113 0 204.5 -44t145.5 -114zM952 514q0 143 -88.5 238.5t-226.5 95.5q-139 0 -227 -95t-88 -239
q0 -143 88 -237.5t227 -94.5q140 0 227.5 92t87.5 240z" />
    <glyph glyph-name="e" unicode="e" horiz-adv-x="1128" 
d="M948 240l86 -164q-32 -21 -76.5 -41t-138 -42t-194.5 -22q-154 0 -277 61t-197.5 184t-74.5 290q0 244 158 397.5t399 153.5q206 0 323 -97.5t117 -242.5q0 -59 -16.5 -105.5t-58 -88t-108 -68.5t-170 -42.5t-241.5 -15.5q-43 0 -153 4q18 -108 104.5 -170.5t239.5 -62.5
q138 0 278 72zM315 561q63 -2 177 -2q109 0 182.5 13.5t109 38t49 50.5t13.5 60q0 75 -60.5 115.5t-156.5 40.5q-143 0 -226 -93.5t-88 -222.5z" />
    <glyph glyph-name="f" unicode="f" horiz-adv-x="768" 
d="M125 0v1092q0 213 112.5 315t307.5 102q307 0 307 -141q0 -33 -17.5 -60t-43.5 -42q-33 26 -90 42.5t-119 16.5q-118 0 -171 -59.5t-53 -175.5v-62h308q66 0 94 -26t28 -82q0 -55 -26 -107h-404v-813h-233z" />
    <glyph glyph-name="g" unicode="g" horiz-adv-x="1280" 
d="M184 -350l64 174q23 -11 56.5 -23t111.5 -27.5t157 -15.5q379 0 379 367v25q-55 -64 -145.5 -109t-204.5 -45q-230 0 -377 145t-147 377q0 233 158 386t403 153q119 0 217 -35.5t172 -105.5t115 -183t41 -260v-295q0 -159 -43.5 -277.5t-123.5 -190t-184.5 -106
t-234.5 -34.5q-242 0 -414 80zM637 193q137 0 225 91.5t88 233.5t-88 235t-225 93q-140 0 -227.5 -95t-87.5 -233q0 -148 86 -236.5t229 -88.5z" />
    <glyph glyph-name="h" unicode="h" horiz-adv-x="1234" 
d="M119 0v1401q0 108 125 108q57 0 108 -22v-563q48 58 132 96.5t204 38.5q196 0 312 -108t116 -310v-641h-233v571q0 139 -58.5 207t-191.5 68q-137 0 -209 -79t-72 -216v-551h-233z" />
    <glyph glyph-name="i" unicode="i" horiz-adv-x="493" 
d="M129 0v920q0 108 125 108q57 0 108 -22v-1006h-233zM246 1489q60 0 100.5 -40.5t40.5 -100.5t-40.5 -101t-100.5 -41t-101 41t-41 101t41 100.5t101 40.5z" />
    <glyph glyph-name="j" unicode="j" horiz-adv-x="493" 
d="M-266 -379l61 168q64 -31 150 -31q39 0 69 7.5t57.5 27t42.5 58t15 94.5v975q0 108 125 108q57 0 108 -22v-1043q0 -89 -21 -158t-56 -112.5t-84.5 -71.5t-103 -39.5t-115.5 -11.5q-72 0 -143 17t-105 34zM246 1489q60 0 100.5 -40.5t40.5 -100.5t-40.5 -101t-100.5 -41
t-101 41t-41 101t41 100.5t101 40.5z" />
    <glyph glyph-name="k" unicode="k" horiz-adv-x="1140" 
d="M119 0v1401q0 108 125 108q57 0 108 -22v-838q34 23 189.5 139t236.5 173q50 37 86.5 52t91.5 15q50 0 90 -27t54 -53q-51 -46 -154 -122.5t-231 -166.5t-133 -94q164 -122 308.5 -271t250.5 -294h-291q-90 111 -227 237t-271 226v-463h-233z" />
    <glyph glyph-name="l" unicode="l" horiz-adv-x="493" 
d="M129 0v1401q0 108 125 108q57 0 108 -22v-1487h-233z" />
    <glyph glyph-name="m" unicode="m" horiz-adv-x="1902" 
d="M119 0v662q0 126 60 217t160.5 134.5t229.5 43.5q128 0 227.5 -47.5t159.5 -139.5q60 92 158 139.5t223 47.5q198 0 322.5 -102t124.5 -291v-664h-234v584q0 262 -235 262q-111 0 -178.5 -71t-67.5 -216v-559h-233v559q0 145 -67.5 216t-178.5 71t-174.5 -64.5
t-63.5 -199.5v-582h-233z" />
    <glyph glyph-name="n" unicode="n" horiz-adv-x="1236" 
d="M119 0v621q0 200 139.5 318t359.5 118q222 0 361 -117.5t139 -318.5v-621h-233v561q0 139 -68 212t-199 73q-266 0 -266 -285v-561h-233z" />
    <glyph glyph-name="o" unicode="o" horiz-adv-x="1282" 
d="M641 1057q157 0 286 -70.5t203 -195t74 -277.5q0 -113 -43.5 -213.5t-118 -173t-179 -114.5t-222.5 -42t-222.5 42t-179 114.5t-118 173t-43.5 213.5q0 153 74 277.5t203 195t286 70.5zM641 178q139 0 229.5 96.5t90.5 239.5q0 146 -90 242t-230 96t-229.5 -96
t-89.5 -242q0 -143 90 -239.5t229 -96.5z" />
    <glyph glyph-name="p" unicode="p" horiz-adv-x="1280" 
d="M94 -410v877q0 281 153.5 435.5t411.5 154.5q232 0 386.5 -154.5t154.5 -388.5q0 -236 -149 -388.5t-375 -152.5q-112 0 -203 43t-145 113v-539h-234zM643 180q139 0 227 96t88 240q0 141 -88 235.5t-227 94.5q-140 0 -228.5 -92t-88.5 -238q0 -144 89 -240t228 -96z" />
    <glyph glyph-name="q" unicode="q" horiz-adv-x="1280" 
d="M952 -410v539q-54 -70 -145 -113t-205 -43q-226 0 -375 152.5t-149 388.5q0 235 158 389t397 154q259 0 405 -148.5t146 -441.5v-877h-232zM952 516q0 146 -87.5 238t-227.5 92q-139 0 -227 -94.5t-88 -235.5q0 -144 88 -240t227 -96q138 0 226.5 96t88.5 240z" />
    <glyph glyph-name="r" unicode="r" horiz-adv-x="851" 
d="M119 0v662q0 188 115.5 291.5t320.5 103.5q133 0 212 -37.5t79 -108.5q0 -32 -18 -65.5t-33 -42.5q-92 45 -203 45q-240 0 -240 -254v-594h-233z" />
    <glyph glyph-name="s" unicode="s" horiz-adv-x="1124" 
d="M57 98l88 158q42 -31 159.5 -66.5t258.5 -35.5q242 0 242 122q0 58 -44 88t-153 42l-159 18q-373 39 -373 309q0 68 26 124.5t80 102t146 71.5t215 26q210 0 329 -47t119 -123q0 -40 -26 -72t-45 -39q-17 17 -55.5 38t-127.5 44t-192 23q-238 0 -238 -125q0 -52 43 -80
t131 -39l209 -27q177 -24 268 -96.5t91 -204.5q0 -156 -124 -247t-350 -91q-102 0 -198.5 15.5t-160.5 38t-104 41.5t-55 32z" />
    <glyph glyph-name="t" unicode="t" horiz-adv-x="823" 
d="M125 309v901q0 109 123 109q56 0 110 -23v-268h297q66 0 94.5 -26.5t28.5 -81.5t-26 -107h-394v-457q0 -178 185 -178q55 0 106 16.5t78 36.5l94 -155q-143 -105 -332 -105q-176 0 -270 91t-94 247z" />
    <glyph glyph-name="u" unicode="u" horiz-adv-x="1239" 
d="M119 416v504q0 108 125 108q57 0 108 -22v-539q0 -285 266 -285q267 0 267 285v453q0 108 123 108q59 0 110 -22v-590q0 -208 -137 -326.5t-363 -118.5q-225 0 -362 118.5t-137 326.5z" />
    <glyph glyph-name="v" unicode="v" horiz-adv-x="1153" 
d="M678 0h-229q-190 353 -311.5 613t-121.5 313q0 45 30 73.5t87 28.5q38 0 67.5 -7t35.5 -13q135 -361 333 -760q68 128 159 341t136 329q22 57 52.5 83.5t87.5 26.5q34 0 66.5 -10t47 -19t19.5 -14q-33 -116 -191.5 -448t-267.5 -537z" />
    <glyph glyph-name="w" unicode="w" horiz-adv-x="1671" 
d="M596 0h-242q-336 792 -336 920q0 46 30 77t87 31q72 0 105 -20q79 -288 239 -748q97 271 205 660q18 58 48 83t93 25q36 0 69 -9.5t46 -17.5q136 -466 234 -741q114 296 212 645q20 66 50.5 94.5t89.5 28.5q33 0 64.5 -9.5t45.5 -18t19 -13.5q-31 -131 -145.5 -437.5
t-221.5 -549.5h-241q-38 98 -228 698q-14 -45 -73 -236t-94.5 -300t-55.5 -162z" />
    <glyph glyph-name="x" unicode="x" horiz-adv-x="1171" 
d="M285 0h-275q21 31 147.5 184.5t262.5 313.5q-64 69 -134.5 142t-105 108t-66.5 73t-43.5 63.5t-11.5 53.5q0 39 28.5 64.5t86.5 25.5q65 0 102 -22q18 -24 112.5 -133t180.5 -201q44 57 100.5 124t94 110.5t43.5 51.5q64 70 143 70q50 0 92.5 -21t57.5 -40
q-42 -46 -385 -453q71 -83 183 -211.5t175.5 -202t83.5 -100.5h-289q-157 184 -301 346q-223 -266 -282 -346z" />
    <glyph glyph-name="y" unicode="y" horiz-adv-x="1239" 
d="M119 412v508q0 108 123 108q59 0 110 -22v-547q0 -125 66 -194.5t198 -69.5q127 0 198 73.5t71 212.5v439q0 108 123 108q59 0 110 -22v-897q0 -142 -38.5 -246.5t-111.5 -168t-171 -94t-224 -30.5q-100 0 -198.5 16.5t-141.5 29.5t-75 26q19 46 59 174q149 -58 332 -58
q83 0 143.5 18t106.5 59.5t69 114t23 177.5q-41 -60 -128 -95.5t-192 -35.5q-203 0 -327.5 109.5t-124.5 306.5z" />
    <glyph glyph-name="z" unicode="z" horiz-adv-x="1110" 
d="M51 0v203q136 117 346.5 310t319.5 302h-543q-66 0 -94.5 26t-28.5 79q0 54 27 108h833q61 0 95 -28.5t34 -84.5q0 -39 -19 -73t-69 -84q-122 -122 -602 -553h692v-205h-991z" />
    <glyph glyph-name="braceleft" unicode="{" horiz-adv-x="743" 
d="M260 90v221q0 106 -48.5 152.5t-143.5 46.5h-31v221h31q95 0 143.5 46.5t48.5 152.5v221q0 175 67.5 265.5t223.5 90.5h143q25 -55 25 -116q0 -48 -19.5 -73.5t-76.5 -25.5h-15q-66 0 -92.5 -33t-26.5 -98v-258q0 -83 -20 -139.5t-51.5 -87t-81.5 -53.5
q57 -30 87.5 -62.5t48 -94.5t17.5 -165v-219q0 -65 26.5 -98t102.5 -33h87v-215h-154q-159 0 -225 87t-66 267z" />
    <glyph glyph-name="bar" unicode="|" horiz-adv-x="516" 
d="M150 -270v1681q0 98 114 98q54 0 101 -20v-1759h-215z" />
    <glyph glyph-name="braceright" unicode="}" horiz-adv-x="743" 
d="M190 -264h-153v215h86q76 0 102.5 33t26.5 98v219q0 148 34.5 214t119.5 108q-78 37 -116 97.5t-38 182.5v258q0 65 -26.5 98t-92.5 33h-14q-57 0 -76.5 25.5t-19.5 73.5q0 63 24 116h143q155 0 223 -90.5t68 -265.5v-221q0 -106 49 -152.5t144 -46.5h31v-221h-31
q-95 0 -144 -46.5t-49 -152.5v-221q0 -179 -67 -266.5t-224 -87.5z" />
    <glyph glyph-name="asciitilde" unicode="~" horiz-adv-x="1284" 
d="M260 528h-186q4 165 87.5 252.5t211.5 87.5q94 0 192 -32l154 -54q107 -37 166 -37q55 0 83.5 32t39.5 97h184q-8 -156 -77.5 -250t-196.5 -94q-84 0 -142 21l-219 70q-106 36 -176 36q-53 0 -84 -34t-37 -95z" />
    <glyph glyph-name="uni00A0" unicode="&#xa0;" horiz-adv-x="514" 
 />
    <glyph glyph-name="exclamdown" unicode="&#xa1;" horiz-adv-x="489" 
d="M129 8v930h233v-846q0 -108 -122 -108q-55 0 -111 24zM244 1425q66 0 111.5 -45t45.5 -108q0 -62 -46 -108t-111 -46q-63 0 -109.5 46t-46.5 108q0 63 46.5 108t109.5 45z" />
    <glyph glyph-name="cent" unicode="&#xa2;" horiz-adv-x="1054" 
d="M557 -74v238q-206 26 -336.5 165t-130.5 369q0 228 129.5 371t337.5 168v195q0 63 74 63q55 0 69 -14v-238q173 -11 246.5 -60t73.5 -112q0 -68 -80 -129q-91 86 -240 96v-671q115 8 224 69l98 -176q-47 -35 -130.5 -63t-191.5 -35v-236h-143zM557 381v645
q-105 -28 -165 -109t-60 -215q0 -133 60.5 -213t164.5 -108z" />
    <glyph glyph-name="sterling" unicode="&#xa3;" horiz-adv-x="1273" 
d="M184 0v913q0 249 148.5 389t406.5 140q109 0 192.5 -16.5t129.5 -40t75 -53.5t37.5 -52t8.5 -41q0 -75 -95 -137q-134 129 -335 129q-165 0 -247.5 -92t-82.5 -242v-80h489q65 0 93 -26.5t28 -81.5t-28 -111h-582v-381h772v-217h-1010z" />
    <glyph glyph-name="currency" unicode="&#xa4;" horiz-adv-x="1263" 
d="M248 160l-144 147l132 133q-82 122 -82 262q0 141 82 263l-132 133l144 147l135 -137q120 70 250 70q124 0 248 -72l135 139l143 -147l-131 -133q82 -122 82 -263q0 -140 -82 -262l131 -133l-143 -147l-133 139q-113 -72 -250 -72t-250 72zM633 408q119 0 202 85t83 209
q0 122 -83.5 208.5t-201.5 86.5t-202.5 -86.5t-84.5 -208.5q0 -124 84 -209t203 -85z" />
    <glyph glyph-name="yen" unicode="&#xa5;" horiz-adv-x="1349" 
d="M541 0v311h-303q-56 0 -78.5 20.5t-22.5 59.5q0 24 10 76h394v65l-64 95h-239q-56 0 -78.5 20.5t-22.5 59.5q0 23 10 75h236q-340 414 -340 518q0 49 27.5 76t83.5 27q64 0 96 -19q11 -17 110.5 -169.5t169.5 -254t136 -188.5q75 106 319 496q79 133 195 133
q44 0 77.5 -16.5t47.5 -30.5q-132 -227 -377 -572h164q56 0 78 -20.5t22 -59.5q0 -23 -10 -75h-334l-64 -95v-65h308q56 0 78 -20.5t22 -59.5q0 -24 -10 -76h-398v-311h-243z" />
    <glyph glyph-name="brokenbar" unicode="&#xa6;" horiz-adv-x="516" 
d="M150 -270v592h215v-592h-215zM150 913v498q0 98 114 98q54 0 101 -20v-576h-215z" />
    <glyph glyph-name="section" unicode="&#xa7;" horiz-adv-x="1286" 
d="M338 563q0 -97 94 -153t297 -56q93 0 159 55.5t66 141.5q0 209 -397 209q-94 0 -156.5 -55.5t-62.5 -141.5zM713 150l-213 28q-184 25 -292 117t-108 237q0 98 48.5 174t136.5 119q-89 41 -137 123.5t-48 177.5q0 59 16 113t55 104t97.5 86t149 58t203.5 22
q235 0 365 -55t130 -137q0 -46 -28 -79t-50 -40q-11 11 -41 28t-79.5 38.5t-126 36t-160.5 14.5q-134 0 -207.5 -46.5t-73.5 -133.5q0 -140 197 -164l239 -33q216 -31 310 -116.5t94 -225.5q0 -111 -62 -195.5t-133 -113.5q195 -93 195 -297q0 -179 -137 -289.5t-394 -110.5
q-96 0 -188.5 13.5t-155.5 32t-115 40t-76.5 35.5t-29.5 19q41 73 96 178q11 -7 29 -17t63.5 -29.5t95.5 -34.5t124.5 -26.5t150.5 -11.5q130 0 209.5 45t79.5 135q0 73 -53 119t-176 62z" />
    <glyph glyph-name="dieresis" unicode="&#xa8;" horiz-adv-x="1024" 
d="M182 1298q0 50 38.5 87.5t92.5 37.5q53 0 91 -38.5t38 -86.5t-38 -86t-91 -38q-54 0 -92.5 37t-38.5 87zM713 1423q53 0 90 -38t37 -87t-37 -86.5t-90 -37.5t-92 38t-39 86t39 86.5t92 38.5z" />
    <glyph glyph-name="copyright" unicode="&#xa9;" horiz-adv-x="1656" 
d="M827 1456q153 0 292.5 -60t240.5 -161t161 -240.5t60 -292.5t-60 -292.5t-161 -240.5t-240.5 -160.5t-292.5 -59.5t-292.5 59.5t-240.5 160.5t-160.5 240.5t-59.5 292.5t59.5 292.5t160.5 240.5t240.5 161t292.5 60zM1399 702q0 161 -76.5 297t-208 214.5t-287.5 78.5
q-155 0 -286 -78.5t-207 -214.5t-76 -297q0 -121 45 -230t121 -187.5t181.5 -125t221.5 -46.5q156 0 287.5 78t208 214t76.5 297zM1075 500l76 -140q-115 -84 -295 -84q-120 0 -217 47.5t-157 145t-60 229.5t59.5 230.5t157 148t217.5 49.5q124 0 204.5 -41.5t80.5 -95.5
q0 -33 -22.5 -64t-45.5 -44q-29 31 -89 56.5t-126 25.5q-107 0 -174.5 -70.5t-67.5 -194.5q0 -123 71.5 -189.5t186.5 -66.5q111 0 201 58z" />
    <glyph glyph-name="ordfeminine" unicode="&#xaa;" horiz-adv-x="860" 
d="M764 1122v-446q-178 -27 -332 -27q-95 0 -166.5 15t-112.5 38.5t-66.5 58t-33.5 67.5t-8 73q0 59 18 102.5t59.5 76.5t114 50t175.5 17q90 0 176 -12q0 163 -215 163q-75 0 -130.5 -19t-74.5 -36q-14 8 -32.5 33t-18.5 47q0 119 256 119q391 0 391 -320zM588 799v209
q-46 12 -176 12q-93 0 -141 -27t-48 -92q0 -58 50 -85.5t165 -27.5q108 0 150 11z" />
    <glyph glyph-name="guillemotleft" unicode="&#xab;" horiz-adv-x="1171" 
d="M449 61l-336 353q-47 47 -47 96q0 37 34 80l349 381l137 -123l-285 -336l285 -328zM965 61l-336 353q-43 47 -43 94q0 48 30 82l349 381l139 -123l-287 -336l287 -328z" />
    <glyph glyph-name="logicalnot" unicode="&#xac;" horiz-adv-x="1296" 
d="M123 973h940q58 0 83 -28.5t25 -84.5v-489h-229v385h-733q-58 0 -83.5 29t-25.5 85q0 49 23 103z" />
    <glyph glyph-name="uni00AD" unicode="&#xad;" horiz-adv-x="673" 
d="M90 672h410q108 0 108 -119q0 -57 -22 -107h-412q-106 0 -106 119q0 57 22 107z" />
    <glyph glyph-name="registered" unicode="&#xae;" horiz-adv-x="1656" 
d="M498 309v725q0 44 21 64t75.5 27.5t173.5 7.5q192 0 288.5 -69t96.5 -198q0 -156 -143 -223q56 -80 178 -334h-195q-23 51 -72.5 148t-78.5 141q-28 -4 -82 -4q-71 0 -94 6v-291h-168zM666 983v-238q36 -4 116 -4q189 0 189 123q0 125 -201 125q-62 0 -104 -6zM827 1456
q153 0 292.5 -60t240.5 -161t161 -240.5t60 -292.5t-60 -292.5t-161 -240.5t-240.5 -160.5t-292.5 -59.5t-292.5 59.5t-240.5 160.5t-160.5 240.5t-59.5 292.5t59.5 292.5t160.5 240.5t240.5 161t292.5 60zM1399 702q0 161 -76.5 297t-208 214.5t-287.5 78.5
q-155 0 -286 -78.5t-207 -214.5t-76 -297q0 -121 45 -230t121 -187.5t181.5 -125t221.5 -46.5q156 0 287.5 78t208 214t76.5 297z" />
    <glyph glyph-name="macron" unicode="&#xaf;" horiz-adv-x="1024" 
d="M195 1384h565q82 0 82 -84q0 -54 -17 -77h-565q-82 0 -82 84q0 37 17 77z" />
    <glyph glyph-name="degree" unicode="&#xb0;" horiz-adv-x="837" 
d="M418 1509q156 0 265.5 -106.5t109.5 -261.5q0 -153 -109.5 -260t-265.5 -107t-265.5 107t-109.5 260q0 155 109.5 261.5t265.5 106.5zM418 938q84 0 144.5 60.5t60.5 142.5q0 86 -60 146.5t-145 60.5q-80 0 -140.5 -61t-60.5 -146q0 -81 60.5 -142t140.5 -61z" />
    <glyph glyph-name="plusminus" unicode="&#xb1;" horiz-adv-x="1296" 
d="M135 219h400v367h-314q-108 0 -108 116q0 52 22 103h400v323q0 109 120 109q65 0 109 -25v-407h311q109 0 109 -115q0 -50 -23 -104h-397v-367h311q109 0 109 -115q0 -50 -23 -104h-940q-108 0 -108 117q0 51 22 102z" />
    <glyph glyph-name="twosuperior" unicode="&#xb2;" 
d="M100 610v152q492 281 492 450q0 61 -40 95t-118 34q-85 0 -146 -47t-69 -77q-40 5 -76.5 35.5t-36.5 72.5q0 18 10 40t35.5 47.5t62.5 47t98 35.5t134 14q171 0 267 -73.5t96 -206.5q0 -37 -9 -72.5t-21.5 -64.5t-36.5 -60t-43 -53t-52.5 -49t-54 -42.5t-58.5 -40
t-54.5 -34t-53.5 -31.5h393v-172h-719z" />
    <glyph glyph-name="threesuperior" unicode="&#xb3;" 
d="M74 672l65 151q142 -69 295 -69q88 0 136 29.5t48 84.5q0 111 -192 111h-86q-10 10 -21.5 33.5t-11.5 50.5q0 37 21 53.5t63 16.5h37q176 0 176 110q0 49 -43 77t-131 28q-51 0 -96 -12.5t-72 -30.5t-42.5 -33t-18.5 -23q-35 6 -67 29.5t-32 60.5q0 40 35 78
q20 20 49.5 37.5t100.5 36t159 18.5q99 0 174.5 -22.5t117.5 -59t62.5 -78t20.5 -85.5q0 -137 -139 -203q156 -56 156 -209q0 -115 -100.5 -189.5t-278.5 -74.5q-92 0 -182.5 18.5t-132 34.5t-70.5 31z" />
    <glyph glyph-name="acute" unicode="&#xb4;" horiz-adv-x="1024" 
d="M362 1159l-75 107l223 161q61 46 111 46q40 0 69.5 -26.5t40 -53t10.5 -43.5z" />
    <glyph glyph-name="mu" unicode="&#xb5;" horiz-adv-x="1232" 
d="M119 -410v1330q0 108 125 108q57 0 108 -22v-553q0 -285 344 -285q108 0 183 18v734q0 108 122 108q60 0 111 -22v-1006q-15 -3 -62.5 -9.5t-140 -13t-180.5 -6.5q-147 0 -242 38t-137 91v-510h-231z" />
    <glyph glyph-name="paragraph" unicode="&#xb6;" horiz-adv-x="1273" 
d="M543 -410v891q-215 17 -329 145.5t-114 325.5q0 216 151.5 344.5t412.5 128.5q211 0 348 -20q110 -17 110 -133v-1682h-180v1655q-58 10 -219 10v-1665h-180z" />
    <glyph glyph-name="periodcentered" unicode="&#xb7;" horiz-adv-x="614" 
d="M150 702q0 66 46 112t113 46q66 0 112 -46t46 -112t-46 -113.5t-112 -47.5t-112.5 47.5t-46.5 113.5z" />
    <glyph glyph-name="cedilla" unicode="&#xb8;" horiz-adv-x="1024" 
d="M279 -381l49 111q4 -4 25 -12.5t59 -17.5t73 -9q90 0 90 63q0 36 -36 54t-76 18l31 106q46 -2 87.5 -12.5t79.5 -30t61 -53.5t23 -78q0 -88 -65 -139t-176 -51q-63 0 -118.5 12t-78 22.5t-28.5 16.5z" />
    <glyph glyph-name="onesuperior" unicode="&#xb9;" 
d="M428 610v668l-195 -123q-16 5 -33.5 14t-39 32.5t-21.5 51.5q0 30 15.5 51.5t52.5 45.5l219 131q48 28 98 28q62 0 107 -39v-860h-203z" />
    <glyph glyph-name="ordmasculine" unicode="&#xba;" horiz-adv-x="933" 
d="M467 1442q174 0 293 -115t119 -283q0 -165 -119 -280t-293 -115q-176 0 -295 115t-119 280q0 168 119 283t295 115zM467 817q95 0 154 65.5t59 161.5q0 100 -59 166t-154 66q-96 0 -154.5 -66t-58.5 -166q0 -96 59 -161.5t154 -65.5z" />
    <glyph glyph-name="guillemotright" unicode="&#xbb;" horiz-adv-x="1171" 
d="M586 184l286 338l-286 326l139 123l336 -355q43 -43 43 -94q0 -47 -31 -82l-348 -379zM68 184l286 338l-286 326l139 123l336 -355q43 -43 43 -92q0 -47 -31 -82l-348 -381z" />
    <glyph glyph-name="onequarter" unicode="&#xbc;" horiz-adv-x="1935" 
d="M371 610v668l-195 -123q-16 5 -33.5 14t-39 32.5t-21.5 51.5q0 30 15.5 51.5t52.5 45.5l219 131q48 28 98 28q61 0 106 -39v-860h-202zM387 0l817 1430q16 27 26.5 40.5t35 26t59.5 12.5q41 0 72.5 -14t44.5 -27l-836 -1468h-219zM1544 2v195h-284q-107 0 -157 34
t-50 111q0 73 43 155.5t110 152.5t143 127.5t148.5 90.5t120.5 33q77 0 123 -29v-522h41q73 0 73 -69q0 -40 -22 -84h-92v-195h-197zM1325 352h219v357q-100 -46 -194.5 -146.5t-94.5 -171.5q0 -23 17.5 -31t52.5 -8z" />
    <glyph glyph-name="onehalf" unicode="&#xbd;" horiz-adv-x="1966" 
d="M319 610v668l-194 -123q-16 5 -33.5 14t-39 32.5t-21.5 51.5q0 30 15.5 51.5t51.5 45.5l219 131q48 28 99 28q61 0 106 -39v-860h-203zM315 0l818 1430q16 28 26.5 41t34.5 25.5t59 12.5q41 0 72.5 -14t44.5 -27l-835 -1468h-220zM1100 2v152q491 281 491 450
q0 61 -39.5 95t-117.5 34q-85 0 -146 -47.5t-69 -77.5q-40 5 -76.5 36t-36.5 73q0 18 10 40t35.5 47.5t62.5 47t98 35.5t134 14q171 0 266.5 -73.5t95.5 -206.5q0 -37 -9 -72.5t-21.5 -64.5t-36.5 -60t-43 -53t-52.5 -49t-54 -42.5t-58.5 -40t-54.5 -34t-53.5 -31.5h394
v-172h-719z" />
    <glyph glyph-name="threequarters" unicode="&#xbe;" horiz-adv-x="2091" 
d="M80 672l65 151q142 -69 295 -69q88 0 136.5 29.5t48.5 84.5q0 111 -193 111h-86q-10 10 -21.5 33.5t-11.5 50.5q0 37 21 53.5t63 16.5h37q176 0 176 110q0 49 -43 77t-131 28q-51 0 -96 -12.5t-72 -30.5t-42.5 -33t-18.5 -23q-35 6 -66.5 29.5t-31.5 60.5q0 41 34 78
q14 14 35 27t57.5 29t93 26t124.5 10q99 0 174 -22.5t117 -59t62.5 -78t20.5 -85.5q0 -137 -139 -203q156 -56 156 -209q0 -115 -100.5 -189.5t-278.5 -74.5q-92 0 -182.5 18.5t-132 34.5t-70.5 31zM543 0l817 1430q16 27 26.5 40.5t35 26t59.5 12.5q41 0 72 -14t44 -27
l-835 -1468h-219zM1671 2v195h-285q-107 0 -156.5 34t-49.5 111q0 73 43 155.5t110 152.5t143 127.5t148.5 90.5t120.5 33q77 0 123 -29v-522h41q73 0 73 -69q0 -40 -22 -84h-92v-195h-197zM1452 352h219v357q-100 -46 -194.5 -146.5t-94.5 -171.5q0 -23 17.5 -31t52.5 -8z
" />
    <glyph glyph-name="questiondown" unicode="&#xbf;" horiz-adv-x="1105" 
d="M510 971h233q0 -128 -36 -196.5t-138 -129.5q-128 -73 -181.5 -132t-53.5 -146q0 -95 69 -155t209 -60q123 0 208.5 55t119.5 123q56 -13 86.5 -48t30.5 -81q0 -42 -29 -85t-83 -80t-145 -60t-202 -23q-131 0 -231 33t-158.5 90t-87.5 126t-29 148q0 77 20 140
t59.5 111.5t79 81.5t97.5 69q95 60 128.5 102.5t33.5 116.5zM471 1274q0 63 46.5 107t109.5 44q66 0 111.5 -44t45.5 -107q0 -62 -46 -108t-111 -46q-63 0 -109.5 46t-46.5 108z" />
    <glyph glyph-name="Agrave" unicode="&#xc0;" horiz-adv-x="1501" 
d="M256 0h-246q205 548 541 1296q36 80 83 113t120 33q32 0 67.5 -10.5t54 -20t23.5 -14.5q86 -151 302.5 -673.5t289.5 -723.5h-270q-15 37 -69 180t-71 187h-686q-58 -147 -139 -367zM481 582h518q-56 149 -137 343t-119 269q-141 -298 -262 -612zM936 1522l-444 176
q0 12 7 32.5t20.5 44.5t40.5 41t61 17q59 0 127 -39l260 -152z" />
    <glyph glyph-name="Aacute" unicode="&#xc1;" horiz-adv-x="1501" 
d="M256 0h-246q205 548 541 1296q36 80 83 113t120 33q32 0 67.5 -10.5t54 -20t23.5 -14.5q86 -151 302.5 -673.5t289.5 -723.5h-270q-15 37 -69 180t-71 187h-686q-58 -147 -139 -367zM481 582h518q-56 149 -137 343t-119 269q-141 -298 -262 -612zM567 1522l-71 120
l260 152q68 39 127 39q34 0 61 -17t40.5 -41t20.5 -44.5t7 -32.5z" />
    <glyph glyph-name="Acircumflex" unicode="&#xc2;" horiz-adv-x="1501" 
d="M256 0h-246q205 548 541 1296q36 80 83 113t120 33q32 0 67.5 -10.5t54 -20t23.5 -14.5q86 -151 302.5 -673.5t289.5 -723.5h-270q-15 37 -69 180t-71 187h-686q-58 -147 -139 -367zM481 582h518q-56 149 -137 343t-119 269q-141 -298 -262 -612zM489 1518l-96 100
l213 154q88 61 144 61q39 0 90 -25t88 -52t96 -74t82 -64l-96 -100l-260 141z" />
    <glyph glyph-name="Atilde" unicode="&#xc3;" horiz-adv-x="1501" 
d="M256 0h-246q205 548 541 1296q36 80 83 113t120 33q32 0 67.5 -10.5t54 -20t23.5 -14.5q86 -151 302.5 -673.5t289.5 -723.5h-270q-15 37 -69 180t-71 187h-686q-58 -147 -139 -367zM481 582h518q-56 149 -137 343t-119 269q-141 -298 -262 -612zM535 1538l-154 29
q47 215 217 215q64 0 153 -30t130 -30q28 0 43 17t26 57l152 -27q-17 -91 -70.5 -153t-146.5 -62q-66 0 -154.5 31t-128.5 31q-28 0 -42 -17.5t-25 -60.5z" />
    <glyph glyph-name="Adieresis" unicode="&#xc4;" horiz-adv-x="1501" 
d="M256 0h-246q205 548 541 1296q36 80 83 113t120 33q32 0 67.5 -10.5t54 -20t23.5 -14.5q86 -151 302.5 -673.5t289.5 -723.5h-270q-15 37 -69 180t-71 187h-686q-58 -147 -139 -367zM481 582h518q-56 149 -137 343t-119 269q-141 -298 -262 -612zM393 1661q0 50 40 89.5
t93 39.5t93 -39.5t40 -89.5q0 -48 -40 -87.5t-93 -39.5q-52 0 -92.5 39.5t-40.5 87.5zM844 1661q0 50 40 89.5t93 39.5t92 -39.5t39 -89.5q0 -48 -39 -87.5t-92 -39.5t-93 39.5t-40 87.5z" />
    <glyph glyph-name="Aring" unicode="&#xc5;" horiz-adv-x="1501" 
d="M254 0h-244q205 548 541 1296q25 60 65 97q-77 64 -77 157q0 85 62 146t149 61t149 -61t62 -146q0 -94 -74 -155q26 -26 41 -60q99 -194 302.5 -685t258.5 -650h-268q-15 37 -69 180t-71 187h-686q-33 -84 -80.5 -209t-60.5 -158zM481 582h518q-56 149 -137 343t-119 269
q-141 -298 -262 -612zM750 1448q46 0 73 28.5t27 73.5t-27 73t-73 28q-43 0 -70 -28.5t-27 -72.5t27 -73t70 -29z" />
    <glyph glyph-name="AE" unicode="&#xc6;" horiz-adv-x="2226" 
d="M258 0h-260q262 459 772 1243q59 95 113.5 128.5t134.5 33.5h987q121 0 121 -111q0 -58 -31 -112h-743v-353h622q123 0 123 -110q0 -34 -11 -66t-22 -47h-712v-383h762v-223h-1010v410h-600q-36 -60 -125 -207.5t-121 -202.5zM633 629h471v551h-115
q-22 -32 -164.5 -255.5t-191.5 -295.5z" />
    <glyph glyph-name="Ccedilla" unicode="&#xc7;" horiz-adv-x="1359" 
d="M1327 94h2q-180 -131 -491 -131q-152 0 -286.5 48.5t-238.5 139t-164.5 231.5t-60.5 314q0 172 58.5 314.5t159.5 236t236 144.5t289 51q111 0 200 -16.5t141.5 -41.5t87 -56t47 -57.5t12.5 -49.5q0 -47 -33.5 -90.5t-64.5 -59.5q-53 56 -155 104t-230 48
q-214 0 -353 -143t-139 -384q0 -122 40 -220t110 -161t163.5 -96t202.5 -33q116 0 211 29.5t148 65.5zM479 -383l51 117q6 -5 26.5 -13.5t59 -18t74.5 -9.5q44 0 64 12.5t20 46.5t-35.5 50t-76.5 16l32 114q64 -3 119 -20t97 -57.5t42 -98.5q0 -90 -66 -142t-177 -52
q-62 0 -119 13.5t-81.5 25t-29.5 16.5z" />
    <glyph glyph-name="Egrave" unicode="&#xc8;" horiz-adv-x="1306" 
d="M150 0v1266q0 139 149 139h786q123 0 123 -111q0 -60 -30 -112h-781v-353h660q121 0 121 -110q0 -34 -10.5 -66.5t-20.5 -46.5h-750v-383h799v-223h-1046zM842 1522l-445 176q0 12 7 32.5t20.5 44.5t40.5 41t61 17q59 0 127 -39l260 -152z" />
    <glyph glyph-name="Eacute" unicode="&#xc9;" horiz-adv-x="1306" 
d="M150 0v1266q0 139 149 139h786q123 0 123 -111q0 -60 -30 -112h-781v-353h660q121 0 121 -110q0 -34 -10.5 -66.5t-20.5 -46.5h-750v-383h799v-223h-1046zM512 1522l-72 120l260 152q68 39 127 39q34 0 61 -17t40.5 -41t20.5 -44.5t7 -32.5z" />
    <glyph glyph-name="Ecircumflex" unicode="&#xca;" horiz-adv-x="1306" 
d="M150 0v1266q0 139 149 139h786q123 0 123 -111q0 -60 -30 -112h-781v-353h660q121 0 121 -110q0 -34 -10.5 -66.5t-20.5 -46.5h-750v-383h799v-223h-1046zM442 1518l-96 100l213 154q88 61 143 61q39 0 90.5 -25t88.5 -52t96.5 -74.5t81.5 -63.5l-96 -100l-261 141z" />
    <glyph glyph-name="Edieresis" unicode="&#xcb;" horiz-adv-x="1306" 
d="M150 0v1266q0 139 149 139h786q123 0 123 -111q0 -60 -30 -112h-781v-353h660q121 0 121 -110q0 -34 -10.5 -66.5t-20.5 -46.5h-750v-383h799v-223h-1046zM324 1661q0 50 40 89.5t93 39.5t93 -39.5t40 -89.5q0 -48 -40 -87.5t-93 -39.5q-52 0 -92.5 39.5t-40.5 87.5z
M774 1661q0 50 40 89.5t93 39.5t92 -39.5t39 -89.5q0 -48 -39 -87.5t-92 -39.5t-93 39.5t-40 87.5z" />
    <glyph glyph-name="Igrave" unicode="&#xcc;" horiz-adv-x="542" 
d="M150 0v1292q0 56 34 84.5t95 28.5q56 0 114 -25v-1380h-243zM428 1522l-444 176q0 12 7 32.5t20.5 44.5t40.5 41t61 17q59 0 127 -39l260 -152z" />
    <glyph glyph-name="Iacute" unicode="&#xcd;" horiz-adv-x="542" 
d="M150 0v1292q0 56 34 84.5t95 28.5q56 0 114 -25v-1380h-243zM131 1522l-72 120l260 152q68 39 127 39q34 0 61 -17t40.5 -41t20.5 -44.5t7 -32.5z" />
    <glyph glyph-name="Icircumflex" unicode="&#xce;" horiz-adv-x="542" 
d="M150 0v1292q0 56 34 84.5t95 28.5q56 0 114 -25v-1380h-243zM14 1518l-96 100l213 154q88 61 143 61q39 0 90.5 -25t88.5 -52t96.5 -74.5t81.5 -63.5l-96 -100l-261 141z" />
    <glyph glyph-name="Idieresis" unicode="&#xcf;" horiz-adv-x="542" 
d="M150 0v1292q0 56 34 84.5t95 28.5q56 0 114 -25v-1380h-243zM-84 1661q0 50 40 89.5t93 39.5t93 -39.5t40 -89.5q0 -48 -40 -87.5t-93 -39.5q-52 0 -92.5 39.5t-40.5 87.5zM367 1661q0 50 40 89.5t93 39.5t92 -39.5t39 -89.5q0 -48 -39 -87.5t-92 -39.5t-93 39.5
t-40 87.5z" />
    <glyph glyph-name="Eth" unicode="&#xd0;" horiz-adv-x="1593" 
d="M215 0v623h-90q-94 0 -94 102q0 41 20 88h164v459q0 36 8 60.5t31.5 42t52.5 27t86.5 15t117.5 7t159 1.5q388 0 610.5 -193t222.5 -527q0 -341 -220.5 -533t-629.5 -192q-298 0 -438 20zM459 623v-410q37 -14 215 -14q277 0 425 131.5t148 374.5q0 113 -34 204
t-102.5 159t-179.5 105t-257 37q-155 0 -215 -12v-385h262q52 0 73 -25t21 -75q0 -43 -20 -90h-336z" />
    <glyph glyph-name="Ntilde" unicode="&#xd1;" horiz-adv-x="1505" 
d="M150 0v1274q0 68 41 99.5t106 31.5q85 0 145 -47q63 -75 299 -415.5t373 -553.5v903q0 113 125 113q68 0 115 -27v-1378h-246q-130 201 -350 527.5t-367 529.5v-1057h-241zM578 1538l-154 29q47 215 217 215q64 0 153 -30t130 -30q28 0 43 17t26 57l152 -27
q-17 -91 -70.5 -153t-146.5 -62q-66 0 -154.5 31t-128.5 31q-28 0 -42 -17.5t-25 -60.5z" />
    <glyph glyph-name="Ograve" unicode="&#xd2;" horiz-adv-x="1677" 
d="M838 1442q157 0 295.5 -57t238 -155t157.5 -235.5t58 -292.5t-58 -292.5t-157.5 -235t-238 -154.5t-295.5 -57q-209 0 -381 96.5t-270.5 266t-98.5 376.5q0 155 58 292.5t157.5 235.5t238.5 155t296 57zM838 186q213 0 353 146t140 370q0 226 -140 371.5t-353 145.5
q-215 0 -354.5 -145.5t-139.5 -371.5q0 -224 140 -370t354 -146zM1024 1522l-444 176q0 12 7 32.5t20.5 44.5t40.5 41t61 17q59 0 127 -39l260 -152z" />
    <glyph glyph-name="Oacute" unicode="&#xd3;" horiz-adv-x="1677" 
d="M838 1442q157 0 295.5 -57t238 -155t157.5 -235.5t58 -292.5t-58 -292.5t-157.5 -235t-238 -154.5t-295.5 -57q-209 0 -381 96.5t-270.5 266t-98.5 376.5q0 155 58 292.5t157.5 235.5t238.5 155t296 57zM838 186q213 0 353 146t140 370q0 226 -140 371.5t-353 145.5
q-215 0 -354.5 -145.5t-139.5 -371.5q0 -224 140 -370t354 -146zM651 1522l-71 120l260 152q68 39 127 39q34 0 61 -17t40.5 -41t20.5 -44.5t7 -32.5z" />
    <glyph glyph-name="Ocircumflex" unicode="&#xd4;" horiz-adv-x="1677" 
d="M838 1442q157 0 295.5 -57t238 -155t157.5 -235.5t58 -292.5t-58 -292.5t-157.5 -235t-238 -154.5t-295.5 -57q-209 0 -381 96.5t-270.5 266t-98.5 376.5q0 155 58 292.5t157.5 235.5t238.5 155t296 57zM838 186q213 0 353 146t140 370q0 226 -140 371.5t-353 145.5
q-215 0 -354.5 -145.5t-139.5 -371.5q0 -224 140 -370t354 -146zM578 1518l-97 100l213 154q88 61 144 61q39 0 90 -25t88 -52t96 -74t82 -64l-96 -100l-260 141z" />
    <glyph glyph-name="Otilde" unicode="&#xd5;" horiz-adv-x="1677" 
d="M838 1442q157 0 295.5 -57t238 -155t157.5 -235.5t58 -292.5t-58 -292.5t-157.5 -235t-238 -154.5t-295.5 -57q-209 0 -381 96.5t-270.5 266t-98.5 376.5q0 155 58 292.5t157.5 235.5t238.5 155t296 57zM838 186q213 0 353 146t140 370q0 226 -140 371.5t-353 145.5
q-215 0 -354.5 -145.5t-139.5 -371.5q0 -224 140 -370t354 -146zM627 1538l-154 29q47 215 217 215q64 0 153 -30t130 -30q28 0 43 17t26 57l152 -27q-17 -91 -70.5 -153t-146.5 -62q-66 0 -154.5 31t-128.5 31q-28 0 -42 -17.5t-25 -60.5z" />
    <glyph glyph-name="Odieresis" unicode="&#xd6;" horiz-adv-x="1677" 
d="M838 1442q157 0 295.5 -57t238 -155t157.5 -235.5t58 -292.5t-58 -292.5t-157.5 -235t-238 -154.5t-295.5 -57q-209 0 -381 96.5t-270.5 266t-98.5 376.5q0 155 58 292.5t157.5 235.5t238.5 155t296 57zM838 186q213 0 353 146t140 370q0 226 -140 371.5t-353 145.5
q-215 0 -354.5 -145.5t-139.5 -371.5q0 -224 140 -370t354 -146zM481 1661q0 50 40 89.5t93 39.5t93.5 -39.5t40.5 -89.5q0 -48 -40.5 -87.5t-93.5 -39.5q-52 0 -92.5 39.5t-40.5 87.5zM932 1661q0 50 40 89.5t93 39.5t92 -39.5t39 -89.5q0 -48 -39 -87.5t-92 -39.5
t-93 39.5t-40 87.5z" />
    <glyph glyph-name="multiply" unicode="&#xd7;" horiz-adv-x="1304" 
d="M195 401l301 297l-238 234q-39 39 -39 74q0 26 17 51.5t42 44t43 29t31 16.5l293 -299l238 242q36 36 75 36q34 0 67.5 -29.5t51.5 -58t25 -47.5l-303 -297l239 -233q37 -34 37 -74q0 -27 -16.5 -52.5t-41.5 -44t-42 -28.5t-31 -16l-295 299l-235 -242q-35 -35 -74 -35
q-50 0 -95 52t-50 81z" />
    <glyph glyph-name="Oslash" unicode="&#xd8;" horiz-adv-x="1677" 
d="M266 -180l140 270q-151 99 -234.5 258t-83.5 354q0 155 58 292.5t157.5 235.5t238.5 155t296 57q136 0 252 -45l55 106q27 47 51 66.5t74 19.5q28 0 59 -10t46.5 -19t23.5 -16l-123 -235q145 -102 228 -260t83 -347q0 -155 -58 -292.5t-157.5 -235t-238 -154.5
t-295.5 -57q-128 0 -246 41l-96 -184h-230zM514 305l473 885q-66 29 -149 29q-215 0 -354.5 -145.5t-139.5 -371.5q0 -121 45 -224t125 -173zM1167 1094l-471 -883q61 -25 142 -25q213 0 353 146t140 370q0 120 -43.5 221.5t-120.5 170.5z" />
    <glyph glyph-name="Ugrave" unicode="&#xd9;" horiz-adv-x="1548" 
d="M135 631v661q0 56 33 84.5t94 28.5q70 0 117 -27v-727q0 -240 90 -353.5t305 -113.5t305 113.5t90 353.5v641q0 56 33 84.5t94 28.5q70 0 117 -27v-747q0 -327 -161 -497.5t-478 -170.5t-478 170.5t-161 497.5zM975 1522l-445 176q0 12 7 32.5t20.5 44.5t40.5 41t61 17
q59 0 127 -39l261 -152z" />
    <glyph glyph-name="Uacute" unicode="&#xda;" horiz-adv-x="1548" 
d="M135 631v661q0 56 33 84.5t94 28.5q70 0 117 -27v-727q0 -240 90 -353.5t305 -113.5t305 113.5t90 353.5v641q0 56 33 84.5t94 28.5q70 0 117 -27v-747q0 -327 -161 -497.5t-478 -170.5t-478 170.5t-161 497.5zM649 1522l-71 120l260 152q68 39 127 39q34 0 61 -17
t40.5 -41t20.5 -44.5t7 -32.5z" />
    <glyph glyph-name="Ucircumflex" unicode="&#xdb;" horiz-adv-x="1548" 
d="M135 631v661q0 56 33 84.5t94 28.5q70 0 117 -27v-727q0 -240 90 -353.5t305 -113.5t305 113.5t90 353.5v641q0 56 33 84.5t94 28.5q70 0 117 -27v-747q0 -327 -161 -497.5t-478 -170.5t-478 170.5t-161 497.5zM539 1518l-97 100l213 154q88 61 144 61q39 0 90 -25
t88 -52t96 -74t82 -64l-96 -100l-260 141z" />
    <glyph glyph-name="Udieresis" unicode="&#xdc;" horiz-adv-x="1548" 
d="M135 631v661q0 56 33 84.5t94 28.5q70 0 117 -27v-727q0 -240 90 -353.5t305 -113.5t305 113.5t90 353.5v641q0 56 33 84.5t94 28.5q70 0 117 -27v-747q0 -327 -161 -497.5t-478 -170.5t-478 170.5t-161 497.5zM436 1661q0 50 40 89.5t93 39.5t93 -39.5t40 -89.5
q0 -48 -40 -87.5t-93 -39.5q-52 0 -92.5 39.5t-40.5 87.5zM887 1661q0 50 40 89.5t93 39.5t92 -39.5t39 -89.5q0 -48 -39 -87.5t-92 -39.5t-93 39.5t-40 87.5z" />
    <glyph glyph-name="Yacute" unicode="&#xdd;" horiz-adv-x="1363" 
d="M549 0v528q-87 101 -215.5 273.5t-216.5 298.5q-36 50 -52 73.5t-35.5 63.5t-19.5 66q0 47 31 74.5t82 27.5q44 0 102 -25q73 -112 216 -314t237 -321q112 149 383 566q29 44 64 69t92 25q48 0 85 -18t52 -33q-52 -105 -231.5 -366t-329.5 -460v-528h-244zM557 1522
l-72 120l260 152q68 39 127 39q34 0 61 -17t40.5 -41t20.5 -44.5t7 -32.5z" />
    <glyph glyph-name="Thorn" unicode="&#xde;" horiz-adv-x="1355" 
d="M150 0v1292q0 113 126 113q57 0 111 -23v-213q140 9 240 9q319 0 483 -126t164 -347q0 -105 -34.5 -189t-106.5 -149t-194.5 -100.5t-287.5 -35.5q-51 0 -112.5 5.5t-104 10.5t-47.5 5v-252h-237zM387 958v-499q1 0 27 -4t53 -7.5t74 -6.5t94 -3q389 0 389 267
q0 44 -10 80.5t-37 72t-71 59.5t-116.5 39t-168.5 15q-184 0 -234 -13z" />
    <glyph glyph-name="germandbls" unicode="&#xdf;" horiz-adv-x="1290" 
d="M109 0v1069q0 97 28.5 175.5t86.5 138.5t153 93t221 33q100 0 181.5 -22.5t133.5 -58.5t88 -84t51 -97t15 -100q0 -100 -50 -181t-120 -112q142 -35 228.5 -139.5t86.5 -282.5q0 -209 -139 -335t-348 -126q-89 0 -159 16t-93 29l39 187q13 -9 71.5 -21t112.5 -12
q134 0 203.5 74.5t69.5 195.5q0 138 -85.5 211.5t-221.5 73.5h-119v188h69q107 0 164.5 60.5t57.5 150.5q0 89 -64 147t-176 58q-134 0 -194 -71.5t-60 -194.5v-1063h-231z" />
    <glyph glyph-name="agrave" unicode="&#xe0;" horiz-adv-x="1165" 
d="M1044 621v-617q-59 -11 -186 -22t-268 -11q-124 0 -217.5 18.5t-150.5 48.5t-92.5 74t-48.5 90t-13 101q0 173 113.5 256.5t377.5 83.5q142 0 252 -14q0 70 -22.5 118t-66 74t-97 36.5t-127.5 10.5q-104 0 -176.5 -22.5t-104.5 -48.5q-55 48 -55 108q0 152 340 152
q98 0 179 -14.5t149.5 -47t115 -83t72.5 -124t26 -167.5zM813 160v299q-90 20 -246 20q-139 0 -202.5 -41.5t-63.5 -132.5q0 -81 64.5 -122.5t224.5 -41.5q144 0 223 19zM741 1159l-379 191q0 32 31.5 77.5t89.5 45.5q47 0 111 -46l223 -161z" />
    <glyph glyph-name="aacute" unicode="&#xe1;" horiz-adv-x="1165" 
d="M1044 621v-617q-59 -11 -186 -22t-268 -11q-124 0 -217.5 18.5t-150.5 48.5t-92.5 74t-48.5 90t-13 101q0 173 113.5 256.5t377.5 83.5q142 0 252 -14q0 70 -22.5 118t-66 74t-97 36.5t-127.5 10.5q-104 0 -176.5 -22.5t-104.5 -48.5q-55 48 -55 108q0 152 340 152
q98 0 179 -14.5t149.5 -47t115 -83t72.5 -124t26 -167.5zM813 160v299q-90 20 -246 20q-139 0 -202.5 -41.5t-63.5 -132.5q0 -81 64.5 -122.5t224.5 -41.5q144 0 223 19zM485 1159l-75 107l223 161q61 46 110 46q57 0 89 -46t32 -77z" />
    <glyph glyph-name="acircumflex" unicode="&#xe2;" horiz-adv-x="1165" 
d="M1044 621v-617q-59 -11 -186 -22t-268 -11q-124 0 -217.5 18.5t-150.5 48.5t-92.5 74t-48.5 90t-13 101q0 173 113.5 256.5t377.5 83.5q142 0 252 -14q0 70 -22.5 118t-66 74t-97 36.5t-127.5 10.5q-104 0 -176.5 -22.5t-104.5 -48.5q-55 48 -55 108q0 152 340 152
q98 0 179 -14.5t149.5 -47t115 -83t72.5 -124t26 -167.5zM813 160v299q-90 20 -246 20q-139 0 -202.5 -41.5t-63.5 -132.5q0 -81 64.5 -122.5t224.5 -41.5q144 0 223 19zM346 1159l-84 98l193 154q27 22 42 32.5t40.5 22t48.5 11.5q52 0 133 -64l190 -156l-84 -98l-239 148z
" />
    <glyph glyph-name="atilde" unicode="&#xe3;" horiz-adv-x="1165" 
d="M1044 621v-617q-59 -11 -186 -22t-268 -11q-124 0 -217.5 18.5t-150.5 48.5t-92.5 74t-48.5 90t-13 101q0 173 113.5 256.5t377.5 83.5q142 0 252 -14q0 70 -22.5 118t-66 74t-97 36.5t-127.5 10.5q-104 0 -176.5 -22.5t-104.5 -48.5q-55 48 -55 108q0 152 340 152
q98 0 179 -14.5t149.5 -47t115 -83t72.5 -124t26 -167.5zM813 160v299q-90 20 -246 20q-139 0 -202.5 -41.5t-63.5 -132.5q0 -81 64.5 -122.5t224.5 -41.5q144 0 223 19zM397 1174l-145 28q8 41 23.5 76t40.5 66t64 49t87 18q23 0 46 -3t36 -6.5t34 -9.5t29 -8l50 -14
q61 -18 88 -18q30 0 47 17t28 56l144 -26q-8 -41 -23.5 -76t-40.5 -66t-64 -49t-87 -18q-53 0 -150 29l-49 16q-50 16 -84 16q-30 0 -46.5 -17.5t-27.5 -59.5z" />
    <glyph glyph-name="adieresis" unicode="&#xe4;" horiz-adv-x="1165" 
d="M1044 621v-617q-59 -11 -186 -22t-268 -11q-124 0 -217.5 18.5t-150.5 48.5t-92.5 74t-48.5 90t-13 101q0 173 113.5 256.5t377.5 83.5q142 0 252 -14q0 70 -22.5 118t-66 74t-97 36.5t-127.5 10.5q-104 0 -176.5 -22.5t-104.5 -48.5q-55 48 -55 108q0 152 340 152
q98 0 179 -14.5t149.5 -47t115 -83t72.5 -124t26 -167.5zM813 160v299q-90 20 -246 20q-139 0 -202.5 -41.5t-63.5 -132.5q0 -81 64.5 -122.5t224.5 -41.5q144 0 223 19zM276 1298q0 50 39 87.5t93 37.5q53 0 91 -38.5t38 -86.5t-38 -86t-91 -38q-54 0 -93 37t-39 87z
M807 1423q53 0 90 -38t37 -87t-37 -86.5t-90 -37.5t-92 38t-39 86t39 86.5t92 38.5z" />
    <glyph glyph-name="aring" unicode="&#xe5;" horiz-adv-x="1165" 
d="M1044 621v-617q-59 -11 -186 -22t-268 -11q-124 0 -217.5 18.5t-150.5 48.5t-92.5 74t-48.5 90t-13 101q0 173 113.5 256.5t377.5 83.5q142 0 252 -14q0 70 -22.5 118t-66 74t-97 36.5t-127.5 10.5q-104 0 -176.5 -22.5t-104.5 -48.5q-55 48 -55 108q0 152 340 152
q98 0 179 -14.5t149.5 -47t115 -83t72.5 -124t26 -167.5zM813 160v299q-90 20 -246 20q-139 0 -202.5 -41.5t-63.5 -132.5q0 -81 64.5 -122.5t224.5 -41.5q144 0 223 19zM588 1559q87 0 149 -61t62 -146t-62 -146t-149 -61t-149 61t-62 146t62 146t149 61zM688 1352
q0 45 -28 74.5t-72 29.5t-72.5 -29.5t-28.5 -74.5q0 -47 28.5 -77t72.5 -30t72 30t28 77z" />
    <glyph glyph-name="ae" unicode="&#xe6;" horiz-adv-x="1857" 
d="M872 225q-22 38 -43 103.5t-22 132.5q-81 18 -240 18q-139 0 -202.5 -41.5t-63.5 -132.5q0 -79 61 -121.5t205 -42.5q78 0 152.5 20t109 37.5t43.5 26.5zM1675 240l88 -164q-32 -20 -75.5 -40.5t-131.5 -41.5t-180 -21q-121 0 -226 35t-163 82q-5 -5 -24 -17t-59 -30
t-89 -33.5t-120 -27t-146 -11.5q-481 0 -481 332q0 171 112 256.5t367 85.5q75 0 160 -7t106 -13q0 132 -82.5 188.5t-232.5 56.5q-108 0 -177.5 -23t-103.5 -50q-55 48 -55 108q0 152 340 152q183 0 298.5 -53.5t155.5 -135.5q56 75 170 132t252 57q198 0 311 -96.5
t113 -243.5q0 -73 -27 -128.5t-88 -98.5t-166.5 -65t-254.5 -22q-159 0 -213 13q12 -115 101 -181.5t245 -66.5q23 0 45.5 2t43.5 5.5t38.5 7.5t36 10t31 10.5t27.5 11t22 9.5t19 9t13 7zM1044 573q92 -8 148 -8q119 0 198.5 12t118 35t52.5 48.5t14 60.5q0 75 -61 115.5
t-158 40.5q-142 0 -227 -90.5t-85 -213.5z" />
    <glyph glyph-name="ccedilla" unicode="&#xe7;" horiz-adv-x="1026" 
d="M913 248l99 -174q-158 -103 -379 -103q-115 0 -215 35.5t-176 102t-120 170t-44 231.5q0 171 74.5 296.5t201 188t287.5 62.5q186 0 277.5 -52.5t91.5 -121.5q0 -68 -80 -129q-43 41 -114 69.5t-165 28.5q-146 0 -237.5 -86t-91.5 -250q0 -87 26.5 -153t74 -105.5
t108.5 -59.5t133 -20q62 0 121 16t77.5 26t50.5 28zM305 -381l49 111q4 -4 25.5 -12.5t59.5 -17.5t73 -9q90 0 90 63q0 36 -36.5 54t-76.5 18l31 106q63 -3 116.5 -19.5t94.5 -56.5t41 -98q0 -87 -65.5 -138.5t-176.5 -51.5q-63 0 -118.5 12t-78 22.5t-28.5 16.5z" />
    <glyph glyph-name="egrave" unicode="&#xe8;" horiz-adv-x="1128" 
d="M948 240l86 -164q-32 -21 -76.5 -41t-138 -42t-194.5 -22q-154 0 -277 61t-197.5 184t-74.5 290q0 244 158 397.5t399 153.5q206 0 323 -97.5t117 -242.5q0 -59 -16.5 -105.5t-58 -88t-108 -68.5t-170 -42.5t-241.5 -15.5q-43 0 -153 4q18 -108 104.5 -170.5t239.5 -62.5
q138 0 278 72zM315 561q63 -2 177 -2q109 0 182.5 13.5t109 38t49 50.5t13.5 60q0 75 -60.5 115.5t-156.5 40.5q-143 0 -226 -93.5t-88 -222.5zM770 1159l-379 191q0 32 31.5 77.5t89.5 45.5q47 0 111 -46l223 -161z" />
    <glyph glyph-name="eacute" unicode="&#xe9;" horiz-adv-x="1128" 
d="M948 240l86 -164q-32 -21 -76.5 -41t-138 -42t-194.5 -22q-154 0 -277 61t-197.5 184t-74.5 290q0 244 158 397.5t399 153.5q206 0 323 -97.5t117 -242.5q0 -59 -16.5 -105.5t-58 -88t-108 -68.5t-170 -42.5t-241.5 -15.5q-43 0 -153 4q18 -108 104.5 -170.5t239.5 -62.5
q138 0 278 72zM315 561q63 -2 177 -2q109 0 182.5 13.5t109 38t49 50.5t13.5 60q0 75 -60.5 115.5t-156.5 40.5q-143 0 -226 -93.5t-88 -222.5zM524 1159l-75 107l223 161q61 46 110 46q57 0 89 -46t32 -77z" />
    <glyph glyph-name="ecircumflex" unicode="&#xea;" horiz-adv-x="1128" 
d="M948 240l86 -164q-32 -21 -76.5 -41t-138 -42t-194.5 -22q-154 0 -277 61t-197.5 184t-74.5 290q0 244 158 397.5t399 153.5q206 0 323 -97.5t117 -242.5q0 -59 -16.5 -105.5t-58 -88t-108 -68.5t-170 -42.5t-241.5 -15.5q-43 0 -153 4q18 -108 104.5 -170.5t239.5 -62.5
q138 0 278 72zM315 561q63 -2 177 -2q109 0 182.5 13.5t109 38t49 50.5t13.5 60q0 75 -60.5 115.5t-156.5 40.5q-143 0 -226 -93.5t-88 -222.5zM387 1159l-84 98l193 154q27 22 42 32.5t40.5 22t48.5 11.5q52 0 133 -64l190 -156l-84 -98l-239 148z" />
    <glyph glyph-name="edieresis" unicode="&#xeb;" horiz-adv-x="1128" 
d="M948 240l86 -164q-32 -21 -76.5 -41t-138 -42t-194.5 -22q-154 0 -277 61t-197.5 184t-74.5 290q0 244 158 397.5t399 153.5q206 0 323 -97.5t117 -242.5q0 -59 -16.5 -105.5t-58 -88t-108 -68.5t-170 -42.5t-241.5 -15.5q-43 0 -153 4q18 -108 104.5 -170.5t239.5 -62.5
q138 0 278 72zM315 561q63 -2 177 -2q109 0 182.5 13.5t109 38t49 50.5t13.5 60q0 75 -60.5 115.5t-156.5 40.5q-143 0 -226 -93.5t-88 -222.5zM293 1298q0 50 38.5 87.5t92.5 37.5q53 0 91 -38.5t38 -86.5t-38 -86t-91 -38q-54 0 -92.5 37t-38.5 87zM823 1423q53 0 90 -38
t37 -87t-37 -86.5t-90 -37.5t-92 38t-39 86t39 86.5t92 38.5z" />
    <glyph glyph-name="igrave" unicode="&#xec;" horiz-adv-x="493" 
d="M129 0v920q0 108 125 108q57 0 108 -22v-1006h-233zM379 1159l-379 191q0 32 31.5 77.5t89.5 45.5q46 0 110 -46l224 -161z" />
    <glyph glyph-name="iacute" unicode="&#xed;" horiz-adv-x="493" 
d="M129 0v920q0 108 125 108q57 0 108 -22v-1006h-233zM119 1159l-76 107l223 161q61 46 111 46q57 0 89 -46t32 -77z" />
    <glyph glyph-name="icircumflex" unicode="&#xee;" horiz-adv-x="493" 
d="M129 0v920q0 108 125 108q57 0 108 -22v-1006h-233zM10 1159l-84 98l193 154q27 22 42 32.5t40.5 22t48.5 11.5q52 0 133 -64l190 -156l-84 -98l-239 148z" />
    <glyph glyph-name="idieresis" unicode="&#xef;" horiz-adv-x="493" 
d="M129 0v920q0 108 125 108q57 0 108 -22v-1006h-233zM-80 1298q0 50 38.5 87.5t92.5 37.5q53 0 91 -38.5t38 -86.5t-38 -86t-91 -38q-54 0 -92.5 37t-38.5 87zM451 1423q53 0 90 -38t37 -87t-37 -86.5t-90 -37.5t-92.5 38t-39.5 86t39.5 86.5t92.5 38.5z" />
    <glyph glyph-name="eth" unicode="&#xf0;" horiz-adv-x="1282" 
d="M383 1044l-68 121l222 121q-56 32 -170 76l67 147q154 -49 287 -123l225 123l66 -120l-166 -91q171 -138 264.5 -325.5t93.5 -411.5q0 -287 -152 -438.5t-411 -151.5q-251 0 -407 138.5t-156 363.5q0 146 69.5 261t185 176t253.5 61q118 0 206 -38t126 -85
q-21 81 -85.5 176t-166.5 176zM641 162q143 0 231.5 87.5t88.5 223.5q0 137 -88 224t-232 87t-231.5 -86.5t-87.5 -224.5q0 -136 89.5 -223.5t229.5 -87.5z" />
    <glyph glyph-name="ntilde" unicode="&#xf1;" horiz-adv-x="1236" 
d="M119 0v621q0 200 139.5 318t359.5 118q222 0 361 -117.5t139 -318.5v-621h-233v561q0 139 -68 212t-199 73q-266 0 -266 -285v-561h-233zM406 1174l-146 28q8 41 23.5 76t40.5 66t64 49t87 18q23 0 46 -3t36 -6.5t35 -9.5t29 -8l49 -14q61 -18 88 -18q30 0 47.5 17
t28.5 56l143 -26q-8 -41 -23.5 -76t-40.5 -66t-64 -49t-87 -18q-53 0 -150 29l-49 16q-50 16 -84 16q-30 0 -46 -17.5t-27 -59.5z" />
    <glyph glyph-name="ograve" unicode="&#xf2;" horiz-adv-x="1282" 
d="M641 1057q157 0 286 -70.5t203 -195t74 -277.5q0 -113 -43.5 -213.5t-118 -173t-179 -114.5t-222.5 -42t-222.5 42t-179 114.5t-118 173t-43.5 213.5q0 153 74 277.5t203 195t286 70.5zM641 178q139 0 229.5 96.5t90.5 239.5q0 146 -90 242t-230 96t-229.5 -96
t-89.5 -242q0 -143 90 -239.5t229 -96.5zM768 1159l-379 191q0 32 31.5 77.5t89.5 45.5q47 0 111 -46l223 -161z" />
    <glyph glyph-name="oacute" unicode="&#xf3;" horiz-adv-x="1282" 
d="M641 1057q157 0 286 -70.5t203 -195t74 -277.5q0 -113 -43.5 -213.5t-118 -173t-179 -114.5t-222.5 -42t-222.5 42t-179 114.5t-118 173t-43.5 213.5q0 153 74 277.5t203 195t286 70.5zM641 178q139 0 229.5 96.5t90.5 239.5q0 146 -90 242t-230 96t-229.5 -96
t-89.5 -242q0 -143 90 -239.5t229 -96.5zM532 1159l-75 107l223 161q61 46 111 46q40 0 69.5 -26.5t40 -53t10.5 -43.5z" />
    <glyph glyph-name="ocircumflex" unicode="&#xf4;" horiz-adv-x="1282" 
d="M641 1057q157 0 286 -70.5t203 -195t74 -277.5q0 -113 -43.5 -213.5t-118 -173t-179 -114.5t-222.5 -42t-222.5 42t-179 114.5t-118 173t-43.5 213.5q0 153 74 277.5t203 195t286 70.5zM641 178q139 0 229.5 96.5t90.5 239.5q0 146 -90 242t-230 96t-229.5 -96
t-89.5 -242q0 -143 90 -239.5t229 -96.5zM401 1159l-84 98l193 154q27 22 42 32.5t40.5 22t48.5 11.5q52 0 133 -64l191 -156l-84 -98l-240 148z" />
    <glyph glyph-name="otilde" unicode="&#xf5;" horiz-adv-x="1282" 
d="M641 1057q157 0 286 -70.5t203 -195t74 -277.5q0 -113 -43.5 -213.5t-118 -173t-179 -114.5t-222.5 -42t-222.5 42t-179 114.5t-118 173t-43.5 213.5q0 153 74 277.5t203 195t286 70.5zM641 178q139 0 229.5 96.5t90.5 239.5q0 146 -90 242t-230 96t-229.5 -96
t-89.5 -242q0 -143 90 -239.5t229 -96.5zM428 1174l-145 28q8 41 23.5 76t40.5 66t64 49t87 18q23 0 46 -3t36 -6.5t34 -9.5t29 -8l49 -14q61 -18 88 -18q30 0 47.5 17t28.5 56l143 -26q-8 -41 -23.5 -76t-40.5 -66t-64 -49t-87 -18q-52 0 -149 29l-49 16q-50 16 -84 16
q-30 0 -46.5 -17.5t-27.5 -59.5z" />
    <glyph glyph-name="odieresis" unicode="&#xf6;" horiz-adv-x="1282" 
d="M641 1057q157 0 286 -70.5t203 -195t74 -277.5q0 -113 -43.5 -213.5t-118 -173t-179 -114.5t-222.5 -42t-222.5 42t-179 114.5t-118 173t-43.5 213.5q0 153 74 277.5t203 195t286 70.5zM641 178q139 0 229.5 96.5t90.5 239.5q0 146 -90 242t-230 96t-229.5 -96
t-89.5 -242q0 -143 90 -239.5t229 -96.5zM311 1298q0 50 38.5 87.5t92.5 37.5q53 0 91 -38.5t38 -86.5t-38 -86t-91 -38q-54 0 -92.5 37t-38.5 87zM842 1423q53 0 90 -38t37 -87t-37 -86.5t-90 -37.5t-92 38t-39 86t39 86.5t92 38.5z" />
    <glyph glyph-name="divide" unicode="&#xf7;" horiz-adv-x="1296" 
d="M135 805h940q109 0 109 -115q0 -50 -23 -104h-940q-108 0 -108 116q0 52 22 103zM651 1243q63 0 107.5 -44t44.5 -107t-44.5 -108.5t-107.5 -45.5q-65 0 -109 45t-44 109t44 107.5t109 43.5zM651 453q63 0 107.5 -45.5t44.5 -108.5t-44.5 -107.5t-107.5 -44.5
q-65 0 -109 44t-44 108t44 109t109 45z" />
    <glyph glyph-name="oslash" unicode="&#xf8;" horiz-adv-x="1282" 
d="M213 -141l106 204q-112 75 -176.5 193t-64.5 258q0 153 74 277.5t203 195t286 70.5q100 0 190 -33l41 82q19 34 39.5 49.5t53.5 15.5q32 0 60 -12t38 -22l-96 -176q112 -74 174.5 -191t62.5 -256q0 -113 -43.5 -213.5t-118 -173t-179 -114.5t-222.5 -42q-89 0 -184 29
l-76 -141h-168zM422 260l311 578q-46 16 -92 16q-141 0 -232.5 -97t-91.5 -243q0 -157 105 -254zM866 762l-313 -574q44 -14 88 -14q141 0 232.5 98.5t91.5 241.5q0 155 -99 248z" />
    <glyph glyph-name="ugrave" unicode="&#xf9;" horiz-adv-x="1239" 
d="M119 416v504q0 108 125 108q57 0 108 -22v-539q0 -285 266 -285q267 0 267 285v453q0 108 123 108q59 0 110 -22v-590q0 -208 -137 -326.5t-363 -118.5q-225 0 -362 118.5t-137 326.5zM721 1159l-379 191q0 32 31.5 77.5t89.5 45.5q46 0 110 -46l224 -161z" />
    <glyph glyph-name="uacute" unicode="&#xfa;" horiz-adv-x="1239" 
d="M119 416v504q0 108 125 108q57 0 108 -22v-539q0 -285 266 -285q267 0 267 285v453q0 108 123 108q59 0 110 -22v-590q0 -208 -137 -326.5t-363 -118.5q-225 0 -362 118.5t-137 326.5zM549 1159l-76 107l223 161q61 46 111 46q57 0 89 -46t32 -77z" />
    <glyph glyph-name="ucircumflex" unicode="&#xfb;" horiz-adv-x="1239" 
d="M119 416v504q0 108 125 108q57 0 108 -22v-539q0 -285 266 -285q267 0 267 285v453q0 108 123 108q59 0 110 -22v-590q0 -208 -137 -326.5t-363 -118.5q-225 0 -362 118.5t-137 326.5zM393 1159l-84 98l193 154q27 22 42 32.5t40.5 22t48.5 11.5q52 0 133 -64l190 -156
l-84 -98l-239 148z" />
    <glyph glyph-name="udieresis" unicode="&#xfc;" horiz-adv-x="1239" 
d="M119 416v504q0 108 125 108q57 0 108 -22v-539q0 -285 266 -285q267 0 267 285v453q0 108 123 108q59 0 110 -22v-590q0 -208 -137 -326.5t-363 -118.5q-225 0 -362 118.5t-137 326.5zM303 1298q0 50 38.5 87.5t92.5 37.5q53 0 91 -38.5t38 -86.5t-38 -86t-91 -38
q-54 0 -92.5 37t-38.5 87zM834 1423q53 0 90 -38t37 -87t-37 -86.5t-90 -37.5t-92.5 38t-39.5 86t39.5 86.5t92.5 38.5z" />
    <glyph glyph-name="yacute" unicode="&#xfd;" horiz-adv-x="1239" 
d="M119 412v508q0 108 123 108q59 0 110 -22v-547q0 -125 66 -194.5t198 -69.5q127 0 198 73.5t71 212.5v439q0 108 123 108q59 0 110 -22v-897q0 -142 -38.5 -246.5t-111.5 -168t-171 -94t-224 -30.5q-100 0 -198.5 16.5t-141.5 29.5t-75 26q19 46 59 174q149 -58 332 -58
q83 0 143.5 18t106.5 59.5t69 114t23 177.5q-41 -60 -128 -95.5t-192 -35.5q-203 0 -327.5 109.5t-124.5 306.5zM547 1159l-76 107l223 161q61 46 111 46q57 0 89 -46t32 -77z" />
    <glyph glyph-name="thorn" unicode="&#xfe;" horiz-adv-x="1280" 
d="M94 -410v1811q0 54 33 81t92 27q58 0 109 -22v-588q19 22 43.5 42.5t68.5 50t106 47.5t130 18q225 0 374.5 -153.5t149.5 -387.5q0 -157 -68.5 -281.5t-188 -193t-267.5 -68.5q-112 0 -203 43t-145 113v-539h-234zM643 180q139 0 227 96t88 240q0 141 -88 235.5
t-227 94.5q-140 0 -228.5 -92t-88.5 -238q0 -144 89 -240t228 -96z" />
    <glyph glyph-name="ydieresis" unicode="&#xff;" horiz-adv-x="1239" 
d="M119 412v508q0 108 123 108q59 0 110 -22v-547q0 -125 66 -194.5t198 -69.5q127 0 198 73.5t71 212.5v439q0 108 123 108q59 0 110 -22v-897q0 -142 -38.5 -246.5t-111.5 -168t-171 -94t-224 -30.5q-100 0 -198.5 16.5t-141.5 29.5t-75 26q19 46 59 174q149 -58 332 -58
q83 0 143.5 18t106.5 59.5t69 114t23 177.5q-41 -60 -128 -95.5t-192 -35.5q-203 0 -327.5 109.5t-124.5 306.5zM297 1298q0 50 38.5 87.5t92.5 37.5q53 0 91 -38.5t38 -86.5t-38 -86t-91 -38q-54 0 -92.5 37t-38.5 87zM827 1423q53 0 90 -38t37 -87t-37 -86.5t-90 -37.5
t-92 38t-39 86t39 86.5t92 38.5z" />
    <glyph glyph-name="Amacron" unicode="&#x100;" horiz-adv-x="1501" 
d="M256 0h-246q205 548 541 1296q36 80 83 113t120 33q32 0 67.5 -10.5t54 -20t23.5 -14.5q86 -151 302.5 -673.5t289.5 -723.5h-270q-15 37 -69 180t-71 187h-686q-58 -147 -139 -367zM481 582h518q-56 149 -137 343t-119 269q-141 -298 -262 -612zM401 1751h607
q51 0 70.5 -23.5t19.5 -68.5q0 -38 -19 -82h-604q-45 0 -67.5 24t-22.5 64q0 15 2 28.5t4 21.5t5.5 19.5t4.5 16.5z" />
    <glyph glyph-name="amacron" unicode="&#x101;" horiz-adv-x="1165" 
d="M1044 621v-617q-59 -11 -186 -22t-268 -11q-124 0 -217.5 18.5t-150.5 48.5t-92.5 74t-48.5 90t-13 101q0 173 113.5 256.5t377.5 83.5q142 0 252 -14q0 70 -22.5 118t-66 74t-97 36.5t-127.5 10.5q-104 0 -176.5 -22.5t-104.5 -48.5q-55 48 -55 108q0 152 340 152
q98 0 179 -14.5t149.5 -47t115 -83t72.5 -124t26 -167.5zM813 160v299q-90 20 -246 20q-139 0 -202.5 -41.5t-63.5 -132.5q0 -81 64.5 -122.5t224.5 -41.5q144 0 223 19zM287 1384h565q82 0 82 -84q0 -56 -16 -77h-566q-82 0 -82 84q0 37 17 77z" />
    <glyph glyph-name="Abreve" unicode="&#x102;" horiz-adv-x="1501" 
d="M256 0h-246q205 548 541 1296q36 80 83 113t120 33q32 0 67.5 -10.5t54 -20t23.5 -14.5q86 -151 302.5 -673.5t289.5 -723.5h-270q-15 37 -69 180t-71 187h-686q-58 -147 -139 -367zM481 582h518q-56 149 -137 343t-119 269q-141 -298 -262 -612zM406 1821l137 14
q47 -147 202 -147q158 0 205 147l135 -14q-2 -35 -12.5 -71.5t-36 -76.5t-62.5 -71t-96.5 -51.5t-132.5 -20.5t-132.5 20.5t-96 51.5t-62 71t-36 76.5t-12.5 71.5z" />
    <glyph glyph-name="abreve" unicode="&#x103;" horiz-adv-x="1165" 
d="M1044 621v-617q-59 -11 -186 -22t-268 -11q-124 0 -217.5 18.5t-150.5 48.5t-92.5 74t-48.5 90t-13 101q0 173 113.5 256.5t377.5 83.5q142 0 252 -14q0 70 -22.5 118t-66 74t-97 36.5t-127.5 10.5q-104 0 -176.5 -22.5t-104.5 -48.5q-55 48 -55 108q0 152 340 152
q98 0 179 -14.5t149.5 -47t115 -83t72.5 -124t26 -167.5zM813 160v299q-90 20 -246 20q-139 0 -202.5 -41.5t-63.5 -132.5q0 -81 64.5 -122.5t224.5 -41.5q144 0 223 19zM309 1450l113 14q36 -145 178 -145q71 0 117 37.5t63 107.5l111 -14q-2 -34 -11 -68.5t-30.5 -74
t-52.5 -69.5t-82 -49.5t-115 -19.5t-115 19.5t-82 49.5t-52.5 69.5t-30.5 74t-11 68.5z" />
    <glyph glyph-name="Aogonek" unicode="&#x104;" horiz-adv-x="1501" 
d="M256 0h-246q205 548 541 1296q36 80 83 113t120 33q32 0 67.5 -10.5t54 -20t23.5 -14.5q86 -151 302.5 -673.5t289.5 -723.5h-96q-70 -20 -118 -57t-48 -90q0 -36 26 -53t66 -17q31 0 62 8.5t46.5 16t22.5 12.5l51 -117q-99 -51 -219 -51q-106 0 -166.5 40.5t-60.5 127.5
q0 47 19 84.5t49 59.5t50 32t39 16l-133 355h-686q-58 -147 -139 -367zM481 582h518q-56 149 -137 343t-119 269q-141 -298 -262 -612z" />
    <glyph glyph-name="aogonek" unicode="&#x105;" horiz-adv-x="1165" 
d="M1044 621v-617q-9 -2 -116 -14q-67 -19 -112.5 -57t-45.5 -91q0 -75 98 -75q31 0 61.5 7.5t46 14.5t21.5 12l47 -108q-95 -49 -215 -49q-104 0 -163.5 39.5t-59.5 123.5q0 108 101 166q-19 0 -57.5 -1t-59.5 -1q-124 0 -217.5 18.5t-150.5 48.5t-92.5 74t-48.5 90
t-13 101q0 173 113.5 256.5t377.5 83.5q142 0 252 -14q0 70 -22.5 118t-66 74t-97 36.5t-127.5 10.5q-104 0 -176.5 -22.5t-104.5 -48.5q-55 48 -55 108q0 152 340 152q98 0 179 -14.5t149.5 -47t115 -83t72.5 -124t26 -167.5zM813 160v299q-90 20 -246 20
q-139 0 -202.5 -41.5t-63.5 -132.5q0 -81 64.5 -122.5t224.5 -41.5q144 0 223 19z" />
    <glyph glyph-name="Cacute" unicode="&#x106;" horiz-adv-x="1359" 
d="M1333 94h2q-180 -131 -491 -131q-152 0 -286.5 48.5t-238.5 139t-164.5 231.5t-60.5 314q0 172 58.5 314.5t160 236t236.5 144.5t289 51q111 0 200 -16.5t141 -41.5t86.5 -56t47 -57.5t12.5 -49.5q0 -47 -33.5 -90.5t-64.5 -59.5q-53 56 -155 104t-230 48
q-214 0 -353 -143t-139 -384q0 -122 40 -220t110 -161t163.5 -96t202.5 -33q116 0 211 29.5t148 65.5zM676 1522l-72 120l260 152q68 39 127 39q34 0 61 -17t40.5 -41t20.5 -44.5t7 -32.5z" />
    <glyph glyph-name="cacute" unicode="&#x107;" horiz-adv-x="1026" 
d="M913 248l99 -174q-158 -103 -379 -103q-115 0 -215 35.5t-176 102t-120 170t-44 231.5q0 171 74.5 296.5t201 188t287.5 62.5q186 0 277.5 -52.5t91.5 -121.5q0 -68 -80 -129q-43 41 -114 69.5t-165 28.5q-146 0 -237.5 -86t-91.5 -250q0 -87 26.5 -153t74 -105.5
t108.5 -59.5t133 -20q62 0 121 16t77.5 26t50.5 28zM514 1159l-76 107l224 161q61 46 110 46q57 0 89 -46t32 -77z" />
    <glyph glyph-name="Ccircumflex" unicode="&#x108;" horiz-adv-x="1359" 
d="M1327 94h2q-180 -131 -491 -131q-152 0 -286.5 48.5t-238.5 139t-164.5 231.5t-60.5 314q0 172 58.5 314.5t159.5 236t236 144.5t289 51q111 0 200 -16.5t141.5 -41.5t87 -56t47 -57.5t12.5 -49.5q0 -47 -33.5 -90.5t-64.5 -59.5q-53 56 -155 104t-230 48
q-214 0 -353 -143t-139 -384q0 -122 40 -220t110 -161t163.5 -96t202.5 -33q116 0 211 29.5t148 65.5zM571 1518l-96 100l213 154q88 61 143 61q39 0 90.5 -25t88.5 -52t96.5 -74.5t81.5 -63.5l-96 -100l-261 141z" />
    <glyph glyph-name="ccircumflex" unicode="&#x109;" horiz-adv-x="1026" 
d="M913 248l99 -174q-158 -103 -379 -103q-115 0 -215 35.5t-176 102t-120 170t-44 231.5q0 171 74.5 296.5t201 188t287.5 62.5q186 0 277.5 -52.5t91.5 -121.5q0 -68 -80 -129q-43 41 -114 69.5t-165 28.5q-146 0 -237.5 -86t-91.5 -250q0 -87 26.5 -153t74 -105.5
t108.5 -59.5t133 -20q62 0 121 16t77.5 26t50.5 28zM373 1159l-84 98l192 154q27 22 42 32.5t40.5 22t48.5 11.5q52 0 133 -64l191 -156l-84 -98l-240 148z" />
    <glyph glyph-name="Cdotaccent" unicode="&#x10a;" horiz-adv-x="1359" 
d="M1327 94h2q-180 -131 -491 -131q-152 0 -286.5 48.5t-238.5 139t-164.5 231.5t-60.5 314q0 172 58.5 314.5t159.5 236t236 144.5t289 51q111 0 200 -16.5t141.5 -41.5t87 -56t47 -57.5t12.5 -49.5q0 -47 -33.5 -90.5t-64.5 -59.5q-53 56 -155 104t-230 48
q-214 0 -353 -143t-139 -384q0 -122 40 -220t110 -161t163.5 -96t202.5 -33q116 0 211 29.5t148 65.5zM696 1661q0 50 40.5 89.5t94.5 39.5q51 0 90.5 -39.5t39.5 -89.5q0 -48 -40 -87.5t-90 -39.5q-53 0 -94 39.5t-41 87.5z" />
    <glyph glyph-name="cdotaccent" unicode="&#x10b;" horiz-adv-x="1026" 
d="M913 248l99 -174q-158 -103 -379 -103q-115 0 -215 35.5t-176 102t-120 170t-44 231.5q0 171 74.5 296.5t201 188t287.5 62.5q186 0 277.5 -52.5t91.5 -121.5q0 -68 -80 -129q-43 41 -114 69.5t-165 28.5q-146 0 -237.5 -86t-91.5 -250q0 -87 26.5 -153t74 -105.5
t108.5 -59.5t133 -20q62 0 121 16t77.5 26t50.5 28zM637 1423q50 0 88.5 -38.5t38.5 -86.5t-38.5 -86t-88.5 -38q-54 0 -92.5 37t-38.5 87t38.5 87.5t92.5 37.5z" />
    <glyph glyph-name="Ccaron" unicode="&#x10c;" horiz-adv-x="1359" 
d="M1327 94h2q-180 -131 -491 -131q-152 0 -286.5 48.5t-238.5 139t-164.5 231.5t-60.5 314q0 172 58.5 314.5t159.5 236t236 144.5t289 51q111 0 200 -16.5t141.5 -41.5t87 -56t47 -57.5t12.5 -49.5q0 -47 -33.5 -90.5t-64.5 -59.5q-53 56 -155 104t-230 48
q-214 0 -353 -143t-139 -384q0 -122 40 -220t110 -161t163.5 -96t202.5 -33q116 0 211 29.5t148 65.5zM457 1735l92 98l262 -141q220 117 262 141l92 -98l-211 -154q-78 -59 -143 -59q-69 0 -143 59z" />
    <glyph glyph-name="ccaron" unicode="&#x10d;" horiz-adv-x="1026" 
d="M913 248l99 -174q-158 -103 -379 -103q-115 0 -215 35.5t-176 102t-120 170t-44 231.5q0 171 74.5 296.5t201 188t287.5 62.5q186 0 277.5 -52.5t91.5 -121.5q0 -68 -80 -129q-43 41 -114 69.5t-165 28.5q-146 0 -237.5 -86t-91.5 -250q0 -87 26.5 -153t74 -105.5
t108.5 -59.5t133 -20q62 0 121 16t77.5 26t50.5 28zM309 1378l80 99l242 -148l241 148l80 -99l-190 -155q-25 -20 -41.5 -31.5t-41.5 -22t-48 -10.5t-48 10.5t-41.5 22t-41.5 31.5z" />
    <glyph glyph-name="Dcaron" unicode="&#x10e;" horiz-adv-x="1527" 
d="M393 1198v-985q37 -14 215 -14q277 0 425.5 132t148.5 374q0 113 -34 204t-102.5 159t-180 105t-257.5 37q-155 0 -215 -12zM150 0v1272q0 36 8 60.5t31.5 42t52.5 27t86.5 15t117 7t158.5 1.5q388 0 611 -193t223 -527q0 -341 -220.5 -533t-629.5 -192q-298 0 -438 20z
M342 1735l92 98l262 -141q220 117 262 141l93 -98l-211 -154q-78 -59 -144 -59q-69 0 -143 59z" />
    <glyph glyph-name="dcaron" unicode="&#x10f;" horiz-adv-x="1280" 
d="M952 899v502q0 108 123 108q58 0 109 -22v-924q0 -145 -41.5 -259t-116 -186.5t-174.5 -109.5t-219 -37q-239 0 -397 154t-158 389q0 236 149.5 389.5t374.5 153.5q113 0 204.5 -44t145.5 -114zM952 514q0 143 -88.5 238.5t-226.5 95.5q-139 0 -227 -95t-88 -239
q0 -143 88 -237.5t227 -94.5q140 0 227.5 92t87.5 240zM1503 1057h-139v444q13 8 55 8q70 0 100.5 -32t30.5 -95q0 -13 -4 -49z" />
    <glyph glyph-name="Dcroat" unicode="&#x110;" horiz-adv-x="1527" 
d="M152 0v623h-91q-94 0 -94 102q0 39 21 88h164v459q0 36 8 60.5t31.5 42t52.5 27t86.5 15t117 7t158.5 1.5q388 0 611 -193t223 -527q0 -341 -220.5 -533t-629.5 -192q-298 0 -438 20zM395 623v-410q37 -14 215 -14q277 0 425.5 132t148.5 374q0 113 -34 204t-102.5 159
t-180 105t-257.5 37q-155 0 -215 -12v-385h262q52 0 73.5 -25t21.5 -75q0 -41 -21 -90h-336z" />
    <glyph glyph-name="dcroat" unicode="&#x111;" horiz-adv-x="1280" 
d="M952 879v268h-252q-94 0 -94 96q0 33 21 82h325v76q0 108 123 108q58 0 109 -22v-162h92q94 0 94 -94q0 -37 -20 -84h-166v-584q0 -145 -41.5 -259t-116 -186.5t-174.5 -109.5t-219 -37q-240 0 -397.5 151.5t-157.5 385.5q0 235 148.5 381.5t375.5 146.5
q113 0 204.5 -43.5t145.5 -113.5zM637 182q140 0 227.5 92t87.5 240q0 140 -89 226.5t-230 86.5t-226 -88t-85 -231q0 -142 87.5 -234t227.5 -92z" />
    <glyph glyph-name="Emacron" unicode="&#x112;" horiz-adv-x="1306" 
d="M193 0v1266q0 139 149 139h786q123 0 123 -111q0 -60 -30 -112h-781v-353h660q121 0 121 -110q0 -34 -10.5 -66.5t-20.5 -46.5h-750v-383h799v-223h-1046zM395 1751h606q51 0 71 -23.5t20 -68.5q0 -38 -19 -82h-604q-45 0 -67.5 24t-22.5 64q0 15 2 28.5t4 21.5t5.5 19.5
t4.5 16.5z" />
    <glyph glyph-name="emacron" unicode="&#x113;" horiz-adv-x="1128" 
d="M948 240l86 -164q-32 -21 -76.5 -41t-138 -42t-194.5 -22q-154 0 -277 61t-197.5 184t-74.5 290q0 244 158 397.5t399 153.5q206 0 323 -97.5t117 -242.5q0 -59 -16.5 -105.5t-58 -88t-108 -68.5t-170 -42.5t-241.5 -15.5q-43 0 -153 4q18 -108 104.5 -170.5t239.5 -62.5
q138 0 278 72zM315 561q63 -2 177 -2q109 0 182.5 13.5t109 38t49 50.5t13.5 60q0 75 -60.5 115.5t-156.5 40.5q-143 0 -226 -93.5t-88 -222.5zM305 1384h565q82 0 82 -84q0 -56 -16 -77h-565q-82 0 -82 84q0 40 16 77z" />
    <glyph glyph-name="Ebreve" unicode="&#x114;" horiz-adv-x="1306" 
d="M150 0v1266q0 139 149 139h786q123 0 123 -111q0 -60 -30 -112h-781v-353h660q121 0 121 -110q0 -34 -10.5 -66.5t-20.5 -46.5h-750v-383h799v-223h-1046zM352 1821l137 14q47 -147 203 -147q158 0 205 147l135 -14q-2 -35 -12.5 -71.5t-36 -76.5t-62.5 -71t-96.5 -51.5
t-132.5 -20.5t-132.5 20.5t-96.5 51.5t-62.5 71t-36 76.5t-12.5 71.5z" />
    <glyph glyph-name="ebreve" unicode="&#x115;" horiz-adv-x="1128" 
d="M948 240l86 -164q-32 -21 -76.5 -41t-138 -42t-194.5 -22q-154 0 -277 61t-197.5 184t-74.5 290q0 244 158 397.5t399 153.5q206 0 323 -97.5t117 -242.5q0 -59 -16.5 -105.5t-58 -88t-108 -68.5t-170 -42.5t-241.5 -15.5q-43 0 -153 4q18 -108 104.5 -170.5t239.5 -62.5
q138 0 278 72zM315 561q63 -2 177 -2q109 0 182.5 13.5t109 38t49 50.5t13.5 60q0 75 -60.5 115.5t-156.5 40.5q-143 0 -226 -93.5t-88 -222.5zM344 1450l113 14q36 -145 178 -145q71 0 117 37.5t63 107.5l111 -14q-2 -34 -11 -68.5t-30.5 -74t-52.5 -69.5t-82 -49.5
t-115 -19.5t-115 19.5t-82 49.5t-52.5 69.5t-30.5 74t-11 68.5z" />
    <glyph glyph-name="Edotaccent" unicode="&#x116;" horiz-adv-x="1306" 
d="M150 0v1266q0 139 149 139h786q123 0 123 -111q0 -60 -30 -112h-781v-353h660q121 0 121 -110q0 -34 -10.5 -66.5t-20.5 -46.5h-750v-383h799v-223h-1046zM571 1661q0 50 41 89.5t95 39.5q51 0 90 -39.5t39 -89.5q0 -48 -39.5 -87.5t-89.5 -39.5q-53 0 -94.5 39.5
t-41.5 87.5z" />
    <glyph glyph-name="edotaccent" unicode="&#x117;" horiz-adv-x="1128" 
d="M948 240l86 -164q-32 -21 -76.5 -41t-138 -42t-194.5 -22q-154 0 -277 61t-197.5 184t-74.5 290q0 244 158 397.5t399 153.5q206 0 323 -97.5t117 -242.5q0 -59 -16.5 -105.5t-58 -88t-108 -68.5t-170 -42.5t-241.5 -15.5q-43 0 -153 4q18 -108 104.5 -170.5t239.5 -62.5
q138 0 278 72zM315 561q63 -2 177 -2q109 0 182.5 13.5t109 38t49 50.5t13.5 60q0 75 -60.5 115.5t-156.5 40.5q-143 0 -226 -93.5t-88 -222.5zM629 1423q50 0 88.5 -38.5t38.5 -86.5t-38.5 -86t-88.5 -38q-54 0 -92.5 37t-38.5 87t38.5 87.5t92.5 37.5z" />
    <glyph glyph-name="Eogonek" unicode="&#x118;" horiz-adv-x="1306" 
d="M150 0v1266q0 139 149 139h786q123 0 123 -111q0 -60 -30 -112h-781v-353h660q121 0 121 -110q0 -34 -10.5 -66.5t-20.5 -46.5h-750v-383h799v-223h-109q-70 -20 -117.5 -57t-47.5 -90q0 -36 26 -53t66 -17q31 0 62 8.5t46.5 16t22.5 12.5l51 -117q-99 -51 -219 -51
q-106 0 -166.5 40.5t-60.5 127.5q0 68 37.5 112.5t86.5 67.5h-724z" />
    <glyph glyph-name="eogonek" unicode="&#x119;" horiz-adv-x="1128" 
d="M948 240l86 -164q-74 -55 -219 -84q-143 -52 -143 -144q0 -75 98 -75q31 0 61.5 7.5t46 14.5t21.5 12l47 -108q-95 -49 -215 -49q-104 0 -163.5 40t-59.5 124q0 94 88 157q-147 5 -263.5 68t-186.5 184.5t-70 282.5q0 244 158 397.5t399 153.5q206 0 323 -97.5
t117 -242.5q0 -59 -16.5 -105.5t-58 -88t-108 -68.5t-170 -42.5t-241.5 -15.5q-43 0 -153 4q18 -108 104.5 -170.5t239.5 -62.5q138 0 278 72zM315 561q63 -2 177 -2q109 0 182.5 13.5t109 38t49 50.5t13.5 60q0 75 -60.5 115.5t-156.5 40.5q-143 0 -226 -93.5t-88 -222.5z
" />
    <glyph glyph-name="Ecaron" unicode="&#x11a;" horiz-adv-x="1306" 
d="M150 0v1266q0 139 149 139h786q123 0 123 -111q0 -60 -30 -112h-781v-353h660q121 0 121 -110q0 -34 -10.5 -66.5t-20.5 -46.5h-750v-383h799v-223h-1046zM350 1735l92 98l263 -141q220 117 262 141l92 -98l-211 -154q-78 -59 -143 -59q-70 0 -144 59z" />
    <glyph glyph-name="ecaron" unicode="&#x11b;" horiz-adv-x="1128" 
d="M948 240l86 -164q-32 -21 -76.5 -41t-138 -42t-194.5 -22q-154 0 -277 61t-197.5 184t-74.5 290q0 244 158 397.5t399 153.5q206 0 323 -97.5t117 -242.5q0 -59 -16.5 -105.5t-58 -88t-108 -68.5t-170 -42.5t-241.5 -15.5q-43 0 -153 4q18 -108 104.5 -170.5t239.5 -62.5
q138 0 278 72zM315 561q63 -2 177 -2q109 0 182.5 13.5t109 38t49 50.5t13.5 60q0 75 -60.5 115.5t-156.5 40.5q-143 0 -226 -93.5t-88 -222.5zM307 1378l80 99l242 -148l241 148l80 -99l-190 -155q-25 -20 -41.5 -31.5t-41.5 -22t-48 -10.5t-48 10.5t-41.5 22t-41.5 31.5z
" />
    <glyph glyph-name="Gcircumflex" unicode="&#x11c;" horiz-adv-x="1472" 
d="M1112 195v370h-240q-120 0 -120 107q0 70 30 112h424q146 0 146 -139v-647q-44 -10 -177.5 -22.5t-273.5 -12.5q-240 0 -421.5 82t-286.5 250t-105 405q0 169 59.5 309t163.5 234.5t247 146.5t308 52q149 0 255 -31t159 -68q72 -48 72 -108q0 -46 -32.5 -87t-66.5 -63
q-54 54 -155.5 96t-235.5 42q-230 0 -374 -141.5t-144 -381.5q0 -132 41 -232t117 -162t178.5 -93t230.5 -31q162 0 201 13zM594 1518l-96 100l213 154q88 61 143 61q39 0 90 -25t88 -52t96 -74t82 -64l-96 -100l-260 141z" />
    <glyph glyph-name="gcircumflex" unicode="&#x11d;" horiz-adv-x="1280" 
d="M184 -350l64 174q23 -11 56.5 -23t111.5 -27.5t157 -15.5q379 0 379 367v25q-55 -64 -145.5 -109t-204.5 -45q-230 0 -377 145t-147 377q0 233 158 386t403 153q119 0 217 -35.5t172 -105.5t115 -183t41 -260v-295q0 -159 -43.5 -277.5t-123.5 -190t-184.5 -106
t-234.5 -34.5q-242 0 -414 80zM637 193q137 0 225 91.5t88 233.5t-88 235t-225 93q-140 0 -227.5 -95t-87.5 -233q0 -148 86 -236.5t229 -88.5zM412 1159l-84 98l192 154q27 22 42 32.5t40.5 22t48.5 11.5q52 0 133 -64l191 -156l-84 -98l-240 148z" />
    <glyph glyph-name="Gbreve" unicode="&#x11e;" horiz-adv-x="1472" 
d="M1112 195v370h-240q-120 0 -120 107q0 70 30 112h424q146 0 146 -139v-647q-44 -10 -177.5 -22.5t-273.5 -12.5q-240 0 -421.5 82t-286.5 250t-105 405q0 169 59.5 309t163.5 234.5t247 146.5t308 52q149 0 255 -31t159 -68q72 -48 72 -108q0 -46 -32.5 -87t-66.5 -63
q-54 54 -155.5 96t-235.5 42q-230 0 -374 -141.5t-144 -381.5q0 -132 41 -232t117 -162t178.5 -93t230.5 -31q162 0 201 13zM522 1821l137 14q47 -147 203 -147q158 0 205 147l135 -14q-2 -35 -12.5 -71.5t-36 -76.5t-62.5 -71t-96.5 -51.5t-132.5 -20.5t-132.5 20.5
t-96.5 51.5t-62.5 71t-36 76.5t-12.5 71.5z" />
    <glyph glyph-name="gbreve" unicode="&#x11f;" horiz-adv-x="1280" 
d="M184 -350l64 174q23 -11 56.5 -23t111.5 -27.5t157 -15.5q379 0 379 367v25q-55 -64 -145.5 -109t-204.5 -45q-230 0 -377 145t-147 377q0 233 158 386t403 153q119 0 217 -35.5t172 -105.5t115 -183t41 -260v-295q0 -159 -43.5 -277.5t-123.5 -190t-184.5 -106
t-234.5 -34.5q-242 0 -414 80zM637 193q137 0 225 91.5t88 233.5t-88 235t-225 93q-140 0 -227.5 -95t-87.5 -233q0 -148 86 -236.5t229 -88.5zM362 1450l113 14q36 -145 178 -145q71 0 117.5 37.5t63.5 107.5l110 -14q-2 -34 -11 -68.5t-30.5 -74t-52.5 -69.5t-82 -49.5
t-115 -19.5t-115 19.5t-82 49.5t-52.5 69.5t-30.5 74t-11 68.5z" />
    <glyph glyph-name="Gdotaccent" unicode="&#x120;" horiz-adv-x="1472" 
d="M1112 195v370h-240q-120 0 -120 107q0 70 30 112h424q146 0 146 -139v-647q-44 -10 -177.5 -22.5t-273.5 -12.5q-240 0 -421.5 82t-286.5 250t-105 405q0 169 59.5 309t163.5 234.5t247 146.5t308 52q149 0 255 -31t159 -68q72 -48 72 -108q0 -46 -32.5 -87t-66.5 -63
q-54 54 -155.5 96t-235.5 42q-230 0 -374 -141.5t-144 -381.5q0 -132 41 -232t117 -162t178.5 -93t230.5 -31q162 0 201 13zM719 1661q0 50 40.5 89.5t94.5 39.5q51 0 90 -39.5t39 -89.5q0 -48 -39.5 -87.5t-89.5 -39.5q-53 0 -94 39.5t-41 87.5z" />
    <glyph glyph-name="gdotaccent" unicode="&#x121;" horiz-adv-x="1280" 
d="M184 -350l64 174q23 -11 56.5 -23t111.5 -27.5t157 -15.5q379 0 379 367v25q-55 -64 -145.5 -109t-204.5 -45q-230 0 -377 145t-147 377q0 233 158 386t403 153q119 0 217 -35.5t172 -105.5t115 -183t41 -260v-295q0 -159 -43.5 -277.5t-123.5 -190t-184.5 -106
t-234.5 -34.5q-242 0 -414 80zM637 193q137 0 225 91.5t88 233.5t-88 235t-225 93q-140 0 -227.5 -95t-87.5 -233q0 -148 86 -236.5t229 -88.5zM664 1423q50 0 88.5 -38.5t38.5 -86.5t-38.5 -86t-88.5 -38q-54 0 -93 37t-39 87t39 87.5t93 37.5z" />
    <glyph glyph-name="Gcommaaccent" unicode="&#x122;" horiz-adv-x="1472" 
d="M1112 195v370h-240q-120 0 -120 107q0 70 30 112h424q146 0 146 -139v-647q-44 -10 -177.5 -22.5t-273.5 -12.5q-240 0 -421.5 82t-286.5 250t-105 405q0 169 59.5 309t163.5 234.5t247 146.5t308 52q149 0 255 -31t159 -68q72 -48 72 -108q0 -46 -32.5 -87t-66.5 -63
q-54 54 -155.5 96t-235.5 42q-230 0 -374 -141.5t-144 -381.5q0 -132 41 -232t117 -162t178.5 -93t230.5 -31q162 0 201 13zM692 -494l27 242q13 137 121 137q55 0 110 -39l-123 -364z" />
    <glyph glyph-name="gcommaaccent" unicode="&#x123;" horiz-adv-x="1280" 
d="M184 -350l64 174q23 -11 56.5 -23t111.5 -27.5t157 -15.5q379 0 379 367v25q-55 -64 -145.5 -109t-204.5 -45q-230 0 -377 145t-147 377q0 233 158 386t403 153q119 0 217 -35.5t172 -105.5t115 -183t41 -260v-295q0 -159 -43.5 -277.5t-123.5 -190t-184.5 -106
t-234.5 -34.5q-242 0 -414 80zM637 193q137 0 225 91.5t88 233.5t-88 235t-225 93q-140 0 -227.5 -95t-87.5 -233q0 -148 86 -236.5t229 -88.5zM774 1538l-26 -242q-16 -137 -121 -137q-56 0 -111 39l123 365z" />
    <glyph glyph-name="Hcircumflex" unicode="&#x124;" horiz-adv-x="1507" 
d="M150 0v1292q0 56 34 84.5t95 28.5q56 0 114 -25v-538h721v450q0 56 33 84.5t94 28.5q70 0 117 -27v-1378h-244v618h-721v-618h-243zM514 1518l-96 100l213 154q88 61 143 61q39 0 90 -25t88 -52t96 -74t82 -64l-96 -100l-260 141z" />
    <glyph glyph-name="hcircumflex" unicode="&#x125;" horiz-adv-x="1234" 
d="M119 0v1401q0 108 125 108q57 0 108 -22v-563q48 58 132 96.5t204 38.5q196 0 312 -108t116 -310v-641h-233v571q0 139 -58.5 207t-191.5 68q-137 0 -209 -79t-72 -216v-551h-233zM238 1589l-84 99l192 153q27 22 42 32.5t40.5 22t48.5 11.5q52 0 133 -64l191 -155
l-84 -99l-240 148z" />
    <glyph glyph-name="Hbar" unicode="&#x126;" horiz-adv-x="1597" 
d="M195 0v999h-91q-94 0 -94 103q0 39 21 88h164v102q0 56 34 84.5t95 28.5q56 0 114 -25v-190h721v102q0 56 33 84.5t94 28.5q70 0 117 -27v-188h90q52 0 73 -25t21 -75q0 -44 -20 -91h-164v-999h-244v618h-721v-618h-243zM438 842h721v157h-721v-157z" />
    <glyph glyph-name="hbar" unicode="&#x127;" horiz-adv-x="1234" 
d="M119 0v1155h-70q-94 0 -94 96q0 35 20 82h144v68q0 108 125 108q57 0 108 -22v-154h262q95 0 95 -94q0 -35 -21 -84h-336v-272q48 58 132 96.5t204 38.5q196 0 312 -108t116 -310v-600h-233v530q0 139 -58.5 207t-191.5 68q-137 0 -209 -79t-72 -216v-510h-233z" />
    <glyph glyph-name="Itilde" unicode="&#x128;" horiz-adv-x="542" 
d="M150 0v1292q0 56 34 84.5t95 28.5q56 0 114 -25v-1380h-243zM68 1538l-154 29q47 215 217 215q64 0 153 -30t130 -30q28 0 43 17t26 57l152 -27q-17 -91 -70.5 -153t-146.5 -62q-66 0 -154.5 31t-128.5 31q-28 0 -42 -17.5t-25 -60.5z" />
    <glyph glyph-name="itilde" unicode="&#x129;" horiz-adv-x="493" 
d="M129 0v920q0 108 125 108q57 0 108 -22v-1006h-233zM37 1174l-146 28q8 41 23.5 76t40.5 66t64 49t87 18q23 0 46 -3t36 -6.5t35 -9.5t29 -8l49 -14q61 -18 88 -18q30 0 47.5 17t28.5 56l143 -26q-8 -41 -23.5 -76t-40.5 -66t-64 -49t-87 -18q-52 0 -149 29l-49 16
q-50 16 -84 16q-30 0 -46.5 -17.5t-27.5 -59.5z" />
    <glyph glyph-name="Imacron" unicode="&#x12a;" horiz-adv-x="542" 
d="M150 0v1292q0 56 34 84.5t95 28.5q56 0 114 -25v-1380h-243zM-59 1751h606q51 0 70.5 -23.5t19.5 -68.5q0 -38 -19 -82h-604q-45 0 -67.5 24t-22.5 64q0 19 2.5 33.5t8 32t6.5 20.5z" />
    <glyph glyph-name="imacron" unicode="&#x12b;" horiz-adv-x="493" 
d="M129 0v920q0 108 125 108q57 0 108 -22v-1006h-233zM-51 1384h565q82 0 82 -84q0 -56 -16 -77h-566q-82 0 -82 84q0 37 17 77z" />
    <glyph glyph-name="Ibreve" unicode="&#x12c;" horiz-adv-x="542" 
d="M150 0v1292q0 56 34 84.5t95 28.5q56 0 114 -25v-1380h-243zM-61 1821l137 14q47 -147 203 -147q157 0 204 147l135 -14q-2 -35 -12.5 -71.5t-36 -76.5t-62 -71t-96 -51.5t-132.5 -20.5t-132.5 20.5t-96.5 51.5t-62.5 71t-36 76.5t-12.5 71.5z" />
    <glyph glyph-name="ibreve" unicode="&#x12d;" horiz-adv-x="493" 
d="M129 0v920q0 108 125 108q57 0 108 -22v-1006h-233zM-25 1450l113 14q36 -145 178 -145q71 0 117 37.5t63 107.5l111 -14q-2 -34 -11 -68.5t-30.5 -74t-52.5 -69.5t-82 -49.5t-115 -19.5t-115 19.5t-82 49.5t-52.5 69.5t-30.5 74t-11 68.5z" />
    <glyph glyph-name="Iogonek" unicode="&#x12e;" horiz-adv-x="542" 
d="M393 0h-33q-70 -20 -117.5 -57t-47.5 -90q0 -36 26 -53t66 -17q31 0 62 8.5t46.5 16t22.5 12.5l51 -117q-99 -51 -219 -51q-106 0 -166.5 40.5t-60.5 127.5q0 120 127 180v1292q0 56 34 84.5t95 28.5q56 0 114 -25v-1380z" />
    <glyph glyph-name="iogonek" unicode="&#x12f;" horiz-adv-x="493" 
d="M129 0v920q0 108 125 108q57 0 108 -22v-1006h-38q-73 -20 -122.5 -58t-49.5 -94q0 -75 98 -75q31 0 61.5 7.5t46 14.5t21.5 12l47 -108q-95 -49 -215 -49q-104 0 -163.5 40t-59.5 124q0 41 15 75.5t39 56t45 34.5t42 20z" />
    <glyph glyph-name="Idotaccent" unicode="&#x130;" horiz-adv-x="815" 
d="M150 0v1292q0 56 34 84.5t95 28.5q56 0 114 -25v-1380h-243zM156 1661q0 50 40.5 89.5t94.5 39.5q51 0 90 -39.5t39 -89.5q0 -48 -39.5 -87.5t-89.5 -39.5q-53 0 -94 39.5t-41 87.5z" />
    <glyph glyph-name="dotlessi" unicode="&#x131;" horiz-adv-x="493" 
d="M129 0v920q0 108 125 108q57 0 108 -22v-1006h-233z" />
    <glyph glyph-name="IJ" unicode="&#x132;" horiz-adv-x="1890" 
d="M150 0v1292q0 56 34 84.5t95 28.5q56 0 114 -25v-1380h-243zM578 215l163 141q17 -25 40.5 -50t65 -58t102.5 -53.5t130 -20.5q299 0 299 320v798q0 56 33 84.5t94 28.5q70 0 117 -27v-901q0 -240 -135 -377t-397 -137q-91 0 -174.5 22.5t-139.5 54t-101.5 68.5t-67 64
t-29.5 43z" />
    <glyph glyph-name="ij" unicode="&#x133;" horiz-adv-x="995" 
d="M129 0v920q0 108 125 108q57 0 108 -22v-1006h-233zM246 1489q60 0 100.5 -40.5t40.5 -100.5t-40.5 -101t-100.5 -41t-101 41t-41 101t41 100.5t101 40.5zM236 -379l61 168q64 -31 149 -31q39 0 69 7.5t58 27t43 58t15 94.5v975q0 108 125 108q57 0 108 -22v-1043
q0 -89 -21 -158t-56 -112.5t-85 -71.5t-103.5 -39.5t-115.5 -11.5q-72 0 -142.5 17t-104.5 34zM748 1489q60 0 100.5 -40.5t40.5 -100.5t-40.5 -101t-100.5 -41t-101 41t-41 101t41 100.5t101 40.5z" />
    <glyph glyph-name="Jcircumflex" unicode="&#x134;" horiz-adv-x="1202" 
d="M23 215l163 141q17 -25 40.5 -50t65 -58t102.5 -53.5t130 -20.5q299 0 299 320v798q0 56 33 84.5t94 28.5q70 0 117 -27v-901q0 -240 -135 -377t-397 -137q-91 0 -174.5 22.5t-139.5 54t-101.5 68.5t-67 64t-29.5 43zM688 1518l-96 100l213 154q88 61 143 61
q39 0 90.5 -25t88.5 -52t96.5 -74.5t81.5 -63.5l-97 -100l-260 141z" />
    <glyph glyph-name="jcircumflex" unicode="&#x135;" horiz-adv-x="493" 
d="M-266 -379l61 168q64 -31 150 -31q39 0 69 7.5t57.5 27t42.5 58t15 94.5v975q0 108 125 108q57 0 108 -22v-1043q0 -89 -21 -158t-56 -112.5t-84.5 -71.5t-103 -39.5t-115.5 -11.5q-72 0 -143 17t-105 34zM10 1159l-84 98l193 154q27 22 42 32.5t40.5 22t48.5 11.5
q52 0 133 -64l190 -156l-84 -98l-239 148z" />
    <glyph glyph-name="Kcommaaccent" unicode="&#x136;" horiz-adv-x="1359" 
d="M150 0v1292q0 56 34 84.5t95 28.5q56 0 114 -25v-571q105 101 290.5 270t260.5 232q44 36 65 51t56.5 29t73.5 14q58 0 100 -23.5t59 -48.5q-29 -29 -272 -246t-385 -342q442 -390 709 -745h-301q-123 146 -308 331t-348 314v-645h-243zM571 -494l27 242q13 137 121 137
q55 0 110 -39l-122 -364z" />
    <glyph glyph-name="kcommaaccent" unicode="&#x137;" horiz-adv-x="1140" 
d="M119 0v1401q0 108 125 108q57 0 108 -22v-838q34 23 189.5 139t236.5 173q50 37 86.5 52t91.5 15q50 0 90 -27t54 -53q-51 -46 -154 -122.5t-231 -166.5t-133 -94q164 -122 308.5 -271t250.5 -294h-291q-90 111 -227 237t-271 226v-463h-233zM465 -494l27 242
q13 137 120 137q56 0 111 -39l-123 -364z" />
    <glyph glyph-name="kgreenlandic" unicode="&#x138;" horiz-adv-x="1140" 
d="M119 0v920q0 108 125 108q57 0 108 -22v-402q28 19 184 157.5t242 199.5q50 37 86.5 52t91.5 15q50 0 88.5 -23.5t51.5 -48.5q-85 -79 -269.5 -231t-248.5 -197q163 -114 326 -267.5t237 -260.5h-291q-280 270 -498 418v-418h-233z" />
    <glyph glyph-name="Lacute" unicode="&#x139;" horiz-adv-x="1126" 
d="M150 0v1292q0 56 34 84.5t95 28.5q56 0 114 -25v-1157h723v-223h-966zM176 1522l-72 120l261 152q68 39 127 39q34 0 61 -17t40.5 -41t20.5 -44.5t7 -32.5z" />
    <glyph glyph-name="lacute" unicode="&#x13a;" horiz-adv-x="493" 
d="M129 0v1401q0 108 125 108q57 0 108 -22v-1487h-233zM143 1632l-75 107l223 162q60 45 110 45q57 0 89 -46t32 -77z" />
    <glyph glyph-name="Lcommaaccent" unicode="&#x13b;" horiz-adv-x="1126" 
d="M150 0v1292q0 56 34 84.5t95 28.5q56 0 114 -25v-1157h723v-223h-966zM494 -494l26 242q13 137 121 137q56 0 111 -39l-123 -364z" />
    <glyph glyph-name="lcommaaccent" unicode="&#x13c;" horiz-adv-x="493" 
d="M129 0v1401q0 108 125 108q57 0 108 -22v-1487h-233zM96 -494l27 242q13 137 121 137q55 0 110 -39l-123 -364z" />
    <glyph glyph-name="Lcaron" unicode="&#x13d;" horiz-adv-x="1126" 
d="M150 0v1292q0 56 34 84.5t95 28.5q56 0 114 -25v-1157h723v-223h-966zM737 954h-139v445q13 8 55 8q70 0 100.5 -32t30.5 -95q0 -13 -4 -49z" />
    <glyph glyph-name="lcaron" unicode="&#x13e;" horiz-adv-x="493" 
d="M129 0v1401q0 108 125 108q57 0 108 -22v-1487h-233zM682 1057h-139v444q13 8 55 8q70 0 100.5 -32t30.5 -95q0 -13 -4 -49z" />
    <glyph glyph-name="Ldot" unicode="&#x13f;" horiz-adv-x="1126" 
d="M150 0v1292q0 56 34 84.5t95 28.5q56 0 114 -25v-1157h723v-223h-966zM700 809q0 50 41 89.5t95 39.5q51 0 90 -39.5t39 -89.5q0 -48 -39.5 -87.5t-89.5 -39.5q-53 0 -94.5 39.5t-41.5 87.5z" />
    <glyph glyph-name="ldot" unicode="&#x140;" horiz-adv-x="802" 
d="M129 0v1401q0 108 125 108q57 0 108 -22v-1487h-233zM647 928q50 0 88.5 -38.5t38.5 -86.5t-38.5 -86.5t-88.5 -38.5q-54 0 -92.5 37.5t-38.5 87.5t38.5 87.5t92.5 37.5z" />
    <glyph glyph-name="Lslash" unicode="&#x141;" horiz-adv-x="1126" 
d="M1116 0h-966v528l-154 -98v64q0 41 2.5 67t17 59.5t41.5 51.5l93 59v561q0 56 34 84.5t95 28.5q56 0 114 -25v-508l326 211v-71q0 -40 -2.5 -65t-17 -56t-42.5 -49l-264 -170v-449h723v-223z" />
    <glyph glyph-name="lslash" unicode="&#x142;" horiz-adv-x="493" 
d="M362 0h-233v608l-131 -92v125q0 53 10 78.5t51 54.5l70 47v580q0 108 125 108q57 0 108 -22v-531l132 93v-125q0 -53 -10.5 -78.5t-51.5 -54.5l-70 -48v-743z" />
    <glyph glyph-name="Nacute" unicode="&#x143;" horiz-adv-x="1505" 
d="M150 0v1274q0 68 41 99.5t106 31.5q85 0 145 -47q63 -75 299 -415.5t373 -553.5v903q0 113 125 113q68 0 115 -27v-1378h-246q-130 201 -350 527.5t-367 529.5v-1057h-241zM670 1522l-72 120l260 152q68 39 127 39q34 0 61 -17t40.5 -41t20.5 -44.5t7 -32.5z" />
    <glyph glyph-name="nacute" unicode="&#x144;" horiz-adv-x="1236" 
d="M119 0v621q0 200 139.5 318t359.5 118q222 0 361 -117.5t139 -318.5v-621h-233v561q0 139 -68 212t-199 73q-266 0 -266 -285v-561h-233zM528 1159l-75 107l223 161q61 46 110 46q57 0 89 -46t32 -77z" />
    <glyph glyph-name="Ncommaaccent" unicode="&#x145;" horiz-adv-x="1505" 
d="M150 0v1274q0 68 41 99.5t106 31.5q85 0 145 -47q63 -75 299 -415.5t373 -553.5v903q0 113 125 113q68 0 115 -27v-1378h-246q-130 201 -350 527.5t-367 529.5v-1057h-241zM655 -494l27 242q13 137 121 137q55 0 110 -39l-122 -364z" />
    <glyph glyph-name="ncommaaccent" unicode="&#x146;" horiz-adv-x="1236" 
d="M119 0v621q0 200 139.5 318t359.5 118q222 0 361 -117.5t139 -318.5v-621h-233v561q0 139 -68 212t-199 73q-266 0 -266 -285v-561h-233zM489 -494l27 242q13 137 121 137q56 0 111 -39l-123 -364z" />
    <glyph glyph-name="Ncaron" unicode="&#x147;" horiz-adv-x="1505" 
d="M150 0v1274q0 68 41 99.5t106 31.5q85 0 145 -47q63 -75 299 -415.5t373 -553.5v903q0 113 125 113q68 0 115 -27v-1378h-246q-130 201 -350 527.5t-367 529.5v-1057h-241zM418 1735l92 98l262 -141q220 117 262 141l92 -98l-211 -154q-78 -59 -143 -59q-69 0 -143 59z
" />
    <glyph glyph-name="ncaron" unicode="&#x148;" horiz-adv-x="1236" 
d="M119 0v621q0 200 139.5 318t359.5 118q222 0 361 -117.5t139 -318.5v-621h-233v561q0 139 -68 212t-199 73q-266 0 -266 -285v-561h-233zM303 1378l80 99l242 -148l241 148l80 -99l-190 -155q-25 -20 -41.5 -31.5t-41.5 -22t-48 -10.5t-48 10.5t-41.5 22t-41.5 31.5z" />
    <glyph glyph-name="napostrophe" unicode="&#x149;" horiz-adv-x="1236" 
d="M119 0v621q0 200 139.5 318t359.5 118q222 0 361 -117.5t139 -318.5v-621h-233v561q0 139 -68 212t-199 73q-266 0 -266 -285v-561h-233zM-10 1051l100 340q12 44 37 66t68 22q33 0 61 -11.5t40 -22t19 -20.5l-184 -428z" />
    <glyph glyph-name="Eng" unicode="&#x14a;" horiz-adv-x="1505" 
d="M150 0v1274q0 68 41 99.5t106 31.5q85 0 145 -47q63 -75 299 -415.5t373 -553.5v903q0 113 125 113q68 0 115 -27v-1415q0 -89 -21 -158t-56 -112.5t-85 -71.5t-103.5 -39.5t-115.5 -11.5q-73 0 -147 17.5t-107 33.5l61 168q64 -31 150 -31q39 0 69 7.5t57.5 27t42.5 58
t15 94.5v69q-153 254 -723 1043v-1057h-241z" />
    <glyph glyph-name="eng" unicode="&#x14b;" horiz-adv-x="1236" 
d="M489 -379l62 168q64 -31 149 -31q39 0 69 7.5t58 27t43 58t15 94.5v616q0 139 -68 212t-199 73q-266 0 -266 -285v-561h-233v621q0 200 139.5 318t359.5 118q222 0 361 -117.5t139 -318.5v-658q0 -89 -21 -158t-56 -112.5t-85 -71.5t-103.5 -39.5t-115.5 -11.5
q-72 0 -143 17t-105 34z" />
    <glyph glyph-name="Omacron" unicode="&#x14c;" horiz-adv-x="1677" 
d="M860 1442q157 0 296 -57t238.5 -155t157.5 -235.5t58 -292.5q0 -207 -98.5 -376.5t-270.5 -266t-381 -96.5q-157 0 -295.5 57t-238 154.5t-157.5 235t-58 292.5t58 292.5t157.5 235.5t238 155t295.5 57zM860 186q213 0 353.5 146t140.5 370q0 226 -140.5 371.5
t-353.5 145.5q-214 0 -353.5 -145t-139.5 -372q0 -224 139.5 -370t353.5 -146zM547 1751h606q51 0 70.5 -23.5t19.5 -68.5q0 -40 -18 -82h-604q-45 0 -68 24t-23 64q0 19 2.5 33.5t8 32t6.5 20.5z" />
    <glyph glyph-name="omacron" unicode="&#x14d;" horiz-adv-x="1282" 
d="M641 1057q157 0 286 -70.5t203 -195t74 -277.5q0 -113 -43.5 -213.5t-118 -173t-179 -114.5t-222.5 -42t-222.5 42t-179 114.5t-118 173t-43.5 213.5q0 153 74 277.5t203 195t286 70.5zM641 178q139 0 229.5 96.5t90.5 239.5q0 146 -90 242t-230 96t-229.5 -96
t-89.5 -242q0 -143 90 -239.5t229 -96.5zM340 1384h565q82 0 82 -84q0 -56 -16 -77h-565q-82 0 -82 84q0 40 16 77z" />
    <glyph glyph-name="Obreve" unicode="&#x14e;" horiz-adv-x="1677" 
d="M838 1442q157 0 295.5 -57t238 -155t157.5 -235.5t58 -292.5t-58 -292.5t-157.5 -235t-238 -154.5t-295.5 -57q-209 0 -381 96.5t-270.5 266t-98.5 376.5q0 155 58 292.5t157.5 235.5t238.5 155t296 57zM838 186q213 0 353 146t140 370q0 226 -140 371.5t-353 145.5
q-215 0 -354.5 -145.5t-139.5 -371.5q0 -224 140 -370t354 -146zM510 1821l137 14q47 -147 203 -147q158 0 205 147l135 -14q-2 -35 -12.5 -71.5t-36 -76.5t-62.5 -71t-96.5 -51.5t-132.5 -20.5t-132.5 20.5t-96.5 51.5t-62.5 71t-36 76.5t-12.5 71.5z" />
    <glyph glyph-name="obreve" unicode="&#x14f;" horiz-adv-x="1282" 
d="M641 1057q157 0 286 -70.5t203 -195t74 -277.5q0 -113 -43.5 -213.5t-118 -173t-179 -114.5t-222.5 -42t-222.5 42t-179 114.5t-118 173t-43.5 213.5q0 153 74 277.5t203 195t286 70.5zM641 178q139 0 229.5 96.5t90.5 239.5q0 146 -90 242t-230 96t-229.5 -96
t-89.5 -242q0 -143 90 -239.5t229 -96.5zM371 1450l112 14q36 -145 179 -145q71 0 117 37.5t63 107.5l110 -14q-2 -34 -10.5 -68.5t-30 -74t-52.5 -69.5t-82 -49.5t-115 -19.5t-115 19.5t-82 49.5t-52.5 69.5t-30.5 74t-11 68.5z" />
    <glyph glyph-name="Ohungarumlaut" unicode="&#x150;" horiz-adv-x="1677" 
d="M838 1442q157 0 295.5 -57t238 -155t157.5 -235.5t58 -292.5t-58 -292.5t-157.5 -235t-238 -154.5t-295.5 -57q-209 0 -381 96.5t-270.5 266t-98.5 376.5q0 155 58 292.5t157.5 235.5t238.5 155t296 57zM838 186q213 0 353 146t140 370q0 226 -140 371.5t-353 145.5
q-215 0 -354.5 -145.5t-139.5 -371.5q0 -224 140 -370t354 -146zM598 1546l-84 113l193 145q75 60 137 60q32 0 56 -13t35.5 -30t19 -37t9 -31t1.5 -16zM1057 1546l-84 113l192 145q75 60 138 60q32 0 56 -13t35.5 -29.5t18.5 -37.5t8.5 -31.5t1.5 -15.5z" />
    <glyph glyph-name="ohungarumlaut" unicode="&#x151;" horiz-adv-x="1282" 
d="M641 1057q157 0 286 -70.5t203 -195t74 -277.5q0 -113 -43.5 -213.5t-118 -173t-179 -114.5t-222.5 -42t-222.5 42t-179 114.5t-118 173t-43.5 213.5q0 153 74 277.5t203 195t286 70.5zM641 178q139 0 229.5 96.5t90.5 239.5q0 146 -90 242t-230 96t-229.5 -96
t-89.5 -242q0 -143 90 -239.5t229 -96.5zM834 1159l-78 96l168 154q32 32 58.5 46.5t59.5 14.5q25 0 45.5 -11t31.5 -25.5t18 -31t9.5 -27t2.5 -13.5zM418 1159l-78 96l168 154q61 61 119 61q25 0 45.5 -11t31 -25.5t18 -31t9.5 -26.5t2 -14z" />
    <glyph glyph-name="OE" unicode="&#x152;" horiz-adv-x="2449" 
d="M1319 0v211q-64 -109 -204 -176.5t-300 -67.5q-151 0 -285 54.5t-231 150.5t-154 233.5t-57 296.5q0 160 54.5 297t150 233.5t229.5 151t289 54.5q95 0 182 -23t150 -60t107 -75t71 -76v84q0 46 35.5 81.5t99.5 35.5h772q121 0 121 -111q0 -34 -10.5 -66t-20.5 -46h-759
v-355h641q120 0 120 -108q0 -61 -30 -113h-731v-385h778v-221h-1018zM829 188q212 0 350 144.5t138 369.5t-138 368.5t-350 143.5q-211 0 -348 -142.5t-137 -369.5q0 -226 137.5 -370t347.5 -144z" />
    <glyph glyph-name="oe" unicode="&#x153;" horiz-adv-x="2009" 
d="M1827 240l88 -164q-22 -14 -54 -29t-84 -33.5t-123.5 -30.5t-148.5 -12q-139 0 -255.5 54.5t-180.5 156.5q-70 -99 -184 -155t-254 -56q-152 0 -278.5 70t-200.5 195t-74 278q0 154 74 278.5t201.5 194.5t281.5 70q140 0 257 -59t183 -162q165 215 443 215
q190 0 313 -93.5t123 -240.5q0 -74 -28 -130t-94 -100t-185 -67t-289 -23q-118 0 -152 4q18 -109 104 -171t240 -62q23 0 45.5 2t43.5 5.5t38.5 7.5t36 10t31 10t28.5 11t22 10t19 10zM641 176q136 0 228 95t92 243t-92 243t-228 95q-141 0 -231.5 -96t-90.5 -242
q0 -144 91 -241t231 -97zM1196 561q63 -2 176 -2q87 0 152 9.5t103 24.5t61 37t30.5 43.5t7.5 47.5q0 75 -61 115.5t-158 40.5q-139 0 -222.5 -91t-88.5 -225z" />
    </font>
</defs>
</svg>
