<svg id="_3" data-name="3" xmlns="http://www.w3.org/2000/svg" xmlns:xlink="http://www.w3.org/1999/xlink" width="70.588" height="50" viewBox="0 0 70.588 50">
  <defs>
    <clipPath id="clip-path">
      <rect id="Rectangle_68894" data-name="Rectangle 68894" width="70.588" height="50" fill="none" stroke="#fedd49" stroke-width="2"/>
    </clipPath>
  </defs>
  <g id="Group_88229" data-name="Group 88229" clip-path="url(#clip-path)">
    <path id="Path_99364" data-name="Path 99364" d="M14.572,29a4.412,4.412,0,1,1-8.321,0" transform="translate(2.824 13.647)" fill="none" stroke="#fedd49" stroke-miterlimit="10" stroke-width="2"/>
    <path id="Path_99365" data-name="Path 99365" d="M20.572,29a4.412,4.412,0,1,1-8.321,0" transform="translate(5.647 13.647)" fill="none" stroke="#fedd49" stroke-miterlimit="10" stroke-width="2"/>
    <path id="Path_99366" data-name="Path 99366" d="M38.572,29a4.412,4.412,0,1,1-8.321,0" transform="translate(14.118 13.647)" fill="none" stroke="#fedd49" stroke-miterlimit="10" stroke-width="2"/>
    <path id="Path_99367" data-name="Path 99367" d="M44.572,29a4.412,4.412,0,1,1-8.321,0" transform="translate(16.941 13.647)" fill="none" stroke="#fedd49" stroke-miterlimit="10" stroke-width="2"/>
    <path id="Path_99368" data-name="Path 99368" d="M58.353,33.412c5.041,0,10.294-6.715,10.294-14.706S63.394,4,58.353,4H11.294C6.253,4,1,10.715,1,18.706S6.253,33.412,11.294,33.412Z" transform="translate(0.471 1.882)" fill="none" stroke="#fedd49" stroke-miterlimit="10" stroke-width="2"/>
    <line id="Line_109" data-name="Line 109" y2="5.882" transform="translate(1.471 36.765)" fill="none" stroke="#fedd49" stroke-miterlimit="10" stroke-width="2"/>
    <line id="Line_110" data-name="Line 110" x1="4.412" transform="translate(1.471 39.706)" fill="none" stroke="#fedd49" stroke-miterlimit="10" stroke-width="2"/>
    <rect id="Rectangle_68893" data-name="Rectangle 68893" width="58.824" height="7.353" rx="2" transform="translate(5.882 35.294)" fill="none" stroke="#fedd49" stroke-miterlimit="10" stroke-width="2"/>
    <line id="Line_111" data-name="Line 111" y2="5.882" transform="translate(69.118 36.765)" fill="none" stroke="#fedd49" stroke-miterlimit="10" stroke-width="2"/>
    <line id="Line_112" data-name="Line 112" x2="4.412" transform="translate(64.706 39.706)" fill="none" stroke="#fedd49" stroke-miterlimit="10" stroke-width="2"/>
    <line id="Line_113" data-name="Line 113" y2="32.353" transform="translate(55.882)" fill="none" stroke="#fedd49" stroke-miterlimit="10" stroke-width="2"/>
    <line id="Line_114" data-name="Line 114" y1="32.353" transform="translate(45.588)" fill="none" stroke="#fedd49" stroke-miterlimit="10" stroke-width="2"/>
    <line id="Line_115" data-name="Line 115" x1="7.353" transform="translate(45.588 11.765)" fill="none" stroke="#fedd49" stroke-miterlimit="10" stroke-width="2"/>
    <line id="Line_116" data-name="Line 116" x1="7.353" transform="translate(45.588 19.118)" fill="none" stroke="#fedd49" stroke-miterlimit="10" stroke-width="2"/>
    <line id="Line_117" data-name="Line 117" x1="7.353" transform="translate(45.588 26.471)" fill="none" stroke="#fedd49" stroke-miterlimit="10" stroke-width="2"/>
    <line id="Line_118" data-name="Line 118" x2="8.824" transform="translate(16.176 1.471)" fill="none" stroke="#fedd49" stroke-miterlimit="10" stroke-width="2"/>
  </g>
</svg>
