<svg xmlns="http://www.w3.org/2000/svg" width="373.277" height="143.05" viewBox="0 0 373.277 143.05">
  <path id="Path_100073" data-name="Path 100073" d="M110.316-215.787q9.708.2,13.968,3.764t4.26,10.5a30.55,30.55,0,0,1-1.189,8.222,36.024,36.024,0,0,1-2.774,7.232H110.316v26.351h-31.7v-26.351H48.7q-34.673,0-34.673-25.361a55.669,55.669,0,0,1,4.854-21.6,109.706,109.706,0,0,1,13.077-22.587,130.131,130.131,0,0,1,18.426-20.11,98.5,98.5,0,0,1,21.1-14.464q10.9-5.449,20.8-5.449a51.325,51.325,0,0,1,10.006,1.09,22.144,22.144,0,0,1,8.024,2.873ZM49.49-230.251q-2.774,5.548-2.774,9.312,0,5.151,9.312,5.151H78.615v-46.164a63.974,63.974,0,0,0-11.1,8.718,112.171,112.171,0,0,0-10.3,11.392A80.206,80.206,0,0,0,49.49-230.251Zm107.387,55.278q-15.256-19.021-15.256-52.7t15.256-52.6q15.256-18.921,42.8-18.921t42.8,18.921q15.256,18.921,15.256,52.6t-15.256,52.6q-15.256,18.921-42.8,18.921T156.877-174.972ZM218.1-196.965q6.34-10.7,6.34-30.71t-6.34-30.611q-6.34-10.6-18.426-10.6t-18.426,10.6q-6.34,10.6-6.34,30.611t6.34,30.611q6.34,10.6,18.426,10.6T218.1-196.965Zm150.975-18.822q9.708.2,13.968,3.764t4.26,10.5a30.55,30.55,0,0,1-1.189,8.222,36.025,36.025,0,0,1-2.774,7.232H369.074v26.351h-31.7v-26.351H307.456q-34.673,0-34.673-25.361a55.669,55.669,0,0,1,4.854-21.6,109.7,109.7,0,0,1,13.077-22.587,130.131,130.131,0,0,1,18.426-20.11,98.5,98.5,0,0,1,21.1-14.464q10.9-5.449,20.8-5.449a51.325,51.325,0,0,1,10.006,1.09,22.144,22.144,0,0,1,8.024,2.873Zm-60.826-14.464q-2.774,5.548-2.774,9.312,0,5.151,9.312,5.151h22.587v-46.164a63.974,63.974,0,0,0-11.1,8.718,112.173,112.173,0,0,0-10.3,11.392A80.206,80.206,0,0,0,308.248-230.251Z" transform="translate(-14.025 299.2)" fill="#fff"/>
</svg>
