<svg width="25" height="25" viewBox="0 0 25 25" fill="none" xmlns="http://www.w3.org/2000/svg">
<g id="ic:baseline-apple" clip-path="url(#clip0_123_255)">
<path id="Vector" d="M19.3473 23.5371C18.0408 24.8036 16.6143 24.6036 15.2412 24.0037C13.788 23.3904 12.4548 23.3638 10.9217 24.0037C9.00195 24.8303 7.98874 24.5903 6.84222 23.5371C0.336377 16.8313 1.29626 6.61923 8.68199 6.24594C10.4818 6.33926 11.7349 7.23248 12.7881 7.31247C14.3613 6.99251 15.8678 6.07263 17.5475 6.19261C19.5606 6.35259 21.0804 7.15249 22.0803 8.59231C17.9208 11.0853 18.9074 16.5646 22.7202 18.0978C21.9603 20.0975 20.9738 22.0839 19.334 23.5504L19.3473 23.5371ZM12.6548 6.16595C12.4548 3.19299 14.8679 0.73997 17.6409 0.5C18.0275 3.93957 14.5213 6.49924 12.6548 6.16595Z" fill="black"/>
</g>
<defs>
<clipPath id="clip0_123_255">
<rect width="24" height="24" fill="white" transform="translate(0.5 0.5)"/>
</clipPath>
</defs>
</svg>
