  <svg
                    id="Group_88221"
                    data-name="Group 88221"
                    xmlns="http://www.w3.org/2000/svg"
                    xmlnsXlink="http://www.w3.org/1999/xlink"
                    width="80"
                    height="80"
                    viewBox="0 0 80 80"
                  >
                    <defs>
                      <clipPath id="clip-path">
                        <rect
                          id="Rectangle_68889"
                          data-name="Rectangle 68889"
                          width="80"
                          height="80"
                          fill="none"
                        />
                      </clipPath>
                    </defs>
                    <g
                      id="Group_88220"
                      data-name="Group 88220"
                      clip-path="url(#clipPath)"
                    >
                      <path
                        id="Path_99347"
                        data-name="Path 99347"
                        d="M22.5,37.5a2.5,2.5,0,1,0,0,5H51.465L40.73,53.23a2.519,2.519,0,0,0-.543.81,2.52,2.52,0,0,0,0,1.92,2.519,2.519,0,0,0,.543.81,2.511,2.511,0,0,0,3.54,0l15-15a2.5,2.5,0,0,0,0-3.54l-15-15a2.511,2.511,0,0,0-3.54,0,2.519,2.519,0,0,0-.543.81,2.52,2.52,0,0,0,0,1.92,2.519,2.519,0,0,0,.543.81L51.465,37.5ZM40,0A40.008,40.008,0,1,1,11.716,11.72,39.966,39.966,0,0,1,40,0"
                        fill="#1798d5"
                      />
                    </g>
                  </svg>