<svg xmlns="http://www.w3.org/2000/svg" width="48" height="48" viewBox="0 0 48 48">
  <g id="Group_89413" data-name="Group 89413" transform="translate(0 -0.383)">
    <rect id="Rectangle_69276" data-name="Rectangle 69276" width="48" height="48" transform="translate(0 0.383)" fill="#fff" opacity="0"/>
    <g id="Group_89475" data-name="Group 89475" transform="translate(0 0.383)">
      <path id="Path_100681" data-name="Path 100681" d="M10.6,22.253V32.63a4.816,4.816,0,0,0,1.574,3.554l6.4,5.766A4.774,4.774,0,0,0,21,43.126V45.6A2.4,2.4,0,0,0,23.4,48h4.8a2.4,2.4,0,0,0,2.4-2.4V43.126a4.768,4.768,0,0,0,2.426-1.172l6.4-5.769h0A4.814,4.814,0,0,0,41,32.63V22.253A2.4,2.4,0,0,0,42.6,20V18.4A2.4,2.4,0,0,0,40.2,16H38.6V4a2.4,2.4,0,0,0-2.4-2.4H34.6A2.4,2.4,0,0,0,32.2,4V16H29V2.4A2.4,2.4,0,0,0,26.6,0H25a2.4,2.4,0,0,0-2.4,2.4V16H19.4V4A2.4,2.4,0,0,0,17,1.6H15.4A2.4,2.4,0,0,0,13,4V16H11.4A2.4,2.4,0,0,0,9,18.4V20a2.4,2.4,0,0,0,1.6,2.253ZM28.2,46.4H23.4a.8.8,0,0,1-.8-.8V43.2H29v2.4A.8.8,0,0,1,28.2,46.4ZM39.4,32.63A3.211,3.211,0,0,1,38.354,35l-6.4,5.77A3.19,3.19,0,0,1,29.8,41.6h-8a3.188,3.188,0,0,1-2.154-.835L13.246,35A3.212,3.212,0,0,1,12.2,32.63V22.4H39.4ZM33.8,4a.8.8,0,0,1,.8-.8h1.6A.8.8,0,0,1,37,4V16H33.8ZM24.2,2.4a.8.8,0,0,1,.8-.8h1.6a.8.8,0,0,1,.8.8V16H24.2ZM14.6,4a.8.8,0,0,1,.8-.8H17a.8.8,0,0,1,.8.8V16H14.6Zm-4,14.4a.8.8,0,0,1,.8-.8H40.2a.8.8,0,0,1,.8.8V20a.8.8,0,0,1-.8.8H11.4a.8.8,0,0,1-.8-.8Z" transform="translate(-9)" fill="#fedd49"/>
      <path id="Path_100682" data-name="Path 100682" d="M26.551,39.8h1.068l-.245,4.139a1.367,1.367,0,0,0,2.544.77l3.641-6.531A1.552,1.552,0,0,0,32.246,35.8h-.807l.679-2.64A1.73,1.73,0,0,0,30.439,31H27.055a1.546,1.546,0,0,0-1.546,1.414h0L25,38.11a1.553,1.553,0,0,0,1.549,1.69Zm.55-7.2h3.338a.13.13,0,0,1,.126.16L29.631,36.4a.8.8,0,0,0,.775,1l1.778-.038L29.031,43.02l.235-3.972a.8.8,0,0,0-.8-.848l-1.867.051Z" transform="translate(-12.199 -6.2)" fill="#fedd49"/>
    </g>
  </g>
</svg>
