<svg width="24" height="24" viewBox="0 0 24 24" fill="none" xmlns="http://www.w3.org/2000/svg">
<g id="streamline:customer-support-1" clip-path="url(#clip0_14_5)">
<path id="Vector" d="M5.14286 12V7.49145C5.15625 6.60522 5.34438 5.73034 5.69647 4.91694C6.04856 4.10354 6.55769 3.36761 7.19468 2.75131C7.83168 2.13502 8.58403 1.65047 9.40861 1.32544C10.2332 1.0004 11.1138 0.841273 12 0.857162C12.8862 0.841273 13.7668 1.0004 14.5914 1.32544C15.416 1.65047 16.1683 2.13502 16.8053 2.75131C17.4423 3.36761 17.9514 4.10354 18.3035 4.91694C18.6556 5.73034 18.8438 6.60522 18.8571 7.49145V12M15.4286 21C16.3379 21 17.21 20.6388 17.8529 19.9958C18.4959 19.3528 18.8571 18.4808 18.8571 17.5714V13.7143M15.4286 21C15.4286 21.5683 15.2028 22.1134 14.8009 22.5152C14.3991 22.9171 13.854 23.1429 13.2857 23.1429H10.7143C10.146 23.1429 9.60092 22.9171 9.19906 22.5152C8.79719 22.1134 8.57143 21.5683 8.57143 21C8.57143 20.4317 8.79719 19.8867 9.19906 19.4848C9.60092 19.0829 10.146 18.8572 10.7143 18.8572H13.2857C13.854 18.8572 14.3991 19.0829 14.8009 19.4848C15.2028 19.8867 15.4286 20.4317 15.4286 21ZM2.57143 9.42859H4.28571C4.51304 9.42859 4.73106 9.5189 4.89181 9.67964C5.05255 9.84039 5.14286 10.0584 5.14286 10.2857V15.4286C5.14286 15.6559 5.05255 15.8739 4.89181 16.0347C4.73106 16.1954 4.51304 16.2857 4.28571 16.2857H2.57143C2.11677 16.2857 1.68074 16.1051 1.35925 15.7836C1.03776 15.4621 0.857143 15.0261 0.857143 14.5714V11.1429C0.857143 10.6882 1.03776 10.2522 1.35925 9.93069C1.68074 9.6092 2.11677 9.42859 2.57143 9.42859ZM21.4286 16.2857H19.7143C19.487 16.2857 19.2689 16.1954 19.1082 16.0347C18.9474 15.8739 18.8571 15.6559 18.8571 15.4286V10.2857C18.8571 10.0584 18.9474 9.84039 19.1082 9.67964C19.2689 9.5189 19.487 9.42859 19.7143 9.42859H21.4286C21.8832 9.42859 22.3193 9.6092 22.6408 9.93069C22.9622 10.2522 23.1429 10.6882 23.1429 11.1429V14.5714C23.1429 15.0261 22.9622 15.4621 22.6408 15.7836C22.3193 16.1051 21.8832 16.2857 21.4286 16.2857Z" stroke="white" stroke-width="2" stroke-linecap="round" stroke-linejoin="round"/>
</g>
<defs>
<clipPath id="clip0_14_5">
<rect width="24" height="24" fill="white"/>
</clipPath>
</defs>
</svg>
