<svg width="21" height="20" viewBox="0 0 21 20" fill="none" xmlns="http://www.w3.org/2000/svg">
<g id="iconamoon:copy-fill">
<path id="Vector" d="M4.09593 2.58329H3.34593V3.33329V13.3333C3.34593 13.3554 3.33715 13.3766 3.32152 13.3922L3.85185 13.9225L3.32152 13.3922C3.30589 13.4078 3.2847 13.4166 3.26259 13.4166C3.24049 13.4166 3.2193 13.4078 3.20367 13.3922L2.67334 13.9225L3.20367 13.3922C3.18804 13.3766 3.17926 13.3554 3.17926 13.3333V2.49996C3.17926 2.47786 3.18804 2.45666 3.20367 2.44103C3.2193 2.42541 3.24049 2.41663 3.26259 2.41663H13.2626C13.2847 2.41663 13.3059 2.42541 13.3215 2.44103C13.3371 2.45666 13.3459 2.47786 13.3459 2.49996C13.3459 2.52206 13.3371 2.54326 13.3215 2.55888C13.3059 2.57451 13.2847 2.58329 13.2626 2.58329H4.09593ZM6.51259 5.83329C6.51259 5.81119 6.52137 5.79 6.537 5.77437C6.55263 5.75874 6.57383 5.74996 6.59593 5.74996H16.5959C16.618 5.74996 16.6392 5.75874 16.6549 5.77437L17.1852 5.24404L16.6549 5.77437C16.6705 5.79 16.6793 5.81119 16.6793 5.83329V15.8333C16.6793 16.2974 16.4949 16.7425 16.1667 17.0707C15.8385 17.3989 15.3934 17.5833 14.9293 17.5833H8.26259C7.79846 17.5833 7.35334 17.3989 7.02516 17.0707C6.69697 16.7425 6.51259 16.2974 6.51259 15.8333V5.83329Z" stroke="#1E1B3F" stroke-width="1.5"/>
</g>
</svg>
