<svg width="24" height="25" viewBox="0 0 24 25" fill="none" xmlns="http://www.w3.org/2000/svg">
<g clip-path="url(#clip0_11_1243)">
<path d="M10.7059 0.00484117C4.69135 0.659862 0 5.76635 0 11.969C0 15.1598 1.26735 18.22 3.52324 20.4762C5.77914 22.7325 8.83879 24 12.0291 24C18.2174 24 23.3231 19.3213 23.9914 13.3058C24.1117 12.2497 22.9489 11.4076 21.9331 12.0358C20.842 12.7324 19.5838 13.1228 18.2901 13.1663C16.9964 13.2097 15.7149 12.9046 14.5795 12.2829C13.4442 11.6611 12.4968 10.7456 11.8365 9.63213C11.1762 8.51864 10.8272 7.24811 10.8262 5.9535C10.8262 4.53652 11.2405 3.19974 11.9489 2.09021C12.5504 1.19457 11.8955 -0.0887333 10.7059 0.00484117Z" fill="#CFC6D8"/>
</g>
<defs>
<clipPath id="clip0_11_1243">
<rect width="24" height="24" fill="white" transform="translate(0 0.0900879)"/>
</clipPath>
</defs>
</svg>
