<svg width="24" height="20" viewBox="0 0 24 20" fill="none" xmlns="http://www.w3.org/2000/svg">
<g id="Group 75318">
<path id="Vector" d="M5.11925 0.390564C5.01728 0.275624 4.89352 0.182065 4.75512 0.11531C4.61673 0.0485548 4.46647 0.0099308 4.31304 0.00167668C4.15961 -0.00657745 4.00607 0.0157025 3.86132 0.0672251C3.71657 0.118748 3.58348 0.198488 3.46977 0.301825C3.35606 0.405162 3.26399 0.53004 3.1989 0.669221C3.13381 0.808403 3.09699 0.959119 3.09057 1.11263C3.08416 1.26615 3.10828 1.41941 3.16153 1.56354C3.21479 1.70766 3.29612 1.83979 3.40081 1.95225L4.94895 3.66004C1.61561 5.87968 0.169073 9.06498 0.0994063 9.21495C0.0338553 9.36357 0 9.52422 0 9.68665C0 9.84909 0.0338553 10.0097 0.0994063 10.1584C0.135207 10.2377 0.982813 12.1187 2.85606 13.991C5.36018 16.4922 8.51741 17.8139 12.0007 17.8139C13.6937 17.8233 15.3714 17.4943 16.9354 16.8463L18.8793 18.9847C19.0875 19.2083 19.3754 19.3409 19.6807 19.3536C19.9859 19.3664 20.2839 19.2583 20.51 19.0528C20.7362 18.8473 20.8722 18.561 20.8886 18.2559C20.905 17.9508 20.8005 17.6516 20.5977 17.423L5.11925 0.390564ZM12.0007 15.4917C9.13763 15.4917 6.63352 14.4535 4.55901 12.407C3.743 11.599 3.04085 10.6837 2.47193 9.68617C2.98185 8.78535 4.29002 6.79308 6.53579 5.40073L15.2528 14.9905C14.2015 15.3261 13.1043 15.4953 12.0007 15.4917ZM23.902 10.1584C23.8672 10.2367 23.0312 12.0935 21.1928 13.9474C21.0875 14.0643 20.9596 14.1585 20.8168 14.2244C20.674 14.2904 20.5193 14.3266 20.3621 14.3309C20.2049 14.3353 20.0484 14.3076 19.9022 14.2496C19.756 14.1917 19.6231 14.1046 19.5115 13.9937C19.4 13.8828 19.3121 13.7504 19.2533 13.6046C19.1945 13.4587 19.1659 13.3024 19.1693 13.1452C19.1727 12.9879 19.208 12.833 19.2731 12.6898C19.3382 12.5466 19.4317 12.4182 19.5479 12.3122C20.3201 11.527 20.9863 10.6442 21.5295 9.68617C20.9609 8.68844 20.2587 7.77303 19.4424 6.96532C17.367 4.91887 14.8638 3.88065 12.0007 3.88065C11.6766 3.88065 11.3524 3.8942 11.0331 3.92129C10.8793 3.93777 10.7236 3.92333 10.5754 3.87881C10.4272 3.8343 10.2894 3.7606 10.1701 3.66206C10.0508 3.56352 9.95235 3.44211 9.88062 3.30499C9.80889 3.16787 9.76529 3.01779 9.75239 2.86358C9.73949 2.70936 9.75755 2.55412 9.8055 2.40699C9.85346 2.25986 9.93034 2.12379 10.0316 2.00679C10.1329 1.8898 10.2566 1.79423 10.3953 1.72571C10.5341 1.65719 10.6851 1.6171 10.8396 1.60779C11.2199 1.57489 11.6137 1.55844 12.0007 1.55844C15.484 1.55844 18.6413 2.88113 21.1434 5.38234C23.0157 7.25462 23.8633 9.13658 23.8991 9.21495C23.9651 9.36337 23.9995 9.52392 24 9.68635C24.0005 9.84878 23.9671 10.0095 23.902 10.1584Z" fill="#29B3B4"/>
</g>
</svg>
