<svg width="24" height="25" viewBox="0 0 24 25" fill="none" xmlns="http://www.w3.org/2000/svg">
<g id="ph:question-fill" clip-path="url(#clip0_143_474)">
<path id="Vector" d="M12 0.410156C9.62663 0.410156 7.30655 1.11394 5.33316 2.43252C3.35977 3.7511 1.8217 5.62524 0.913451 7.81795C0.00519941 10.0107 -0.232441 12.4235 0.230582 14.7512C0.693605 17.079 1.83649 19.2172 3.51472 20.8954C5.19295 22.5737 7.33115 23.7166 9.65892 24.1796C11.9867 24.6426 14.3995 24.405 16.5922 23.4967C18.7849 22.5885 20.6591 21.0504 21.9776 19.077C23.2962 17.1036 24 14.7835 24 12.4102C23.9966 9.22859 22.7313 6.17829 20.4816 3.92858C18.2319 1.67888 15.1816 0.413516 12 0.410156ZM12 19.7948C11.7262 19.7948 11.4585 19.7136 11.2308 19.5614C11.0031 19.4093 10.8256 19.193 10.7208 18.94C10.616 18.687 10.5886 18.4086 10.642 18.14C10.6954 17.8714 10.8273 17.6247 11.0209 17.4311C11.2146 17.2374 11.4613 17.1056 11.7299 17.0521C11.9985 16.9987 12.2769 17.0261 12.5299 17.1309C12.7829 17.2357 12.9991 17.4132 13.1513 17.6409C13.3034 17.8686 13.3846 18.1363 13.3846 18.4102C13.3846 18.7774 13.2387 19.1296 12.9791 19.3892C12.7194 19.6489 12.3672 19.7948 12 19.7948ZM12.9231 14.1732V14.2563C12.9231 14.5011 12.8258 14.7359 12.6527 14.909C12.4796 15.0821 12.2448 15.1794 12 15.1794C11.7552 15.1794 11.5204 15.0821 11.3473 14.909C11.1742 14.7359 11.0769 14.5011 11.0769 14.2563V13.3332C11.0769 13.0884 11.1742 12.8536 11.3473 12.6805C11.5204 12.5074 11.7552 12.4102 12 12.4102C13.5265 12.4102 14.7692 11.3717 14.7692 10.1025C14.7692 8.83323 13.5265 7.79477 12 7.79477C10.4735 7.79477 9.23077 8.83323 9.23077 10.1025V10.564C9.23077 10.8088 9.13352 11.0436 8.96041 11.2167C8.7873 11.3898 8.55251 11.4871 8.3077 11.4871C8.06288 11.4871 7.82809 11.3898 7.65498 11.2167C7.48187 11.0436 7.38462 10.8088 7.38462 10.564V10.1025C7.38462 7.81208 9.45462 5.94862 12 5.94862C14.5454 5.94862 16.6154 7.81208 16.6154 10.1025C16.6154 12.1078 15.0277 13.7867 12.9231 14.1732Z" fill="#29B3B4"/>
</g>
<defs>
<clipPath id="clip0_143_474">
<rect width="24" height="24" fill="white" transform="translate(0 0.5)"/>
</clipPath>
</defs>
</svg>
