<svg xmlns="http://www.w3.org/2000/svg" width="520" height="62.657" viewBox="0 0 520 62.657">
  <g id="Group_88539" data-name="Group 88539" transform="translate(-724.999 -1015.045)">
    <path id="Path_99628" data-name="Path 99628" d="M733.328,1034.129h4.766a3.288,3.288,0,0,1-.934-1.37,5.182,5.182,0,0,1-.347-1.909,5.511,5.511,0,0,1,.783-2.909,5.623,5.623,0,0,1,2.164-2.051,6.415,6.415,0,0,1,3.127-.756,6.263,6.263,0,0,1,3.114.77,5.637,5.637,0,0,1,2.153,2.113,6.143,6.143,0,0,1,.781,3.141v2.972h3.485v2.538H732.637a9.535,9.535,0,0,1-4.01-.794,6.2,6.2,0,0,1-2.678-2.242,6.01,6.01,0,0,1-.949-3.371q0-2.715,2-2.716a2.366,2.366,0,0,1,1.179.358,9.533,9.533,0,0,0-.256,2.155Q727.921,1034.13,733.328,1034.129Zm9.559,0h3.152v-2.589a4.489,4.489,0,0,0-.832-2.883,2.782,2.782,0,0,0-2.3-1.037,3.045,3.045,0,0,0-2.293.921,3.24,3.24,0,0,0-.883,2.333,3.205,3.205,0,0,0,.9,2.331A3.013,3.013,0,0,0,742.888,1034.129Zm-1.128-10.9a1.519,1.519,0,0,1,0-2.229,1.6,1.6,0,0,1,1.152-.476,1.508,1.508,0,0,1,1.128.476,1.574,1.574,0,0,1,0,2.229,1.5,1.5,0,0,1-1.128.474A1.586,1.586,0,0,1,741.76,1023.224Z" transform="translate(0 4.901)" fill="#fff"/>
    <path id="Path_99629" data-name="Path 99629" d="M745.828,1034.427h-6.766v-2.538h3.87v-7.509a1.23,1.23,0,0,1,.425-1.012,1.709,1.709,0,0,1,1.114-.345,3.8,3.8,0,0,1,.743.076,2.122,2.122,0,0,1,.614.207Zm-5.765,4.5a1.588,1.588,0,1,1,2.255,0,1.579,1.579,0,0,1-2.255,0Zm4.484,0a1.589,1.589,0,1,1,2.257,0,1.581,1.581,0,0,1-2.257,0Z" transform="translate(12.589 7.142)" fill="#fff"/>
    <path id="Path_99630" data-name="Path 99630" d="M748.687,1024.38a1.229,1.229,0,0,1,.423-1.012,1.713,1.713,0,0,1,1.114-.345,3.818,3.818,0,0,1,.745.076,2.143,2.143,0,0,1,.614.207v8.583h3.9v2.538h-3.9v1.023a5.034,5.034,0,0,1-1.294,3.666,4.682,4.682,0,0,1-3.523,1.332,7.727,7.727,0,0,1-1.628-.178,5.9,5.9,0,0,1-1.395-.46l.743-2.2a3.134,3.134,0,0,0,.908.282,6.118,6.118,0,0,0,1.063.1,1.982,1.982,0,0,0,2.231-2.255Z" transform="translate(16.779 7.142)" fill="#fff"/>
    <path id="Path_99631" data-name="Path 99631" d="M756.293,1034.427h-6.764v-2.538H753.4v-7.509a1.23,1.23,0,0,1,.424-1.012,1.709,1.709,0,0,1,1.114-.345,3.8,3.8,0,0,1,.743.076,2.124,2.124,0,0,1,.614.207Zm-4.035,4.5a1.521,1.521,0,0,1-.474-1.115,1.5,1.5,0,0,1,.474-1.09,1.611,1.611,0,0,1,2.282,0,1.507,1.507,0,0,1,.472,1.09,1.527,1.527,0,0,1-.472,1.115,1.61,1.61,0,0,1-2.282,0Z" transform="translate(21.959 7.142)" fill="#fff"/>
    <path id="Path_99632" data-name="Path 99632" d="M760.654,1040.65a9.42,9.42,0,0,1-1.91-.192,5.689,5.689,0,0,1-1.55-.525l.767-2.255a5.822,5.822,0,0,0,2.538.563,2.968,2.968,0,0,0,2.5-.974,4.423,4.423,0,0,0,.756-2.767h-2.793a7.038,7.038,0,0,1-4.806-1.5,5.172,5.172,0,0,1-1.7-4.088,6.046,6.046,0,0,1,.8-3.138,5.4,5.4,0,0,1,2.215-2.089,6.993,6.993,0,0,1,3.292-.745,5.343,5.343,0,0,1,4.37,1.848,8.214,8.214,0,0,1,1.526,5.354v1.819h3.229v2.538H766.6Q766.216,1040.651,760.654,1040.65Zm-2.384-14.288a3.4,3.4,0,0,0-.872,2.45,2.992,2.992,0,0,0,.9,2.329,3.735,3.735,0,0,0,2.614.821h2.845v-1.9q0-4.611-3.154-4.611A3.083,3.083,0,0,0,758.27,1026.362Z" transform="translate(26.365 7.069)" fill="#fff"/>
    <path id="Path_99633" data-name="Path 99633" d="M768.95,1038.568h-6.764v-2.538h3.868v-16.272a1.23,1.23,0,0,1,.425-1.012,1.7,1.7,0,0,1,1.114-.349,3.8,3.8,0,0,1,.743.08,2.018,2.018,0,0,1,.614.2Z" transform="translate(33.29 3.001)" fill="#fff"/>
    <path id="Path_99634" data-name="Path 99634" d="M770.353,1025.937a3.128,3.128,0,0,1,.282-1.332h5.125q1.356,0,1.357,1.486a3.158,3.158,0,0,1-.281,1.332H771.71Q770.351,1027.423,770.353,1025.937Z" transform="translate(40.601 8.558)" fill="#fff"/>
    <path id="Path_99635" data-name="Path 99635" d="M807.972,1034.427h-5.74a3.269,3.269,0,0,1-3.152-1.744,3.668,3.668,0,0,1-1.41,1.437,4.3,4.3,0,0,1-2.2.536,4,4,0,0,1-2.538-.819,7.664,7.664,0,0,1-2.28,4.92,7.28,7.28,0,0,1-5.073,1.691,6.974,6.974,0,0,1-5.331-1.96,7.942,7.942,0,0,1-1.846-5.65,10.91,10.91,0,0,1,.142-1.833,4.965,4.965,0,0,1,.422-1.4,1.658,1.658,0,0,1,1.512-1.052,2.671,2.671,0,0,1,1.459.461,18,18,0,0,0-.434,1.924,10.913,10.913,0,0,0-.154,1.793,5.619,5.619,0,0,0,1.128,3.743,4.379,4.379,0,0,0,6.444-.167,7.016,7.016,0,0,0,1.141-4.317v-7.613a1.21,1.21,0,0,1,.436-1.012,1.762,1.762,0,0,1,1.128-.345,3.8,3.8,0,0,1,.743.076,2.158,2.158,0,0,1,.616.207v5.739a3.77,3.77,0,0,0,.538,2.271,2.025,2.025,0,0,0,1.717.7,2,2,0,0,0,1.819-.832,5.173,5.173,0,0,0,.536-2.7v-4.1a1.23,1.23,0,0,1,.424-1.012,1.709,1.709,0,0,1,1.115-.345,3.8,3.8,0,0,1,.743.076,2.144,2.144,0,0,1,.614.207v5.176a6.3,6.3,0,0,0,.271,2.075,1.71,1.71,0,0,0,.91,1.037,4.379,4.379,0,0,0,1.793.3h1.615v-7.509a1.229,1.229,0,0,1,.423-1.012,1.714,1.714,0,0,1,1.116-.345,3.8,3.8,0,0,1,.743.076,2.14,2.14,0,0,1,.614.207Z" transform="translate(47.803 7.142)" fill="#fff"/>
    <path id="Path_99636" data-name="Path 99636" d="M795.666,1019.758a1.229,1.229,0,0,1,.422-1.012,1.7,1.7,0,0,1,1.114-.349,3.788,3.788,0,0,1,.743.08,2.031,2.031,0,0,1,.616.2v17.349h3.9v2.538h-6.792Z" transform="translate(63.261 3.001)" fill="#fff"/>
    <path id="Path_99637" data-name="Path 99637" d="M820.961,1034.427h-5.742a3.27,3.27,0,0,1-3.152-1.744,3.647,3.647,0,0,1-1.421,1.437,4.887,4.887,0,0,1-2.447.536,5.424,5.424,0,0,1-2.231-.434,4.127,4.127,0,0,1-1.691-1.459,3.768,3.768,0,0,1-3.41,1.664h-2.024v-2.538h1.639a2.149,2.149,0,0,0,2.075-.895,5.179,5.179,0,0,0,.489-2.462v-4.153a1.214,1.214,0,0,1,.434-1.012,1.765,1.765,0,0,1,1.128-.345,3.785,3.785,0,0,1,.743.076,2.159,2.159,0,0,1,.616.207v5.739a3.77,3.77,0,0,0,.538,2.271,2.025,2.025,0,0,0,1.717.7,2,2,0,0,0,1.819-.832,5.169,5.169,0,0,0,.538-2.7v-4.1a1.229,1.229,0,0,1,.423-1.012,1.712,1.712,0,0,1,1.114-.345,3.832,3.832,0,0,1,.745.076,2.163,2.163,0,0,1,.614.207v5.176a6.363,6.363,0,0,0,.269,2.075,1.716,1.716,0,0,0,.91,1.037,4.379,4.379,0,0,0,1.793.3h1.617v-7.509a1.229,1.229,0,0,1,.422-1.012,1.705,1.705,0,0,1,1.114-.345,3.8,3.8,0,0,1,.743.076,2.178,2.178,0,0,1,.616.207Z" transform="translate(66.106 7.142)" fill="#fff"/>
    <path id="Path_99638" data-name="Path 99638" d="M825.32,1038.568H811.866v-2.538h2.947v-7.509a1.229,1.229,0,0,1,.423-1.012,1.713,1.713,0,0,1,1.114-.345,3.8,3.8,0,0,1,.743.076,2.123,2.123,0,0,1,.614.207v8.583h4.717v-16.272a1.229,1.229,0,0,1,.423-1.012,1.7,1.7,0,0,1,1.114-.349,3.834,3.834,0,0,1,.745.08,2.037,2.037,0,0,1,.614.2Zm-11.583-14.529h1.383a1.357,1.357,0,0,1-.4-.554,1.86,1.86,0,0,1-.14-.7,1.828,1.828,0,0,1,.627-1.448,2.408,2.408,0,0,1,1.654-.553,2.848,2.848,0,0,1,1.241.233.693.693,0,0,1,.474.614,1,1,0,0,1-.383.716,1.624,1.624,0,0,0-.525-.244,2.374,2.374,0,0,0-.6-.087,1.177,1.177,0,0,0-.767.229.783.783,0,0,0-.282.641,1.029,1.029,0,0,0,.385.847,1.594,1.594,0,0,0,1.025.309h1.359v1.281h-5.049Z" transform="translate(77.763 3.001)" fill="#fff"/>
    <path id="Path_99639" data-name="Path 99639" d="M823.646,1038.568h-2.9v-18.81a1.229,1.229,0,0,1,.423-1.012,1.7,1.7,0,0,1,1.114-.349,3.8,3.8,0,0,1,.743.08,2.051,2.051,0,0,1,.616.2Z" transform="translate(85.716 3.001)" fill="#fff"/>
    <path id="Path_99640" data-name="Path 99640" d="M846.714,1036.667H834.875a9.448,9.448,0,0,1-4.05-.807,6.208,6.208,0,0,1-2.665-2.293,6.35,6.35,0,0,1-.948-3.485,3.89,3.89,0,0,1,.385-1.859,1.411,1.411,0,0,1,1.359-.7,3.551,3.551,0,0,1,1.459.332,9.678,9.678,0,0,0-.281,2.18,3.615,3.615,0,0,0,1.383,3.025,6.5,6.5,0,0,0,4.048,1.075h8.252v-7.509a1.235,1.235,0,0,1,.423-1.012,1.714,1.714,0,0,1,1.116-.345,3.812,3.812,0,0,1,.743.076,2.141,2.141,0,0,1,.614.207Zm-12.582-13.443a1.595,1.595,0,0,1,0-2.242,1.505,1.505,0,0,1,1.1-.462,1.585,1.585,0,0,1,1.128,2.7,1.5,1.5,0,0,1-1.128.474A1.474,1.474,0,0,1,834.132,1023.224Zm4.484,0a1.595,1.595,0,0,1,0-2.242,1.51,1.51,0,0,1,1.1-.462,1.578,1.578,0,0,1,1.139.462,1.559,1.559,0,0,1,0,2.242,1.545,1.545,0,0,1-1.139.474A1.478,1.478,0,0,1,838.616,1023.224Z" transform="translate(91.502 4.901)" fill="#fff"/>
    <path id="Path_99641" data-name="Path 99641" d="M845.057,1040.65a9.415,9.415,0,0,1-1.908-.192,5.69,5.69,0,0,1-1.55-.525l.768-2.255a5.814,5.814,0,0,0,2.538.563,2.968,2.968,0,0,0,2.5-.974,4.423,4.423,0,0,0,.756-2.767h-2.794a7.038,7.038,0,0,1-4.806-1.5,5.171,5.171,0,0,1-1.7-4.088,6.045,6.045,0,0,1,.8-3.138,5.4,5.4,0,0,1,2.215-2.089,6.993,6.993,0,0,1,3.292-.745,5.342,5.342,0,0,1,4.37,1.848,8.213,8.213,0,0,1,1.526,5.354v1.819h3.229v2.538H851Q850.62,1040.651,845.057,1040.65Zm-2.382-14.288a3.4,3.4,0,0,0-.872,2.45,2.992,2.992,0,0,0,.9,2.329,3.735,3.735,0,0,0,2.613.821h2.845v-1.9q0-4.611-3.154-4.611A3.08,3.08,0,0,0,842.675,1026.362Z" transform="translate(101.924 7.069)" fill="#fff"/>
    <path id="Path_99642" data-name="Path 99642" d="M853.355,1034.427h-6.764v-2.538h3.868v-7.509a1.23,1.23,0,0,1,.425-1.012,1.709,1.709,0,0,1,1.114-.345,3.8,3.8,0,0,1,.743.076,2.122,2.122,0,0,1,.614.207Zm-5.765,4.5a1.59,1.59,0,0,1,2.255-2.242,1.594,1.594,0,0,1,0,2.242,1.579,1.579,0,0,1-2.255,0Zm4.484,0a1.589,1.589,0,1,1,2.257,0,1.581,1.581,0,0,1-2.257,0Z" transform="translate(108.849 7.142)" fill="#fff"/>
    <path id="Path_99643" data-name="Path 99643" d="M856.35,1026.621a1.234,1.234,0,0,1,.423-1.012,1.712,1.712,0,0,1,1.114-.345,3.818,3.818,0,0,1,.745.076,2.143,2.143,0,0,1,.614.207v8.583h3.9v2.538h-3.9v1.023a5.026,5.026,0,0,1-1.294,3.666,4.679,4.679,0,0,1-3.523,1.332,7.726,7.726,0,0,1-1.628-.178,5.916,5.916,0,0,1-1.395-.461l.743-2.2a3.149,3.149,0,0,0,.91.282,6.108,6.108,0,0,0,1.063.1,1.981,1.981,0,0,0,2.229-2.255Zm.36-3.4a1.519,1.519,0,0,1,0-2.229,1.6,1.6,0,0,1,1.152-.476,1.513,1.513,0,0,1,1.128.476,1.574,1.574,0,0,1,0,2.229,1.505,1.505,0,0,1-1.128.474A1.586,1.586,0,0,1,856.71,1023.224Z" transform="translate(113.158 4.901)" fill="#fff"/>
    <path id="Path_99644" data-name="Path 99644" d="M863.958,1038.568h-6.766v-2.538h3.87v-16.272a1.229,1.229,0,0,1,.423-1.012,1.706,1.706,0,0,1,1.116-.349,3.8,3.8,0,0,1,.741.08,2.031,2.031,0,0,1,.616.2Z" transform="translate(118.339 3.001)" fill="#fff"/>
    <path id="Path_99645" data-name="Path 99645" d="M877.348,1031.258a3.232,3.232,0,0,0,.6,2.231,2.782,2.782,0,0,0,2.087.641h.972v2.538h-1.382a4.845,4.845,0,0,1-2.164-.474,3.58,3.58,0,0,1-1.5-1.346,5.9,5.9,0,0,1-4.586,1.82,6.571,6.571,0,0,1-3.076-.692,5.029,5.029,0,0,1-2.062-1.922,5.514,5.514,0,0,1-.732-2.871,5.111,5.111,0,0,1,2.115-4.342,9.464,9.464,0,0,1,5.778-1.577h3.948Zm-8.125,2.077a2.947,2.947,0,0,0,2.179.794,2.87,2.87,0,0,0,2.242-.895,3.6,3.6,0,0,0,.807-2.488V1027.8h-1.1a6.423,6.423,0,0,0-3.665.87,3.211,3.211,0,0,0-.46,4.664Zm.207-10.111a1.59,1.59,0,0,1,0-2.242,1.5,1.5,0,0,1,1.1-.462,1.585,1.585,0,0,1,1.128,2.7,1.505,1.505,0,0,1-1.128.474A1.467,1.467,0,0,1,869.43,1023.224Zm4.482,0a1.6,1.6,0,0,1,0-2.242,1.509,1.509,0,0,1,1.1-.462,1.575,1.575,0,0,1,1.139.462,1.559,1.559,0,0,1,0,2.242,1.542,1.542,0,0,1-1.139.474A1.478,1.478,0,0,1,873.912,1023.224Z" transform="translate(125.782 4.901)" fill="#fff"/>
    <path id="Path_99646" data-name="Path 99646" d="M880.05,1034.427h-6.766v-2.538h3.87v-7.509a1.234,1.234,0,0,1,.421-1.012,1.713,1.713,0,0,1,1.115-.345,3.816,3.816,0,0,1,.745.076,2.156,2.156,0,0,1,.616.207Zm-5.767,4.5a1.59,1.59,0,1,1,2.255,0,1.579,1.579,0,0,1-2.255,0Zm4.486,0a1.588,1.588,0,1,1,2.255,0,1.579,1.579,0,0,1-2.255,0Z" transform="translate(132.744 7.142)" fill="#fff"/>
    <path id="Path_99647" data-name="Path 99647" d="M892.21,1034.487H878.191v-2.538H889.21v-.923a5.276,5.276,0,0,0-1.524-3.984,5.734,5.734,0,0,0-4.164-1.475,9.212,9.212,0,0,0-1.744.169,5.224,5.224,0,0,0-1.41.445,2.032,2.032,0,0,1-.5-.665,1.813,1.813,0,0,1-.218-.794q0-.819,1.128-1.294a8.063,8.063,0,0,1,3.049-.474,9.84,9.84,0,0,1,4.486.948,6.81,6.81,0,0,1,2.883,2.7,8.276,8.276,0,0,1,1.012,4.19Z" transform="translate(137.137 7.081)" fill="#fff"/>
    <path id="Path_99648" data-name="Path 99648" d="M893.114,1040.65a9.383,9.383,0,0,1-1.907-.192,5.681,5.681,0,0,1-1.552-.525l.769-2.255a5.8,5.8,0,0,0,2.538.563,2.964,2.964,0,0,0,2.5-.974,4.423,4.423,0,0,0,.756-2.767h-2.8a7.036,7.036,0,0,1-4.8-1.5,5.171,5.171,0,0,1-1.7-4.088,6.046,6.046,0,0,1,.8-3.138,5.42,5.42,0,0,1,2.217-2.089,6.992,6.992,0,0,1,3.292-.745,5.344,5.344,0,0,1,4.368,1.848,8.214,8.214,0,0,1,1.526,5.354v1.819h3.229v2.538h-3.282Q898.678,1040.651,893.114,1040.65Zm-2.38-14.288a3.387,3.387,0,0,0-.874,2.45,2.992,2.992,0,0,0,.9,2.329,3.735,3.735,0,0,0,2.613.821h2.845v-1.9q0-4.611-3.154-4.611A3.078,3.078,0,0,0,890.734,1026.362Z" transform="translate(144.945 7.069)" fill="#fff"/>
    <path id="Path_99649" data-name="Path 99649" d="M894.649,1031.962h4.3a3.539,3.539,0,0,1-.859-1.461,6.33,6.33,0,0,1-.32-2.051,5.537,5.537,0,0,1,.756-2.934,4.947,4.947,0,0,1,2.14-1.908,7.384,7.384,0,0,1,3.229-.667,8.042,8.042,0,0,1,2.308.309,3.627,3.627,0,0,1,1.535.819,1.284,1.284,0,0,1,.487.974,1.929,1.929,0,0,1-.948,1.539,4.272,4.272,0,0,0-1.448-.832,5.183,5.183,0,0,0-1.781-.32,3.291,3.291,0,0,0-2.433.894,3.191,3.191,0,0,0-.9,2.359,3.133,3.133,0,0,0,.948,2.384,3.409,3.409,0,0,0,2.435.895h6.739v2.538H894.649Z" transform="translate(151.87 7.069)" fill="#fff"/>
    <path id="Path_99650" data-name="Path 99650" d="M909.913,1029.044a3.785,3.785,0,0,0,.538,2.271,2.027,2.027,0,0,0,1.717.7,2,2,0,0,0,1.819-.832,5.151,5.151,0,0,0,.538-2.7v-4.1a1.214,1.214,0,0,1,.434-1.012,1.769,1.769,0,0,1,1.128-.345,3.818,3.818,0,0,1,.745.076,2.137,2.137,0,0,1,.616.207v5.739a3.784,3.784,0,0,0,.536,2.271,2.026,2.026,0,0,0,1.719.7,2,2,0,0,0,1.818-.832,5.167,5.167,0,0,0,.54-2.7v-4.1a1.228,1.228,0,0,1,.421-1.012,1.714,1.714,0,0,1,1.116-.345,3.8,3.8,0,0,1,.743.076,2.158,2.158,0,0,1,.616.207v5.176a6.37,6.37,0,0,0,.267,2.075,1.724,1.724,0,0,0,.911,1.037,4.373,4.373,0,0,0,1.793.3h1.23v2.538H926.7a3.267,3.267,0,0,1-3.15-1.744,3.353,3.353,0,0,1-1.526,1.474,5.127,5.127,0,0,1-2.293.5,4.626,4.626,0,0,1-2.28-.525,3.5,3.5,0,0,1-1.437-1.448,3.647,3.647,0,0,1-1.421,1.437,4.886,4.886,0,0,1-2.447.536,5.42,5.42,0,0,1-2.231-.434,4.145,4.145,0,0,1-1.692-1.459,3.763,3.763,0,0,1-3.408,1.664h-2.024v-2.538h1.641a2.151,2.151,0,0,0,2.075-.895,5.228,5.228,0,0,0,.487-2.462v-4.153a1.214,1.214,0,0,1,.434-1.012,1.77,1.77,0,0,1,1.129-.345,3.78,3.78,0,0,1,.741.076,2.136,2.136,0,0,1,.616.207Z" transform="translate(159.157 7.142)" fill="#fff"/>
    <path id="Path_99651" data-name="Path 99651" d="M923.062,1038.568H916.3v-2.538h3.868v-16.272a1.235,1.235,0,0,1,.423-1.012,1.7,1.7,0,0,1,1.115-.349,3.8,3.8,0,0,1,.743.08,2.049,2.049,0,0,1,.616.2Z" transform="translate(171.25 3.001)" fill="#fff"/>
    <path id="Path_99652" data-name="Path 99652" d="M924.427,1038.568h-2.9v-18.81a1.228,1.228,0,0,1,.421-1.012,1.706,1.706,0,0,1,1.116-.349,3.818,3.818,0,0,1,.743.08,2.05,2.05,0,0,1,.616.2Z" transform="translate(175.935 3.001)" fill="#fff"/>
    <path id="Path_99653" data-name="Path 99653" d="M934.127,1040.65a9.383,9.383,0,0,1-1.907-.192,5.681,5.681,0,0,1-1.552-.525l.769-2.255a5.8,5.8,0,0,0,2.538.563,2.967,2.967,0,0,0,2.5-.974,4.423,4.423,0,0,0,.756-2.767h-2.8a7.036,7.036,0,0,1-4.8-1.5,5.171,5.171,0,0,1-1.7-4.088,6.046,6.046,0,0,1,.8-3.138,5.42,5.42,0,0,1,2.217-2.089,6.99,6.99,0,0,1,3.29-.745,5.345,5.345,0,0,1,4.37,1.848,8.214,8.214,0,0,1,1.526,5.354v1.819h3.229v2.538h-3.282Q939.691,1040.651,934.127,1040.65Zm-2.382-14.288a3.394,3.394,0,0,0-.872,2.45,2.992,2.992,0,0,0,.9,2.329,3.735,3.735,0,0,0,2.613.821h2.845v-1.9q0-4.611-3.154-4.611A3.083,3.083,0,0,0,931.745,1026.362Z" transform="translate(181.659 7.069)" fill="#fff"/>
    <path id="Path_99654" data-name="Path 99654" d="M941.761,1027.24h.667a7.936,7.936,0,0,1,3.895.91,6.427,6.427,0,0,1,2.549,2.563,8.049,8.049,0,0,1,.911,3.936v1.382h3.459v2.538h-17.58v-2.538h11.121v-1.075a5.14,5.14,0,0,0-1.486-3.934,5.719,5.719,0,0,0-4.077-1.4,9.51,9.51,0,0,0-1.933.2,4.492,4.492,0,0,0-1.4.472,2.286,2.286,0,0,1-.525-.625,1.559,1.559,0,0,1-.191-.758,1.683,1.683,0,0,1,.245-.819,6,6,0,0,1,1.012-1.181l6-5.972q1.026-1.024,1.679-1.575a4.836,4.836,0,0,1,1.128-.754,2.411,2.411,0,0,1,.961-.208,2.211,2.211,0,0,1,1.871,1Z" transform="translate(188.585 3.001)" fill="#fff"/>
    <path id="Path_99655" data-name="Path 99655" d="M949.683,1024.532a5.818,5.818,0,0,1,4.253-1.577,5.731,5.731,0,0,1,4.241,1.577,5.909,5.909,0,0,1,1.575,4.369,5.839,5.839,0,0,1-1.537,4.281,6.467,6.467,0,0,1-8.741-.282,2.83,2.83,0,0,1-1.5,1.243,6.479,6.479,0,0,1-2.193.345h-1.253v-2.538h.845a2.683,2.683,0,0,0,2.022-.692,3.378,3.378,0,0,0,.669-2.382A5.787,5.787,0,0,1,949.683,1024.532Zm6.432,6.777a4.45,4.45,0,0,0,0-4.918,3.013,3.013,0,0,0-4.344,0,4.368,4.368,0,0,0,0,4.918,3.017,3.017,0,0,0,4.344,0Z" transform="translate(196.525 7.081)" fill="#fff"/>
    <path id="Path_99656" data-name="Path 99656" d="M957.124,1038.568h-2.9v-18.81a1.228,1.228,0,0,1,.421-1.012,1.7,1.7,0,0,1,1.114-.349,3.821,3.821,0,0,1,.745.08,2.049,2.049,0,0,1,.616.2Z" transform="translate(205.205 3.001)" fill="#fff"/>
    <path id="Path_99657" data-name="Path 99657" d="M962.935,1035.45a5.042,5.042,0,0,1-1.295,3.666,4.684,4.684,0,0,1-3.523,1.332,7.758,7.758,0,0,1-1.63-.178,5.925,5.925,0,0,1-1.395-.46l.741-2.2a3.163,3.163,0,0,0,.912.282,6.1,6.1,0,0,0,1.063.1,1.983,1.983,0,0,0,2.231-2.255V1024.38a1.228,1.228,0,0,1,.421-1.012,1.714,1.714,0,0,1,1.116-.345,3.8,3.8,0,0,1,.743.076,2.158,2.158,0,0,1,.616.207Z" transform="translate(205.979 7.142)" fill="#fff"/>
    <path id="Path_99658" data-name="Path 99658" d="M960.325,1018.3h1.382a1.338,1.338,0,0,1-.394-.55,1.861,1.861,0,0,1-.142-.707,1.831,1.831,0,0,1,.627-1.448,2.42,2.42,0,0,1,1.653-.55,2.863,2.863,0,0,1,1.243.229.7.7,0,0,1,.476.616,1.012,1.012,0,0,1-.385.718,1.578,1.578,0,0,0-.527-.244,2.183,2.183,0,0,0-.6-.089,1.183,1.183,0,0,0-.769.229.789.789,0,0,0-.282.641,1.022,1.022,0,0,0,.385.845,1.582,1.582,0,0,0,1.025.309h1.357v1.281h-5.047Zm3.972,23.269h-2.9v-18.81a1.229,1.229,0,0,1,.423-1.012,1.7,1.7,0,0,1,1.114-.349,3.835,3.835,0,0,1,.745.08,2.053,2.053,0,0,1,.614.2Z" transform="translate(210.663 0)" fill="#fff"/>
    <path id="Path_99659" data-name="Path 99659" d="M979.128,1031.258a3.252,3.252,0,0,0,.6,2.231,2.784,2.784,0,0,0,2.089.641h.974v2.538H981.41a4.85,4.85,0,0,1-2.168-.474,3.569,3.569,0,0,1-1.5-1.346,5.9,5.9,0,0,1-4.588,1.82,6.571,6.571,0,0,1-3.076-.692,5.046,5.046,0,0,1-2.064-1.922,5.532,5.532,0,0,1-.728-2.871,5.109,5.109,0,0,1,2.113-4.342,9.464,9.464,0,0,1,5.779-1.577h3.948ZM971,1033.335a2.95,2.95,0,0,0,2.179.794,2.871,2.871,0,0,0,2.244-.895,3.6,3.6,0,0,0,.805-2.488V1027.8h-1.1a6.424,6.424,0,0,0-3.665.87,3.214,3.214,0,0,0-.462,4.664Zm.2-10.111a1.6,1.6,0,0,1,0-2.242,1.513,1.513,0,0,1,1.1-.462,1.587,1.587,0,0,1,1.128,2.7,1.508,1.508,0,0,1-1.128.474A1.481,1.481,0,0,1,971.208,1023.224Zm4.486,0a1.59,1.59,0,0,1,0-2.242,1.505,1.505,0,0,1,1.1-.462,1.576,1.576,0,0,1,1.141.462,1.563,1.563,0,0,1,0,2.242,1.543,1.543,0,0,1-1.141.474A1.474,1.474,0,0,1,975.694,1023.224Z" transform="translate(216.897 4.901)" fill="#fff"/>
    <path id="Path_99660" data-name="Path 99660" d="M981.165,1027.24h.665a7.936,7.936,0,0,1,3.895.91,6.442,6.442,0,0,1,2.551,2.563,8.069,8.069,0,0,1,.91,3.936v3.919H975.064v-2.538h11.123v-1.075a5.14,5.14,0,0,0-1.486-3.934,5.723,5.723,0,0,0-4.077-1.4,9.543,9.543,0,0,0-1.935.2,4.459,4.459,0,0,0-1.4.472,2.284,2.284,0,0,1-.525-.625,1.539,1.539,0,0,1-.191-.758,1.662,1.662,0,0,1,.245-.819,5.908,5.908,0,0,1,1.01-1.181l6-5.972q1.026-1.024,1.681-1.575a4.8,4.8,0,0,1,1.128-.754,2.4,2.4,0,0,1,.961-.208,2.21,2.21,0,0,1,1.869,1Z" transform="translate(223.857 3.001)" fill="#fff"/>
    <path id="Path_99661" data-name="Path 99661" d="M986.664,1024.38a1.228,1.228,0,0,1,.421-1.012,1.714,1.714,0,0,1,1.116-.345,3.8,3.8,0,0,1,.743.076,2.158,2.158,0,0,1,.616.207v8.583h3.895v2.538H989.56v1.023a5.042,5.042,0,0,1-1.295,3.666,4.684,4.684,0,0,1-3.523,1.332,7.758,7.758,0,0,1-1.63-.178,5.927,5.927,0,0,1-1.395-.46l.741-2.2a3.163,3.163,0,0,0,.912.282,6.1,6.1,0,0,0,1.063.1,1.983,1.983,0,0,0,2.231-2.255Z" transform="translate(229.814 7.142)" fill="#fff"/>
    <path id="Path_99662" data-name="Path 99662" d="M1009.62,1038.422h-5.739a3.271,3.271,0,0,1-3.154-1.744,3.652,3.652,0,0,1-1.423,1.437,4.883,4.883,0,0,1-2.447.536,5.416,5.416,0,0,1-2.229-.434,4.133,4.133,0,0,1-1.693-1.459,3.764,3.764,0,0,1-3.407,1.664h-2.024v-2.538h1.639a2.154,2.154,0,0,0,2.077-.895,5.229,5.229,0,0,0,.487-2.462v-4.152a1.213,1.213,0,0,1,.432-1.012,1.78,1.78,0,0,1,1.131-.345,3.782,3.782,0,0,1,.741.076,2.137,2.137,0,0,1,.616.207v5.739a3.784,3.784,0,0,0,.536,2.271,2.031,2.031,0,0,0,1.719.7,1.994,1.994,0,0,0,1.818-.832,5.13,5.13,0,0,0,.54-2.7v-4.1a1.239,1.239,0,0,1,.421-1.012,1.718,1.718,0,0,1,1.116-.345,3.8,3.8,0,0,1,.743.076,2.156,2.156,0,0,1,.616.207v5.176a6.37,6.37,0,0,0,.267,2.075,1.724,1.724,0,0,0,.912,1.037,4.374,4.374,0,0,0,1.793.3h1.615v-7.509a1.229,1.229,0,0,1,.423-1.012,1.718,1.718,0,0,1,1.116-.345,3.766,3.766,0,0,1,.741.076,2.138,2.138,0,0,1,.616.207Zm-11.1-13.018a1.519,1.519,0,0,1-1.128-.474,1.555,1.555,0,0,1-.462-1.116,1.5,1.5,0,0,1,.462-1.114,1.64,1.64,0,0,1,2.255,0,1.5,1.5,0,0,1,.46,1.114,1.554,1.554,0,0,1-.46,1.116A1.523,1.523,0,0,1,998.524,1025.4Zm2.28-3.69a1.473,1.473,0,0,1-1.114-.476,1.572,1.572,0,0,1-.447-1.114,1.531,1.531,0,0,1,1.562-1.563,1.561,1.561,0,0,1,1.128.449,1.5,1.5,0,0,1,.462,1.114,1.548,1.548,0,0,1-.462,1.114A1.51,1.51,0,0,1,1000.8,1021.714Zm2.2,3.69a1.522,1.522,0,0,1-1.128-.474,1.553,1.553,0,0,1-.461-1.116,1.494,1.494,0,0,1,.461-1.114,1.64,1.64,0,0,1,2.255,0,1.489,1.489,0,0,1,.462,1.114,1.548,1.548,0,0,1-.462,1.116A1.517,1.517,0,0,1,1003.008,1025.4Z" transform="translate(234.994 3.147)" fill="#fff"/>
    <path id="Path_99663" data-name="Path 99663" d="M726.293,1041.052a4.587,4.587,0,0,1,1.884-3.91,8.591,8.591,0,0,1,5.214-1.4,15.35,15.35,0,0,1,3.409.371,7.764,7.764,0,0,1,2.536.961,1.711,1.711,0,0,1,.925,1.384,2.047,2.047,0,0,1-.3.987,2.262,2.262,0,0,1-.73.807,4.3,4.3,0,0,0-1.423-.961,10.024,10.024,0,0,0-2.075-.667,10.939,10.939,0,0,0-2.293-.244q-4.051,0-4.05,2.46a1.778,1.778,0,0,0,.769,1.512,6.41,6.41,0,0,0,2.511.9l2.818.514a8.84,8.84,0,0,1,4.319,1.742,4.246,4.246,0,0,1,1.346,3.332,4.637,4.637,0,0,1-1.975,3.972,9.169,9.169,0,0,1-5.483,1.437,15.188,15.188,0,0,1-2.82-.282,17.317,17.317,0,0,1-2.78-.758,9.336,9.336,0,0,1-2.14-1.061l1.332-2.384a9.168,9.168,0,0,0,1.857.923,14,14,0,0,0,2.3.641,12.1,12.1,0,0,0,2.3.229q4.153,0,4.152-2.511a1.878,1.878,0,0,0-.73-1.6,6.281,6.281,0,0,0-2.524-.885l-2.818-.512Q726.294,1045.049,726.293,1041.052Z" transform="translate(0.86 18.532)" fill="#fff"/>
    <path id="Path_99664" data-name="Path 99664" d="M747.258,1051.461q-1.336.179-2.885.3t-2.8.114a9.608,9.608,0,0,1-4.857-1,3.491,3.491,0,0,1-1.677-3.254,3.593,3.593,0,0,1,1.448-3.074,7.978,7.978,0,0,1,4.7-1.078c.495,0,1.05.019,1.666.051s1.109.078,1.486.129a2.652,2.652,0,0,0-.963-2.28,4.732,4.732,0,0,0-2.856-.72,8.638,8.638,0,0,0-2.191.258,3.494,3.494,0,0,0-1.421.641,1.692,1.692,0,0,1-.487-.578,1.466,1.466,0,0,1,.87-2.165,7.656,7.656,0,0,1,3.178-.512,8,8,0,0,1,5.073,1.37,4.922,4.922,0,0,1,1.719,4.088Zm-8.432-2.191a6.01,6.01,0,0,0,2.742.474q.768,0,1.562-.062a8.99,8.99,0,0,0,1.232-.167v-3.743a9.743,9.743,0,0,0-1.474-.191q-.91-.065-1.6-.064a4.512,4.512,0,0,0-2.6.55,1.916,1.916,0,0,0-.73,1.628A1.65,1.65,0,0,0,738.826,1049.27Z" transform="translate(8.983 20.808)" fill="#fff"/>
    <path id="Path_99665" data-name="Path 99665" d="M755.57,1046.142a5.169,5.169,0,0,1-1.677,4.059,7.707,7.707,0,0,1-9.135,0,5.149,5.149,0,0,1-1.692-4.059v-6.307a1.215,1.215,0,0,1,.436-1.012,1.761,1.761,0,0,1,1.128-.345,3.789,3.789,0,0,1,.743.076,2.213,2.213,0,0,1,.614.207v6.739q0,3.562,3.332,3.563t3.332-3.563v-5.665a1.22,1.22,0,0,1,.436-1.012,1.764,1.764,0,0,1,1.128-.345,3.789,3.789,0,0,1,.743.076,2.213,2.213,0,0,1,.614.207Z" transform="translate(16.173 20.977)" fill="#fff"/>
    <path id="Path_99666" data-name="Path 99666" d="M764.8,1047.139a8.8,8.8,0,0,1-.832,3.974,5.977,5.977,0,0,1-2.344,2.549,7.016,7.016,0,0,1-3.59.883,7.564,7.564,0,0,1-3.69-.87,6.373,6.373,0,0,1-2.487-2.409,7.391,7.391,0,0,1-.025-7.01,6.5,6.5,0,0,1,2.358-2.409,6.41,6.41,0,0,1,3.332-.883,5.842,5.842,0,0,1,2.524.525,4.96,4.96,0,0,1,1.833,1.448v-6.279a1.214,1.214,0,0,1,.434-1.012,1.761,1.761,0,0,1,1.129-.347,3.805,3.805,0,0,1,.743.077,2.1,2.1,0,0,1,.614.2Zm-9.7-2.434a4.662,4.662,0,0,0,0,6.05,4.087,4.087,0,0,0,5.689,0,4.662,4.662,0,0,0,0-6.05,4.088,4.088,0,0,0-5.689,0Z" transform="translate(23.242 18.132)" fill="#fff"/>
    <path id="Path_99667" data-name="Path 99667" d="M760.1,1038.511a1.9,1.9,0,0,1,0-2.562,1.822,1.822,0,0,1,2.536,0,1.885,1.885,0,0,1,0,2.562,1.827,1.827,0,0,1-2.536,0Zm2.729,15.556h-2.922v-11.508a1.216,1.216,0,0,1,.438-1.012,1.759,1.759,0,0,1,1.126-.345,3.78,3.78,0,0,1,.743.076,2.2,2.2,0,0,1,.616.207Z" transform="translate(30.978 18.253)" fill="#fff"/>
    <path id="Path_99668" data-name="Path 99668" d="M765.634,1053.787q.87-2.308,1.973-5.036t2.333-5.6q1.228-2.874,2.46-5.589a3.355,3.355,0,0,1,1.025-1.4,2.538,2.538,0,0,1,1.51-.421,3.53,3.53,0,0,1,1.025.192,2.161,2.161,0,0,1,.8.371,17.209,17.209,0,0,1,.794,1.577q.512,1.114,1.2,2.665t1.437,3.33q.742,1.783,1.486,3.59t1.4,3.445q.654,1.643,1.088,2.871h-3.383c-.135-.375-.317-.849-.538-1.423s-.438-1.152-.652-1.742-.4-1.063-.552-1.423h-8.585c-.273.684-.555,1.408-.845,2.166s-.589,1.567-.9,2.422Zm8.149-12.673q-.563,1.294-1.152,2.691t-1.1,2.7h6.483q-.384-1-.845-2.142c-.309-.758-.61-1.5-.91-2.242s-.576-1.393-.834-1.973-.46-1.016-.614-1.306Q774.348,1039.82,773.783,1041.114Z" transform="translate(36.376 18.532)" fill="#fff"/>
    <path id="Path_99669" data-name="Path 99669" d="M776.263,1043.233a4.648,4.648,0,0,1,1.448-3.638,7,7,0,0,1,6.7-.794,1.5,1.5,0,0,1,.948,1.308,1.75,1.75,0,0,1-.218.819,1.389,1.389,0,0,1-.423.538,5.628,5.628,0,0,0-2.538-.563q-3,0-3,3.178v7.431h-2.921Z" transform="translate(45.891 20.808)" fill="#fff"/>
    <path id="Path_99670" data-name="Path 99670" d="M793.6,1051.461q-1.333.179-2.884.3t-2.8.114a9.614,9.614,0,0,1-4.858-1,3.494,3.494,0,0,1-1.677-3.254,3.593,3.593,0,0,1,1.448-3.074,7.978,7.978,0,0,1,4.7-1.078c.495,0,1.05.019,1.666.051s1.109.078,1.486.129a2.657,2.657,0,0,0-.961-2.28,4.738,4.738,0,0,0-2.858-.72,8.637,8.637,0,0,0-2.191.258,3.492,3.492,0,0,0-1.421.641,1.714,1.714,0,0,1-.487-.578,1.466,1.466,0,0,1,.872-2.165,7.641,7.641,0,0,1,3.176-.512,8,8,0,0,1,5.073,1.37,4.916,4.916,0,0,1,1.719,4.088Zm-8.432-2.191a6.016,6.016,0,0,0,2.742.474q.767,0,1.562-.062a8.987,8.987,0,0,0,1.232-.167v-3.743a9.743,9.743,0,0,0-1.474-.191q-.91-.065-1.6-.064a4.516,4.516,0,0,0-2.6.55,1.916,1.916,0,0,0-.73,1.628A1.65,1.65,0,0,0,785.166,1049.27Z" transform="translate(50.467 20.808)" fill="#fff"/>
    <path id="Path_99671" data-name="Path 99671" d="M810.242,1051.512h-2.922v-7.3a3.566,3.566,0,0,0-.743-2.462,2.765,2.765,0,0,0-2.153-.821,2.9,2.9,0,0,0-2.32.936,3.937,3.937,0,0,0-.805,2.651v7h-2.922v-7a4.025,4.025,0,0,0-.783-2.651,3.27,3.27,0,0,0-4.484-.091,3.507,3.507,0,0,0-.781,2.462v7.277h-2.922v-8.278a4.819,4.819,0,0,1,.705-2.627,4.635,4.635,0,0,1,1.973-1.717,6.832,6.832,0,0,1,2.96-.6,5.343,5.343,0,0,1,4.842,2.331,5.271,5.271,0,0,1,4.766-2.331,6.681,6.681,0,0,1,2.922.6,4.669,4.669,0,0,1,1.96,1.706,4.723,4.723,0,0,1,.707,2.612Z" transform="translate(57.657 20.808)" fill="#fff"/>
    <path id="Path_99672" data-name="Path 99672" d="M802.556,1041.568a6.069,6.069,0,0,1,2.473-2.409,7.994,7.994,0,0,1,3.843-.87,8.46,8.46,0,0,1,2.32.3,3.907,3.907,0,0,1,1.6.807,1.4,1.4,0,0,1,.565,1.075,1.547,1.547,0,0,1-.269.832,3.135,3.135,0,0,1-.73.783,4.445,4.445,0,0,0-1.55-.91,5.778,5.778,0,0,0-1.937-.32,4.075,4.075,0,0,0-3,1.116,4.237,4.237,0,0,0,3.1,7.313,6,6,0,0,0,3.176-.87l1.232,2.177a9.014,9.014,0,0,1-4.742,1.281,7.63,7.63,0,0,1-3.641-.832,6.02,6.02,0,0,1-2.433-2.346,6.993,6.993,0,0,1-.872-3.561A7.188,7.188,0,0,1,802.556,1041.568Z" transform="translate(68.66 20.808)" fill="#fff"/>
    <path id="Path_99673" data-name="Path 99673" d="M809.327,1048.538a6.861,6.861,0,0,1,0-6.919,6.82,6.82,0,0,1,2.523-2.434,7.653,7.653,0,0,1,7.188,0,6.726,6.726,0,0,1,2.525,2.434,6.947,6.947,0,0,1,0,6.919,6.723,6.723,0,0,1-2.525,2.437,7.67,7.67,0,0,1-7.188,0A6.817,6.817,0,0,1,809.327,1048.538Zm9.6-1.266a4.938,4.938,0,0,0,0-4.385,3.744,3.744,0,0,0-1.422-1.5,4.222,4.222,0,0,0-4.126,0,3.748,3.748,0,0,0-1.423,1.5,4.954,4.954,0,0,0,0,4.385,3.748,3.748,0,0,0,1.423,1.5,4.222,4.222,0,0,0,4.126,0A3.744,3.744,0,0,0,818.923,1047.272Z" transform="translate(74.652 20.808)" fill="#fff"/>
    <path id="Path_99674" data-name="Path 99674" d="M820.723,1037.777a1.827,1.827,0,0,1,.307-1.09,1.652,1.652,0,0,1,1.052-.576,10.678,10.678,0,0,1,1.09-.14q.7-.066,1.524-.091c.546-.017,1.042-.025,1.486-.025a18.261,18.261,0,0,1,5.037.561,5.231,5.231,0,0,1,2.716,1.643,4.139,4.139,0,0,1,.832,2.614,4.493,4.493,0,0,1-.616,2.409,3.939,3.939,0,0,1-1.664,1.51,4.315,4.315,0,0,1,2.153,1.577,4.713,4.713,0,0,1,.768,2.78,4.427,4.427,0,0,1-.859,2.782,5.158,5.158,0,0,1-2.729,1.664,18.055,18.055,0,0,1-4.971.553c-.682,0-1.539-.023-2.562-.066s-2.214-.106-3.563-.191Zm10.969,3.2a2.062,2.062,0,0,0-1.063-1.922,6.863,6.863,0,0,0-3.32-.616c-.358,0-.773.011-1.241.027s-.919.042-1.346.078-.769.068-1.025.1v4.768h4.766a3.879,3.879,0,0,0,2.409-.641A2.149,2.149,0,0,0,831.692,1040.979Zm.589,7.636a2.237,2.237,0,0,0-.859-1.946,4.38,4.38,0,0,0-2.551-.616H823.7v5.075q.307.051.91.1c.4.034.832.059,1.294.076s.887.026,1.281.026a12.316,12.316,0,0,0,3.049-.3,2.879,2.879,0,0,0,1.575-.9A2.385,2.385,0,0,0,832.282,1048.615Z" transform="translate(85.692 18.629)" fill="#fff"/>
    <path id="Path_99675" data-name="Path 99675" d="M841.75,1051.461q-1.333.179-2.883.3t-2.807.114a9.613,9.613,0,0,1-4.857-1,3.494,3.494,0,0,1-1.677-3.254,3.593,3.593,0,0,1,1.448-3.074,7.978,7.978,0,0,1,4.7-1.078c.5,0,1.05.019,1.666.051s1.111.078,1.486.129a2.656,2.656,0,0,0-.961-2.28,4.735,4.735,0,0,0-2.856-.72,8.627,8.627,0,0,0-2.191.258,3.491,3.491,0,0,0-1.423.641,1.712,1.712,0,0,1-.487-.578,1.588,1.588,0,0,1-.2-.781,1.554,1.554,0,0,1,1.076-1.384,7.647,7.647,0,0,1,3.176-.512,8.009,8.009,0,0,1,5.075,1.37,4.92,4.92,0,0,1,1.717,4.088Zm-8.432-2.191a6.016,6.016,0,0,0,2.742.474q.768,0,1.563-.062a9,9,0,0,0,1.23-.167v-3.743a9.71,9.71,0,0,0-1.474-.191q-.91-.065-1.6-.064a4.513,4.513,0,0,0-2.6.55,1.917,1.917,0,0,0-.732,1.628A1.65,1.65,0,0,0,833.318,1049.27Z" transform="translate(93.572 20.808)" fill="#fff"/>
    <path id="Path_99676" data-name="Path 99676" d="M849.555,1047.642a3.565,3.565,0,0,1-1.626,3.114,7.467,7.467,0,0,1-4.293,1.114,15.326,15.326,0,0,1-2.5-.216,14.58,14.58,0,0,1-2.359-.591,6.316,6.316,0,0,1-1.626-.781l1.1-1.973a8.445,8.445,0,0,0,2.255.9,11.549,11.549,0,0,0,2.974.383q3.022,0,3.023-1.539,0-1.3-2.46-1.615l-2.613-.334a5.52,5.52,0,0,1-3-1.177,3.231,3.231,0,0,1-1.052-2.562,3.417,3.417,0,0,1,1.564-3.038,8.215,8.215,0,0,1,4.537-1.037,12.236,12.236,0,0,1,2.767.281,5.722,5.722,0,0,1,1.9.756,1.335,1.335,0,0,1,.69,1.09,1.447,1.447,0,0,1-.267.794,1.66,1.66,0,0,1-.629.591,3.21,3.21,0,0,0-1.1-.629,10.7,10.7,0,0,0-1.742-.487,10.132,10.132,0,0,0-1.948-.193,4.631,4.631,0,0,0-2.115.4,1.258,1.258,0,0,0-.756,1.166,1.131,1.131,0,0,0,.525.961,3.8,3.8,0,0,0,1.655.525l2.613.333Q849.554,1044.44,849.555,1047.642Z" transform="translate(100.4 20.808)" fill="#fff"/>
    <path id="Path_99677" data-name="Path 99677" d="M851.566,1051.87a7.349,7.349,0,0,1-3.574-.845,6.127,6.127,0,0,1-2.422-2.346,6.819,6.819,0,0,1-.872-3.495,7.035,7.035,0,0,1,.9-3.578,6.479,6.479,0,0,1,2.473-2.433,7.246,7.246,0,0,1,3.6-.883,6.47,6.47,0,0,1,3.984,1.141,3.673,3.673,0,0,1,1.526,3.112,3.236,3.236,0,0,1-1.781,3,12.073,12.073,0,0,1-5.65,1c-.241,0-.534-.006-.885-.013s-.7-.021-1.037-.038a3.039,3.039,0,0,0,1.37,2.126,5.088,5.088,0,0,0,2.934.794,6.886,6.886,0,0,0,3.485-.9l1.076,2.051a7.246,7.246,0,0,1-1.408.665,10.283,10.283,0,0,1-1.821.474A11.124,11.124,0,0,1,851.566,1051.87Zm.051-11.326a3.78,3.78,0,0,0-2.782,1.088,4.04,4.04,0,0,0-1.139,2.858c.29.017.6.024.923.024H849.9q4.432,0,4.433-2.024a1.646,1.646,0,0,0-.756-1.421A3.358,3.358,0,0,0,851.617,1040.544Z" transform="translate(107.154 20.808)" fill="#fff"/>
    <path id="Path_99678" data-name="Path 99678" d="M856.355,1048.661a9.707,9.707,0,0,1,0-7.329,9.1,9.1,0,0,1,1.986-2.947,8.943,8.943,0,0,1,2.974-1.946,10.251,10.251,0,0,1,7.4,0,8.955,8.955,0,0,1,2.972,1.946,9.139,9.139,0,0,1,1.988,2.947,9.731,9.731,0,0,1,0,7.329,9.1,9.1,0,0,1-1.988,2.947,9,9,0,0,1-2.972,1.95,10.255,10.255,0,0,1-7.4,0,9.008,9.008,0,0,1-4.96-4.9ZM871.193,1045a6.774,6.774,0,0,0-.807-3.345,6.138,6.138,0,0,0-10.736,0,7.3,7.3,0,0,0,0,6.677,5.986,5.986,0,0,0,2.2,2.293,6.435,6.435,0,0,0,6.33,0,5.991,5.991,0,0,0,2.2-2.293A6.794,6.794,0,0,0,871.193,1045Z" transform="translate(116.947 18.532)" fill="#fff"/>
    <path id="Path_99679" data-name="Path 99679" d="M867.331,1038.511a1.9,1.9,0,0,1,0-2.562,1.824,1.824,0,0,1,2.538,0,1.89,1.89,0,0,1,0,2.562,1.829,1.829,0,0,1-2.538,0Zm2.731,15.556H867.14v-11.508a1.21,1.21,0,0,1,.438-1.012,1.759,1.759,0,0,1,1.126-.345,3.779,3.779,0,0,1,.743.076,2.219,2.219,0,0,1,.616.207Z" transform="translate(126.969 18.253)" fill="#fff"/>
    <path id="Path_99680" data-name="Path 99680" d="M873.107,1054.188h-2.921v-17.529a1.21,1.21,0,0,1,.436-1.012,1.756,1.756,0,0,1,1.128-.347,3.756,3.756,0,0,1,.741.077,2.1,2.1,0,0,1,.616.2Z" transform="translate(129.972 18.132)" fill="#fff"/>
    <path id="Path_99681" data-name="Path 99681" d="M877.665,1040.2a8.379,8.379,0,0,1,3.32-3.281,10.121,10.121,0,0,1,4.96-1.177,11.076,11.076,0,0,1,2.958.371,6.276,6.276,0,0,1,2.166,1,1.775,1.775,0,0,1,.821,1.4,1.929,1.929,0,0,1-.358,1.037,2.494,2.494,0,0,1-.874.836,5.277,5.277,0,0,0-2.075-1.361,7.4,7.4,0,0,0-2.742-.536,6.155,6.155,0,0,0-3.216.832,5.7,5.7,0,0,0-2.164,2.3,7.348,7.348,0,0,0-.77,3.449,6.71,6.71,0,0,0,.807,3.356,5.661,5.661,0,0,0,2.255,2.231,6.947,6.947,0,0,0,3.394.792,9.684,9.684,0,0,0,2.46-.32,6.527,6.527,0,0,0,2.026-.859l1.385,2.333a8.217,8.217,0,0,1-2.691,1.192,13.258,13.258,0,0,1-3.463.449,9.943,9.943,0,0,1-4.88-1.166,8.492,8.492,0,0,1-3.307-3.229,9.4,9.4,0,0,1-1.19-4.78A9.806,9.806,0,0,1,877.665,1040.2Z" transform="translate(135.612 18.532)" fill="#fff"/>
    <path id="Path_99682" data-name="Path 99682" d="M886.335,1048.538a6.86,6.86,0,0,1,0-6.919,6.825,6.825,0,0,1,2.524-2.434,7.158,7.158,0,0,1,3.588-.9,7.232,7.232,0,0,1,3.6.9,6.714,6.714,0,0,1,2.524,2.434,6.946,6.946,0,0,1,0,6.919,6.71,6.71,0,0,1-2.524,2.437,7.251,7.251,0,0,1-3.6.894,7.177,7.177,0,0,1-3.588-.894A6.821,6.821,0,0,1,886.335,1048.538Zm9.6-1.266a4.954,4.954,0,0,0,0-4.385,3.761,3.761,0,0,0-1.423-1.5,4.222,4.222,0,0,0-4.126,0,3.76,3.76,0,0,0-1.423,1.5,4.953,4.953,0,0,0,0,4.385,3.76,3.76,0,0,0,1.423,1.5,4.222,4.222,0,0,0,4.126,0A3.761,3.761,0,0,0,895.932,1047.272Z" transform="translate(143.589 20.808)" fill="#fff"/>
    <path id="Path_99683" data-name="Path 99683" d="M914.97,1051.512h-2.921v-7.3a3.557,3.557,0,0,0-.745-2.462,2.757,2.757,0,0,0-2.151-.821,2.9,2.9,0,0,0-2.322.936,3.947,3.947,0,0,0-.807,2.651v7H903.1v-7a4.014,4.014,0,0,0-.783-2.651,3.27,3.27,0,0,0-4.484-.091,3.516,3.516,0,0,0-.783,2.462v7.277h-2.921v-8.278a4.8,4.8,0,0,1,.707-2.627,4.63,4.63,0,0,1,1.971-1.717,6.831,6.831,0,0,1,2.96-.6,5.353,5.353,0,0,1,4.846,2.331,5.263,5.263,0,0,1,4.764-2.331,6.685,6.685,0,0,1,2.921.6,4.691,4.691,0,0,1,1.964,1.706,4.753,4.753,0,0,1,.7,2.612Z" transform="translate(151.409 20.808)" fill="#fff"/>
    <path id="Path_99684" data-name="Path 99684" d="M906.548,1045.7a8.773,8.773,0,0,1,.836-3.986,5.963,5.963,0,0,1,2.342-2.538,7,7,0,0,1,3.59-.883,7.564,7.564,0,0,1,3.69.87,6.364,6.364,0,0,1,2.485,2.409,6.829,6.829,0,0,1,.9,3.511,6.956,6.956,0,0,1-.872,3.486,6.5,6.5,0,0,1-2.356,2.422,6.429,6.429,0,0,1-3.334.883,5.848,5.848,0,0,1-2.524-.525,4.911,4.911,0,0,1-1.831-1.448v6.741h-2.924Zm9.715,2.433a4.7,4.7,0,0,0,0-6.047,3.767,3.767,0,0,0-2.847-1.154,3.813,3.813,0,0,0-2.858,1.154,4.666,4.666,0,0,0,0,6.047,3.8,3.8,0,0,0,2.858,1.152A3.758,3.758,0,0,0,916.263,1048.129Z" transform="translate(162.522 20.808)" fill="#fff"/>
    <path id="Path_99685" data-name="Path 99685" d="M927.033,1051.461q-1.33.179-2.883.3t-2.8.114a9.606,9.606,0,0,1-4.856-1,3.493,3.493,0,0,1-1.681-3.254,3.6,3.6,0,0,1,1.448-3.074,7.992,7.992,0,0,1,4.706-1.078c.495,0,1.048.019,1.664.051s1.111.078,1.486.129a2.656,2.656,0,0,0-.961-2.28,4.734,4.734,0,0,0-2.858-.72,8.623,8.623,0,0,0-2.189.258,3.492,3.492,0,0,0-1.423.641,1.692,1.692,0,0,1-.487-.578,1.588,1.588,0,0,1-.2-.781,1.555,1.555,0,0,1,1.075-1.384,7.669,7.669,0,0,1,3.178-.512,8.013,8.013,0,0,1,5.075,1.37,4.925,4.925,0,0,1,1.715,4.088Zm-8.43-2.191a6.01,6.01,0,0,0,2.742.474c.512,0,1.035-.021,1.563-.062a8.881,8.881,0,0,0,1.228-.167v-3.743a9.682,9.682,0,0,0-1.473-.191q-.907-.065-1.6-.064a4.513,4.513,0,0,0-2.6.55,1.917,1.917,0,0,0-.731,1.628A1.653,1.653,0,0,0,918.6,1049.27Z" transform="translate(169.917 20.808)" fill="#fff"/>
    <path id="Path_99686" data-name="Path 99686" d="M922.842,1043.747a5.079,5.079,0,0,1,2.974-4.78,8.3,8.3,0,0,1,6.574,0,5.1,5.1,0,0,1,2.958,4.78v7.765h-2.92v-7.021a3.76,3.76,0,0,0-.845-2.652,3.228,3.228,0,0,0-2.488-.911q-3.329,0-3.332,3.563v7.021h-2.921Z" transform="translate(177.108 20.808)" fill="#fff"/>
    <path id="Path_99687" data-name="Path 99687" d="M943.515,1049.986a6.7,6.7,0,0,1-1.768,5.035,6.983,6.983,0,0,1-5.047,1.7,15.794,15.794,0,0,1-2.771-.256,13.63,13.63,0,0,1-2.433-.64l.743-2.18a6.993,6.993,0,0,0,1.179.373,13.857,13.857,0,0,0,1.5.254,12.771,12.771,0,0,0,1.473.091,4.786,4.786,0,0,0,3.178-.936,3.67,3.67,0,0,0,1.1-2.958v-.718a3.335,3.335,0,0,1-1.524,1.192,6.231,6.231,0,0,1-2.473.447,6.624,6.624,0,0,1-2.949-.629,4.664,4.664,0,0,1-2-1.806,5.2,5.2,0,0,1-.718-2.767v-6.357a1.234,1.234,0,0,1,.423-1.012,1.717,1.717,0,0,1,1.116-.345,3.754,3.754,0,0,1,.741.076,2.606,2.606,0,0,1,.641.207v6.842a3.015,3.015,0,0,0,3.307,3.307,3.228,3.228,0,0,0,2.5-.936,3.791,3.791,0,0,0,.859-2.651v-5.487a1.233,1.233,0,0,1,.423-1.012,1.707,1.707,0,0,1,1.113-.345,3.794,3.794,0,0,1,.745.076,2.657,2.657,0,0,1,.64.207Z" transform="translate(184.419 20.977)" fill="#fff"/>
    <path id="Path_99688" data-name="Path 99688" d="M942.22,1042.163a3.127,3.127,0,0,1,.282-1.332h5.125q1.359,0,1.357,1.486a3.128,3.128,0,0,1-.282,1.332h-5.123C942.671,1043.649,942.22,1043.154,942.22,1042.163Z" transform="translate(194.455 23.084)" fill="#fff"/>
    <path id="Path_99689" data-name="Path 99689" d="M950.6,1037.4a1.275,1.275,0,0,1,.445-1.037,1.784,1.784,0,0,1,1.167-.372,3.047,3.047,0,0,1,.73.089,6.568,6.568,0,0,1,.707.216v14.483H962.7v2.792H950.6Z" transform="translate(201.961 18.75)" fill="#fff"/>
    <path id="Path_99690" data-name="Path 99690" d="M970.073,1046.142a5.169,5.169,0,0,1-1.677,4.059,7.71,7.71,0,0,1-9.137,0,5.149,5.149,0,0,1-1.693-4.059v-6.307a1.222,1.222,0,0,1,.438-1.012,1.761,1.761,0,0,1,1.128-.345,3.8,3.8,0,0,1,.743.076,2.236,2.236,0,0,1,.614.207v6.739q0,3.562,3.332,3.563t3.332-3.563v-5.665a1.215,1.215,0,0,1,.436-1.012,1.765,1.765,0,0,1,1.128-.345,3.8,3.8,0,0,1,.743.076,2.214,2.214,0,0,1,.614.207Z" transform="translate(208.194 20.977)" fill="#fff"/>
    <path id="Path_99691" data-name="Path 99691" d="M965.585,1036.659a1.215,1.215,0,0,1,.436-1.012,1.756,1.756,0,0,1,1.128-.347,3.823,3.823,0,0,1,.745.077,2.136,2.136,0,0,1,.616.2v7.355a4.908,4.908,0,0,1,1.831-1.448,5.848,5.848,0,0,1,2.525-.525,6.417,6.417,0,0,1,3.334.883,6.53,6.53,0,0,1,2.356,2.409,6.93,6.93,0,0,1,.872,3.5,6.835,6.835,0,0,1-.9,3.512,6.369,6.369,0,0,1-2.485,2.409,7.564,7.564,0,0,1-3.69.87,7.01,7.01,0,0,1-3.589-.883,5.972,5.972,0,0,1-2.343-2.549,8.8,8.8,0,0,1-.836-3.974Zm9.715,8.047a3.76,3.76,0,0,0-2.847-1.152,3.805,3.805,0,0,0-2.858,1.152,4.669,4.669,0,0,0,0,6.05,3.817,3.817,0,0,0,2.858,1.152,3.772,3.772,0,0,0,2.847-1.152,4.705,4.705,0,0,0,0-6.05Z" transform="translate(215.372 18.132)" fill="#fff"/>
    <path id="Path_99692" data-name="Path 99692" d="M980.772,1051.87a7.375,7.375,0,0,1-3.578-.845,6.159,6.159,0,0,1-2.42-2.346,6.838,6.838,0,0,1-.872-3.495,7.035,7.035,0,0,1,.9-3.578,6.457,6.457,0,0,1,2.475-2.433,7.238,7.238,0,0,1,3.6-.883,6.472,6.472,0,0,1,3.986,1.141,3.678,3.678,0,0,1,1.526,3.112,3.239,3.239,0,0,1-1.781,3,12.077,12.077,0,0,1-5.651,1c-.241,0-.533-.006-.883-.013s-.7-.021-1.039-.038a3.042,3.042,0,0,0,1.372,2.126,5.088,5.088,0,0,0,2.934.794,6.887,6.887,0,0,0,3.485-.9l1.076,2.051a7.268,7.268,0,0,1-1.41.665,10.233,10.233,0,0,1-1.821.474A11.118,11.118,0,0,1,980.772,1051.87Zm.049-11.326a3.765,3.765,0,0,0-2.778,1.088,4.026,4.026,0,0,0-1.141,2.858c.29.017.6.024.921.024H979.1q4.435,0,4.435-2.024a1.646,1.646,0,0,0-.756-1.421A3.369,3.369,0,0,0,980.821,1040.544Z" transform="translate(222.817 20.808)" fill="#fff"/>
    <path id="Path_99693" data-name="Path 99693" d="M981.635,1043.233a4.661,4.661,0,0,1,1.448-3.638,7.006,7.006,0,0,1,6.7-.794,1.5,1.5,0,0,1,.948,1.308,1.748,1.748,0,0,1-.216.819,1.392,1.392,0,0,1-.425.538,5.617,5.617,0,0,0-2.538-.563q-3,0-3,3.178v7.431h-2.922Z" transform="translate(229.739 20.808)" fill="#fff"/>
    <path id="Path_99694" data-name="Path 99694" d="M993.672,1051.87a7.375,7.375,0,0,1-3.578-.845,6.157,6.157,0,0,1-2.42-2.346,6.817,6.817,0,0,1-.872-3.495,7.016,7.016,0,0,1,.9-3.578,6.459,6.459,0,0,1,2.475-2.433,7.238,7.238,0,0,1,3.6-.883,6.476,6.476,0,0,1,3.986,1.141,3.678,3.678,0,0,1,1.526,3.112,3.239,3.239,0,0,1-1.781,3,12.082,12.082,0,0,1-5.651,1c-.241,0-.532-.006-.883-.013s-.7-.021-1.04-.038a3.054,3.054,0,0,0,1.372,2.126,5.092,5.092,0,0,0,2.934.794,6.887,6.887,0,0,0,3.487-.9l1.077,2.051a7.267,7.267,0,0,1-1.41.665,10.242,10.242,0,0,1-1.821.474A11.12,11.12,0,0,1,993.672,1051.87Zm.049-11.326a3.769,3.769,0,0,0-2.78,1.088,4.033,4.033,0,0,0-1.139,2.858c.29.017.6.024.921.024H992q4.435,0,4.435-2.024a1.643,1.643,0,0,0-.758-1.421A3.362,3.362,0,0,0,993.721,1040.544Z" transform="translate(234.365 20.808)" fill="#fff"/>
    <path id="Path_99695" data-name="Path 99695" d="M994.578,1040.529a5.224,5.224,0,0,1,1.357-3.883,5.69,5.69,0,0,1,4.152-1.345,5.207,5.207,0,0,1,3,.694,1.3,1.3,0,0,1,.588,1.074,1.429,1.429,0,0,1-.766,1.281,3.1,3.1,0,0,0-1.156-.55,5.558,5.558,0,0,0-1.459-.194q-2.795,0-2.794,2.947v.77h3.845q1.535,0,1.535,1.357a2.663,2.663,0,0,1-.332,1.334H997.5v10.174h-2.921Z" transform="translate(241.326 18.132)" fill="#fff"/>
  </g>
</svg>
