<svg width="24" height="25" viewBox="0 0 24 25" fill="none" xmlns="http://www.w3.org/2000/svg">
<g id="bi:google" clip-path="url(#clip0_123_247)">
<path id="Vector" d="M23.3175 10.3373C23.4574 11.1427 23.5272 11.9588 23.526 12.7763C23.526 16.4273 22.221 19.5143 19.95 21.6038H19.953C17.967 23.4383 15.237 24.5003 12 24.5003C8.8174 24.5003 5.76515 23.236 3.51472 20.9856C1.26428 18.7351 0 15.6829 0 12.5003C0 9.31771 1.26428 6.26546 3.51472 4.01502C5.76515 1.76459 8.8174 0.500304 12 0.500304C14.9789 0.465416 17.8558 1.58455 20.028 3.6233L16.602 7.0493C15.3636 5.86877 13.7107 5.22229 12 5.2493C8.8695 5.2493 6.21 7.3613 5.262 10.2053C4.75936 11.6956 4.75936 13.3095 5.262 14.7998H5.2665C6.219 17.6393 8.874 19.7513 12.0045 19.7513C13.6215 19.7513 15.0105 19.3373 16.0875 18.6053H16.083C16.7084 18.191 17.2433 17.6543 17.6555 17.0276C18.0678 16.4009 18.3487 15.6971 18.4815 14.9588H12V10.3388L23.3175 10.3373Z" fill="black"/>
</g>
<defs>
<clipPath id="clip0_123_247">
<rect width="24" height="24" fill="white" transform="translate(0 0.5)"/>
</clipPath>
</defs>
</svg>
