<svg xmlns="http://www.w3.org/2000/svg" width="48.001" height="48" viewBox="0 0 48.001 48">
  <g id="Group_89758" data-name="Group 89758" transform="translate(0.23)">
    <g id="Rectangle_69303" data-name="Rectangle 69303" transform="translate(-0.229 0)" fill="#fff" stroke="#707070" stroke-width="1" opacity="0">
      <rect width="48" height="48" stroke="none"/>
      <rect x="0.5" y="0.5" width="47" height="47" fill="none"/>
    </g>
    <path id="Path_101097" data-name="Path 101097" d="M33.863,6.248a.846.846,0,0,1,1.2,0l9.3,9.3a.846.846,0,0,1-.6,1.444H39.113v4.229a.846.846,0,0,1-1.692,0V16.15a.846.846,0,0,1,.846-.846h3.456L34.461,8.042,27.2,15.3h3.667a.846.846,0,0,1,.846.846V28.2a.846.846,0,0,1-1.692,0V17H25.157a.846.846,0,0,1-.6-1.444ZM46.514,17.63a.846.846,0,0,1,.6.248L59.165,29.93a.846.846,0,0,1-.6,1.444H52.012V43a.846.846,0,0,1-1.692,0V30.529a.846.846,0,0,1,.846-.846h5.359L46.514,19.672,36.5,29.683h4.725a.846.846,0,0,1,.846.846V46.6a.846.846,0,0,1-1.692,0V31.374H34.461a.846.846,0,0,1-.6-1.444L45.916,17.878A.846.846,0,0,1,46.514,17.63ZM24.735,34.041a1.8,1.8,0,1,0,1.8,1.8A1.8,1.8,0,0,0,24.735,34.041Zm-3.493,1.8a3.493,3.493,0,1,1,3.493,3.493A3.493,3.493,0,0,1,21.242,35.843Zm13.842-3.261a.846.846,0,0,1,.2,1.179L24.8,48.573a.846.846,0,1,1-1.381-.977L33.9,32.783a.846.846,0,0,1,1.179-.2Zm11.219.061a.846.846,0,0,1,.846.846v9.092a.846.846,0,0,1-1.692,0V33.489A.846.846,0,0,1,46.3,32.643ZM34.141,44.024a1.8,1.8,0,1,0,1.8,1.8A1.8,1.8,0,0,0,34.141,44.024Zm-3.493,1.8a3.493,3.493,0,1,1,3.493,3.493A3.493,3.493,0,0,1,30.648,45.825ZM46.3,45.119a.846.846,0,0,1,.846.846v2.96a.846.846,0,0,1-1.692,0v-2.96A.846.846,0,0,1,46.3,45.119Zm0,5.921a.846.846,0,0,1,.846.846v1.269a.846.846,0,0,1-1.692,0V51.885A.846.846,0,0,1,46.3,51.039Z" transform="translate(-21.471 -6)" fill="#fedd49" fill-rule="evenodd"/>
  </g>
</svg>
