<svg width="24" height="25" viewBox="0 0 24 25" fill="none" xmlns="http://www.w3.org/2000/svg">
<path d="M23.01 8.56113L13.8085 0.674736C13.304 0.239213 12.6628 0 12 0C11.3372 0 10.696 0.239213 10.1915 0.674736L0.990048 8.56046C0.679602 8.82635 0.430175 9.15766 0.259177 9.53127C0.0881789 9.90489 -0.000271058 10.3118 6.23975e-07 10.7236V21.2128C0.00103708 22.1609 0.373291 23.0698 1.03509 23.7402C1.69689 24.4106 2.59418 24.7877 3.5301 24.7887H8.71333V16.4277C8.7135 16.1355 8.8282 15.8554 9.03221 15.6488C9.23622 15.4423 9.51285 15.3263 9.80127 15.3263H14.1987C14.3415 15.3263 14.4829 15.3548 14.6148 15.4101C14.7467 15.4655 14.8666 15.5466 14.9676 15.6489C15.0685 15.7511 15.1486 15.8726 15.2033 16.0062C15.2579 16.1398 15.286 16.283 15.286 16.4277V24.7887H20.4699C21.4058 24.7877 22.3031 24.4106 22.9649 23.7402C23.6267 23.0698 23.999 22.1609 24 21.2128V10.7236C24.0004 10.3119 23.9119 9.90504 23.7409 9.53152C23.5699 9.158 23.3205 8.82682 23.01 8.56113Z" fill="#fff"/>
</svg>
