<svg width="24" height="25" viewBox="0 0 24 25" fill="none" xmlns="http://www.w3.org/2000/svg">
<g id="fluent:globe-12-filled" clip-path="url(#clip0_135_144)">
<path id="Vector" d="M16.716 14.2002H7.1688C7.3128 17.3826 8.016 20.145 8.9976 22.1082C10.1736 24.4602 11.352 25.0002 11.94 25.0002C12.528 25.0002 13.7088 24.4602 14.8848 22.1082C15.8664 20.145 16.572 17.3802 16.716 14.2002ZM7.1688 11.8002C7.3128 8.61784 8.016 5.85544 8.9976 3.89224C10.1736 1.54024 11.352 1.00024 11.94 1.00024C12.528 1.00024 13.7088 1.54024 14.8848 3.89224C15.8664 5.85544 16.5696 8.62024 16.7136 11.8002H7.1688ZM4.7664 11.8002H0C0.217764 9.64205 1.01599 7.58313 2.3099 5.84214C3.6038 4.10115 5.34508 2.74311 7.3488 1.91224C5.8992 4.31224 4.9296 7.82824 4.7664 11.8002ZM4.7664 14.2002H0C0.217764 16.3584 1.01599 18.4174 2.3099 20.1583C3.6038 21.8993 5.34508 23.2574 7.3488 24.0882C5.8992 21.6882 4.9296 18.1722 4.7664 14.2002ZM19.1184 14.2002H23.8824C23.6649 16.3582 22.867 18.4169 21.5735 20.1579C20.2801 21.8988 18.5393 23.257 16.536 24.0882C17.9832 21.6882 18.9528 18.1722 19.116 14.2002H19.1184ZM23.8824 11.8002H19.116C18.9528 7.82824 17.9832 4.31224 16.536 1.91224C18.5393 2.74346 20.2801 4.10165 21.5735 5.84261C22.867 7.58357 23.6649 9.64231 23.8824 11.8002Z" fill="#29B3B4"/>
</g>
<defs>
<clipPath id="clip0_135_144">
<rect width="24" height="24" fill="white" transform="translate(0 0.654541)"/>
</clipPath>
</defs>
</svg>
