<svg xmlns="http://www.w3.org/2000/svg" width="18.172" height="18.172" viewBox="0 0 18.172 18.172">
  <path id="Icon_ionic-logo-linkedin" data-name="Icon ionic-logo-linkedin" d="M21.218,4.5H6.053A1.482,1.482,0,0,0,4.5,5.915v15.2a1.6,1.6,0,0,0,1.553,1.557H21.214a1.518,1.518,0,0,0,1.458-1.557V5.915A1.393,1.393,0,0,0,21.218,4.5ZM10.133,19.647h-2.6V11.553h2.6ZM8.921,10.322H8.9a1.336,1.336,0,0,1-1.373-1.4,1.344,1.344,0,0,1,1.406-1.4,1.341,1.341,0,0,1,1.392,1.4A1.344,1.344,0,0,1,8.921,10.322Zm10.726,9.325h-2.6V15.221c0-1.06-.379-1.784-1.321-1.784a1.424,1.424,0,0,0-1.335.961,1.753,1.753,0,0,0-.09.639v4.61h-2.6V11.553h2.6v1.127a2.635,2.635,0,0,1,2.348-1.316c1.709,0,3,1.127,3,3.555v4.729Z" transform="translate(-4.5 -4.5)" fill="#fff"/>
</svg>
