 <svg
                  xmlns="http://www.w3.org/2000/svg"
                  width="22.666"
                  height="22.665"
                  viewBox="0 0 22.666 22.665"
                >
                  <path
                    id="Icon_awesome-linkedin-in"
                    data-name="Icon awesome-linkedin-in"
                    d="M5.073,22.666H.374V7.534h4.7ZM2.721,5.469A2.734,2.734,0,1,1,5.443,2.722,2.744,2.744,0,0,1,2.721,5.469Zm19.939,17.2H17.972V15.3c0-1.756-.035-4.007-2.443-4.007-2.443,0-2.818,1.907-2.818,3.88v7.493H8.017V7.534h4.507V9.6h.066a4.938,4.938,0,0,1,4.446-2.444c4.756,0,5.63,3.132,5.63,7.2v8.312Z"
                    transform="translate(0 -0.001)"
                    fill="#fff"
                  />
                </svg>