<svg width="24" height="25" viewBox="0 0 24 25" fill="none" xmlns="http://www.w3.org/2000/svg">
<g id="tabler:message-2">
<path id="Vector" d="M7.42853 8.48557H16.5714M7.42853 13.1242H14.2857M8.57139 18.9225H5.14282C4.2335 18.9225 3.36143 18.556 2.71845 17.9036C2.07547 17.2511 1.71424 16.3662 1.71424 15.4436V6.16625C1.71424 5.24356 2.07547 4.35867 2.71845 3.70623C3.36143 3.05379 4.2335 2.68726 5.14282 2.68726H18.8571C19.7664 2.68726 20.6385 3.05379 21.2815 3.70623C21.9245 4.35867 22.2857 5.24356 22.2857 6.16625V15.4436C22.2857 16.3662 21.9245 17.2511 21.2815 17.9036C20.6385 18.556 19.7664 18.9225 18.8571 18.9225H15.4285L12 22.4015L8.57139 18.9225Z" stroke="#1E1B3F" stroke-width="1.29569" stroke-linecap="round" stroke-linejoin="round"/>
</g>
</svg>
