<svg xmlns="http://www.w3.org/2000/svg" width="38.5" height="45.5" viewBox="0 0 38.5 45.5">
  <path id="Icon_metro-file-pdf" data-name="Icon metro-file-pdf" d="M38.888,11.746a5.855,5.855,0,0,1,1.188,1.909,5.869,5.869,0,0,1,.495,2.21V44.793a2.343,2.343,0,0,1-.693,1.708,2.273,2.273,0,0,1-1.682.7H4.946a2.273,2.273,0,0,1-1.682-.7,2.343,2.343,0,0,1-.693-1.708V4.614a2.343,2.343,0,0,1,.693-1.708,2.273,2.273,0,0,1,1.682-.7H27.112a5.64,5.64,0,0,1,2.177.5,5.747,5.747,0,0,1,1.88,1.205ZM27.9,5.619v9.442h9.3a2.756,2.756,0,0,0-.544-1.03l-7.744-7.86A2.691,2.691,0,0,0,27.9,5.619Zm9.5,38.371V18.275H27.112a2.273,2.273,0,0,1-1.682-.7,2.343,2.343,0,0,1-.693-1.708V5.418h-19V43.989H37.4Z" transform="translate(-2.321 -1.954)" fill="#fedd49" stroke="#1486c2" stroke-width="0.5"/>
</svg>
