<svg width="30" height="30" viewBox="0 0 30 30" fill="none" xmlns="http://www.w3.org/2000/svg">
<g id="fluent:send-16-filled">
<path id="Vector" d="M26.7675 1.97439C26.9245 1.8959 27.1003 1.86303 27.275 1.87951C27.4497 1.896 27.6162 1.96119 27.7557 2.06765C27.8952 2.17412 28.002 2.3176 28.064 2.48176C28.1259 2.64592 28.1406 2.82419 28.1063 2.99627L25.4757 12.09C25.4266 12.2595 25.3307 12.4117 25.199 12.5291C25.0674 12.6465 24.9052 12.7244 24.7313 12.7538L14.0625 14.5406C13.56 14.64 13.56 15.36 14.0625 15.4594L24.7313 17.2463C24.9052 17.2757 25.0674 17.3535 25.199 17.4709C25.3307 17.5884 25.4266 17.7406 25.4757 17.91L28.1063 27.0038C28.1406 27.1759 28.1259 27.3541 28.064 27.5183C28.002 27.6824 27.8952 27.8259 27.7557 27.9324C27.6162 28.0389 27.4497 28.104 27.275 28.1205C27.1003 28.137 26.9245 28.1041 26.7675 28.0256L2.39252 15.8381C2.23701 15.7602 2.10625 15.6405 2.01487 15.4925C1.92349 15.3445 1.87509 15.174 1.87509 15C1.87509 14.8261 1.92349 14.6555 2.01487 14.5075C2.10625 14.3595 2.23701 14.2398 2.39252 14.1619L26.7675 1.97439Z" fill="#332F66"/>
</g>
</svg>
