<svg width="24" height="27" viewBox="0 0 24 27" fill="none" xmlns="http://www.w3.org/2000/svg">
<path id="Vector" d="M23.2727 15.5997C22.7231 14.9075 22.4228 14.0543 22.4193 13.1748C22.4158 12.2954 22.7092 11.4398 23.2532 10.7434C24.0331 9.74719 24.1859 8.46996 23.654 7.41616C23.5367 7.18515 23.4116 6.9565 23.2785 6.73023C23.1653 6.53669 23.0449 6.346 22.9224 6.16099C22.5813 5.65217 22.0995 5.25064 21.5341 5.00406C20.9688 4.75749 20.3436 4.67623 19.7329 4.76992C18.851 4.89338 17.9526 4.72363 17.1792 4.28741C16.4059 3.85119 15.8015 3.17331 15.4615 2.36062C14.9692 1.18372 13.8823 0.414542 12.6274 0.351926C12.1891 0.330579 11.7437 0.331291 11.2961 0.351926C10.0311 0.4181 8.94271 1.19724 8.45617 2.38553C8.12341 3.20008 7.5255 3.88213 6.75668 4.32416C5.98787 4.76619 5.0919 4.94304 4.21001 4.82684C2.91692 4.65892 1.69663 5.20966 1.0162 6.26275C0.755395 6.66604 0.517644 7.08342 0.304065 7.51293C-0.221389 8.56531 -0.0563284 9.83471 0.725726 10.8266C1.27608 11.5183 1.57726 12.3714 1.5817 13.251C1.58614 14.1305 1.29358 14.9865 0.750233 15.6836C-0.0332635 16.6798 -0.186791 17.9563 0.345871 19.008C0.463359 19.2414 0.588055 19.4698 0.721401 19.696C0.834565 19.8896 0.954936 20.0796 1.08179 20.2653C1.77375 21.302 2.99621 21.8307 4.27056 21.6578C5.15234 21.5344 6.05065 21.7041 6.82397 22.1402C7.5973 22.5762 8.20169 23.2539 8.54195 24.0664C9.03425 25.2433 10.1212 26.0131 11.3761 26.0758C11.5923 26.0857 11.8086 26.09 12.0183 26.09C12.2497 26.09 12.4803 26.0843 12.7074 26.0729C13.9709 26.0089 15.0593 25.2304 15.5487 24.04C15.8818 23.2264 16.4794 22.5452 17.2476 22.1035C18.0157 21.6618 18.9108 21.4848 19.792 21.6001C21.1002 21.7709 22.3054 21.2166 22.9858 20.1642C23.2464 19.761 23.4844 19.3438 23.6987 18.9148C24.2198 17.8602 24.0569 16.5908 23.2727 15.5997ZM13.7439 16.1689C13.1517 16.5094 12.4706 16.669 11.7866 16.6274C11.1026 16.5858 10.4465 16.3448 9.9012 15.9351C9.35591 15.5254 8.94594 14.9652 8.72315 14.3255C8.50035 13.6857 8.47474 12.9951 8.64954 12.341C8.82435 11.6868 9.19172 11.0986 9.7052 10.6506C10.2187 10.2026 10.8552 9.91493 11.5343 9.82405C12.2134 9.73316 12.9045 9.84311 13.5203 10.14C14.136 10.4369 14.6488 10.9073 14.9937 11.4919C15.4562 12.2757 15.5844 13.2088 15.35 14.0859C15.1156 14.963 14.5378 15.7123 13.7439 16.1689Z" fill="#CFC6D8"/>
</svg>
