<svg id="Group_89757" data-name="Group 89757" xmlns="http://www.w3.org/2000/svg" width="48" height="48" viewBox="0 0 48 48">
  <g id="Rectangle_69302" data-name="Rectangle 69302" transform="translate(0 0)" fill="#fff" stroke="#707070" stroke-width="1" opacity="0">
    <rect width="48" height="48" stroke="none"/>
    <rect x="0.5" y="0.5" width="47" height="47" fill="none"/>
  </g>
  <g id="Group_89677" data-name="Group 89677" transform="translate(0 0)">
    <g id="Group_89405" data-name="Group 89405">
      <path id="Path_100653" data-name="Path 100653" d="M17.15,14.851a1.2,1.2,0,0,0-1.7,0L7.9,22.4V15.7a1.2,1.2,0,1,0-2.4,0v9.6a1.169,1.169,0,0,0,.094.458,1.2,1.2,0,0,0,.65.65A1.236,1.236,0,0,0,6.7,26.5h9.6a1.2,1.2,0,0,0,0-2.4H9.6l7.55-7.55A1.2,1.2,0,0,0,17.15,14.851Z" transform="translate(2.603 14.299)" fill="#fedd49"/>
      <path id="Path_100654" data-name="Path 100654" d="M25.758,5.591A1.259,1.259,0,0,0,25.3,5.5H15.7a1.2,1.2,0,0,0,0,2.4h6.7l-7.55,7.55a1.2,1.2,0,0,0,0,1.7,1.188,1.188,0,0,0,.847.353,1.205,1.205,0,0,0,.85-.35L24.1,9.6v6.7a1.2,1.2,0,1,0,2.4,0V6.7a1.169,1.169,0,0,0-.094-.458A1.2,1.2,0,0,0,25.758,5.591Z" transform="translate(11.423 1.7)" fill="#fedd49"/>
      <path id="Path_100655" data-name="Path 100655" d="M40.584,2.5H7.941A5.747,5.747,0,0,0,2.5,8.5v36a5.747,5.747,0,0,0,5.441,6H40.584a5.747,5.747,0,0,0,5.441-6V8.5A5.747,5.747,0,0,0,40.584,2.5Zm3.264,42a3.449,3.449,0,0,1-3.264,3.6H7.941a3.449,3.449,0,0,1-3.264-3.6V8.5A3.449,3.449,0,0,1,7.941,4.9H40.584a3.449,3.449,0,0,1,3.264,3.6Z" transform="translate(-2.5 -2.5)" fill="#fedd49"/>
    </g>
  </g>
</svg>
