<svg xmlns="http://www.w3.org/2000/svg" width="30" height="30.183" viewBox="0 0 30 30.183">
  <g id="Group_89397" data-name="Group 89397" transform="translate(-140 -8847.431)">
    <g id="Rectangle_69272" data-name="Rectangle 69272" transform="translate(140 8847.613)" fill="#fff" stroke="#707070" stroke-width="1" opacity="0">
      <rect width="30" height="30" stroke="none"/>
      <rect x="0.5" y="0.5" width="29" height="29" fill="none"/>
    </g>
    <path id="Path_100061" data-name="Path 100061" d="M33.917,24.562,31.58,22.225a3.261,3.261,0,0,0-4.608,0l-1.509,1.509a3.261,3.261,0,0,1-4.608,0L15.321,18.2a3.261,3.261,0,0,1,0-4.608l1.509-1.509a3.261,3.261,0,0,0,0-4.608L14.493,5.138a3.261,3.261,0,0,0-4.608,0l-2,2a8.482,8.482,0,0,0,0,11.984L19.932,31.172a8.482,8.482,0,0,0,11.98,0l2-2A3.258,3.258,0,0,0,33.917,24.562Zm-.922,3.686-.626.626-2.62-2.62a.325.325,0,0,0-.46.46l2.62,2.62-.916.916a7.176,7.176,0,0,1-10.139,0L8.8,18.2a7.176,7.176,0,0,1,0-10.139l.916-.916.665.665a.32.32,0,0,0,.231.095.334.334,0,0,0,.231-.095.325.325,0,0,0,0-.46l-.665-.665.626-.626a1.959,1.959,0,0,1,2.764,0L15.907,8.4a1.959,1.959,0,0,1,0,2.767l-.626.626L12.8,9.307a.325.325,0,0,0-.46.46l2.483,2.483-.42.42a4.563,4.563,0,0,0,0,6.453l5.531,5.531a4.563,4.563,0,0,0,6.453,0l.42-.42.528.528a.32.32,0,0,0,.231.095.334.334,0,0,0,.231-.095.325.325,0,0,0,0-.46l-.528-.528.626-.626a1.959,1.959,0,0,1,2.767,0L33,25.485A1.961,1.961,0,0,1,32.994,28.248Zm-4.129-2.741a.326.326,0,1,1-.326-.326A.327.327,0,0,1,28.865,25.507ZM11.266,8.56a.326.326,0,1,1,.326.326A.327.327,0,0,1,11.266,8.56Z" transform="translate(134.863 8843.71)" fill="#fedd49" stroke="#fedd49" stroke-width="0.5"/>
  </g>
</svg>
