<svg width="21" height="20" viewBox="0 0 21 20" fill="none" xmlns="http://www.w3.org/2000/svg">
<g id="ic:round-thumb-up-off-alt" clip-path="url(#clip0_38_15)">
<path id="Vector" d="M11.3928 2.24705L11.3929 2.24707L11.3974 2.2425C11.5844 2.05225 11.8911 2.04509 12.0928 2.24097C12.2098 2.35948 12.2616 2.52696 12.2275 2.70091L11.4365 6.5144L11.2493 7.41672H12.1708H16.8792C18.1304 7.41672 18.9794 8.69832 18.4893 9.8559C18.4891 9.85631 18.4889 9.85673 18.4887 9.85714L15.7756 16.1906C15.7753 16.1914 15.7749 16.1922 15.7745 16.1931C15.6247 16.5324 15.2917 16.7501 14.9292 16.7501H7.42918C6.92673 16.7501 6.51251 16.3358 6.51251 15.8334V7.50839C6.51251 7.26308 6.61029 7.0296 6.77618 6.86372L11.3928 2.24705ZM3.34585 15.8334C3.34585 16.3358 2.93163 16.7501 2.42918 16.7501C1.92673 16.7501 1.51251 16.3358 1.51251 15.8334V9.16672C1.51251 8.66427 1.92673 8.25006 2.42918 8.25006C2.93163 8.25006 3.34585 8.66427 3.34585 9.16672V15.8334Z" stroke="#1E1B3F" stroke-width="1.5"/>
</g>
<defs>
<clipPath id="clip0_38_15">
<rect width="20" height="20" fill="white" transform="translate(0.929199)"/>
</clipPath>
</defs>
</svg>
