<svg width="21" height="20" viewBox="0 0 21 20" fill="none" xmlns="http://www.w3.org/2000/svg">
<g id="ic:round-thumb-up-off-alt" clip-path="url(#clip0_38_13)">
<path id="Vector" d="M8.46556 17.7529L8.46554 17.7529L8.46104 17.7575C8.27401 17.9478 7.96729 17.9549 7.76564 17.759C7.64859 17.6405 7.59679 17.473 7.63092 17.2991L8.42192 13.4856L8.60908 12.5833L7.68755 12.5833L2.97922 12.5833C1.72797 12.5833 0.879028 11.3017 1.36913 10.1441C1.3693 10.1437 1.36948 10.1433 1.36965 10.1429L4.08279 3.80939C4.08314 3.80857 4.0835 3.80775 4.08386 3.80694C4.23374 3.46763 4.56673 3.24995 4.92922 3.24995L12.4292 3.24995C12.9317 3.24995 13.3459 3.66416 13.3459 4.16661L13.3459 12.4916C13.3459 12.7369 13.2481 12.9704 13.0822 13.1363L8.46556 17.7529ZM16.5126 4.16661C16.5126 3.66416 16.9268 3.24994 17.4292 3.24994C17.9317 3.24994 18.3459 3.66416 18.3459 4.16661L18.3459 10.8333C18.3459 11.3357 17.9317 11.7499 17.4292 11.7499C16.9268 11.7499 16.5126 11.3357 16.5126 10.8333L16.5126 4.16661Z" stroke="#1E1B3F" stroke-width="1.5"/>
</g>
<defs>
<clipPath id="clip0_38_13">
<rect width="20" height="20" fill="white" transform="translate(20.9292 20) rotate(180)"/>
</clipPath>
</defs>
</svg>
