<svg width="24" height="25" viewBox="0 0 24 25" fill="none" xmlns="http://www.w3.org/2000/svg">
<g id="humbleicons:trash">
<path id="Vector" d="M6 6.11584L6.934 19.1868C6.95194 19.4389 7.06462 19.6748 7.24939 19.8471C7.43417 20.0195 7.67733 20.1155 7.93 20.1158H16.068C16.3208 20.1157 16.5643 20.0198 16.7492 19.8475C16.9342 19.6751 17.047 19.439 17.065 19.1868L18 6.11584M12 11.1158V15.1158M20 6.11584H4M8.5 6.11584L9.044 4.48384C9.17664 4.0856 9.43123 3.73917 9.77169 3.49365C10.1122 3.24813 10.5212 3.11595 10.941 3.11584H13.058C13.4779 3.11574 13.8872 3.24782 14.2279 3.49336C14.5686 3.7389 14.8233 4.08543 14.956 4.48384L15.5 6.11584" stroke="#DE5858" stroke-width="2" stroke-linecap="round" stroke-linejoin="round"/>
</g>
</svg>
