 <svg
                  xmlns="http://www.w3.org/2000/svg"
                  width="27.906"
                  height="22.665"
                  viewBox="0 0 27.906 22.665"
                >
                  <path
                    id="Icon_awesome-twitter"
                    data-name="Icon awesome-twitter"
                    d="M25.038,9.029c.018.248.018.5.018.744,0,7.561-5.755,16.273-16.273,16.273A16.163,16.163,0,0,1,0,23.478a11.832,11.832,0,0,0,1.381.071,11.454,11.454,0,0,0,7.1-2.444,5.73,5.73,0,0,1-5.348-3.966,7.213,7.213,0,0,0,1.08.089,6.049,6.049,0,0,0,1.505-.195A5.72,5.72,0,0,1,1.133,11.42v-.071a5.76,5.76,0,0,0,2.585.726,5.728,5.728,0,0,1-1.771-7.65A16.257,16.257,0,0,0,13.741,10.41,6.457,6.457,0,0,1,13.6,9.1a5.725,5.725,0,0,1,9.9-3.913,11.26,11.26,0,0,0,3.63-1.381,5.7,5.7,0,0,1-2.514,3.152,11.466,11.466,0,0,0,3.294-.885,12.3,12.3,0,0,1-2.868,2.957Z"
                    transform="translate(0 -3.381)"
                    fill="#fff"
                  />
                </svg>

                