<svg id="AramcoUltra" xmlns="http://www.w3.org/2000/svg" width="195.673" height="21.148" viewBox="0 0 195.673 21.148">
  <path id="Path_101178" data-name="Path 101178" d="M654.438,18.071a7.152,7.152,0,0,1-1.861,5.113,6.949,6.949,0,0,1-5.336,1.992,7.164,7.164,0,0,1-5.423-1.992,7.181,7.181,0,0,1-1.857-5.113V4.47h2.823V17.9A4.481,4.481,0,0,0,644,21.222a4.492,4.492,0,0,0,3.241,1.185,4.249,4.249,0,0,0,3.148-1.185,4.436,4.436,0,0,0,1.225-3.319V4.47h2.823v13.6Z" transform="translate(-523.864 -4.125)" fill="#f78d2c"/>
  <path id="Path_101179" data-name="Path 101179" d="M740.68,24.957V4.47h2.828V22.058h8.106v2.9Z" transform="translate(-606.278 -4.125)" fill="#f78d2c"/>
  <path id="Path_101180" data-name="Path 101180" d="M799.45,24.957V7.151h-5.06V4.47h12.986V7.151h-5.107V24.957Z" transform="translate(-650.226 -4.125)" fill="#f78d2c"/>
  <path id="Path_101181" data-name="Path 101181" d="M880.16,6.882a2.343,2.343,0,0,1,.691-1.739,2.4,2.4,0,0,1,1.8-.692h4.368a8.558,8.558,0,0,1,5.509,1.523,5.807,5.807,0,0,1,1.865,4.76,9.9,9.9,0,0,1-.3,2.6,6.03,6.03,0,0,1-.813,1.823,4.34,4.34,0,0,1-1.192,1.172,5.437,5.437,0,0,1-1.476.647l5.144,7.973H892.5l-4.887-7.628H882.99v7.628h-2.828V6.882Zm2.828,7.759h4.375a14.175,14.175,0,0,0,1.6-.091,2.918,2.918,0,0,0,1.327-.48,2.458,2.458,0,0,0,.9-1.125,5.191,5.191,0,0,0,.327-2.037,4.674,4.674,0,0,0-.34-1.9,2.8,2.8,0,0,0-.95-1.147,3.652,3.652,0,0,0-1.436-.567,10.21,10.21,0,0,0-1.819-.154h-3.342c-.425,0-.64.251-.64.734v6.768Z" transform="translate(-720.407 -4.108)" fill="#f78d2c"/>
  <path id="Path_101182" data-name="Path 101182" d="M986.306,18.788h-6.857l-2.138,6.15h-3l7.406-20.5h2.325l7.416,20.5h-3l-2.15-6.15Zm-6-2.608h5.149l-2.575-7.926Z" transform="translate(-797.445 -4.1)" fill="#f78d2c"/>
  <g id="Group_89824" data-name="Group 89824" transform="translate(0 0)">
    <path id="Path_101183" data-name="Path 101183" d="M14.664,20.4a5.467,5.467,0,0,1-3.046,2.75,11.59,11.59,0,0,1-3.686.627c-2.356,0-4.053-.511-5.12-1.536A5.523,5.523,0,0,1,1.2,18.025a6.147,6.147,0,0,1,1.512-4.313c1.011-1.125,2.7-1.679,5.036-1.679h6.916v-3a5.608,5.608,0,0,0-1.232-4.055c-.825-.832-2.388-1.256-4.691-1.256a11.248,11.248,0,0,0-3.522.511,4.5,4.5,0,0,0-2.4,1.738l-.743-.683a5.431,5.431,0,0,1,2.684-2,11.805,11.805,0,0,1,3.86-.567c2.59,0,4.418.5,5.469,1.51a6.07,6.07,0,0,1,1.57,4.617V21.464a1.446,1.446,0,0,0,.278,1.031,1.778,1.778,0,0,0,1.207.28v.94a.232.232,0,0,1-.18.065h-.433a1.781,1.781,0,0,1-1.363-.533,2.074,2.074,0,0,1-.5-1.47V20.4Zm-6.73,2.374A11.182,11.182,0,0,0,10.5,22.5a5.512,5.512,0,0,0,2.143-1,5.334,5.334,0,0,0,1.472-1.843,6.3,6.3,0,0,0,.551-2.81V13.1H7.689a5.61,5.61,0,0,0-4.171,1.31,4.914,4.914,0,0,0-1.267,3.566,4.658,4.658,0,0,0,1.33,3.548q1.328,1.257,4.353,1.256" transform="translate(-1.2 -2.693)" fill="#5d565e"/>
    <path id="Path_101184" data-name="Path 101184" d="M114.667,3.785a8.923,8.923,0,0,0-3.859,1.347,16.9,16.9,0,0,0-3.926,3.215V23.525H105.83V2.785h1.052V7.033a16.151,16.151,0,0,1,3.855-3.093,8.083,8.083,0,0,1,3.928-1.22V3.785Z" transform="translate(-86.813 -2.693)" fill="#5d565e"/>
    <path id="Path_101185" data-name="Path 101185" d="M178.242,20.4a5.5,5.5,0,0,1-3.053,2.75,11.53,11.53,0,0,1-3.679.627c-2.343,0-4.06-.511-5.131-1.536a5.563,5.563,0,0,1-1.6-4.218,6.176,6.176,0,0,1,1.5-4.313c1.011-1.125,2.7-1.679,5.045-1.679h6.91v-3A5.576,5.576,0,0,0,177,4.976c-.823-.832-2.385-1.256-4.684-1.256a11.327,11.327,0,0,0-3.533.511,4.557,4.557,0,0,0-2.41,1.738l-.738-.683a5.456,5.456,0,0,1,2.684-2,11.855,11.855,0,0,1,3.866-.567q3.893,0,5.46,1.51a6.086,6.086,0,0,1,1.579,4.617V21.464a1.448,1.448,0,0,0,.274,1.031,1.8,1.8,0,0,0,1.207.28v.94a.257.257,0,0,1-.185.065h-.433a1.785,1.785,0,0,1-1.358-.533,2.066,2.066,0,0,1-.5-1.47V20.4Zm-6.73,2.374a11.159,11.159,0,0,0,2.565-.28,5.506,5.506,0,0,0,2.136-1,5.306,5.306,0,0,0,1.478-1.843,6.379,6.379,0,0,0,.553-2.81V13.1h-6.976a5.63,5.63,0,0,0-4.171,1.31,4.9,4.9,0,0,0-1.263,3.566,4.636,4.636,0,0,0,1.327,3.548c.883.838,2.328,1.256,4.351,1.256" transform="translate(-135.049 -2.693)" fill="#5d565e"/>
    <path id="Path_101186" data-name="Path 101186" d="M297.74,10.407a9.4,9.4,0,0,0-.794-4.458c-.534-.947-1.629-1.4-3.268-1.4a11.573,11.573,0,0,0-3.935.838,28.288,28.288,0,0,0-4.1,1.908v16.8h-1.052V10.407a9.4,9.4,0,0,0-.805-4.458c-.532-.947-1.636-1.4-3.273-1.4a8.986,8.986,0,0,0-1.878.211,18.911,18.911,0,0,0-2.083.593,22,22,0,0,0-2.1.88c-.7.334-1.358.692-1.972,1.063v16.8H271.43V3.6h1.052v2.57c.447-.253.992-.545,1.632-.845.634-.32,1.327-.614,2.065-.905a16.565,16.565,0,0,1,2.29-.72,9.57,9.57,0,0,1,2.285-.287,5.438,5.438,0,0,1,2.75.687,4.022,4.022,0,0,1,1.759,2.321l.374-.251a15.064,15.064,0,0,1,1.569-.845c.647-.32,1.336-.614,2.076-.905a15.8,15.8,0,0,1,2.31-.72,9.993,9.993,0,0,1,2.321-.287A4.587,4.587,0,0,1,297.5,4.828q1.3,1.39,1.3,5.091V22.025a1.475,1.475,0,0,0,.275,1.036,1.752,1.752,0,0,0,1.2.28v.94a.251.251,0,0,1-.182.065h-.438a1.825,1.825,0,0,1-1.385-.533,1.983,1.983,0,0,1-.533-1.47Z" transform="translate(-222.315 -3.257)" fill="#5d565e"/>
    <path id="Path_101187" data-name="Path 101187" d="M449.141,23.84q-4.073,0-5.838-2.4c-1.17-1.6-1.763-4.264-1.763-7.966s.6-6.581,1.792-8.239c1.2-1.678,3.193-2.51,6-2.51a10.7,10.7,0,0,1,6.051,1.688l-.56,1.011a8.5,8.5,0,0,0-5.433-1.572q-3.705,0-5.216,2.157t-1.523,7.286c0,3.421.5,5.885,1.483,7.3s2.7,2.128,5.136,2.128a9.927,9.927,0,0,0,5.612-1.632l.434.94a10.526,10.526,0,0,1-6.178,1.812" transform="translate(-361.507 -2.693)" fill="#5d565e"/>
    <path id="Path_101188" data-name="Path 101188" d="M542.821,13.24c0,3.7-.614,6.381-1.85,8.021s-3.23,2.47-5.994,2.47-4.757-.825-6-2.47-1.848-4.32-1.848-8.021.618-6.389,1.848-8.035,3.235-2.465,6-2.465,4.751.823,5.994,2.465,1.85,4.328,1.85,8.035m-1.112,0c0-3.333-.52-5.743-1.578-7.216S537.361,3.8,534.978,3.8s-4.1.74-5.156,2.223-1.583,3.882-1.583,7.216.531,5.725,1.583,7.208,2.763,2.217,5.156,2.217,4.1-.734,5.153-2.217,1.578-3.879,1.578-7.208" transform="translate(-431.541 -2.709)" fill="#5d565e"/>
    <path id="Path_101189" data-name="Path 101189" d="M1053.887,7a2.543,2.543,0,0,1-3.637,0,2.488,2.488,0,0,1-.751-1.843,2.572,2.572,0,0,1,4.387-1.839,2.555,2.555,0,0,1,.754,1.839A2.561,2.561,0,0,1,1053.887,7M1050.5,3.581a2.169,2.169,0,0,0-.645,1.579,2.228,2.228,0,0,0,.639,1.6,2.131,2.131,0,0,0,1.571.665,2.1,2.1,0,0,0,1.558-.665,2.179,2.179,0,0,0,.645-1.6,2.135,2.135,0,0,0-.645-1.579,2.19,2.19,0,0,0-3.123,0m1.512.145a2.211,2.211,0,0,1,.772.1.723.723,0,0,1,.442.72.633.633,0,0,1-.28.567.909.909,0,0,1-.407.142.7.7,0,0,1,.491.278.837.837,0,0,1,.142.447v.211a.948.948,0,0,0,.018.207.415.415,0,0,0,.014.151l.022.035h-.467l-.009-.022a.285.285,0,0,0,0-.038l-.009-.093V6.21a.7.7,0,0,0-.271-.663,1.2,1.2,0,0,0-.554-.093h-.385V6.581h-.5V3.726Zm.533.454a1.219,1.219,0,0,0-.6-.107h-.42V5.105h.451a1.2,1.2,0,0,0,.467-.065.439.439,0,0,0,.3-.447.411.411,0,0,0-.2-.413" transform="translate(-858.969 -2.57)" fill="#fff"/>
  </g>
</svg>
