<svg width="24" height="24" viewBox="0 0 24 24" fill="none" xmlns="http://www.w3.org/2000/svg">
<g id="mingcute:upload-fill" clip-path="url(#clip0_139_461)">
<g id="Group">
<path id="Vector" d="M11.6498 9.31903V16.5564C11.6502 16.8638 11.7679 17.1596 11.9789 17.3831C12.19 17.6067 12.4784 17.7412 12.7854 17.7592C13.0923 17.7772 13.3945 17.6774 13.6302 17.4801C13.866 17.2827 14.0175 17.0028 14.0538 16.6975L14.0623 16.5564V9.31903H21.2997C21.9083 9.31884 22.4945 9.54871 22.9408 9.96255C23.3871 10.3764 23.6604 10.9436 23.7061 11.5506L23.7121 11.7315V22.5875C23.7123 23.1962 23.4824 23.7824 23.0686 24.2287C22.6547 24.675 22.0875 24.9483 21.4806 24.994L21.2997 25H4.41246C3.80382 25.0002 3.21761 24.7703 2.77133 24.3565C2.32504 23.9426 2.05168 23.3754 2.00603 22.7685L2 22.5875V11.7315C1.99981 11.1229 2.22967 10.5366 2.64352 10.0904C3.05736 9.64408 3.6246 9.37071 4.23152 9.32506L4.41246 9.31903H11.6498ZM13.9224 1.44116L17.9741 5.49167C18.2004 5.71801 18.3276 6.02499 18.3276 6.34508C18.3276 6.66517 18.2004 6.97215 17.9741 7.19848C17.7477 7.42482 17.4408 7.55198 17.1207 7.55198C16.8006 7.55198 16.4936 7.42482 16.2673 7.19848L14.0623 4.99229V9.31903H11.6498V4.99229L9.44484 7.19848C9.33277 7.31056 9.19972 7.39946 9.05329 7.46011C8.90687 7.52076 8.74993 7.55198 8.59143 7.55198C8.43294 7.55198 8.276 7.52076 8.12957 7.46011C7.98315 7.39946 7.8501 7.31056 7.73803 7.19848C7.62596 7.08641 7.53706 6.95337 7.4764 6.80694C7.41575 6.66051 7.38453 6.50357 7.38453 6.34508C7.38453 6.18659 7.41575 6.02965 7.4764 5.88322C7.53706 5.73679 7.62596 5.60374 7.73803 5.49167L11.791 1.44116C12.0737 1.15868 12.457 1 12.8567 1C13.2563 1 13.6396 1.15868 13.9224 1.44116Z" fill="#29B3B4"/>
</g>
</g>
<defs>
<clipPath id="clip0_139_461">
<rect width="24" height="24" fill="white"/>
</clipPath>
</defs>
</svg>
