 <svg
                    xmlns="http://www.w3.org/2000/svg"
                    width="51.312"
                    height="51.388"
                    viewBox="0 0 51.312 51.388"
                  >
                    <g id="spyglass" transform="translate(0.25 0.323)">
                      <path
                        id="Path_100002"
                        data-name="Path 100002"
                        d="M50.067,49.326H39.579L28.591,26.738a4.492,4.492,0,0,0,1.269-5.98l.781-.45a1.846,1.846,0,0,0,2.4.508l8.942-5.146a1.846,1.846,0,0,0,2.4.507l2.939-1.691a1.853,1.853,0,0,0,.769-2.317A6.73,6.73,0,0,0,49.918,3.5,6.675,6.675,0,0,0,41.48.745a1.844,1.844,0,0,0-2.394-.5L36.147,1.94a1.841,1.841,0,0,0-.764,2.33L32.818,5.746a.744.744,0,0,0,.743,1.29L36.12,5.564l5.111,8.824L32.3,19.526a.352.352,0,0,1-.48-.127L27.06,11.177a.325.325,0,0,1,.128-.472L30.514,8.79a.744.744,0,1,0-.743-1.29L26.445,9.414a1.839,1.839,0,0,0-.7,2.459l-8.93,5.14a1.849,1.849,0,0,0-.61,2.621l-9.041,5.2a1.844,1.844,0,0,0-2.4-.507l-.948.546a1.834,1.834,0,0,0-.674,2.509L5.785,31.95a1.842,1.842,0,0,0,2.511.671l.948-.546a1.832,1.832,0,0,0,.764-2.329l9.042-5.2A1.942,1.942,0,0,0,20.785,25.7a2.3,2.3,0,0,0,1.248-.436,4.55,4.55,0,0,0,1.329,1.473l-3.993,8.209a.744.744,0,0,0,1.339.651l3.993-8.21a4.51,4.51,0,0,0,2.551,0L37.923,49.326H14.03l5.158-10.6a.744.744,0,1,0-1.339-.651L12.374,49.326H.744a.744.744,0,0,0,0,1.489H50.067a.744.744,0,1,0,0-1.488ZM48.63,4.249a5.193,5.193,0,0,1-1.274,6.616L42.244,2.038A5.184,5.184,0,0,1,48.63,4.249ZM36.762,3.7a.325.325,0,0,1,.128-.472l2.939-1.691a.352.352,0,0,1,.48.127l6.4,11.057a.321.321,0,0,1-.128.472l-2.939,1.691a.352.352,0,0,1-.48-.127ZM8.5,30.786l-.948.546a.352.352,0,0,1-.48-.127L4.429,26.639a.324.324,0,0,1,.128-.472L5.5,25.62a.353.353,0,0,1,.48.127l2.644,4.566A.32.32,0,0,1,8.5,30.786Zm.77-2.333L7.92,26.12l9.032-5.2L18.3,23.254Zm12.184-5.39a4.5,4.5,0,0,0,.068.776l-.566.326a.352.352,0,0,1-.48-.128L17.43,18.776a.324.324,0,0,1,.128-.472l8.932-5.141,3.4,5.863-1.009.581a4.521,4.521,0,0,0-7.421,3.456Zm4.521,3.02a3.02,3.02,0,1,1,3.033-3.02A3.03,3.03,0,0,1,25.977,26.083Z"
                        fill="#fedd49"
                        stroke="#fedd49"
                        stroke-width="0.5"
                      />
                    </g>
                  </svg>